<svg width="100" height="100" viewBox="0 0 100 100" fill="none" xmlns="http://www.w3.org/2000/svg">
<rect width="100" height="100" rx="50" fill="white"/>
<g clip-path="url(#clip0_506_68)">
<path d="M18.1735 42.704L10.0762 60.8327H15.3755L16.9447 56.9891H25.0875L26.6567 60.8327H31.9334L23.8149 42.704H18.1735ZM21.0396 46.9805L22.4046 50.4383L23.7696 53.8961H21.0396H18.3097L19.6747 50.4383L21.0396 46.9805Z" fill="#8C96A1"/>
<path d="M57.4099 42.704L49.3125 60.8327H54.6119L56.1811 56.9891H64.3238L65.893 60.8327H71.1924L63.074 42.704H57.4099ZM60.2987 46.9805L61.6636 50.4383L63.0286 53.8961H60.2987H57.5687L58.9337 50.4383L60.2987 46.9805Z" fill="#8C96A1"/>
<path d="M72.5826 42.636H78.5871L82.4307 48.4362L86.5029 42.636H92.4394L85.2968 51.4385L92.8949 60.9008H86.8904L82.5231 54.7358L78.2467 60.9008H71.832L79.5663 51.5293L72.5826 42.636Z" fill="#8C96A1"/>
<path d="M47.1525 34.9698L39.9646 42.0443L42.4433 44.296L44.7857 41.9308H45.0581V55.4426C45.0581 57.148 43.6704 58.5357 41.965 58.5357H39.5091C37.8037 58.5357 36.416 57.148 36.416 55.4426V54.0096H31.6387V55.8057C31.6387 58.8988 34.14 61.4017 37.2347 61.4017H43.604C46.697 61.4017 49.2 58.9004 49.2 55.8057V41.9535H49.3815L52.1115 44.296L54.2724 42.0443L47.1525 34.9698Z" fill="#8C96A1"/>
<path d="M33.9363 52.5295L41.1242 45.4567L38.6455 43.205L36.303 45.5701H36.0307V32.0583C36.0307 30.3529 37.4184 28.9653 39.1238 28.9653H41.5797C43.2851 28.9653 44.6728 30.3529 44.6728 32.0583V33.4914H49.4501V31.6952C49.4501 28.6021 46.9488 26.0992 43.8541 26.0992H37.4848C34.3918 26.0992 31.8888 28.6005 31.8888 31.6952V45.5474H31.7072L28.9773 43.205L26.8164 45.4567L33.9363 52.5295Z" fill="#8C96A1"/>
<path d="M37.5537 25.6436C34.4607 25.6436 31.9577 28.145 31.9577 31.2397V45.0919H31.7761L29.0462 42.7494L26.8853 45.0011L33.9597 52.0756L41.1477 45.0011L38.669 42.7494L36.3265 45.1146H36.0769V31.6028C36.0769 29.8974 37.4646 28.5097 39.1699 28.5097H41.6259C43.3313 28.5097 44.7189 29.8974 44.7189 31.6028V33.0358H49.4963V31.2397C49.4963 28.1466 46.995 25.6436 43.9003 25.6436H37.5537ZM47.1522 34.5386L39.9643 41.613L42.4429 43.8647L44.7854 41.4996H45.0578V55.0098C45.0578 56.7152 43.6701 58.1028 41.9647 58.1028H39.5087C37.8034 58.1028 36.4157 56.7152 36.4157 55.0098V53.5767H31.6383V55.3729C31.6383 58.4659 34.1397 60.9689 37.2344 60.9689H43.6036C46.6967 60.9689 49.1996 58.4676 49.1996 55.3729V41.5206H49.3812L52.1111 43.8631L54.2721 41.6114L47.1522 34.5386ZM72.5823 42.2031L79.566 51.0737L71.809 60.4453H78.2237L82.5002 54.2819L86.8674 60.4453H92.8946L85.2982 50.983L92.4391 42.2031H86.5253L82.4304 47.9807L78.5868 42.2031H72.5823ZM18.1735 42.2712L10.0762 60.3999H15.3755L16.9447 56.5563H25.0875L26.6567 60.3999H31.9334L23.8149 42.2712H18.1735ZM57.4105 42.2712L49.3131 60.3999H54.6125L56.1817 56.5563H64.3245L65.8937 60.3999H71.193L63.0746 42.2712H57.4105ZM21.0396 46.5476L22.4046 50.0054L23.7696 53.4632H21.0396H18.3097L19.6747 50.0054L21.0396 46.5476ZM60.2993 46.5476L61.6642 50.0054L63.0292 53.4632H60.2993H57.5694L58.9343 50.0054L60.2993 46.5476Z" fill="url(#paint0_linear_506_68)"/>
<path d="M37.5534 25.6437V25.5983C35.9842 25.5983 34.5739 26.2354 33.551 27.2583C32.528 28.2812 31.891 29.6915 31.891 31.2607V45.0676H31.7775L29.0249 42.7024L26.7942 45.0238L33.9595 52.1891L41.2382 45.0238L38.6671 42.704L36.302 45.0919H36.1204V31.6271C36.1204 29.9444 37.4853 28.5795 39.168 28.5795H41.624C43.3067 28.5795 44.6717 29.9444 44.6717 31.6271V33.1282H49.5625V31.2851C49.5625 29.7158 48.9254 28.3055 47.9025 27.2826C46.8796 26.2597 45.4692 25.6226 43.9 25.6226H37.5307V25.6453V25.6907H43.9C46.9704 25.6907 49.4506 28.1693 49.4506 31.2413V32.9921H44.7657V31.6044C44.7657 30.7404 44.4253 29.9444 43.8336 29.3754C43.2646 28.8064 42.4686 28.4433 41.6046 28.4433H39.1486C38.2845 28.4433 37.4886 28.7837 36.9196 29.3754C36.3506 29.9444 35.9875 30.7404 35.9875 31.6044V45.1843H36.3279L38.6477 42.8418L41.0355 45.0028L33.9157 52.0091L26.9093 45.0028L28.9795 42.8418L31.6867 45.1616H31.891H31.9363V31.2413C31.9363 28.1709 34.415 25.6907 37.487 25.6907V25.6453H37.5534V25.6437ZM47.1519 34.5386L47.1065 34.4932L39.8732 41.6131L42.4443 43.9328L44.8095 41.545H44.991V55.0098C44.991 56.6925 43.6261 58.0574 41.9434 58.0574H39.4874C37.8047 58.0574 36.4397 56.6925 36.4397 55.0098V53.5086H31.5489V55.3518C31.5489 56.921 32.186 58.3314 33.2089 59.3543C34.2318 60.3772 35.6422 61.0143 37.2114 61.0143H43.5807C45.1499 61.0143 46.5602 60.3772 47.5831 59.3543C48.6061 58.3314 49.2431 56.921 49.2431 55.3518V41.545H49.3566L52.1092 43.9101L54.3382 41.5904L47.173 34.4251L47.1276 34.4705L47.1519 34.5386L47.1065 34.584L54.1356 41.6131L52.0655 43.774L49.3582 41.4542H49.154H49.1086V55.3745C49.1086 58.4449 46.6299 60.9251 43.558 60.9251H37.1887C34.1183 60.9251 31.6381 58.4465 31.6381 55.3745V53.6237H36.323V55.0098C36.323 55.8738 36.6635 56.6698 37.2552 57.2388C37.8242 57.8078 38.6201 58.1709 39.4842 58.1709H41.9401C42.8042 58.1709 43.6001 57.8305 44.1691 57.2388C44.7381 56.6698 45.1012 55.8738 45.1012 55.0098V41.4299H44.7608L42.441 43.7723L40.0532 41.6114L47.22 34.584L47.1519 34.5386ZM72.582 42.2031L72.5366 42.2485L79.4976 51.0964L71.6953 60.5361H78.2461L82.4999 54.3954L86.8444 60.5361H93.0078L85.3644 51.0057L92.5523 42.1577H86.4797L82.4302 47.8899L78.6093 42.1577H72.4459L72.5139 42.2485L72.582 42.2031V42.2485H78.5639L82.4302 48.0715L86.5251 42.2485H92.3026L85.2055 50.983L92.7565 60.3999H86.8882L82.521 54.1895L78.2218 60.3999H71.9433L79.6322 51.0738L72.6031 42.1577L72.582 42.2031ZM18.1733 42.2712L18.1279 42.2485L10.0078 60.4453H15.4206L16.9899 56.6017H25.0435L26.6127 60.4453H32.0255L23.8601 42.2031H18.1279L18.1052 42.2258L18.1733 42.2712V42.3166H23.792L31.8666 60.3318H26.7035L25.1342 56.4882H16.8991L15.3299 60.3318H10.144L18.196 42.2712H18.1733ZM57.4102 42.2712L57.3648 42.2485L49.2448 60.4453H54.6576L56.2268 56.6017H64.2788L65.848 60.4453H71.2835L63.1197 42.2031H57.3875L57.3648 42.2258L57.4102 42.2712V42.3166H63.0289L71.1036 60.3318H65.9404L64.3712 56.4882H56.1604L54.5911 60.3318H49.4279L57.4799 42.2712H57.4102ZM21.0394 46.5477L20.994 46.5704L22.3589 50.0281L23.7012 53.3952H21.0394H18.3775L19.7198 50.0055L21.0847 46.5477H21.0394L20.994 46.525L19.629 49.9828L18.2413 53.5086H21.062H23.8828L22.4724 49.9828L21.0394 46.4115L20.994 46.5477H21.0394ZM60.299 46.5477L60.2536 46.5704L61.6186 50.0281L62.9608 53.3952H60.299H57.6372L58.9794 50.0055L60.3444 46.5477H60.299L60.2536 46.525L58.8887 49.9828L57.501 53.5086H60.3217H63.1424L61.7321 49.9828L60.299 46.4115L60.2536 46.5477H60.299Z" fill="#0C4C75"/>
</g>
<defs>
<linearGradient id="paint0_linear_506_68" x1="51.4853" y1="25.3658" x2="51.4853" y2="60.8577" gradientUnits="userSpaceOnUse">
<stop stop-color="#70B0DF"/>
<stop offset="0.5" stop-color="#1B81C5"/>
<stop offset="1" stop-color="#4A98CE"/>
</linearGradient>
<clipPath id="clip0_506_68">
<rect width="83" height="83" fill="white" transform="translate(10 2)"/>
</clipPath>
</defs>
</svg>
