<svg width="100" height="100" viewBox="0 0 100 100" fill="none" xmlns="http://www.w3.org/2000/svg">
<rect width="100" height="100" rx="50" fill="white"/>
<g clip-path="url(#clip0_506_66)">
<path d="M24.4971 53.9113C25.3851 55.0222 26.3721 56.1482 27.4581 57.2895C24.3081 58.2543 22.2081 60.0469 20.9181 61.6417C18.8721 64.1465 17.7981 67.4548 18.0381 70.2852H12.5781C13.6701 67.8809 18.0381 60.9417 24.4581 53.9113H24.4971Z" fill="#D1A41A"/>
<path d="M87.5865 71.8678H80.9565C65.7765 63.833 52.4265 58.1722 38.3565 56.9243C38.3865 54.9248 38.7375 52.6635 39.4125 50.1374L38.1075 49.7813C37.4145 52.3743 37.0515 54.7117 37.0095 56.8117C35.5335 56.7113 34.0485 56.6626 32.5395 56.6626C31.2705 56.6626 30.1125 56.7816 29.0595 56.9882C27.6825 55.5943 26.5095 54.2613 25.5195 53.0013C32.0595 46.0926 42.7995 39.8535 52.1895 37.51C54.8265 46.3969 60.4995 52.4839 67.3695 56.5926C67.8735 56.3004 68.3685 55.9961 68.8545 55.6735L80.8545 68.7604L81.3795 68.7148C84.6495 68.429 86.5095 70.2304 87.0195 70.7904C87.3825 71.1982 87.5985 71.5726 87.7185 71.8678H87.5865Z" fill="#D1A41A"/>
<path d="M81.587 27.9809C81.8303 40.0635 75.767 49.6809 67.247 54.6113C52.817 47.3069 50.087 28.833 52.547 19.0026C53.231 22.8069 54.476 25.1809 57.167 26.3374C63.017 24.6361 71.087 24.5022 77.027 26.1639C79.502 24.3378 80.477 21.5378 80.987 19.103C81.641 21.9396 81.566 28.0813 81.569 28.0813L81.587 27.9809Z" fill="#FFDC76"/>
<path d="M41.0879 41.4939L45.2879 39.4243L47.6879 45.9982L41.0879 41.4939Z" fill="black"/>
<path d="M36.377 43.8983L38.987 42.3156L41.387 46.6069L36.377 43.8983Z" fill="black"/>
<path d="M31.3066 47.2156L33.5866 45.6939L34.7266 49.6504L31.3066 47.2156Z" fill="black"/>
<path d="M71.6879 58.1722L70.1879 56.6504L68.0879 59.9982L71.6879 58.1722Z" fill="black"/>
<path d="M74.6867 61.8243L73.4867 60.6069L69.8867 63.0417L74.6867 61.8243Z" fill="black"/>
<path d="M69.2879 24.4504L65.0879 24.5417L67.4879 30.1721L69.2879 24.4504Z" fill="black"/>
<path d="M52.7875 35.133L52.1875 32.7287L56.3875 34.8895L52.7875 35.133Z" fill="black"/>
<path d="M53.6867 38.6939L53.3867 37.1113L55.7867 38.1156L53.6867 38.6939Z" fill="black"/>
<path d="M81.2879 36.1374L81.8879 34.3113L78.5879 35.7113L81.2879 36.1374Z" fill="black"/>
<path d="M80.0863 39.8504L80.3863 38.3591L77.9863 39.0896L80.0863 39.8504Z" fill="black"/>
<path d="M58.8463 44.5678H50.9863V45.5539H58.8463V44.5678Z" fill="black"/>
<path d="M58.8463 42.1939H50.9863V43.18H58.8463V42.1939Z" fill="black"/>
<path d="M82.8463 44.5678H74.9863V45.5539H82.8463V44.5678Z" fill="black"/>
<path d="M82.8463 42.1939H74.9863V43.18H82.8463V42.1939Z" fill="black"/>
<path d="M72.2877 36.3504H59.4477V35.4617H63.4377C63.9297 33.3252 64.0257 31.2922 63.4335 30.2574C63.1803 29.8161 62.8305 29.6122 62.3325 29.6122C60.0495 29.6122 59.0925 32.0622 59.0625 32.1656L59.0631 32.165L58.2441 31.8546C58.2909 31.7268 59.4321 28.7198 62.3241 28.7198C63.1311 28.7198 63.7731 29.0972 64.1811 29.8063C64.9041 31.0663 64.8201 33.2455 64.3293 35.4672H71.3493C72.2793 32.6916 74.2233 31.3889 77.4693 31.3889V32.2776C73.9593 32.2776 72.9693 33.7903 72.2493 35.4733H76.0593L76.0506 36.3559L72.2877 36.3504Z" fill="black"/>
<path d="M72.8869 40.733L72.8925 40.7322C71.8545 39.18 71.5275 37.853 71.9595 36.3495L71.0685 36.354C70.7565 37.3583 70.8825 38.8709 71.6475 40.1583H62.7375C63.2805 39.0566 63.7815 37.7144 64.1475 36.354H63.2415C62.8365 37.8118 62.2695 39.2514 61.6305 40.4018L61.4238 40.7701L66.4338 43.9657L63.6198 45.8466L64.1028 46.5892L67.2528 44.4862L70.6428 46.7323L71.1078 45.9805L67.9578 44.0053C67.9578 44.0053 72.6678 40.9009 72.9078 40.7488C72.9063 40.7467 72.9054 40.7449 72.904 40.7431L72.8869 40.733ZM67.217 43.4143L63.527 41.0556L70.7569 41.0574L67.217 43.4143Z" fill="black"/>
<path d="M82.6966 27.0845C82.6911 25.5476 82.2214 19.0515 81.3601 17.2631C79.0227 18.1694 74.7667 21.1128 73.8163 24.1138C69.2128 23.4106 64.0153 23.4954 59.4415 24.2984C58.6812 21.0549 54.8677 18.5996 51.9868 17.2052C50.7721 19.2998 50.2315 24.1469 50.3711 27.6025C50.3659 27.6061 50.3602 27.6096 50.355 27.6135C50.8896 42.0728 57.8394 51.0758 66.9276 56.5321C76.2831 51.0758 82.9656 40.4359 82.6983 27.0982C82.7021 27.1005 82.7061 27.1023 82.7096 27.1047L82.6966 27.0845ZM74.9152 24.2957C74.949 24.3019 74.9832 24.3084 75.0173 24.3149C74.9835 24.3084 74.9493 24.3019 74.9152 24.2957ZM74.3331 24.1932C74.4147 24.2066 74.4976 24.2217 74.5796 24.236C74.4976 24.2218 74.4153 24.2073 74.3331 24.1932ZM81.2532 28.1339C81.4937 40.1682 75.4914 49.7471 67.0566 54.6578C52.7709 47.3827 50.0682 28.9827 52.5036 19.1916C53.1807 22.9807 54.4103 25.3451 57.0774 26.497C62.8689 24.8025 70.8582 24.6691 76.7388 26.3245C79.189 24.5058 80.1543 21.717 80.6592 19.2919C81.3066 22.1171 81.2324 28.2343 81.2353 28.2343L81.2532 28.1339Z" fill="black"/>
<path d="M87.4493 69.7349C85.9821 68.0586 83.1131 67.2675 80.7074 67.325C79.0026 65.2547 69.1244 54.6239 69.1244 54.6239L68.4383 55.503L80.3777 68.5982L80.8945 68.553C84.1318 68.2696 85.9732 70.0626 86.4781 70.6204C86.8345 71.0296 87.0513 71.4025 87.1701 71.6935H80.6064C65.5782 63.6908 52.3617 58.0526 38.4324 56.8098C38.4633 54.8182 38.8096 52.5659 39.4778 50.0499L38.1888 49.6923C37.5028 52.2749 37.1434 54.603 37.1018 56.6946C35.6406 56.5957 34.1704 56.5445 32.6765 56.5445C31.4172 56.5445 30.2708 56.6639 29.2313 56.8719C27.8681 55.4805 26.7068 54.1558 25.7267 52.9009C32.231 45.9895 42.9824 39.7147 52.3082 37.4109L52.0053 36.0771C41.9667 38.5477 30.9777 45.262 24.8595 51.7793C22.0202 47.8689 20.8797 44.6557 20.553 42.2307C20.1312 39.1691 20.8491 36.35 22.632 34.0765C25.4238 30.5299 29.3739 30.2874 33.4725 30.9846C33.3929 31.6423 33.4776 32.2698 33.7353 32.6578C34.8134 34.2826 40.596 34.8555 44.0709 33.2793C41.5167 29.6417 36.3489 27.8532 34.9233 28.5504C34.4481 28.7869 34.0917 29.2203 33.8452 29.7296C32.4345 29.4722 31.0356 29.281 30.0139 29.287C26.4202 29.314 23.6581 30.5965 21.6088 33.1974C19.5892 35.7589 18.7725 38.9266 19.2477 42.3823C19.6991 45.6561 21.2851 49.1421 23.9403 52.7493C23.4977 53.2343 23.0701 53.7102 22.6602 54.1801C16.1856 61.5765 11.4336 69.5488 11.4336 70.8523V71.5343H19.9872L19.8372 70.725C19.3531 68.118 20.3183 64.8442 22.2964 62.4192C23.5378 60.8914 25.5931 59.1454 28.8304 58.3269C31.6994 61.1854 35.3644 64.2077 39.4333 67.148H45.7891V66.466C45.7891 65.696 45.4149 65.0231 44.7377 64.5684C43.7338 63.8985 42.1835 63.8045 40.7579 64.3013C39.4006 62.7584 38.6373 60.6941 38.474 58.1478C52.2845 59.3967 65.4713 65.0895 80.351 73.0315H88.5482L88.6554 72.4828C88.8086 71.7007 88.3916 70.6549 87.5416 69.6849L87.4493 69.7349ZM21.2183 61.611C19.1927 64.1058 18.1295 67.4008 18.3671 70.2199H12.9617C14.0457 67.8282 18.3671 60.9138 24.7229 53.9115C25.602 55.021 26.5791 56.1395 27.6542 57.2763C24.5357 58.2372 22.4567 60.0226 21.1796 61.611H21.2183Z" fill="black"/>
</g>
<defs>
<clipPath id="clip0_506_66">
<rect width="78" height="56" fill="white" transform="translate(11 17)"/>
</clipPath>
</defs>
</svg>
