<svg width="100" height="100" viewBox="0 0 100 100" fill="none" xmlns="http://www.w3.org/2000/svg">
<circle cx="50" cy="50" r="50" fill="white"/>
<path d="M66.0866 23H33.9066C27.8796 23 23 27.8803 23 33.908V66.0988C23 72.1198 27.8796 77 33.9066 77H66.0934C72.1136 77 77 72.1198 77 66.092V33.908C76.9933 27.8803 72.1136 23 66.0866 23Z" fill="url(#paint0_linear_3623_1093)"/>
<path d="M50.0287 36.0873L51.0916 34.2227C51.7478 33.0573 53.211 32.6644 54.3593 33.3303C55.5076 33.9962 55.8947 35.4813 55.2386 36.6467L44.9959 54.6403H52.404C54.8055 54.6403 56.1506 57.5039 55.1073 59.4884H33.3884C32.063 59.4884 31 58.4096 31 57.0644C31 55.7192 32.063 54.6403 33.3884 54.6403H39.4776L47.2728 40.9287L44.8384 36.64C44.1823 35.4746 44.5694 34.0029 45.7177 33.3236C46.866 32.6577 48.3161 33.0506 48.9854 34.216L50.0287 36.0873ZM40.8162 61.9856L38.5196 66.0279C37.8634 67.1933 36.4002 67.5862 35.2519 66.9202C34.1036 66.2543 33.7165 64.7693 34.3727 63.6039L36.0787 60.6072C38.0078 60.0012 39.576 60.4673 40.8162 61.9856ZM60.5928 54.6537H66.8067C68.1321 54.6537 69.1951 55.7325 69.1951 57.0777C69.1951 58.4229 68.1321 59.5017 66.8067 59.5017H63.3553L65.6847 63.6039C66.3408 64.7693 65.9537 66.241 64.8054 66.9202C63.6571 67.5862 62.207 67.1933 61.5377 66.0279C57.6139 59.1221 54.6677 53.9544 52.7124 50.5115C50.7111 47.0087 52.1415 43.4925 53.5522 42.3005C55.1205 45.0308 57.463 49.153 60.5928 54.6537Z" fill="white"/>
<defs>
<linearGradient id="paint0_linear_3623_1093" x1="49.9966" y1="23" x2="49.9966" y2="77" gradientUnits="userSpaceOnUse">
<stop stop-color="#0ED4FC"/>
<stop offset="1" stop-color="#0C57EF"/>
</linearGradient>
</defs>
</svg>
