<svg width="98" height="100" viewBox="0 0 98 100" fill="none" xmlns="http://www.w3.org/2000/svg">
<ellipse cx="48.7427" cy="50" rx="48.7427" ry="50" fill="white"/>
<mask id="path-2-outside-1_3624_1146" maskUnits="userSpaceOnUse" x="12" y="36" width="72" height="28" fill="black">
<rect fill="white" x="12" y="36" width="72" height="28"/>
<path d="M13.995 62L23.0492 38.0833H27.1492L36.2033 62H31.83L29.8142 56.6017H20.1108L18.095 62H13.995ZM21.4433 53.0483H28.4817L24.9967 43.2083L21.4433 53.0483ZM39.7802 62V38.0833H48.8343C50.8388 38.0833 52.5015 38.4022 53.8227 39.04C55.1665 39.6778 56.1802 40.5547 56.8635 41.6708C57.5468 42.7869 57.8885 44.0739 57.8885 45.5317C57.8885 47.1717 57.4443 48.5953 56.556 49.8025C55.6677 50.9869 54.3352 51.8411 52.5585 52.365L58.5718 62H54.0618L48.766 52.8433H43.8802V62H39.7802ZM43.8802 49.4267H48.151C50.2465 49.4267 51.7043 49.085 52.5243 48.4017C53.3671 47.7183 53.7885 46.7617 53.7885 45.5317C53.7885 44.3017 53.3671 43.345 52.5243 42.6617C51.7043 41.9783 50.2465 41.6367 48.151 41.6367H43.8802V49.4267ZM72.2278 62.3758C70.2689 62.3758 68.5036 61.9658 66.932 61.1458C65.3603 60.3031 64.1075 58.9933 63.1736 57.2167C62.2625 55.4172 61.807 53.0825 61.807 50.2125V49.5292C61.807 47.4564 62.0803 45.6797 62.627 44.1992C63.1736 42.6958 63.9139 41.4658 64.8478 40.5092C65.8045 39.5525 66.9092 38.8464 68.162 38.3908C69.4375 37.9353 70.7928 37.7075 72.2278 37.7075C73.5489 37.7075 74.7789 37.8783 75.9178 38.22C77.0567 38.5389 78.0589 39.0286 78.9245 39.6892C79.79 40.3497 80.4848 41.1697 81.0086 42.1492C81.5325 43.1286 81.8514 44.2789 81.9653 45.6H77.6603C77.3642 44.1194 76.7264 43.0375 75.747 42.3542C74.7903 41.6708 73.6173 41.3292 72.2278 41.3292C71.2256 41.3292 70.2575 41.5911 69.3236 42.115C68.3898 42.6161 67.6153 43.4589 67.0003 44.6433C66.4081 45.8278 66.112 47.4564 66.112 49.5292V50.2125C66.112 51.8525 66.2942 53.2306 66.6586 54.3467C67.0231 55.44 67.5014 56.3056 68.0936 56.9433C68.7086 57.5811 69.3692 58.0481 70.0753 58.3442C70.8042 58.6175 71.5217 58.7542 72.2278 58.7542C73.8678 58.7542 75.132 58.3783 76.0203 57.6267C76.9314 56.8522 77.4781 55.8044 77.6603 54.4833H81.9653C81.8286 55.8956 81.487 57.1028 80.9403 58.105C80.4164 59.1072 79.7103 59.9272 78.822 60.565C77.9564 61.18 76.9656 61.6356 75.8495 61.9317C74.7334 62.2278 73.5261 62.3758 72.2278 62.3758Z"/>
</mask>
<path d="M13.995 62L12.7792 61.5397L12.1128 63.3H13.995V62ZM23.0492 38.0833V36.7833H22.1513L21.8334 37.6231L23.0492 38.0833ZM27.1492 38.0833L28.365 37.6231L28.0471 36.7833H27.1492V38.0833ZM36.2033 62V63.3H38.0855L37.4191 61.5397L36.2033 62ZM31.83 62L30.6121 62.4548L30.9278 63.3H31.83V62ZM29.8142 56.6017L31.032 56.1469L30.7164 55.3017H29.8142V56.6017ZM20.1108 56.6017V55.3017H19.2086L18.893 56.1469L20.1108 56.6017ZM18.095 62V63.3H18.9972L19.3129 62.4548L18.095 62ZM21.4433 53.0483L20.2206 52.6068L19.5917 54.3483H21.4433V53.0483ZM28.4817 53.0483V54.3483H30.3212L29.7071 52.6143L28.4817 53.0483ZM24.9967 43.2083L26.2221 42.7743L25.0086 39.3479L23.774 42.7668L24.9967 43.2083ZM13.995 62L15.2108 62.4603L24.265 38.5436L23.0492 38.0833L21.8334 37.6231L12.7792 61.5397L13.995 62ZM23.0492 38.0833V39.3833H27.1492V38.0833V36.7833H23.0492V38.0833ZM27.1492 38.0833L25.9334 38.5436L34.9875 62.4603L36.2033 62L37.4191 61.5397L28.365 37.6231L27.1492 38.0833ZM36.2033 62V60.7H31.83V62V63.3H36.2033V62ZM31.83 62L33.0479 61.5452L31.032 56.1469L29.8142 56.6017L28.5963 57.0564L30.6121 62.4548L31.83 62ZM29.8142 56.6017V55.3017H20.1108V56.6017V57.9017H29.8142V56.6017ZM20.1108 56.6017L18.893 56.1469L16.8771 61.5452L18.095 62L19.3129 62.4548L21.3287 57.0564L20.1108 56.6017ZM18.095 62V60.7H13.995V62V63.3H18.095V62ZM21.4433 53.0483V54.3483H28.4817V53.0483V51.7483H21.4433V53.0483ZM28.4817 53.0483L29.7071 52.6143L26.2221 42.7743L24.9967 43.2083L23.7713 43.6423L27.2563 53.4823L28.4817 53.0483ZM24.9967 43.2083L23.774 42.7668L20.2206 52.6068L21.4433 53.0483L22.6661 53.4899L26.2194 43.6499L24.9967 43.2083ZM39.7802 62H38.4802V63.3H39.7802V62ZM39.7802 38.0833V36.7833H38.4802V38.0833H39.7802ZM53.8227 39.04L53.2575 40.2107L53.2653 40.2145L53.8227 39.04ZM56.8635 41.6708L57.9722 40.992V40.992L56.8635 41.6708ZM56.556 49.8025L57.596 50.5825L57.6031 50.573L56.556 49.8025ZM52.5585 52.365L52.1908 51.1181L50.5499 51.602L51.4557 53.0533L52.5585 52.365ZM58.5718 62V63.3H60.9156L59.6747 61.3117L58.5718 62ZM54.0618 62L52.9365 62.6509L53.3119 63.3H54.0618V62ZM48.766 52.8433L49.8913 52.1925L49.5159 51.5433H48.766V52.8433ZM43.8802 52.8433V51.5433H42.5802V52.8433H43.8802ZM43.8802 62V63.3H45.1802V62H43.8802ZM43.8802 49.4267H42.5802V50.7267H43.8802V49.4267ZM52.5243 48.4017L51.7056 47.3919L51.6988 47.3974L51.6921 47.403L52.5243 48.4017ZM52.5243 42.6617L51.6921 43.6604L51.6988 43.6659L51.7056 43.6714L52.5243 42.6617ZM43.8802 41.6367V40.3367H42.5802V41.6367H43.8802ZM39.7802 62H41.0802V38.0833H39.7802H38.4802V62H39.7802ZM39.7802 38.0833V39.3833H48.8343V38.0833V36.7833H39.7802V38.0833ZM48.8343 38.0833V39.3833C50.7108 39.3833 52.1649 39.6833 53.2575 40.2107L53.8227 39.04L54.3878 37.8693C52.8382 37.1212 50.9667 36.7833 48.8343 36.7833V38.0833ZM53.8227 39.04L53.2653 40.2145C54.4133 40.7593 55.2206 41.4772 55.7548 42.3496L56.8635 41.6708L57.9722 40.992C57.1397 39.6323 55.9198 38.5963 54.38 37.8655L53.8227 39.04ZM56.8635 41.6708L55.7548 42.3496C56.2991 43.2387 56.5885 44.2854 56.5885 45.5317H57.8885H59.1885C59.1885 43.8624 58.7945 42.3352 57.9722 40.992L56.8635 41.6708ZM57.8885 45.5317H56.5885C56.5885 46.922 56.2173 48.0693 55.5089 49.032L56.556 49.8025L57.6031 50.573C58.6713 49.1213 59.1885 47.4214 59.1885 45.5317H57.8885ZM56.556 49.8025L55.516 49.0225C54.8339 49.932 53.7673 50.6532 52.1908 51.1181L52.5585 52.365L52.9262 53.6119C54.903 53.029 56.5014 52.0419 57.596 50.5825L56.556 49.8025ZM52.5585 52.365L51.4557 53.0533L57.469 62.6883L58.5718 62L59.6747 61.3117L53.6613 51.6767L52.5585 52.365ZM58.5718 62V60.7H54.0618V62V63.3H58.5718V62ZM54.0618 62L55.1872 61.3491L49.8913 52.1925L48.766 52.8433L47.6407 53.4942L52.9365 62.6509L54.0618 62ZM48.766 52.8433V51.5433H43.8802V52.8433V54.1433H48.766V52.8433ZM43.8802 52.8433H42.5802V62H43.8802H45.1802V52.8433H43.8802ZM43.8802 62V60.7H39.7802V62V63.3H43.8802V62ZM43.8802 49.4267V50.7267H48.151V49.4267V48.1267H43.8802V49.4267ZM48.151 49.4267V50.7267C50.3003 50.7267 52.1642 50.394 53.3566 49.4004L52.5243 48.4017L51.6921 47.403C51.2444 47.776 50.1928 48.1267 48.151 48.1267V49.4267ZM52.5243 48.4017L53.3431 49.4114C54.5334 48.4463 55.0885 47.0945 55.0885 45.5317H53.7885H52.4885C52.4885 46.4288 52.2008 46.9903 51.7056 47.3919L52.5243 48.4017ZM53.7885 45.5317H55.0885C55.0885 43.9688 54.5334 42.617 53.3431 41.6519L52.5243 42.6617L51.7056 43.6714C52.2008 44.073 52.4885 44.6345 52.4885 45.5317H53.7885ZM52.5243 42.6617L53.3566 41.663C52.1642 40.6694 50.3003 40.3367 48.151 40.3367V41.6367V42.9367C50.1928 42.9367 51.2444 43.2873 51.6921 43.6604L52.5243 42.6617ZM48.151 41.6367V40.3367H43.8802V41.6367V42.9367H48.151V41.6367ZM43.8802 41.6367H42.5802V49.4267H43.8802H45.1802V41.6367H43.8802ZM66.932 61.1458L66.3176 62.2915L66.3241 62.295L66.3306 62.2984L66.932 61.1458ZM63.1736 57.2167L62.0138 57.8039L62.0183 57.8128L62.0229 57.8215L63.1736 57.2167ZM62.627 44.1992L63.8465 44.6495L63.8487 44.6434L62.627 44.1992ZM64.8478 40.5092L63.9286 39.5899L63.923 39.5955L63.9176 39.6011L64.8478 40.5092ZM68.162 38.3908L67.7247 37.1665L67.7177 37.1691L68.162 38.3908ZM75.9178 38.22L75.5443 39.4652L75.5557 39.4686L75.5673 39.4719L75.9178 38.22ZM78.9245 39.6892L79.7132 38.6557V38.6557L78.9245 39.6892ZM81.9653 45.6V46.9H83.3822L83.2605 45.4883L81.9653 45.6ZM77.6603 45.6L76.3856 45.855L76.5946 46.9H77.6603V45.6ZM75.747 42.3542L74.9914 43.412L74.9972 43.4162L75.0031 43.4203L75.747 42.3542ZM69.3236 42.115L69.9383 43.2605L69.949 43.2547L69.9597 43.2488L69.3236 42.115ZM67.0003 44.6433L65.8466 44.0443L65.842 44.0531L65.8376 44.062L67.0003 44.6433ZM66.6586 54.3467L65.4228 54.7502L65.4254 54.7578L66.6586 54.3467ZM68.0936 56.9433L67.141 57.8279L67.1493 57.8369L67.1578 57.8457L68.0936 56.9433ZM70.0753 58.3442L69.5726 59.543L69.5955 59.5527L69.6189 59.5614L70.0753 58.3442ZM76.0203 57.6267L76.86 58.6191L76.8623 58.6172L76.0203 57.6267ZM77.6603 54.4833V53.1833H76.5273L76.3725 54.3057L77.6603 54.4833ZM81.9653 54.4833L83.2593 54.6086L83.3972 53.1833H81.9653V54.4833ZM80.9403 58.105L79.799 57.4825L79.7935 57.4926L79.7882 57.5028L80.9403 58.105ZM78.822 60.565L79.575 61.6247L79.5802 61.621L78.822 60.565ZM75.8495 61.9317L75.5161 60.6751H75.5161L75.8495 61.9317ZM72.2278 62.3758V61.0758C70.4559 61.0758 68.9005 60.7066 67.5333 59.9933L66.932 61.1458L66.3306 62.2984C68.1068 63.2251 70.0819 63.6758 72.2278 63.6758V62.3758ZM66.932 61.1458L67.5463 60.0002C66.2315 59.2951 65.1532 58.1886 64.3244 56.6118L63.1736 57.2167L62.0229 57.8215C63.0619 59.7981 64.4891 61.311 66.3176 62.2915L66.932 61.1458ZM63.1736 57.2167L64.3335 56.6294C63.5451 55.0724 63.107 52.9591 63.107 50.2125H61.807H60.507C60.507 53.2059 60.98 55.762 62.0138 57.8039L63.1736 57.2167ZM61.807 50.2125H63.107V49.5292H61.807H60.507V50.2125H61.807ZM61.807 49.5292H63.107C63.107 47.5646 63.3668 45.9486 63.8465 44.6495L62.627 44.1992L61.4075 43.7489C60.7938 45.4109 60.507 47.3482 60.507 49.5292H61.807ZM62.627 44.1992L63.8487 44.6434C64.3445 43.2801 64.996 42.2184 65.7781 41.4173L64.8478 40.5092L63.9176 39.6011C62.8319 40.7133 62.0028 42.1116 61.4053 43.7549L62.627 44.1992ZM64.8478 40.5092L65.7671 41.4284C66.5915 40.604 67.5347 40.0022 68.6062 39.6126L68.162 38.3908L67.7177 37.1691C66.2837 37.6906 65.0175 38.501 63.9286 39.5899L64.8478 40.5092ZM68.162 38.3908L68.5992 39.6151C69.7263 39.2126 70.9329 39.0075 72.2278 39.0075V37.7075V36.4075C70.6527 36.4075 69.1488 36.658 67.7247 37.1666L68.162 38.3908ZM72.2278 37.7075V39.0075C73.4363 39.0075 74.5392 39.1636 75.5443 39.4652L75.9178 38.22L76.2914 36.9748C75.0187 36.593 73.6616 36.4075 72.2278 36.4075V37.7075ZM75.9178 38.22L75.5673 39.4719C76.5614 39.7502 77.412 40.1703 78.1358 40.7226L78.9245 39.6892L79.7132 38.6557C78.7058 37.887 77.552 37.3276 76.2683 36.9681L75.9178 38.22ZM78.9245 39.6892L78.1358 40.7226C78.8504 41.268 79.4244 41.9435 79.8623 42.7623L81.0087 42.1492L82.155 41.536C81.5451 40.3959 80.7297 39.4315 79.7132 38.6557L78.9245 39.6892ZM81.0087 42.1492L79.8623 42.7623C80.2887 43.5594 80.5685 44.5327 80.6701 45.7117L81.9653 45.6L83.2605 45.4883C83.1344 44.0251 82.7764 42.6979 82.155 41.536L81.0087 42.1492ZM81.9653 45.6V44.3H77.6603V45.6V46.9H81.9653V45.6ZM77.6603 45.6L78.9351 45.345C78.5914 43.6266 77.8128 42.2103 76.4908 41.288L75.747 42.3542L75.0031 43.4203C75.64 43.8647 76.137 44.6123 76.3856 45.855L77.6603 45.6ZM75.747 42.3542L76.5026 41.2963C75.2875 40.4284 73.8376 40.0292 72.2278 40.0292V41.3292V42.6292C73.3969 42.6292 74.2931 42.9132 74.9914 43.412L75.747 42.3542ZM72.2278 41.3292V40.0292C70.9876 40.0292 69.802 40.356 68.6876 40.9812L69.3236 42.115L69.9597 43.2488C70.713 42.8262 71.4636 42.6292 72.2278 42.6292V41.3292ZM69.3236 42.115L68.709 40.9695C67.4911 41.623 66.5508 42.6879 65.8466 44.0443L67.0003 44.6433L68.1541 45.2424C68.6798 44.2299 69.2884 43.6092 69.9383 43.2605L69.3236 42.115ZM67.0003 44.6433L65.8376 44.062C65.1183 45.5006 64.812 47.3573 64.812 49.5292H66.112H67.412C67.412 47.5555 67.6979 46.155 68.1631 45.2247L67.0003 44.6433ZM66.112 49.5292H64.812V50.2125H66.112H67.412V49.5292H66.112ZM66.112 50.2125H64.812C64.812 51.9395 65.0027 53.4635 65.4229 54.7502L66.6586 54.3467L67.8944 53.9431C67.5857 52.9976 67.412 51.7655 67.412 50.2125H66.112ZM66.6586 54.3467L65.4254 54.7578C65.8304 55.9728 66.3886 57.0176 67.141 57.8279L68.0936 56.9433L69.0463 56.0587C68.6142 55.5935 68.2158 54.9072 67.8919 53.9356L66.6586 54.3467ZM68.0936 56.9433L67.1578 57.8457C67.8764 58.5909 68.6798 59.1687 69.5726 59.543L70.0753 58.3442L70.5781 57.1453C70.0586 56.9275 69.5409 56.5713 69.0294 56.041L68.0936 56.9433ZM70.0753 58.3442L69.6189 59.5614C70.4788 59.8839 71.3506 60.0542 72.2278 60.0542V58.7542V57.4542C71.6928 57.4542 71.1296 57.3511 70.5318 57.1269L70.0753 58.3442ZM72.2278 58.7542V60.0542C74.0509 60.0542 75.6569 59.6371 76.86 58.6191L76.0203 57.6267L75.1806 56.6343C74.6071 57.1195 73.6847 57.4542 72.2278 57.4542V58.7542ZM76.0203 57.6267L76.8623 58.6172C78.0454 57.6115 78.7277 56.2594 78.9481 54.661L77.6603 54.4833L76.3725 54.3057C76.2285 55.3495 75.8174 56.093 75.1784 56.6361L76.0203 57.6267ZM77.6603 54.4833V55.7833H81.9653V54.4833V53.1833H77.6603V54.4833ZM81.9653 54.4833L80.6714 54.3581C80.5476 55.637 80.2441 56.6665 79.799 57.4825L80.9403 58.105L82.0816 58.7275C82.7298 57.539 83.1097 56.1541 83.2593 54.6086L81.9653 54.4833ZM80.9403 58.105L79.7882 57.5028C79.3551 58.3314 78.7815 58.9937 78.0638 59.509L78.822 60.565L79.5802 61.621C80.6391 60.8607 81.4778 59.8831 82.0924 58.7072L80.9403 58.105ZM78.822 60.565L78.069 59.5053C77.3411 60.0225 76.4949 60.4155 75.5161 60.6751L75.8495 61.9317L76.1828 63.1882C77.4363 62.8557 78.5718 62.3375 79.575 61.6247L78.822 60.565ZM75.8495 61.9317L75.5161 60.6751C74.5213 60.9391 73.4273 61.0758 72.2278 61.0758V62.3758V63.6758C73.6249 63.6758 74.9454 63.5165 76.1828 63.1882L75.8495 61.9317Z" fill="#1564A3" mask="url(#path-2-outside-1_3624_1146)"/>
</svg>
