<svg width="100" height="100" viewBox="0 0 100 100" fill="none" xmlns="http://www.w3.org/2000/svg">
<circle cx="50" cy="50" r="50" fill="white"/>
<g clip-path="url(#clip0_1643_4135)">
<path d="M14 50.5C14 41.0848 17.7402 32.0553 24.3977 25.3977C31.0553 18.7402 40.0848 15 49.5 15C58.9152 15 67.9447 18.7402 74.6023 25.3977C81.2598 32.0553 85 41.0848 85 50.5C85 59.9152 81.2598 68.9447 74.6023 75.6023C67.9447 82.2598 58.9152 86 49.5 86C40.0848 86 31.0553 82.2598 24.3977 75.6023C17.7402 68.9447 14 59.9152 14 50.5Z" fill="#1A4A7F"/>
<path fill-rule="evenodd" clip-rule="evenodd" d="M43.6946 85.5208C36.5792 84.3521 29.9902 81.039 24.8086 76.0246L56.7941 46.6661L38.5116 51.1036C37.3014 51.401 36.0441 51.4546 34.813 51.2611C33.5819 51.0677 32.4016 50.6312 31.341 49.9769C30.2803 49.3227 29.3605 48.4638 28.6351 47.4505C27.9098 46.4371 27.3934 45.2895 27.1161 44.0746C26.554 41.6023 26.9848 39.0082 28.316 36.8505C29.6472 34.6928 31.7722 33.1438 34.2338 32.5371L72.2898 23.2893C76.9247 27.1703 80.4917 32.1705 82.6528 37.8162C84.8139 43.4618 85.4975 49.5658 84.6389 55.5497C83.7802 61.5335 81.4078 67.199 77.7463 72.0091C74.0849 76.8192 69.2557 80.6147 63.7166 83.0358C63.6101 81.7756 63.7343 80.4621 64.1781 79.1841L70.2131 61.1856L43.6946 85.5208Z" fill="url(#paint0_linear_1643_4135)"/>
</g>
<defs>
<linearGradient id="paint0_linear_1643_4135" x1="101.08" y1="19.4908" x2="-20.4539" y2="131.014" gradientUnits="userSpaceOnUse">
<stop stop-color="#FFB800"/>
<stop offset="1" stop-color="#FFF11D"/>
</linearGradient>
<clipPath id="clip0_1643_4135">
<rect width="71" height="71" fill="white" transform="translate(14 15)"/>
</clipPath>
</defs>
</svg>
