<svg width="100" height="100" viewBox="0 0 100 100" fill="none" xmlns="http://www.w3.org/2000/svg">
<circle cx="50" cy="50" r="50" fill="white"/>
<g clip-path="url(#clip0_1541_3696)">
<path d="M41.2162 84.7577C42.6489 84.7591 44.0679 84.4782 45.392 83.931C46.7162 83.3839 47.9195 82.5812 48.9334 81.5688C49.9472 80.5565 50.7517 79.3543 51.3008 78.031C51.8498 76.7076 52.1328 75.2891 52.1335 73.8563V61.9257L41.2162 62.9497C39.764 62.9175 38.32 63.1758 36.9689 63.7094C35.6179 64.2429 34.387 65.041 33.3486 66.0567C32.3102 67.0724 31.4851 68.2853 30.9218 69.6242C30.3585 70.9631 30.0684 72.4011 30.0684 73.8537C30.0684 75.3062 30.3585 76.7442 30.9218 78.0831C31.4851 79.422 32.3102 80.6349 33.3486 81.6506C34.387 82.6663 35.6179 83.4644 36.9689 83.9979C38.32 84.5315 39.764 84.7898 41.2162 84.7577Z" fill="#0ACF83"/>
<path d="M30.3086 52.0424C30.31 49.1507 31.4597 46.3779 33.505 44.3337C35.5502 42.2894 38.3236 41.1411 41.2153 41.1411L52.1326 39.3704V62.9491H41.2153C38.3231 62.9477 35.5497 61.7981 33.5046 59.753C31.4596 57.7079 30.31 54.9346 30.3086 52.0424Z" fill="#A259FF"/>
<path d="M30.3086 30.2346C30.3171 27.3475 31.4699 24.5816 33.5144 22.5431C35.5589 20.5046 38.3282 19.3599 41.2153 19.3599H54.0153L52.1326 41.1413H41.2153C38.3231 41.1398 35.5497 39.9903 33.5046 37.9452C31.4596 35.9001 30.31 33.1268 30.3086 30.2346Z" fill="#F24E1E"/>
<path d="M52.1328 19.3599H63.0235C65.8736 19.423 68.5858 20.5995 70.5793 22.6375C72.5727 24.6755 73.689 27.4131 73.689 30.2639C73.689 33.1148 72.5727 35.8523 70.5793 37.8904C68.5858 39.9284 65.8736 41.1049 63.0235 41.1679H52.1328V19.3599Z" fill="#FF7262"/>
<path d="M73.9247 52.0429C73.9257 54.2005 73.2868 56.31 72.0888 58.1044C70.8907 59.8988 69.1874 61.2975 67.1943 62.1237C65.2011 62.9499 63.0077 63.1663 60.8915 62.7456C58.7753 62.325 56.8315 61.2861 55.3058 59.7604C53.7802 58.2348 52.7413 56.2909 52.3206 54.1747C51.9 52.0586 52.1164 49.8652 52.9426 47.872C53.7687 45.8789 55.1675 44.1755 56.9619 42.9775C58.7563 41.7795 60.8657 41.1405 63.0233 41.1416C65.9141 41.143 68.6861 42.292 70.7302 44.3361C72.7743 46.3802 73.9233 49.1522 73.9247 52.0429Z" fill="#1ABCFE"/>
</g>
<defs>
<clipPath id="clip0_1541_3696">
<rect width="80" height="80" fill="white" transform="translate(10 12)"/>
</clipPath>
</defs>
</svg>
