<svg width="101" height="100" viewBox="0 0 101 100" fill="none" xmlns="http://www.w3.org/2000/svg">
<ellipse cx="50.3442" cy="50" rx="50.3442" ry="50" fill="white"/>
<path d="M40.864 30.014C43.7452 29.0536 46.2502 28.4694 48.517 28.2298C50.7398 27.9949 52.4106 27.8857 53.7756 27.8857C55.236 27.8857 56.316 28.0096 57.5539 28.2114L57.9046 25.9876C57.9046 25.9876 54.4864 24.9369 49.9978 25.3042L49.6447 24.0942C51.0385 23.7988 52.0845 22.5619 52.0845 21.0807C52.0845 19.3792 50.7048 18 49.0033 18C47.3014 18 45.9217 19.3792 45.9217 21.0807C45.9217 22.5619 46.9677 23.7983 48.361 24.0937L48.7528 25.4398C43.9872 26.0982 40.1924 27.9604 40.1924 27.9604L40.864 30.014Z" fill="#010001"/>
<path d="M27.3398 39.1161C27.4509 38.9739 27.5605 38.8387 27.6692 38.7068L26.7608 38.0456L25.3358 37.0039C25.2517 37.1188 23.0156 39.1747 21.2489 42.9809C21.1723 42.8609 21.0849 42.7441 20.9847 42.6335C20.4553 42.0493 19.7137 41.7591 18.7751 41.7752C18.7609 41.7757 18.7472 41.7757 18.7335 41.7757C18.1469 41.7757 17.7495 41.5772 17.4848 41.3437C17.7457 41.0119 17.9021 40.5946 17.9021 40.1399C17.9021 39.0623 17.0287 38.1888 15.9511 38.1888C14.8734 38.1888 14 39.0623 14 40.1399C14 41.218 14.8739 42.0909 15.9511 42.0909C16.1184 42.0909 16.2795 42.0678 16.4346 42.0285C16.9152 42.5622 17.6786 43.0272 18.794 43.0074C19.3668 42.9979 19.7832 43.1454 20.0682 43.4578C20.392 43.8123 20.5007 44.3208 20.5328 44.7046C20.5314 44.7094 20.529 44.7146 20.5272 44.7188C19.2534 48.1899 19.6197 52.5074 19.6197 52.5074L22.7013 52.6299C22.7642 51.0569 22.9901 48.308 23.786 46.1211C25.3226 41.899 27.242 39.2489 27.3232 39.1379L27.3398 39.1161Z" fill="#010001"/>
<path d="M80.6106 30.4648C79.5329 30.4648 78.659 31.3388 78.659 32.4159C78.659 32.5832 78.6827 32.7449 78.7219 32.9004C78.1892 33.381 77.7251 34.1443 77.7426 35.2588C77.752 35.8312 77.6046 36.2481 77.2926 36.5331C77.0483 36.7562 76.7307 36.8767 76.432 36.941C74.133 33.7317 71.3066 31.7651 71.3066 31.7651L69.0938 34.1391C70.7674 35.6639 72.4736 37.5677 74.1373 39.9465C75.2839 41.5856 76.4641 43.7087 77.45 45.8195L80.4385 44.4054C80.4385 44.4054 79.0745 41.0335 77.1523 38.0129C77.4869 37.8933 77.8234 37.7156 78.1164 37.4505C78.7006 36.9206 78.9894 36.1772 78.9748 35.2404C78.9653 34.6302 79.1676 34.2209 79.4068 33.9506C79.7385 34.2115 80.1559 34.3679 80.6106 34.3679C81.6882 34.3679 82.5616 33.4945 82.5616 32.4168C82.5616 31.3388 81.6877 30.4648 80.6106 30.4648Z" fill="#010001"/>
<path d="M72.854 57.3089C68.7439 59.31 61.9757 61.9554 53.0744 63.1947C49.5793 63.681 46.189 63.8634 43.0743 63.8634C39.02 63.8634 35.4322 63.5553 32.6824 63.2093C29.5441 62.8147 27.0901 62.3297 25.5871 61.9927C25.5848 61.9918 25.5819 61.9913 25.5791 61.9908C25.9473 63.1587 26.3935 64.2912 26.9096 65.3731C26.9223 65.4 26.9351 65.426 26.9483 65.4525C27.0112 65.5839 27.075 65.7148 27.1402 65.8443C27.2026 65.9676 27.266 66.0905 27.3298 66.2125C27.3468 66.2441 27.3628 66.2767 27.3794 66.3079C28.2632 67.9735 29.3215 69.5006 30.5309 70.825C34.7285 75.4214 39.0077 76.1436 39.0503 76.1507L39.1169 76.1611L39.1803 76.1819C39.2176 76.1941 43.0115 77.4225 48.7824 77.4225C54.4565 77.4225 60.0237 76.2787 65.3295 74.0224C69.2591 72.0122 72.9806 68.9557 74.8168 66.2304C76.2442 64.1253 77.2755 61.8746 77.8847 59.5388C78.2094 58.2948 78.4623 56.313 78.3153 54.2188C77.1559 54.9901 75.3287 56.1036 72.854 57.3089Z" fill="#010001"/>
<path d="M52.7253 60.7538C61.2621 59.5651 67.7491 57.0417 71.6843 55.1346C74.9554 53.5488 77.0582 52.1153 77.8721 51.5231C77.0634 48.5242 74.832 43.8186 72.7827 40.8892C66.9371 32.532 60.6325 30.3867 57.3945 29.8516C56.158 29.6475 55.1683 29.5293 53.7684 29.5293C52.462 29.5293 50.8465 29.6356 48.6832 29.8639C46.5148 30.0936 44.0986 30.6613 41.2978 31.5995C37.3649 32.9172 33.8074 34.9836 31.0093 37.5765L30.9158 37.663C30.4998 38.0486 29.6344 38.8498 28.64 40.1178C28.5171 40.2885 26.7721 42.8143 25.3651 46.6842C24.3097 49.5877 24.3952 53.8192 24.3952 53.8617V53.8736C24.3952 54.8604 24.4141 55.8473 24.5228 56.8257C24.5247 56.8413 24.5077 56.8569 24.5091 56.8725C24.5233 56.9944 24.5294 57.1163 24.545 57.2373C24.546 57.2458 24.5432 57.2544 24.5441 57.2624C24.6306 57.9435 24.7341 58.6198 24.8712 59.2886C24.8726 59.2891 24.8679 59.29 24.8679 59.29V59.2905C26.7584 59.8066 39.1019 62.65 52.7253 60.7538ZM64.4273 38.1744C67.2348 38.1744 69.5111 40.4501 69.5111 43.2576C69.5111 46.0655 67.2348 48.3413 64.4273 48.3413C61.6199 48.3413 59.3436 46.0655 59.3436 43.2576C59.3432 40.4501 61.6199 38.1744 64.4273 38.1744ZM40.3898 37.9687C44.9276 37.9687 48.6062 41.6473 48.6062 46.1847C48.6062 50.7225 44.9276 54.401 40.3898 54.401C35.8525 54.401 32.1739 50.7225 32.1739 46.1847C32.1739 41.6473 35.8525 37.9687 40.3898 37.9687Z" fill="#010001"/>
</svg>
