<svg width="100" height="100" viewBox="0 0 100 100" fill="none" xmlns="http://www.w3.org/2000/svg">
<circle cx="50" cy="50" r="50" fill="white"/>
<g clip-path="url(#clip0_4317_1126)">
<mask id="mask0_4317_1126" style="mask-type:luminance" maskUnits="userSpaceOnUse" x="11" y="10" width="74" height="81">
<path d="M43.9729 19.133C43.9729 19.133 43.9448 19.2495 43.9087 19.4463C43.5753 19.5426 43.242 19.635 42.9086 19.7435C42.4468 19.884 41.9929 20.0527 41.5311 20.2174C41.0772 20.3941 40.6153 20.5708 40.1655 20.7716C39.2578 21.1612 38.3582 21.599 37.4786 22.093C36.6272 22.5709 35.7878 23.097 34.9725 23.6674C34.856 23.6111 34.7636 23.571 34.7636 23.571C26.4379 20.3901 19.044 24.2176 19.044 24.2176C18.3692 33.0734 22.3694 38.6561 23.1606 39.6682C22.9639 40.2144 22.7791 40.7686 22.6104 41.3269C21.9959 43.335 21.5341 45.3954 21.2489 47.524C21.2087 47.8292 21.1726 48.1385 21.1365 48.4477C13.4453 52.2471 11.1641 60.0346 11.1641 60.0346C17.5861 67.4206 25.0724 67.8784 25.0724 67.8784C25.0804 67.8744 25.0844 67.8664 25.0925 67.8623C26.0443 69.5612 27.1448 71.1798 28.3858 72.6859C28.9039 73.3164 29.4501 73.9269 30.0164 74.5173C27.6749 81.2124 30.3457 86.783 30.3457 86.783C37.4947 87.0521 42.1897 83.6543 43.1777 82.8711C43.8886 83.1121 44.6115 83.325 45.3385 83.5137C47.5354 84.08 49.7845 84.4134 52.0336 84.5098C52.5959 84.5339 53.1581 84.5459 53.7164 84.5419H53.9895L54.1662 84.5379L54.5197 84.5258L54.8691 84.5098L54.8771 84.5218C58.2427 89.3253 64.1667 90.004 64.1667 90.004C68.3798 85.562 68.6208 81.1562 68.6208 80.2043C68.6208 80.2043 68.6208 80.1722 68.6208 80.1401C68.6208 80.0597 68.6167 80.0075 68.6167 80.0075C68.6127 79.9393 68.6127 79.875 68.6047 79.8027C69.4883 79.1842 70.3317 78.5175 71.1309 77.8026C72.8178 76.2764 74.2917 74.5414 75.5127 72.6658C75.6291 72.4891 75.7416 72.3124 75.85 72.1316C80.6174 72.4047 83.979 69.1797 83.979 69.1797C83.1878 64.2116 80.3563 61.7898 79.7659 61.3319C79.7659 61.3319 79.7418 61.3118 79.7057 61.2877C79.6735 61.2636 79.6494 61.2476 79.6494 61.2476C79.6213 61.2275 79.5852 61.2034 79.545 61.1793C79.5731 60.8781 79.6012 60.5809 79.6173 60.2836C79.6535 59.7495 79.6655 59.2113 79.6695 58.6812L79.6655 58.2836L79.6615 58.0827V57.9823C79.6615 57.8458 79.6575 57.898 79.6575 57.8458L79.6414 57.5124L79.6173 57.0626C79.6093 56.906 79.5972 56.7734 79.5852 56.6329C79.5731 56.4963 79.5611 56.3557 79.545 56.2192L79.4968 55.8055L79.4406 55.3959C79.3603 54.8496 79.2558 54.3074 79.1313 53.7733C78.6333 51.6326 77.7979 49.6004 76.6935 47.773C75.589 45.9456 74.2154 44.327 72.6692 42.9655C71.1229 41.6 69.3879 40.5035 67.5685 39.6842C65.7491 38.8649 63.8374 38.3388 61.9337 38.0978C60.9818 37.9733 60.034 37.9251 59.0942 37.9371L58.7448 37.9452L58.6564 37.9492C58.6323 37.9492 58.5239 37.9532 58.5359 37.9532L58.3913 37.9612L58.0419 37.9853C57.9094 37.9934 57.7728 38.0054 57.6564 38.0175C57.1744 38.0657 56.6965 38.1299 56.2225 38.2183C54.3349 38.5717 52.5517 39.2545 50.9813 40.1943C49.411 41.1341 48.0454 42.3109 46.9329 43.6443C45.8244 44.9736 44.9609 46.4476 44.3665 47.9738C43.7721 49.5 43.4388 51.0744 43.3464 52.6046C43.3223 52.9861 43.3143 53.3676 43.3223 53.7452C43.3223 53.8375 43.3263 53.9339 43.3303 54.0263L43.3424 54.3315C43.3544 54.5163 43.3705 54.697 43.3866 54.8778C43.4629 55.6529 43.6034 56.3959 43.8123 57.1148C44.226 58.5486 44.8927 59.8459 45.712 60.9463C46.5313 62.0508 47.5113 62.9625 48.5515 63.6734C49.5917 64.3843 50.7042 64.8943 51.8047 65.2196C52.9091 65.545 54.0056 65.6855 55.0378 65.6815C55.1663 65.6815 55.2948 65.6775 55.4233 65.6735C55.4916 65.6735 55.5599 65.6654 55.6281 65.6654C55.6964 65.6614 55.7647 65.6574 55.833 65.6534C55.9414 65.6414 56.0539 65.6333 56.1623 65.6213C56.1864 65.6213 56.2225 65.6132 56.2547 65.6092L56.3551 65.5972C56.4234 65.5891 56.4876 65.5771 56.5559 65.5691C56.6925 65.553 56.8089 65.5249 56.9294 65.5048C57.0499 65.4807 57.1704 65.4566 57.2909 65.4245C57.5278 65.3723 57.7568 65.3 57.9857 65.2317C58.4355 65.0831 58.8572 64.9024 59.2508 64.7015C59.6444 64.5007 60.0059 64.2718 60.3432 64.0348C60.4396 63.9666 60.532 63.8943 60.6244 63.822C60.9858 63.5408 61.0421 63.0107 60.7529 62.6573C60.4999 62.348 60.0661 62.2677 59.7207 62.4605C59.6364 62.5087 59.548 62.5528 59.4597 62.597C59.1584 62.7416 58.8452 62.8782 58.5118 62.9866C58.1785 63.091 57.8331 63.1794 57.4716 63.2436C57.2909 63.2677 57.1101 63.2959 56.9254 63.3119C56.833 63.324 56.7406 63.328 56.6443 63.328C56.5519 63.332 56.4515 63.34 56.3671 63.336C56.2788 63.336 56.1904 63.332 56.098 63.332C55.9856 63.328 55.8731 63.3199 55.7607 63.3159C55.7607 63.3159 55.7045 63.3159 55.7486 63.3119L55.7125 63.3079L55.6362 63.2999C55.584 63.2959 55.5358 63.2918 55.4836 63.2838C55.3832 63.2718 55.2827 63.2597 55.1823 63.2436C54.3751 63.1312 53.5557 62.8942 52.7686 62.5368C51.9774 62.1793 51.2223 61.6893 50.5395 61.0749C49.8568 60.4644 49.2624 59.7254 48.7965 58.89C48.3306 58.0586 48.0053 57.1309 47.8526 56.1589C47.7763 55.673 47.7442 55.1709 47.7563 54.681C47.7643 54.5444 47.7683 54.4119 47.7763 54.2753C47.7763 54.3115 47.7804 54.2552 47.7804 54.2512L47.7844 54.203L47.7924 54.1026C47.7964 54.0343 47.8045 53.9701 47.8125 53.9018C47.8406 53.6367 47.8808 53.3676 47.929 53.1066C48.3025 50.99 49.3628 48.9257 51.0014 47.3553C51.4111 46.9657 51.8529 46.6002 52.3228 46.2789C52.7927 45.9576 53.2947 45.6685 53.8168 45.4275C54.3389 45.1865 54.8851 44.9897 55.4434 44.8371C56.0017 44.6885 56.576 44.5881 57.1583 44.5359C57.4475 44.5118 57.7407 44.4997 58.0339 44.4997C58.1102 44.4997 58.1704 44.5037 58.2307 44.5037L58.4676 44.5118L58.6162 44.5158C58.6765 44.5158 58.6162 44.5158 58.6444 44.5198L58.7046 44.5238L58.9416 44.5399C59.5721 44.5921 60.2027 44.6805 60.8212 44.821C62.0622 45.0981 63.2671 45.552 64.3916 46.1745C66.6407 47.4196 68.5565 49.3674 69.7333 51.717C70.3277 52.8857 70.7373 54.1468 70.9462 55.4481C70.9944 55.7734 71.0345 56.1027 71.0626 56.4321L71.0827 56.6811L71.0948 56.9301C71.0988 57.0144 71.0988 57.0947 71.1028 57.1791C71.1028 57.2594 71.1068 57.3518 71.1068 57.412V57.6249L71.1028 57.8659C71.0948 58.0265 71.0827 58.2876 71.0747 58.4482C71.0466 58.8057 71.0185 59.1671 70.9703 59.5246C70.9261 59.878 70.8659 60.2314 70.8016 60.5849C70.7293 60.9343 70.657 61.2837 70.5646 61.6291C70.3919 62.3239 70.167 63.0027 69.906 63.6694C69.3798 65.0028 68.677 66.2679 67.8296 67.4366C66.1307 69.7701 63.8133 71.6778 61.1786 72.8746C59.8613 73.4691 58.4717 73.9068 57.0419 74.1438C56.327 74.2643 55.604 74.3366 54.8811 74.3607L54.7486 74.3647H54.6321L54.3992 74.3687H54.0417H53.865C53.9654 74.3687 53.8489 74.3687 53.853 74.3647L53.7807 74.3607C53.3911 74.3526 53.0055 74.3326 52.62 74.3044C51.0737 74.188 49.5435 73.9149 48.0615 73.4811C46.5795 73.0514 45.1417 72.477 43.7802 71.7541C41.0611 70.3002 38.6313 68.3082 36.7276 65.9064C35.7717 64.7096 34.9363 63.4244 34.2455 62.0709C33.5547 60.7174 33.0126 59.2997 32.6109 57.8498C32.2133 56.3999 31.9643 54.9139 31.8679 53.4199L31.8518 53.1387L31.8478 53.0704V53.0102L31.8438 52.8857L31.8358 52.6407L31.8318 52.5805V52.4961V52.3234L31.8278 51.974V51.9057C31.8278 51.9178 31.8278 51.9178 31.8278 51.8816V51.7451C31.8278 51.5643 31.8358 51.3796 31.8398 51.1989C31.8679 50.4599 31.9282 49.7008 32.0245 48.9417C32.1209 48.1826 32.2454 47.4196 32.4021 46.6605C32.5587 45.9054 32.7435 45.1544 32.9523 44.4194C33.374 42.9454 33.9001 41.5156 34.5227 40.1662C35.7717 37.4632 37.4104 35.0816 39.3783 33.1618C39.8683 32.6799 40.3784 32.226 40.9085 31.8003C41.4387 31.3746 41.9889 30.981 42.5552 30.6115C43.1175 30.238 43.6998 29.9006 44.2983 29.5873C44.5955 29.4267 44.9007 29.2861 45.2059 29.1375C45.3586 29.0692 45.5152 29.001 45.6678 28.9327C45.8204 28.8644 45.9771 28.7961 46.1337 28.7359C46.7562 28.4708 47.3988 28.2499 48.0414 28.0411C48.2061 27.9929 48.3667 27.9407 48.5274 27.8925C48.688 27.8403 48.8567 27.8041 49.0174 27.7559C49.3427 27.6635 49.676 27.5872 50.0054 27.5029C50.17 27.4587 50.3387 27.4306 50.5034 27.3944C50.6721 27.3583 50.8367 27.3222 51.0054 27.29C51.1741 27.2579 51.3428 27.2298 51.5075 27.1977L51.7605 27.1535L52.0135 27.1133C52.1822 27.0892 52.3509 27.0611 52.5196 27.037C52.7083 27.0049 52.9011 26.9888 53.0899 26.9607C53.2465 26.9406 53.4995 26.9125 53.6562 26.8924C53.7766 26.8804 53.8931 26.8683 54.0136 26.8563L54.2506 26.8322L54.3711 26.8201L54.5116 26.8121C54.7044 26.8 54.8932 26.788 55.086 26.7759L55.3711 26.7559C55.3711 26.7559 55.4755 26.7518 55.3832 26.7518L55.4434 26.7478L55.5639 26.7438C55.7285 26.7358 55.8892 26.7277 56.0539 26.7197C56.7045 26.6996 57.3511 26.6996 57.9897 26.7197C59.2709 26.7719 60.528 26.9125 61.7489 27.1374C64.1948 27.5912 66.4962 28.3784 68.5766 29.4066C70.661 30.4267 72.5286 31.6798 74.1512 33.0413C74.2516 33.1257 74.352 33.214 74.4524 33.2984C74.5528 33.3867 74.6492 33.4711 74.7456 33.5594C74.9424 33.7321 75.1311 33.9128 75.3199 34.0855C75.5087 34.2623 75.6894 34.443 75.8741 34.6197C76.0509 34.8004 76.2316 34.9772 76.4043 35.1619C77.0911 35.8889 77.7297 36.6278 78.304 37.3709C79.4566 38.8529 80.3764 40.3469 81.1114 41.7606C81.1596 41.849 81.2037 41.9373 81.2479 42.0257C81.2921 42.1141 81.3363 42.2024 81.3764 42.2908C81.4608 42.4635 81.5491 42.6362 81.6254 42.8089C81.7058 42.9816 81.7861 43.1503 81.8624 43.3189C81.9347 43.4876 82.007 43.6563 82.0793 43.817C82.3524 44.4796 82.6014 45.1062 82.8062 45.7046C83.1436 46.6645 83.3886 47.532 83.5814 48.283C83.6577 48.5843 83.9428 48.7851 84.2521 48.757C84.5734 48.7289 84.8184 48.4638 84.8264 48.1425C84.8425 47.3352 84.8224 46.3834 84.73 45.299C84.6095 43.9575 84.3806 42.4032 83.9268 40.6963C83.4809 38.9894 82.8183 37.1218 81.8544 35.182C80.8864 33.2461 79.6253 31.23 77.9867 29.2821C77.3481 28.519 76.6493 27.7639 75.8942 27.029C77.0188 22.5548 74.5247 18.6751 74.5247 18.6751C70.2192 18.406 67.4801 20.0126 66.464 20.7475C66.2953 20.6752 66.1227 20.6029 65.95 20.5307C65.215 20.2334 64.4639 19.9563 63.6888 19.7113C62.9137 19.4663 62.1224 19.2414 61.3152 19.0527C60.5039 18.8639 59.6806 18.7032 58.8412 18.5747C58.6926 18.5546 58.548 18.5346 58.3994 18.5105C56.5278 12.5102 51.1339 10 51.1339 10C45.1176 13.7954 43.9729 19.133 43.9729 19.133Z" fill="white"/>
</mask>
<g mask="url(#mask0_4317_1126)">
<path d="M84.8384 9.98401H11.1641V90.0001H84.8384V9.98401Z" fill="url(#paint0_linear_4317_1126)"/>
</g>
</g>
<defs>
<linearGradient id="paint0_linear_4317_1126" x1="47.9927" y1="107.997" x2="47.9927" y2="34.8935" gradientUnits="userSpaceOnUse">
<stop stop-color="#FFF200"/>
<stop offset="1" stop-color="#F15A29"/>
</linearGradient>
<clipPath id="clip0_4317_1126">
<rect width="80" height="80" fill="white" transform="translate(8 10)"/>
</clipPath>
</defs>
</svg>
