<svg width="100" height="100" viewBox="0 0 100 100" fill="none" xmlns="http://www.w3.org/2000/svg">
<circle cx="50" cy="50" r="50" fill="white"/>
<path d="M54.6535 15.3518C57.2566 12.9159 60.3851 11.4655 64.0391 11.0004C64.0458 10.9996 64.0527 11.0001 64.0592 11.0019C64.0657 11.0037 64.0718 11.0068 64.077 11.0111C64.0823 11.0153 64.0866 11.0205 64.0898 11.0264C64.0929 11.0323 64.0948 11.0388 64.0953 11.0455C64.5112 15.4492 62.7497 19.8231 59.6853 22.9873C57.172 25.582 53.6552 27.3603 49.942 27.1749C49.9208 27.1738 49.9008 27.1652 49.8855 27.1507C49.8702 27.1362 49.8607 27.1168 49.8588 27.096C49.4428 22.7323 51.5194 18.2846 54.6535 15.3518ZM38.5338 80.9092C35.6431 80.3981 33.3471 78.2766 31.5596 76.1224C29.6401 73.8105 27.8432 71.2977 26.4072 68.6672C23.1587 62.7144 21.3622 56.3952 21.0177 49.7096C20.9397 48.1894 21.1331 46.4788 21.3379 44.9289C22.0804 39.295 24.8193 34.1845 29.6609 30.9517C32.8469 28.8251 37.3193 27.5785 41.227 28.3775C43.8807 28.9194 46.2973 30.1496 48.8709 30.9332C50.3797 31.3932 51.6369 31.0684 53.0636 30.5399C55.527 29.6282 58.0371 28.5772 60.5816 28.1214C62.2371 27.8254 63.9476 27.896 65.6446 28.1265C70.2709 28.7544 74.3169 31.0787 76.9821 34.8616C76.9858 34.867 76.9885 34.8731 76.9898 34.8796C76.9911 34.886 76.9911 34.8927 76.9897 34.8992C76.9884 34.9057 76.9857 34.9118 76.9819 34.9173C76.9781 34.9229 76.9732 34.9276 76.9675 34.9313C66.0481 41.7647 67.0308 57.046 78.8278 62.3398C78.8409 62.3457 78.8513 62.3561 78.8571 62.369C78.8628 62.3818 78.8635 62.3963 78.859 62.4095C77.5862 66.2269 75.7783 69.7667 73.4352 73.0289C70.5298 77.073 67.2429 81.6355 61.4166 80.7607C59.7467 80.5097 58.2378 79.8419 56.6947 79.2057C53.7069 77.9745 50.682 77.7744 47.62 78.6055C47.1687 78.7277 46.516 78.9558 45.662 79.2897C43.4679 80.1471 40.965 81.3394 38.5338 80.9092Z" fill="#070707"/>
</svg>
