<svg width="100" height="100" viewBox="0 0 100 100" fill="none" xmlns="http://www.w3.org/2000/svg">
<rect width="100" height="100" rx="50" fill="white"/>
<g clip-path="url(#clip0_506_67)">
<path d="M49.9356 68.5725C66.7497 91.4936 83.2046 62.1748 83.1802 44.5434C83.152 23.698 62.0234 12.0475 49.9219 12.0475C30.498 12.0472 12 28.1001 12 50.0641C12 74.4773 33.2043 88 49.9219 88C46.1388 87.4552 33.5315 84.754 33.3622 55.7157C33.2479 36.0763 39.7688 28.2295 49.8946 31.6813C50.1214 31.7653 61.0636 36.0819 61.0636 50.1826C61.0636 64.2236 49.9356 68.5725 49.9356 68.5725Z" fill="url(#paint0_linear_506_67)"/>
<path d="M49.9158 31.6653C38.8055 27.8359 25.1953 36.993 25.1953 55.334C25.1953 85.2818 47.3876 88 50.0779 88C69.5018 88 87.9998 71.9468 87.9998 49.9831C87.9998 25.5699 66.7955 12.0472 50.0779 12.0472C54.7083 11.406 75.0347 17.0585 75.0347 44.8394C75.0347 62.9565 59.8572 72.8193 49.9856 68.6055C49.7587 68.5215 38.8162 64.2049 38.8162 50.1042C38.8162 36.0629 49.9158 31.6653 49.9158 31.6653Z" fill="#282828"/>
</g>
<defs>
<linearGradient id="paint0_linear_506_67" x1="1136.01" y1="1131.36" x2="6813.15" y2="6117.44" gradientUnits="userSpaceOnUse">
<stop/>
<stop offset="1" stop-color="white"/>
</linearGradient>
<clipPath id="clip0_506_67">
<rect width="76" height="76" fill="white" transform="translate(12 12)"/>
</clipPath>
</defs>
</svg>
