<svg width="100" height="100" viewBox="0 0 100 100" fill="none" xmlns="http://www.w3.org/2000/svg">
<rect width="100" height="100" rx="50" fill="white"/>
<path d="M47.3502 21.5914C46.614 20.8389 45.5911 20.3767 44.4522 20.3767C43.9154 20.3746 43.3837 20.4811 42.8892 20.6898C42.3947 20.8986 41.9477 21.2053 41.5751 21.5914H41.5556C40.822 22.3374 40.3659 23.3789 40.3659 24.5298C40.3584 25.6259 40.7862 26.6802 41.5556 27.4616L41.5751 27.4824C41.9493 27.8656 42.3969 28.1695 42.8912 28.376C43.3855 28.5824 43.9164 28.6872 44.4522 28.6841C45.5911 28.6841 46.6127 28.2285 47.3502 27.4824L47.358 27.4616C48.0955 26.7221 48.5307 25.6871 48.5307 24.5298C48.5379 23.4323 48.1113 22.3764 47.3437 21.5914H47.3358H47.3502ZM44.4522 78.4578C45.5911 78.4578 46.6127 77.9866 47.3502 77.2471L47.358 77.2263C48.0955 76.4894 48.5307 75.4479 48.5307 74.3035C48.5307 73.1318 48.0812 72.1085 47.358 71.3587H47.3502C46.614 70.5997 45.5911 70.1401 44.4522 70.1401C43.9149 70.1368 43.3826 70.2433 42.8879 70.4528C42.3931 70.6624 41.9465 70.9706 41.5751 71.3587H41.5556C40.7878 72.1464 40.3606 73.204 40.3659 74.3035C40.3608 75.3965 40.7884 76.4471 41.5556 77.2263L41.5751 77.2471C41.95 77.6298 42.3976 77.934 42.8916 78.1416C43.3856 78.3494 43.9162 78.4577 44.4522 78.4578ZM66.7132 65.8712C67.2362 65.7326 67.7261 65.4903 68.1536 65.1588C68.5811 64.8275 68.9376 64.4135 69.202 63.9418L69.2776 63.796C69.7601 62.8693 69.8755 61.7951 69.6007 60.7873C69.3323 59.751 68.6886 58.8319 67.6957 58.2617L67.6384 58.2226C66.7137 57.7015 65.6202 57.5676 64.5971 57.8503C63.5807 58.1081 62.6686 58.7968 62.1109 59.7862C61.5688 60.7453 61.4211 61.8774 61.6991 62.9433C61.9801 64.0014 62.663 64.9085 63.6029 65.4715H63.6094C64.5867 66.0444 65.6903 66.1446 66.7145 65.8621L66.7132 65.8712ZM48.6454 45.1712C47.573 44.0841 46.0914 43.4006 44.4548 43.4006C43.6748 43.4021 42.9029 43.5593 42.1846 43.8631C41.4663 44.1669 40.816 44.6113 40.2721 45.1699C39.2036 46.2557 38.5469 47.7541 38.5469 49.4206C38.5424 51.0139 39.1616 52.5459 40.2721 53.6895C41.3406 54.77 42.8182 55.447 44.4418 55.447C46.0654 55.447 47.56 54.77 48.6324 53.6895C49.7441 52.546 50.3642 51.0134 50.3602 49.4193C50.3675 47.8302 49.7466 46.3025 48.6324 45.1686L48.6454 45.1712ZM46.2999 38.0915C48.6394 38.4877 50.7919 39.6181 52.445 41.3189H52.4581C52.7209 41.587 52.97 41.8682 53.2047 42.1612L57.2832 39.7358C56.7466 38.0845 56.7003 36.3133 57.1503 34.6363C57.7314 32.4231 59.1439 30.4443 61.2574 29.2036L61.3265 29.1593C62.3168 28.5844 63.4117 28.212 64.5474 28.0639C65.6832 27.9157 66.837 27.9946 67.942 28.2962C69.0639 28.603 70.1139 29.1292 71.0309 29.8444C71.9479 30.5595 72.7138 31.4493 73.2844 32.4622V32.4687C74.4988 34.6038 74.7438 37.0539 74.1665 39.2593C73.588 41.4725 72.1729 43.4644 70.0594 44.6986L69.5017 45.0332H69.4457C67.4911 45.9797 65.3411 46.1268 63.3696 45.5982C61.7175 45.1449 60.2336 44.2202 59.0996 42.9372L55.025 45.3339C55.5091 46.6297 55.7554 48.0022 55.7521 49.3854C55.7521 50.8123 55.4941 52.1897 55.025 53.4551L59.0983 55.8415C60.2619 54.5162 61.7487 53.6283 63.3683 53.1791C65.5444 52.575 67.9524 52.8315 70.0581 54.08L70.1936 54.1451V54.1516C72.1637 55.3625 73.5873 57.2893 74.1652 59.5271C74.7683 61.8169 74.4518 64.2514 73.2831 66.3112L73.2101 66.461L73.2023 66.4479C72.0373 68.4282 70.1494 69.8805 67.9354 70.4994C65.7594 71.0827 63.3488 70.834 61.2444 69.6037V69.5868C59.2085 68.3902 57.7313 66.4353 57.1372 64.1514C56.6866 62.4772 56.7328 60.7082 57.2701 59.0597L53.1917 56.6669C52.9565 56.9554 52.7073 57.232 52.445 57.4962L52.432 57.5092C50.8006 59.1756 48.6532 60.3343 46.2869 60.7183V65.5093C47.9608 65.87 49.4912 66.7155 50.6872 67.9399L50.6938 67.9529C52.2874 69.5647 53.2738 71.8117 53.2738 74.2801C53.2779 76.6418 52.3511 78.9101 50.6938 80.5942L50.6872 80.6203C49.0819 82.2398 46.8824 83.2436 44.4535 83.2436C42.0377 83.2436 39.8304 82.2411 38.2302 80.6203H38.2237V80.5942C36.5647 78.9105 35.6363 76.6415 35.6398 74.2788C35.6398 71.8091 36.6301 69.5634 38.2237 67.9516V67.9386H38.2302C39.4199 66.7079 40.9511 65.8613 42.6267 65.508V60.717C40.2486 60.3317 38.1182 59.1743 36.5024 57.5079L36.4855 57.4949C34.3608 55.3302 33.1722 52.4184 33.1758 49.3867C33.1758 46.2231 34.4501 43.3616 36.4855 41.2851H36.5024C38.1527 39.584 40.3032 38.4533 42.641 38.0577V33.2863C40.971 32.9143 39.4442 32.068 38.2446 30.8492H38.2381V30.8361C36.5782 29.1476 35.65 26.8743 35.6541 24.5076C35.6518 22.1416 36.5797 19.8694 38.2381 18.1805L38.2446 18.1739C39.8447 16.5466 42.052 15.5441 44.4678 15.5441C46.8967 15.5441 49.0975 16.5466 50.7016 18.1739V18.1805H50.7081C52.3017 19.8013 53.2881 22.051 53.2881 24.5076C53.29 26.8728 52.3638 29.1445 50.7081 30.8348L50.7016 30.8478C49.5132 32.0508 47.9965 32.9113 46.3012 33.285V38.0434L46.2999 38.0915ZM69.2137 34.9084L69.1798 34.8564C68.6392 33.9325 67.7588 33.2566 66.7262 32.9725C66.2063 32.8296 65.663 32.7925 65.1285 32.8634C64.594 32.9343 64.0791 33.1117 63.6146 33.3852H63.6211C62.6412 33.9502 61.9858 34.8759 61.7109 35.9109C61.4301 36.9765 61.5778 38.1096 62.1226 39.068L62.1409 39.094C62.7051 40.0704 63.6042 40.7279 64.6075 40.9922C65.6148 41.2812 66.7393 41.1588 67.7061 40.586L67.7582 40.5599C68.7094 39.9819 69.3479 39.068 69.6111 38.0655C69.8809 37.0305 69.774 35.8992 69.2137 34.9084Z" fill="#231F20"/>
</svg>
