<svg width="100" height="100" viewBox="0 0 100 100" fill="none" xmlns="http://www.w3.org/2000/svg">
<circle cx="50" cy="50" r="50" fill="white"/>
<path d="M78.9638 30.6788C78.5693 29.4295 77.6224 28.4145 76.4389 27.7899L52.373 16.3904C51.7417 16.0781 51.0316 16 50.4004 16C49.7691 16 49.059 16 48.4277 16.1562L24.3619 27.6337C23.1783 28.1802 22.3103 29.1953 21.9947 30.5226L16.0769 56.2104C15.8402 57.5378 16.1558 58.8651 16.9448 59.9582L33.5937 80.3367C34.5405 81.2736 35.8819 81.8983 37.2233 81.9763H63.7352C65.1555 82.1325 66.4969 81.5079 67.3648 80.3367L84.0137 59.9582C84.8027 58.8651 85.1184 57.5378 84.9605 56.2104L78.9638 30.6788Z" fill="#326DE6"/>
<path d="M74.5911 55.1419C74.5128 55.1419 74.4345 55.1419 74.4345 55.0631C74.4345 54.9843 74.278 54.9843 74.1214 54.9843C73.8084 54.9055 73.4953 54.9055 73.1822 54.9055C73.0256 54.9055 72.8691 54.9055 72.7125 54.8267H72.6343C71.7732 54.7479 70.834 54.5903 69.973 54.3539C69.7381 54.2751 69.5033 54.0387 69.4251 53.8023L68.7989 53.6447C69.112 51.3594 68.9554 48.9953 68.4858 46.7101C67.9379 44.4248 66.9986 42.2184 65.7462 40.2483L66.2159 39.7755V39.6967C66.2159 39.4603 66.2941 39.1451 66.4507 38.9875C67.1551 38.3571 67.8596 37.8843 68.6423 37.4114C68.7989 37.3326 68.9554 37.2538 69.112 37.175C69.4251 37.0174 69.6599 36.8598 69.973 36.7022C70.0512 36.6234 70.1295 36.6234 70.2078 36.5446C70.2861 36.4658 70.2078 36.4658 70.2078 36.387C70.9122 35.8354 71.0688 34.8898 70.5209 34.1806C70.2861 33.8653 69.8164 33.6289 69.4251 33.6289C69.0337 33.6289 68.6423 33.7865 68.3292 34.023L68.251 34.1018C68.1727 34.1806 68.0944 34.2594 68.0161 34.2594C67.7813 34.4958 67.5465 34.7322 67.39 34.9686C67.3117 35.1262 67.1551 35.205 67.0769 35.2838C66.5289 35.9142 65.8245 36.5446 65.12 37.0174C64.9635 37.0962 64.8069 37.175 64.6504 37.175C64.5721 37.175 64.4156 37.175 64.3373 37.0962H64.259L63.6328 37.4902C63.0067 36.8598 62.3022 36.2294 61.676 35.599C58.7799 33.3137 55.1793 31.8953 51.5005 31.5013L51.4222 30.8709V30.9497C51.1874 30.7921 51.1091 30.5557 51.0309 30.3193C51.0309 29.4524 51.0309 28.5856 51.1874 27.64V27.5612C51.1874 27.4036 51.2657 27.246 51.2657 27.0884C51.344 26.7732 51.344 26.458 51.4222 26.1428V25.6699C51.5005 24.8819 50.8743 24.0939 50.0916 24.0151C49.622 23.9363 49.1523 24.1727 48.761 24.5667C48.4479 24.8819 48.2913 25.2759 48.2913 25.6699V26.064C48.2913 26.3792 48.3696 26.6944 48.4479 27.0096C48.5261 27.1672 48.5261 27.3248 48.5261 27.4824V27.5612C48.6827 28.428 48.6827 29.2948 48.6827 30.2405C48.6044 30.4769 48.5261 30.7133 48.2913 30.8709V31.0285L48.213 31.6589C47.352 31.7377 46.491 31.8953 45.5518 32.0529C41.8729 32.8409 38.5072 34.811 35.9242 37.569L35.4545 37.2538H35.3763C35.298 37.2538 35.2197 37.3326 35.0632 37.3326C34.9066 37.3326 34.7501 37.2538 34.5935 37.175C33.8891 36.6234 33.1846 35.993 32.6367 35.3626C32.5584 35.205 32.4019 35.1262 32.3236 35.0474C32.0888 34.811 31.9322 34.5746 31.6974 34.3382C31.6191 34.2594 31.5409 34.2594 31.4626 34.1806C31.3843 34.1018 31.3843 34.1018 31.3843 34.1018C31.0712 33.8653 30.6799 33.7077 30.2885 33.7077C29.8189 33.7077 29.4275 33.8654 29.1927 34.2594C28.723 34.9686 28.8796 35.9142 29.5058 36.4658C29.584 36.4658 29.584 36.5446 29.584 36.5446C29.584 36.5446 29.7406 36.7022 29.8189 36.7022C30.0537 36.8598 30.3668 37.0174 30.6799 37.175C30.8364 37.2538 30.993 37.3326 31.1495 37.4114C31.9322 37.8843 32.715 38.3571 33.3412 38.9875C33.4977 39.1451 33.6542 39.4603 33.576 39.6967V39.6179L34.0456 40.0907C33.9673 40.2483 33.8891 40.3271 33.8108 40.4847C31.3843 44.346 30.3668 48.9165 31.0712 53.4082L30.445 53.5659C30.445 53.6447 30.3668 53.6447 30.3668 53.6447C30.2885 53.8811 30.0537 54.0387 29.8189 54.1963C28.9579 54.4327 28.0969 54.5903 27.1576 54.6691C27.001 54.6691 26.8445 54.6691 26.6879 54.7479C26.3748 54.7479 26.0618 54.8267 25.7487 54.8267C25.6704 54.8267 25.5921 54.9055 25.4356 54.9055C25.3573 54.9055 25.3573 54.9055 25.279 54.9843C24.418 55.1419 23.8701 55.9299 24.0267 56.7967C24.1832 57.506 24.8877 57.9788 25.5921 57.9C25.7487 57.9 25.8269 57.9 25.9835 57.8212C26.0618 57.8212 26.0618 57.8212 26.0618 57.7424C26.0618 57.6636 26.2966 57.7424 26.3748 57.7424C26.6879 57.6636 27.001 57.506 27.2359 57.4271C27.3924 57.3483 27.5489 57.2695 27.7055 57.2695H27.7838C28.6448 56.9543 29.4275 56.7179 30.3668 56.5603H30.445C30.6799 56.5603 30.9147 56.6391 31.0712 56.7967C31.1495 56.7967 31.1495 56.8755 31.1495 56.8755L31.854 56.7967C33.0281 60.4216 35.2197 63.6525 38.2724 66.0166C38.9768 66.5682 39.603 67.041 40.3857 67.435L39.9944 67.9866C39.9944 68.0654 40.0726 68.0654 40.0726 68.0654C40.2292 68.3018 40.2292 68.617 40.1509 68.8534C39.8378 69.6415 39.3682 70.4295 38.8985 71.1387V71.2175C38.8203 71.3751 38.742 71.4539 38.5855 71.6115C38.4289 71.7691 38.2724 72.0843 38.0375 72.3995C37.9593 72.4783 37.9593 72.5571 37.881 72.6359C37.881 72.6359 37.881 72.7147 37.8027 72.7147C37.4114 73.5028 37.7244 74.4484 38.4289 74.8424C38.5855 74.9212 38.8203 75 38.9768 75C39.603 75 40.1509 74.606 40.464 74.0544C40.464 74.0544 40.464 73.9756 40.5423 73.9756C40.5423 73.8968 40.6206 73.818 40.6988 73.7392C40.7771 73.424 40.9336 73.1875 41.0119 72.8723L41.1685 72.3995C41.4033 71.5327 41.7947 70.7447 42.186 69.9567C42.3426 69.7203 42.5774 69.5627 42.8122 69.4839C42.8905 69.4839 42.8905 69.4839 42.8905 69.4051L43.2036 68.7746C45.3952 69.6415 47.6651 70.0355 50.0133 70.0355C51.4222 70.0355 52.8312 69.8779 54.2401 69.4839C55.1011 69.3263 55.9621 69.011 56.7448 68.7746L57.0579 69.3263C57.1362 69.3263 57.1362 69.3263 57.1362 69.4051C57.371 69.4839 57.6058 69.6415 57.7624 69.8779C58.1537 70.6659 58.5451 71.4539 58.7799 72.3207V72.3995L58.9365 72.8723C59.0147 73.1875 59.093 73.5028 59.2496 73.7392C59.3278 73.818 59.3278 73.8968 59.4061 73.9756C59.4061 73.9756 59.4061 74.0544 59.4844 74.0544C59.7975 74.606 60.3454 75 60.9716 75C61.2064 75 61.3629 74.9212 61.5977 74.8424C61.9108 74.6848 62.2239 74.3696 62.3022 73.9756C62.3805 73.5816 62.3805 73.1875 62.2239 72.7935C62.2239 72.7147 62.1457 72.7147 62.1457 72.7147C62.1457 72.6359 62.0674 72.5571 61.9891 72.4783C61.8326 72.1631 61.676 71.9267 61.4412 71.6903C61.3629 71.5327 61.2847 71.4539 61.1281 71.2963V71.1387C60.5802 70.4295 60.1888 69.6415 59.8757 68.8534C59.7975 68.617 59.7975 68.3018 59.954 68.0654C59.954 67.9866 60.0323 67.9866 60.0323 67.9866L59.7975 67.3562C63.7894 64.9133 66.842 61.1308 68.251 56.6391L68.8771 56.7179C68.9554 56.7179 68.9554 56.6391 68.9554 56.6391C69.112 56.4815 69.3468 56.4027 69.5816 56.4027H69.6599C70.5209 56.5603 71.3819 56.7967 72.1646 57.1119H72.2429C72.3994 57.1907 72.556 57.2695 72.7125 57.2695C73.0256 57.4272 73.2604 57.5848 73.5735 57.6636C73.6518 57.6636 73.7301 57.7424 73.8866 57.7424C73.9649 57.7424 73.9649 57.7424 74.0432 57.8212C74.1997 57.9 74.278 57.9 74.4345 57.9C75.139 57.9 75.7652 57.4272 76 56.7967C75.9217 55.9299 75.2955 55.2995 74.5911 55.1419ZM51.9702 52.699L49.8568 53.7235L47.7434 52.699L47.1955 50.4138L48.6827 48.5225H51.0309L52.5181 50.4138L51.9702 52.699ZM64.7287 47.5769C65.12 49.2317 65.1983 50.8866 65.0418 52.5414L57.6058 50.4138C56.9014 50.2562 56.51 49.5469 56.6665 48.8377C56.7448 48.6013 56.8231 48.4437 56.9796 48.2861L62.8501 42.9276C63.7111 44.346 64.3373 45.9221 64.7287 47.5769ZM60.5019 40.0119L54.0835 44.5824C53.5356 44.8976 52.7529 44.8188 52.3615 44.2672C52.205 44.1096 52.1267 43.952 52.1267 43.7156L51.6571 35.7566C55.1011 36.1506 58.1537 37.6478 60.5019 40.0119ZM46.3345 35.993L47.9 35.6778L47.5086 43.558C47.5086 44.2672 46.8824 44.8188 46.1779 44.8188C45.9431 44.8188 45.7866 44.74 45.5518 44.6612L39.0551 40.0119C41.0902 38.0419 43.5949 36.6234 46.3345 35.993ZM36.7852 42.9276L42.5774 48.1285C43.1253 48.6013 43.2036 49.3893 42.7339 49.941C42.5774 50.1774 42.4208 50.2562 42.1077 50.335L34.5153 52.5414C34.2804 49.2317 35.0632 45.8433 36.7852 42.9276ZM35.4545 56.2451L43.2036 54.9055C43.8298 54.9055 44.4559 55.2995 44.5342 55.9299C44.6125 56.1663 44.6125 56.4815 44.4559 56.7179L41.4816 63.9677C38.742 62.1553 36.5504 59.3972 35.4545 56.2451ZM53.2225 66.0166C52.1267 66.253 51.0309 66.4106 49.8568 66.4106C48.213 66.4106 46.491 66.0954 44.9256 65.6226L48.761 58.6092C49.1523 58.1364 49.7785 57.9788 50.3264 58.294C50.5612 58.4516 50.7178 58.6092 50.9526 58.8456L54.7097 65.7014C54.2401 65.7802 53.7704 65.859 53.2225 66.0166ZM62.7718 59.1608C61.5977 61.052 59.954 62.7069 58.0755 63.8889L55.0228 56.4815C54.8663 55.8511 55.1794 55.2207 55.7273 54.9843C55.9621 54.9055 56.1969 54.8267 56.4317 54.8267L64.259 56.1663C63.8677 57.2695 63.398 58.294 62.7718 59.1608Z" fill="white"/>
</svg>
