<svg width="100" height="100" viewBox="0 0 100 100" fill="none" xmlns="http://www.w3.org/2000/svg">
<rect width="100" height="100" rx="50" fill="white"/>
<g clip-path="url(#clip0_506_65)">
<path d="M28.1101 15.0212C27.9854 15.3139 27.8673 15.6925 27.7575 16.1491L27.6768 16.506C27.6504 16.6297 27.6246 16.7582 27.5993 16.8913L27.5253 17.3044L27.4548 17.7444L27.3881 18.2106L27.3252 18.7022L27.2665 19.2186L27.2119 19.7589C27.2032 19.8509 27.1947 19.9438 27.1863 20.0377L27.1384 20.6125L27.0951 21.2094L27.0565 21.8275C27.0505 21.9323 27.0447 22.0379 27.0391 22.1443L30.8896 23.9974C30.8313 21.7621 30.9037 19.6483 31.1062 17.7063L31.1459 17.3601L31.1185 17.6773L31.0843 18.2016L31.0717 18.4517L31.0506 19.0224L31.0427 19.3434L31.0341 20.0575L31.0353 20.6571L31.0444 21.3123L31.0554 21.7803L31.0803 22.5296L31.103 23.061L31.1309 23.6182C31.136 23.7132 31.1414 23.8093 31.147 23.9064C31.8642 23.3249 32.7232 22.5615 33.6165 21.7269L34.2159 21.1613C34.3163 21.0657 34.4167 20.9695 34.5172 20.8728L35.1186 20.2893L35.7124 19.7029L36.2917 19.1209L36.8492 18.5508C36.2331 17.2992 35.5687 16.3796 34.9508 15.7079L34.7466 15.4931C34.6118 15.3558 34.4798 15.2304 34.3517 15.1157L34.1626 14.9518L33.98 14.8035C33.9203 14.7566 33.8618 14.7122 33.8047 14.6701L33.6375 14.5509L33.4792 14.4453L33.2602 14.3106L33.0656 14.2024L32.8486 14.0953L32.6858 14.0257L32.3888 13.919L32.1725 13.85L31.9614 13.7907L31.8006 13.7505L31.6258 13.7115C31.5957 13.7053 31.565 13.6991 31.5338 13.6931L31.3415 13.659L31.1396 13.6302C30.0751 13.4976 28.6998 13.6367 28.1101 15.0212Z" fill="url(#paint0_linear_506_65)" stroke="black" stroke-width="0.00213333"/>
<path d="M38.2682 61.277L37.7337 59.3353L37.2624 57.6059L37.0618 56.8462L36.6713 55.3454L36.2939 53.8754L35.9187 52.3659C35.8576 52.1166 35.7971 51.8686 35.7373 51.6221L35.388 50.1636L35.037 48.6682C34.8666 47.9314 34.7039 47.2097 34.5496 46.4993L34.2439 45.0766C34.194 44.8428 34.1448 44.6105 34.0963 44.3795L33.891 43.3865L33.4341 41.0527L33.3367 40.5315L33.1388 39.5094L33.0788 39.1707L33.0324 38.9255L32.8475 39.0927L32.4648 38.904L32.4923 39.0293C32.576 39.5382 32.6631 40.052 32.7567 40.5682L33.071 42.238C33.099 42.3893 33.1264 42.5413 33.1528 42.6941C33.3314 43.6288 33.516 44.5589 33.7131 45.4937L33.9145 46.4305C34.1788 47.6898 34.4613 48.9519 34.7466 50.1959C35.0242 51.4295 35.3229 52.6477 35.6216 53.8658C35.8207 54.6778 36.0211 55.4819 36.225 56.2809L36.5338 57.4762C36.8557 58.7256 37.1804 59.9571 37.5184 61.1627C37.5889 61.4339 37.6671 61.7157 37.748 61.9794L38.1509 63.432C38.2853 63.9108 38.4203 64.3852 38.558 64.8575L39.1749 65.1657L39.3809 64.9831C39.3759 64.9544 39.371 64.9257 39.3555 64.9047C38.9471 63.6699 38.6013 62.4539 38.2682 61.277Z" stroke="black" stroke-width="0.00213333"/>
<path d="M31.899 35.2997C31.7212 34.0256 31.559 32.7724 31.4122 31.5403C31.2931 30.517 31.1956 29.509 31.1157 28.511L31.0472 27.6161C31.046 27.5924 31.0454 27.5696 31.0456 27.5479C30.9614 26.3346 30.9004 25.1528 30.8733 23.9947L27.0305 22.152L27.02 22.3862L26.9942 22.8724C26.9559 23.7878 26.9274 24.7606 26.9194 25.783C26.91 26.9355 26.921 28.1377 26.9419 29.3972C26.9691 30.5553 27.0167 31.763 27.0798 32.9917C27.1266 33.7806 27.1776 34.5752 27.2363 35.3804L27.3069 36.3114L32.4476 38.9011L32.2663 37.6947L31.899 35.2997Z" fill="url(#paint1_linear_506_65)" stroke="black" stroke-width="0.00213333"/>
<path d="M39.334 64.985L39.4136 65.2577L39.9241 66.9828C39.9975 67.2277 40.0718 67.4741 40.1474 67.7215L40.391 68.5057L40.4743 68.788C40.4891 68.834 40.5049 68.8798 40.5227 68.9259L41.3508 71.565C42.0843 71.4141 42.9784 71.6863 43.9226 72.0961L44.3029 72.2665C43.6077 71.4347 42.6453 70.8784 41.4954 70.7494C44.6439 68.6614 46.7153 65.9716 46.4244 62.7631C46.3933 62.4792 46.3544 62.1848 46.2974 61.8876C46.2499 63.0706 45.7749 63.9386 44.399 64.8665L44.2296 64.9781C45.6526 62.4873 46.0445 60.7976 45.8763 58.6128C45.8345 58.0946 45.7696 57.5451 45.6738 56.9534C45.2186 60.2062 43.4619 62.3112 40.8926 63.5569L39.334 64.985Z" fill="url(#paint2_linear_506_65)" stroke="black" stroke-width="0.00213333"/>
<path d="M37.4897 61.1672L37.1627 59.9482L36.505 57.4807C36.193 56.2884 35.8915 55.0885 35.5928 53.8704C35.2941 52.6522 35.006 51.4263 34.7178 50.2006C34.4247 48.946 34.15 47.6943 33.8857 46.435L33.6248 45.1898L33.124 42.6988C33.0345 42.2477 32.9527 41.8071 32.8738 41.3484C32.73 40.582 32.5968 39.8079 32.4635 39.0338L32.4361 38.9087L27.3242 36.314L27.341 36.4751C27.3429 36.503 27.3438 36.531 27.3426 36.5588C27.4457 37.7098 27.5461 38.879 27.683 40.054C27.8171 41.2469 27.9695 42.4428 28.1479 43.6519C28.2995 44.6706 28.4617 45.6818 28.6316 46.7035L28.7429 47.3161C28.9783 48.5804 29.2299 49.8007 29.5032 50.9404C29.809 52.2341 30.1365 53.4473 30.4675 54.5773C30.69 55.3185 30.9076 56.0311 31.1308 56.7072L31.3289 57.2769L31.7385 58.4099C32.2271 59.7314 32.7684 61.0145 33.352 62.2668L38.5186 64.8698C38.2433 63.9251 37.989 62.965 37.7087 61.9916L37.5655 61.4459L37.4897 61.1672Z" fill="url(#paint3_linear_506_65)" stroke="black" stroke-width="0.00213333"/>
<path d="M33.4276 62.4371C34.0503 63.7615 34.7295 65.0449 35.4793 66.2766L35.8951 66.9453C35.4056 66.7493 34.7864 66.6518 34.1848 66.6083L33.8861 66.5909C33.8368 66.5886 33.7878 66.5867 33.7392 66.5851L33.4526 66.5789L33.0486 66.5803L32.688 66.5909L32.3846 66.6064L31.9598 66.6412C31.9562 66.6417 31.9551 66.642 31.9551 66.642C34.5676 67.5431 36.8586 68.6465 38.3038 70.3187C37.7295 70.9477 36.6544 71.4257 35.3028 71.815C36.309 71.9235 37.0756 71.8793 37.6284 71.7897L37.8523 71.7487C37.8874 71.7417 37.9215 71.7343 37.9545 71.7268L38.14 71.6811L38.3004 71.6345L38.495 71.567L38.5948 71.5263C37.7647 72.2144 37.2453 73.387 36.8136 74.7013L36.6645 75.1704C36.6401 75.2495 36.6159 75.3288 36.592 75.4084C37.6912 73.6218 38.7815 72.4389 39.8433 71.9866C41.0291 75.8966 42.4005 80.0579 43.9056 84.4003L44.6095 86.4171C44.8473 87.0935 45.088 87.7739 45.3314 88.458C45.6813 88.0089 45.7206 87.5125 45.574 87.0062L45.0928 85.6544L44.5445 84.0743L43.6951 81.5687L42.9993 79.4677L42.2302 77.097L41.4959 74.7841L40.8219 72.6167L40.3261 70.9937L39.9225 69.6537C39.8685 69.4779 39.8192 69.2987 39.7661 69.1176L39.6141 68.6202L39.1783 67.1229L38.7352 65.5825L38.5358 64.8728L38.5281 64.8624L33.3614 62.2594C33.3731 62.3046 33.3861 62.3417 33.4018 62.3792L33.4276 62.4371Z" fill="url(#paint4_linear_506_65)" stroke="black" stroke-width="0.00213333"/>
<path d="M33.0475 39.0115L33.1392 39.5094C33.2054 39.8484 33.267 40.1906 33.3324 40.535L33.8913 43.3865L34.0966 44.3797L34.3957 45.7831C34.4467 46.0202 34.4982 46.2589 34.55 46.4995C34.7043 47.2097 34.8669 47.9314 35.0373 48.6684L35.3883 50.1636L35.7377 51.6222C35.7974 51.8686 35.8579 52.1166 35.9191 52.3659L36.2942 53.8754L36.6694 55.3424C36.8598 56.0838 37.0557 56.8372 37.2628 57.6059C37.4139 58.1734 37.5707 58.7487 37.7311 59.3315L38.2685 61.277L38.6746 62.7069L39.0938 64.1673C39.1649 64.4129 39.2365 64.6595 39.3087 64.9068C39.3137 64.9355 39.3186 64.9642 39.3341 64.9851L40.8927 63.5572L40.8549 63.5728L40.7718 63.6131C42.6215 61.876 44.2066 58.3956 44.569 55.2589C44.7359 53.814 44.7204 52.276 44.5208 50.5985C44.3768 49.3481 44.1209 48.0341 43.7694 46.6126C43.4629 45.384 43.0842 44.0791 42.6223 42.7058C42.3361 43.2856 41.9299 43.8564 41.4322 44.4133L41.1623 44.7073L41.0699 44.8028L40.874 44.9982C42.2383 42.8893 42.4006 40.6247 41.9959 38.2737C41.7479 38.9709 41.2609 40.0041 40.4532 40.9325C40.3499 41.0563 40.2283 41.1773 40.1067 41.2984C40.0856 41.3138 40.0679 41.3338 40.046 41.3546L40.0089 41.3857C40.4616 40.636 40.796 39.9238 41.0102 39.2028C41.0444 39.1025 41.0705 39.0011 41.0938 38.8992L41.1275 38.746C41.1823 38.5124 41.2188 38.2761 41.2552 38.0397L41.3071 37.5823C41.3276 37.3133 41.3334 37.0366 41.3201 36.7559L41.2845 36.2391C41.2811 36.201 41.2765 36.1632 41.2699 36.1249L41.2156 35.7941C41.2065 35.7409 41.1969 35.6888 41.186 35.6375C41.0803 35.0232 40.9643 34.4756 40.8446 33.99L40.7324 33.5539L40.631 33.1858L40.4992 32.7502L40.3279 32.2399C40.3098 32.1885 40.2916 32.1393 40.2732 32.0922L40.1697 31.8349C40.1365 31.7556 40.1047 31.6832 40.0746 31.618L39.9895 31.444C39.9731 31.5098 39.952 31.5789 39.924 31.6484L39.8764 31.7526C39.5546 32.5038 38.806 33.5342 38.1234 34.2582C38.1128 34.2659 38.1023 34.2736 38.0995 34.2918L37.9587 34.4317C37.9347 34.4568 37.9108 34.4833 37.8879 34.5108L37.9146 34.4591L33.0039 38.9304C33.0454 38.9647 33.0504 38.9934 33.0475 39.0115Z" fill="url(#paint5_linear_506_65)" stroke="black" stroke-width="0.00213333"/>
<path d="M31.1484 23.9064C31.1683 24.2631 31.192 24.6348 31.2194 25.0212L31.2789 25.8135C31.2896 25.9488 31.3007 26.0857 31.3121 26.2241L31.3852 27.0739C31.3981 27.2186 31.4113 27.3649 31.4249 27.5128L31.4364 27.6538C31.4392 27.6763 31.443 27.6986 31.4489 27.7212C31.4905 28.1568 31.5367 28.6048 31.5878 29.0669L31.6968 30.0102C31.7353 30.3311 31.7761 30.6587 31.8192 30.9935L32.0236 32.5276C32.1191 33.2242 32.2225 33.9458 32.3382 34.6984L32.4274 35.2688C32.5155 35.8498 32.6133 36.444 32.7169 37.0543L33.0407 38.9359L37.9514 34.4644C38.9753 32.6199 39.1992 31.4722 39.1853 30.0462C39.1804 29.7593 39.1668 29.4607 39.1478 29.1545L39.1271 28.8461C39.0486 27.5965 38.8975 26.2706 38.6832 24.9909C38.4816 23.7504 38.2349 22.5588 37.9525 21.5386C37.7736 20.8785 37.5835 20.2911 37.3899 19.787C37.2139 19.3506 37.0323 18.9507 36.8479 18.5689L36.2911 19.1342C36.1963 19.2297 36.1005 19.3257 36.0041 19.422L35.4172 20.0036L34.8191 20.5869L34.2169 21.1643C34.1166 21.2597 34.0164 21.3545 33.9165 21.4486L33.3214 22.0035C32.5355 22.7289 31.786 23.3895 31.1484 23.9064Z" fill="url(#paint6_linear_506_65)" stroke="black" stroke-width="0.00213333"/>
<path d="M78.4248 15.9806C78.2675 16.0451 78.0961 16.1261 77.9116 16.223L77.625 16.3803C77.4275 16.4931 77.2171 16.6215 76.9947 16.7651L76.6522 16.9917L76.2925 17.2407L75.9158 17.5115L75.523 17.8039C75.4563 17.8544 75.3888 17.9057 75.3206 17.958L74.9048 18.2818L74.4742 18.6262L74.0295 18.9906L73.5715 19.3748L73.1005 19.7782L72.6174 20.2006L72.1226 20.6414C72.0393 20.7164 71.9554 20.7921 71.8711 20.8686L73.4903 25.4025C75.2415 23.5441 77.001 21.8896 78.7273 20.4798L79.3347 19.9898L79.3785 19.9564L78.961 20.2943L78.5512 20.6464L78.1074 21.0457L77.6861 21.4382L77.3321 21.7769L77.0782 22.0245L76.5275 22.5732L76.0777 23.0331L75.4291 23.7127L75.0841 24.0817L74.7257 24.4707L74.1624 25.0923L73.7701 25.5326C74.1729 25.5707 74.6143 25.6036 75.0845 25.6316L75.8098 25.67L76.5705 25.7013L77.3592 25.7256L78.1681 25.7431L78.9896 25.754C79.1271 25.7552 79.2648 25.7563 79.4027 25.757L80.2291 25.7583C80.3663 25.758 80.5034 25.7575 80.6402 25.7567L81.4541 25.7489C81.5887 25.7471 81.7222 25.7451 81.855 25.7428L82.6398 25.7263C83.2839 23.8169 83.4313 22.2816 83.3815 21.1352L83.3641 20.845L83.3391 20.5724C83.3343 20.5285 83.3293 20.4853 83.324 20.4428L83.2895 20.197L83.2502 19.9689C83.2433 19.9324 83.2362 19.8967 83.2291 19.8616L83.1846 19.6605L83.1386 19.4773L83.0915 19.3123L83.0451 19.1653L82.9586 18.9259L82.888 18.7596L82.721 18.4166L82.6233 18.2335L82.5418 18.0897L82.4472 17.9317L82.3399 17.7624L82.2201 17.5845L82.0878 17.4009C81.3491 16.4116 80.0876 15.2984 78.4248 15.9806Z" fill="url(#paint7_linear_506_65)" stroke="black" stroke-width="0.00213333"/>
<path d="M48.966 62.4671L49.6432 61.2418L50.562 59.614L51.3669 58.1941C51.5003 57.9592 51.6336 57.7253 51.7668 57.4919L52.656 55.9595L53.5345 54.4597C53.6797 54.2128 53.8242 53.9674 53.9677 53.7235C54.4214 52.96 54.8735 52.2069 55.3201 51.4701L56.2043 50.0199C56.9728 48.7639 57.7181 47.5639 58.4571 46.4077L59.3477 45.0208C59.4945 44.7932 59.6405 44.5673 59.7859 44.3432L60.4141 43.3814L61.1757 42.244L61.911 41.1418L62.249 40.6453L62.9065 39.6661L63.0194 39.5046L63.2305 39.1929C63.2493 39.1659 63.2684 39.1389 63.2874 39.112L63.0048 39.1006L62.8475 38.6462L62.7697 38.7688C62.4303 39.2446 62.0898 39.7271 61.7529 40.2166L60.6716 41.8092C60.5733 41.9529 60.474 42.0971 60.373 42.2409C59.77 43.1344 59.1753 44.0292 58.5871 44.9374L58.0008 45.8505C57.2074 47.0731 56.4263 48.3124 55.662 49.5393C54.8999 50.7515 54.167 51.9681 53.4341 53.1847C52.9456 53.9957 52.4646 54.8014 51.9903 55.6056L51.2838 56.8118C50.5446 58.072 49.822 59.3198 49.131 60.5574C48.9709 60.8315 48.8086 61.1201 48.6631 61.3963C48.0965 62.3991 47.5487 63.3751 47.0156 64.3532L47.266 65.0887L47.5777 65.1044C47.5966 65.0773 47.6156 65.0504 47.6198 65.0212C48.0585 64.1435 48.5127 63.2944 48.966 62.4671Z" stroke="black" stroke-width="0.00213333"/>
<path d="M65.2708 35.297C66.1456 34.1308 67.0163 32.9939 67.8827 31.8859C68.7848 30.7386 69.695 29.6372 70.6156 28.5669C70.6703 28.5006 70.725 28.4342 70.7776 28.3823C71.6791 27.3391 72.5744 26.3395 73.4778 25.3858L71.8567 20.8664L71.6611 21.0466L71.2519 21.4176C70.4895 22.1243 69.6894 22.885 68.866 23.7017C68.4018 24.1619 67.9318 24.6361 67.4542 25.1241L66.4881 26.1182C66.3252 26.287 66.1614 26.4572 65.9964 26.6289C65.0929 27.5827 64.1664 28.5925 63.2353 29.6315C62.6427 30.3035 62.0489 30.9836 61.4528 31.6781L60.7656 32.4833L62.8348 38.6294L63.6529 37.515L65.2708 35.297Z" fill="url(#paint8_linear_506_65)" stroke="black" stroke-width="0.00213333"/>
<path d="M47.5382 65.0688L47.2304 65.6335L46.417 67.1433C46.2802 67.3984 46.1433 67.6553 46.0065 67.9142L45.576 68.7382C45.4938 68.8897 45.4137 69.0267 45.3462 69.1805L44.8937 70.0488L43.9043 71.9591C44.71 72.4782 45.2478 73.5977 45.72 74.8563C45.8252 73.6373 45.4949 72.4291 44.6723 71.4168C48.8752 72.2234 52.6919 71.6948 55.0213 68.882C55.2232 68.6289 55.4271 68.3612 55.6185 68.0768C54.6324 68.9942 53.5532 69.317 51.6943 68.9721L51.4846 68.9311C54.6206 68.0502 56.286 66.9995 57.8962 65.1079C58.2767 64.6577 58.6635 64.164 59.0591 63.6119C56.0936 65.871 52.9976 66.1776 49.9339 65.1507L47.5382 65.0688Z" fill="url(#paint9_linear_506_65)" stroke="black" stroke-width="0.00213333"/>
<path d="M48.9444 60.8229L49.8168 59.299L51.2589 56.7929C51.9604 55.5865 52.6764 54.3824 53.4093 53.1658C54.1422 51.9492 54.8896 50.7349 55.6371 49.5203C56.4035 48.2789 57.1825 47.0541 57.976 45.8316C58.7527 44.6214 59.5587 43.4155 60.348 42.222C60.6364 41.7882 60.9225 41.3691 61.2256 40.9373C61.7221 40.2068 62.2335 39.4783 62.7447 38.7499L62.8227 38.6275L60.7806 32.5001L60.6654 32.643C60.6446 32.667 60.623 32.6903 60.5998 32.7117C59.7632 33.7197 58.9098 34.7402 58.0812 35.7942C57.236 36.8606 56.4032 37.9436 55.5807 39.058C54.8888 39.9979 54.2113 40.94 53.5317 41.8966L53.132 42.4779C52.3113 43.6816 51.5388 44.8627 50.8481 45.9961C50.0606 47.2791 49.3549 48.5146 48.7185 49.6857C48.3054 50.4582 47.9112 51.2038 47.5506 51.9244C47.2511 52.5351 46.9642 53.1623 46.6793 53.7751C46.0167 55.2249 45.4273 56.6855 44.8965 58.1548L46.9759 64.3322L47.3807 63.5989L48.2083 62.1237C48.347 61.8759 48.4856 61.6266 48.6236 61.3752L48.9444 60.8229Z" fill="url(#paint10_linear_506_65)" stroke="black" stroke-width="0.00213333"/>
<path d="M44.8197 58.3521C44.2627 59.9103 43.784 61.48 43.4035 63.0641L43.2039 63.9308C43.0167 63.5016 42.7157 63.058 42.3766 62.6394L42.1689 62.3916C42.1338 62.3509 42.0984 62.3105 42.0629 62.2705L41.8484 62.0353L41.6337 61.8108L41.4225 61.5989L41.1201 61.3089L40.8458 61.0582L40.5451 60.7956L40.2746 60.5739C41.6576 63.3632 42.6203 66.0616 42.4476 68.5496C41.4828 68.6021 40.2353 68.1375 38.8361 67.3831C39.4384 68.1177 39.9914 68.6358 40.4578 68.9991L40.6668 69.1559C40.7006 69.1803 40.7338 69.2038 40.7665 69.2266L40.9555 69.353L41.1302 69.4608L41.2897 69.5513L41.4333 69.626L41.56 69.6859L41.6692 69.7327C41.6859 69.7394 41.7018 69.7457 41.7169 69.7516C40.5445 69.6535 39.2452 70.1441 37.903 70.8205L37.4541 71.0521L37.0028 71.2944C39.3151 70.7247 41.1381 70.6337 42.3542 71.1085C41.7569 72.233 41.1558 73.3839 40.551 74.5592L39.6412 76.3402C38.2726 79.0384 36.8864 81.8551 35.4863 84.767L34.5508 86.7222C34.2383 87.3785 33.9251 88.0392 33.6113 88.7041C34.252 88.6192 34.6803 88.2504 34.9668 87.727L36.0262 85.4936L37.0011 83.4854L38.2469 80.9636L39.3473 78.7713L40.4375 76.6291L41.4733 74.6199L42.9107 71.8721L43.9313 69.9488L44.282 69.2931L44.5844 68.738L44.8595 68.2173L45.2788 67.4477L46.1385 65.8778C46.2842 65.6127 46.4309 65.3461 46.579 65.0776L46.9856 64.3488L46.9879 64.3342L44.9084 58.1569C44.8817 58.2025 44.8625 58.2427 44.8451 58.2853L44.8197 58.3521Z" fill="url(#paint11_linear_506_65)" stroke="black" stroke-width="0.00213333"/>
<path d="M63.2314 39.1927L62.9075 39.6659C62.69 39.991 62.466 40.3152 62.2435 40.6441L61.1766 42.2438L60.4151 43.3813L60.2221 43.6759C59.9327 44.1169 59.6422 44.5653 59.3488 45.0206L58.458 46.4075C57.8669 47.3326 57.2716 48.2855 56.6638 49.2727L56.2052 50.0197C55.4767 51.2071 54.7249 52.4507 53.9688 53.7233L53.0985 55.2007C52.6595 55.9479 52.2152 56.7092 51.7677 57.4917C51.5022 57.9526 51.2359 58.4206 50.9675 58.8945L49.6441 61.2416L49.2385 61.9728L48.4152 63.4629C48.1386 63.9651 47.8602 64.473 47.5813 64.9855C47.5623 65.0125 47.5434 65.0395 47.5391 65.0686L49.9348 65.1505C49.8929 65.1295 49.8491 65.1231 49.7927 65.1C52.6696 65.1628 56.7267 63.6133 59.5246 61.3746C60.8135 60.3432 62.0297 59.0931 63.2095 57.5848C64.0926 56.4644 64.9365 55.2046 65.7894 53.7824C66.5244 52.5513 67.262 51.2015 67.9874 49.7312C67.2939 49.972 66.5107 50.1105 65.6652 50.1656L65.2131 50.1889C65.1126 50.194 65.013 50.1927 64.9089 50.1929L64.7485 50.1954C67.5318 49.5754 69.4718 47.8806 71.0246 45.6683C70.2678 46.0338 69.0503 46.4808 67.6583 46.59C67.4762 46.608 67.2816 46.6094 67.087 46.6107C67.0577 46.6064 67.0275 46.6086 66.9932 46.608L66.9385 46.604C67.9019 46.3579 68.7402 46.0488 69.4888 45.6376C69.5965 45.5839 69.6984 45.5227 69.7987 45.4593L69.948 45.3625C70.1789 45.2179 70.397 45.0564 70.6153 44.8949L71.0225 44.5676C71.3311 44.3004 71.6294 44.0019 71.9028 43.6699L72.0776 43.4686C72.1051 43.4351 72.1319 43.401 72.157 43.3651L72.3777 43.0557C72.4128 43.0057 72.4467 42.9562 72.4791 42.9064C72.8933 42.3162 73.2432 41.7736 73.5387 41.28L73.6619 41.0714C73.8221 40.7973 73.9632 40.5503 74.0876 40.3156L74.2331 40.0394L74.4536 39.5951C74.4988 39.503 74.5405 39.415 74.5767 39.3311L74.6412 39.1819L74.7507 38.9123C74.783 38.829 74.811 38.7526 74.8343 38.6834L74.8664 38.5852C74.8007 38.6252 74.7283 38.6643 74.6504 38.698L74.5289 38.7443C73.6695 39.0946 72.2437 39.3327 71.1156 39.3764C71.1009 39.3742 71.0863 39.3721 71.0695 39.3846L70.8444 39.3859C70.8048 39.3872 70.7647 39.3896 70.7242 39.3936L70.7871 39.3731L63.2611 39.0929C63.2672 39.1533 63.2482 39.1802 63.2314 39.1927Z" fill="url(#paint12_linear_506_65)" stroke="black" stroke-width="0.00213333"/>
<path d="M73.7725 25.5326C73.5035 25.8353 73.2256 26.1533 72.939 26.486L72.3538 27.1709L71.7453 27.8939L71.0101 28.7767C70.9943 28.7971 70.9797 28.8181 70.9663 28.8408C70.5469 29.3522 70.1164 29.8879 69.6724 30.4514L68.9962 31.3179C68.8817 31.466 68.7663 31.6159 68.6499 31.7676L67.6784 33.0453L67.0431 33.8915C66.7215 34.3227 66.3938 34.7667 66.0597 35.2257L65.7234 35.6898C65.3862 36.1505 65.0472 36.6244 64.7026 37.1114L64.0052 38.1022L63.2871 39.1264L70.8131 39.4066C73.1112 38.7306 74.2083 37.9836 75.3366 36.8247C75.5618 36.59 75.7897 36.3388 76.0189 36.0773L76.2485 35.8127C77.1839 34.7446 78.1216 33.5579 78.9716 32.3585C79.8005 31.2005 80.554 30.0464 81.1418 29.002C81.5252 28.3293 81.8415 27.7062 82.0885 27.1474C82.2955 26.6571 82.4688 26.1917 82.6253 25.7387L81.8447 25.7522L81.0419 25.7605L80.2246 25.7633L79.4005 25.7604C79.2629 25.7594 79.1255 25.7582 78.9882 25.7567L78.1681 25.7448L77.3603 25.7266C77.2271 25.723 77.0947 25.7191 76.9633 25.715L76.1882 25.6869C76.0614 25.6816 75.9359 25.6761 75.8119 25.6702L75.0867 25.6316C74.6168 25.6035 74.1752 25.5706 73.7725 25.5326Z" fill="url(#paint13_linear_506_65)" stroke="black" stroke-width="0.00213333"/>
</g>
<defs>
<linearGradient id="paint0_linear_506_65" x1="229.938" y1="675.026" x2="1476.63" y2="266.189" gradientUnits="userSpaceOnUse">
<stop stop-color="#F69923"/>
<stop offset="0.3123" stop-color="#F79A23"/>
<stop offset="0.8383" stop-color="#E97826"/>
</linearGradient>
<linearGradient id="paint1_linear_506_65" x1="143.96" y1="6637.54" x2="1659.13" y2="588.185" gradientUnits="userSpaceOnUse">
<stop offset="0.3233" stop-color="#9E2064"/>
<stop offset="0.6302" stop-color="#C92037"/>
<stop offset="0.7514" stop-color="#CD2335"/>
<stop offset="1" stop-color="#E97826"/>
</linearGradient>
<linearGradient id="paint2_linear_506_65" x1="287.841" y1="3001.86" x2="1282.98" y2="-1872.11" gradientUnits="userSpaceOnUse">
<stop stop-color="#282662"/>
<stop offset="0.0954839" stop-color="#662E8D"/>
<stop offset="0.7882" stop-color="#9F2064"/>
<stop offset="0.9487" stop-color="#CD2032"/>
</linearGradient>
<linearGradient id="paint3_linear_506_65" x1="365.817" y1="4904.99" x2="2570.99" y2="-487.595" gradientUnits="userSpaceOnUse">
<stop offset="0.3233" stop-color="#9E2064"/>
<stop offset="0.6302" stop-color="#C92037"/>
<stop offset="0.7514" stop-color="#CD2335"/>
<stop offset="1" stop-color="#E97826"/>
</linearGradient>
<linearGradient id="paint4_linear_506_65" x1="463.881" y1="2087.55" x2="2244.5" y2="-143.536" gradientUnits="userSpaceOnUse">
<stop stop-color="#282662"/>
<stop offset="0.0954839" stop-color="#662E8D"/>
<stop offset="0.7882" stop-color="#9F2064"/>
<stop offset="0.9487" stop-color="#CD2032"/>
</linearGradient>
<linearGradient id="paint5_linear_506_65" x1="498.309" y1="6326.43" x2="2117.74" y2="-1382.75" gradientUnits="userSpaceOnUse">
<stop offset="0.3233" stop-color="#9E2064"/>
<stop offset="0.6302" stop-color="#C92037"/>
<stop offset="0.7514" stop-color="#CD2335"/>
<stop offset="1" stop-color="#E97826"/>
</linearGradient>
<linearGradient id="paint6_linear_506_65" x1="210.407" y1="9505.51" x2="1734.22" y2="585.114" gradientUnits="userSpaceOnUse">
<stop offset="0.3233" stop-color="#9E2064"/>
<stop offset="0.6302" stop-color="#C92037"/>
<stop offset="0.7514" stop-color="#CD2335"/>
<stop offset="1" stop-color="#E97826"/>
</linearGradient>
<linearGradient id="paint7_linear_506_65" x1="263.483" y1="618.126" x2="1882.1" y2="184.268" gradientUnits="userSpaceOnUse">
<stop stop-color="#F69923"/>
<stop offset="0.3123" stop-color="#F79A23"/>
<stop offset="0.8383" stop-color="#E97826"/>
</linearGradient>
<linearGradient id="paint8_linear_506_65" x1="-1025.15" y1="7036.75" x2="2242.19" y2="1016.73" gradientUnits="userSpaceOnUse">
<stop offset="0.3233" stop-color="#9E2064"/>
<stop offset="0.6302" stop-color="#C92037"/>
<stop offset="0.7514" stop-color="#CD2335"/>
<stop offset="1" stop-color="#E97826"/>
</linearGradient>
<linearGradient id="paint9_linear_506_65" x1="-268.567" y1="1516.73" x2="1207.41" y2="-976.282" gradientUnits="userSpaceOnUse">
<stop stop-color="#282662"/>
<stop offset="0.0954839" stop-color="#662E8D"/>
<stop offset="0.7882" stop-color="#9F2064"/>
<stop offset="0.9487" stop-color="#CD2032"/>
</linearGradient>
<linearGradient id="paint10_linear_506_65" x1="210.143" y1="5459.77" x2="3524.62" y2="-182.526" gradientUnits="userSpaceOnUse">
<stop offset="0.3233" stop-color="#9E2064"/>
<stop offset="0.6302" stop-color="#C92037"/>
<stop offset="0.7514" stop-color="#CD2335"/>
<stop offset="1" stop-color="#E97826"/>
</linearGradient>
<linearGradient id="paint11_linear_506_65" x1="529.16" y1="2419.61" x2="2348.21" y2="-302.029" gradientUnits="userSpaceOnUse">
<stop stop-color="#282662"/>
<stop offset="0.0954839" stop-color="#662E8D"/>
<stop offset="0.7882" stop-color="#9F2064"/>
<stop offset="0.9487" stop-color="#CD2032"/>
</linearGradient>
<linearGradient id="paint12_linear_506_65" x1="-901.956" y1="4862.36" x2="2919.91" y2="-1296.2" gradientUnits="userSpaceOnUse">
<stop offset="0.3233" stop-color="#9E2064"/>
<stop offset="0.6302" stop-color="#C92037"/>
<stop offset="0.7514" stop-color="#CD2335"/>
<stop offset="1" stop-color="#E97826"/>
</linearGradient>
<linearGradient id="paint13_linear_506_65" x1="-2448.05" y1="3722.24" x2="-0.721184" y2="-333.982" gradientUnits="userSpaceOnUse">
<stop offset="0.3233" stop-color="#9E2064"/>
<stop offset="0.6302" stop-color="#C92037"/>
<stop offset="0.7514" stop-color="#CD2335"/>
<stop offset="1" stop-color="#E97826"/>
</linearGradient>
<clipPath id="clip0_506_65">
<rect width="58" height="75" fill="white" transform="translate(26 14)"/>
</clipPath>
</defs>
</svg>
