<svg width="101" height="100" viewBox="0 0 101 100" fill="none" xmlns="http://www.w3.org/2000/svg">
<ellipse cx="50.3442" cy="50" rx="50.3442" ry="50" fill="white"/>
<path d="M65.1268 43.0973C61.4072 26.6884 53.6546 22.3201 51.677 19.2322C50.8615 17.8719 50.1391 16.4579 49.5147 15C49.4102 16.4577 49.2183 17.3761 47.9793 18.4815C45.4914 20.6996 34.9255 29.3098 34.0363 47.9539C33.2078 65.337 46.8155 76.056 48.6134 77.1639C49.9958 77.8442 51.6794 77.1785 52.5006 76.5541C59.0603 72.0522 68.0227 60.0504 65.134 43.0973" fill="#10AA50"/>
<path d="M50.0827 67.9072C49.7401 72.2099 49.4948 74.7099 48.625 77.1685C48.625 77.1685 49.1959 81.2647 49.5968 85.6038H51.0156C51.3541 82.5482 51.8708 79.5151 52.5632 76.5198C50.7265 75.6161 50.1532 71.6827 50.0827 67.9072Z" fill="#B8C4C2"/>
<path d="M52.5616 76.5239C50.7055 75.6663 50.1685 71.6503 50.0859 67.9089C50.545 61.7371 50.6788 55.5454 50.4868 49.3596C50.3896 46.1138 50.533 19.2968 49.6875 15.3707C50.2658 16.7005 50.9322 17.9901 51.6821 19.2312C53.6597 22.3216 61.4147 26.6898 65.1319 43.0987C68.0279 60.0227 59.114 71.9929 52.5616 76.5239Z" fill="#12924F"/>
</svg>
