<svg width="120" height="100" viewBox="0 0 120 100" fill="none" xmlns="http://www.w3.org/2000/svg">
<ellipse cx="59.6958" cy="50" rx="50.3442" ry="50" fill="white"/>
<path fill-rule="evenodd" clip-rule="evenodd" d="M18.0009 65.0431H20.8126V53.9045L25.2037 63.6159C25.7011 64.7833 26.4156 65.2157 27.7992 65.2157C29.1827 65.2157 29.8546 64.7828 30.3685 63.6159L34.7377 53.9045V65.0431H37.5712V53.9045C37.5712 52.8234 37.1383 52.3033 36.2299 52.0221C34.0886 51.3735 32.661 51.9358 32.0123 53.3843L27.7085 62.9877L23.5555 53.3843C22.9282 51.9358 21.4787 51.3735 19.3161 52.0221C18.429 52.3033 17.9966 52.8229 17.9966 53.9045L17.9961 65.0431H18.0009ZM39.9117 55.9807H42.7452V62.102C42.7239 62.4476 42.8533 63.2266 44.3934 63.2475C45.1933 63.2693 50.4929 63.2475 50.5355 63.2475V55.9371H53.369V65.9516C53.369 68.4171 50.3149 68.9571 48.8916 68.9795H39.9815V67.0985H48.9144C50.7314 66.9037 50.5152 65.9957 50.5152 65.6927V64.9568H44.5234C41.733 64.935 39.9374 63.7022 39.9166 62.2964V55.9798L39.9117 55.9807ZM100.69 48.8861C98.96 48.8425 97.6181 49.016 96.4935 49.4921C96.1696 49.6229 95.6499 49.6229 95.6073 50.0331C95.7803 50.2052 95.8012 50.4868 95.9529 50.7253C96.2123 51.1582 96.667 51.7414 97.0776 52.0439C97.5323 52.3905 97.9865 52.7362 98.4616 53.0391C99.3051 53.5578 100.257 53.8608 101.078 54.38C101.554 54.683 102.03 55.0723 102.506 55.3971C102.748 55.5701 102.895 55.8518 103.198 55.9594V55.894C103.047 55.7001 103.003 55.4189 102.853 55.2017C102.636 54.986 102.42 54.7906 102.203 54.5749C101.576 53.7314 100.797 52.9955 99.9538 52.3905C99.2615 51.9145 97.748 51.2658 97.4669 50.466L97.4242 50.4223C97.8993 50.3787 98.4616 50.2056 98.9163 50.0757C99.6522 49.8818 100.322 49.9245 101.078 49.7301C101.425 49.6428 101.771 49.5352 102.117 49.4271V49.2332C101.728 48.8439 101.447 48.3247 101.036 47.9573C99.9334 47.0057 98.7215 46.0754 97.4669 45.2968C96.7964 44.8644 95.9311 44.5828 95.2175 44.2158C94.9572 44.0859 94.5253 44.0209 94.374 43.8047C93.9838 43.3296 93.7681 42.7018 93.4869 42.139C92.8601 40.9494 92.2541 39.6303 91.7136 38.3757C91.3243 37.5322 91.0858 36.6887 90.6107 35.9102C88.3827 32.2332 85.9598 30.0056 82.2397 27.8208C81.4398 27.3665 80.4882 27.1712 79.4765 26.9336L77.8544 26.8464C77.5078 26.6951 77.1622 26.284 76.8592 26.0892C75.6264 25.3106 72.4468 23.6236 71.5378 25.8516C70.9537 27.2575 72.4031 28.6415 72.8952 29.3556C73.2636 29.8529 73.7387 30.4153 73.999 30.9776C74.1444 31.3451 74.1929 31.7348 74.3447 32.1241C74.6903 33.0757 75.0151 34.1359 75.4693 35.023C75.7117 35.4773 75.9662 35.9538 76.2692 36.3644C76.4423 36.6019 76.7453 36.7105 76.8097 37.0998C76.5067 37.5327 76.4859 38.1808 76.3128 38.7223C75.5338 41.1666 75.8368 44.1945 76.9396 45.9891C77.2863 46.5296 78.1031 47.7197 79.2113 47.265C80.1847 46.8757 79.9675 45.643 80.2487 44.5614C80.3142 44.3021 80.2705 44.129 80.4 43.9555V43.9991L81.2871 45.7942C81.9575 46.8539 83.1258 47.9573 84.0988 48.6931C84.6175 49.0824 85.0286 49.7533 85.6772 49.9909V49.9254H85.6345C85.5046 49.7315 85.3097 49.6443 85.1367 49.493C84.7474 49.1038 84.315 48.6277 84.012 48.1953C83.104 46.9843 82.3041 45.643 81.5901 44.2589C81.2435 43.5885 80.9405 42.8531 80.6603 42.1826C80.5294 41.9228 80.5294 41.5331 80.3137 41.4041C79.9889 41.8792 79.5138 42.2912 79.2748 42.8749C78.8637 43.8047 78.821 44.9512 78.6698 46.1408C78.5825 46.1626 78.6213 46.1408 78.5825 46.1845C77.8913 46.0119 77.6527 45.2973 77.3934 44.6923C76.7448 43.1566 76.6362 40.691 77.1985 38.9172C77.3498 38.463 77.9994 37.0353 77.74 36.6029C77.6091 36.1918 77.1777 35.9543 76.9392 35.6295C76.658 35.2184 76.356 34.6997 76.1611 34.2455C75.6424 33.0335 75.383 31.6931 74.8202 30.4817C74.5599 29.9193 74.1061 29.3352 73.7382 28.8165C73.3271 28.2323 72.8739 27.8212 72.5491 27.1295C72.441 26.8919 72.2897 26.5022 72.4628 26.2423C72.5054 26.0693 72.5927 26.0048 72.7648 25.9612C73.0459 25.7236 73.8468 26.0261 74.128 26.1551C74.9278 26.4799 75.5983 26.7824 76.2687 27.2361C76.5717 27.4523 76.8965 27.8634 77.2858 27.972H77.7405C78.4327 28.1233 79.2108 28.0156 79.859 28.2096C81.0054 28.578 82.0433 29.118 82.9741 29.7027C85.8071 31.4978 88.1437 34.0501 89.7221 37.1003C89.9815 37.5977 90.0896 38.0519 90.3281 38.5711C90.7828 39.6313 91.3452 40.7123 91.7984 41.7512C92.2531 42.7678 92.6856 43.8066 93.3342 44.6501C93.659 45.1044 94.9562 45.3419 95.5399 45.5799C95.9728 45.7738 96.6428 45.9484 97.033 46.1859C97.7679 46.6401 98.5033 47.1593 99.1951 47.6567C99.5407 47.9156 100.623 48.4566 100.687 48.888L100.69 48.8861ZM78.6325 30.0905C78.3336 30.0878 78.0357 30.1242 77.7463 30.1986V30.2422H77.789C77.962 30.5883 78.265 30.8264 78.4812 31.1293L78.9791 32.1677L79.0217 32.1241C79.3247 31.9079 79.4765 31.5618 79.4765 31.043C79.3465 30.8918 79.3252 30.7401 79.2171 30.5888C79.0872 30.3726 78.806 30.264 78.6325 30.0914V30.0905Z" fill="#00678C"/>
<path fill-rule="evenodd" clip-rule="evenodd" d="M55.5273 65.0431H63.6599C64.6115 65.0431 65.5205 64.8492 66.2554 64.5026C67.4881 63.9402 68.0723 63.184 68.0723 62.1888V60.1125C68.0723 59.3126 67.4019 58.5549 66.0615 58.0362C65.3692 57.7768 64.5039 57.6251 63.6604 57.6251H60.2427C59.0962 57.6251 58.5557 57.2785 58.404 56.5222C58.3827 56.436 58.3827 56.3492 58.3827 56.2629V54.9865C58.3827 54.921 58.3827 54.8352 58.404 54.749C58.5552 54.1648 58.8582 54.0131 59.8583 53.9054H68.1853V52.0231H60.2689C59.1224 52.0231 58.5169 52.0885 57.9759 52.2616C56.3103 52.7803 55.5749 53.6025 55.5749 55.051V56.6958C55.5749 57.9708 57.0025 59.0532 59.4249 59.3126C59.6843 59.3344 59.9654 59.3344 60.2466 59.3344H63.1669C63.275 59.3344 63.3826 59.3344 63.4689 59.3562C64.356 59.4425 64.7453 59.5938 65.0047 59.9176C65.1777 60.0907 65.2214 60.2424 65.2214 60.4373V62.0807C65.2214 62.2746 65.0914 62.5354 64.8321 62.7511C64.5727 62.9668 64.1607 63.1186 63.6201 63.1404C63.512 63.1404 63.4481 63.1622 63.339 63.1622H55.5273V65.0431ZM85.6778 61.7777C85.6778 63.7022 87.1321 64.7833 90.0262 65.0004C90.3074 65.0223 90.5667 65.0431 90.8479 65.0431H98.2019V63.1622H90.7834C89.1386 63.1622 88.5118 62.7511 88.5118 61.7563V52.0231H85.6725V61.7782L85.6778 61.7777ZM69.8669 61.8635V55.1591C69.8669 53.4502 71.0779 52.4114 73.4363 52.0875C73.6957 52.0657 73.955 52.0439 74.1926 52.0439H79.5561C79.8373 52.0439 80.0758 52.0657 80.3569 52.0875C82.7144 52.4114 83.9035 53.4498 83.9035 55.1591V61.8635C83.9035 63.2475 83.4066 63.9834 82.2379 64.4813L85.0059 66.9895H81.7405L79.4911 64.9568L77.2195 65.0867H74.1916C73.6368 65.084 73.0845 65.0115 72.5477 64.871C70.7541 64.3727 69.8669 63.4215 69.8669 61.8635ZM72.9162 61.7132C72.9162 61.7995 72.9646 61.8853 72.9816 61.9944C73.1328 62.7724 73.8678 63.2053 74.9924 63.2053H77.5453L75.2096 61.0854H78.475L80.5295 62.946C80.9198 62.7293 81.1573 62.4263 81.2436 62.037C81.2654 61.9507 81.2654 61.8431 81.2654 61.7559V55.3316C81.2654 55.2454 81.2654 55.1596 81.2436 55.0723C81.0923 54.3374 80.3574 53.9268 79.2541 53.9268H74.9929C73.7383 53.9268 72.9166 54.4673 72.9166 55.3316L72.9162 61.7132Z" fill="#CE8B2C"/>
</svg>
