<svg width="101" height="100" viewBox="0 0 101 100" fill="none" xmlns="http://www.w3.org/2000/svg">
<ellipse cx="50.3442" cy="50" rx="50.3442" ry="50" fill="white"/>
<g clip-path="url(#clip0_3560_3309)">
<path d="M49.7209 73.527C49.4734 73.527 49.2275 73.4621 49.0105 73.3371L46.7494 71.9985C46.4116 71.8096 46.5764 71.7428 46.6878 71.7043C47.1381 71.5466 47.2295 71.511 47.7101 71.2381C47.7607 71.2092 47.8268 71.2194 47.8785 71.2499L49.6156 72.2807C49.6783 72.3146 49.7674 72.3146 49.8255 72.2807L56.5987 68.3711C56.6614 68.3355 56.7021 68.2626 56.7021 68.188V60.3722C56.7021 60.2942 56.6614 60.2247 56.5973 60.1857L49.8269 56.2795C49.7641 56.2422 49.6811 56.2422 49.6183 56.2795L42.8492 60.1857C42.7836 60.223 42.7419 60.2959 42.7419 60.3705V68.1863C42.7419 68.2609 42.7826 68.3321 42.847 68.3677L44.7018 69.4392C45.7089 69.9428 46.3243 69.3494 46.3243 68.7526V61.0385C46.3243 60.9283 46.4108 60.8435 46.521 60.8435H47.3789C47.4857 60.8435 47.5738 60.9283 47.5738 61.0385V68.756C47.5738 70.0987 46.8414 70.8702 45.5682 70.8702C45.1765 70.8702 44.868 70.8702 44.0067 70.4463L42.2299 69.4223C41.7908 69.168 41.5195 68.6933 41.5195 68.1863V60.3705C41.5195 59.8619 41.7908 59.3872 42.2299 59.1362L49.0099 55.2249C49.4388 54.9825 50.0084 54.9825 50.434 55.2249L57.2055 59.1379C57.6429 59.3905 57.9158 59.8636 57.9158 60.3722V68.188C57.9158 68.6949 57.6429 69.168 57.2055 69.4223L50.434 73.3336C50.217 73.459 49.9711 73.5235 49.7202 73.5235" fill="#689F63"/>
<path d="M51.8154 68.1414C48.8518 68.1414 48.2305 66.781 48.2305 65.64C48.2305 65.5315 48.318 65.445 48.4266 65.445H49.3015C49.3981 65.445 49.4795 65.5154 49.4947 65.6108C49.627 66.5023 50.0203 66.9519 51.8124 66.9519C53.2399 66.9519 53.8469 66.6294 53.8469 65.8724C53.8469 65.4367 53.6739 65.1129 51.4563 64.8959C49.6015 64.7128 48.4555 64.3042 48.4555 62.8207C48.4555 61.4542 49.6083 60.6404 51.5394 60.6404C53.7078 60.6404 54.7827 61.3932 54.9184 63.0106C54.9234 63.0665 54.9031 63.1208 54.8658 63.1615C54.8285 63.2005 54.7759 63.2242 54.7217 63.2242H53.8418C53.7502 63.2242 53.6705 63.1598 53.6519 63.0716C53.44 62.1341 52.9279 61.834 51.536 61.834C49.9779 61.834 49.7965 62.3765 49.7965 62.7834C49.7965 63.2768 50.0101 63.4209 52.1124 63.6989C54.1944 63.9753 55.1828 64.3652 55.1828 65.8284C55.1828 67.3034 53.952 68.1494 51.8056 68.1494M60.0554 59.8605H60.2826C60.4691 59.8605 60.5047 59.73 60.5047 59.6537C60.5047 59.4536 60.3674 59.4536 60.2911 59.4536H60.0571L60.0554 59.8605ZM59.7791 59.2197H60.2826C60.4556 59.2197 60.7946 59.2197 60.7946 59.6062C60.7946 59.8758 60.6217 59.9317 60.5183 59.9656C60.72 59.9792 60.7336 60.1114 60.7607 60.2979C60.7743 60.4149 60.7963 60.6167 60.837 60.6845H60.5268C60.5183 60.6167 60.4708 60.2437 60.4708 60.2233C60.4505 60.1403 60.4216 60.0996 60.3182 60.0996H60.0622V60.6862H59.7791V59.2197ZM59.1738 59.9487C59.1738 60.5556 59.6638 61.0473 60.2657 61.0473C60.8726 61.0473 61.3626 60.5455 61.3626 59.9487C61.3626 59.34 60.8658 58.8568 60.264 58.8568C59.6706 58.8568 59.1721 59.3332 59.1721 59.947M61.5728 59.9521C61.5728 60.6709 60.9845 61.2575 60.2674 61.2575C59.5553 61.2575 58.9619 60.6777 58.9619 59.9521C58.9619 59.2129 59.5689 58.6466 60.2674 58.6466C60.971 58.6466 61.5711 59.2146 61.5711 59.9521" fill="#689F63"/>
<path fill-rule="evenodd" clip-rule="evenodd" d="M28.7479 42.9453C28.7479 42.6333 28.5834 42.3468 28.3142 42.1917L21.1331 38.06C21.0119 37.9887 20.8761 37.9514 20.7384 37.9464H20.6642C20.5265 37.9514 20.3907 37.9887 20.2674 38.06L13.0867 42.1917C12.8192 42.3476 12.6523 42.6342 12.6523 42.9461L12.6681 54.0748C12.6681 54.2291 12.7478 54.3732 12.8834 54.4495C13.0157 54.5309 13.1818 54.5309 13.3141 54.4495L17.5831 52.0047C17.8527 51.8443 18.0171 51.5608 18.0171 51.2519V46.053C18.0171 45.7427 18.1816 45.4562 18.4503 45.3019L20.2678 44.2551C20.4027 44.1772 20.5509 44.1385 20.7018 44.1385C20.8503 44.1385 21.0019 44.1768 21.1331 44.255L22.9498 45.3014C23.2186 45.4557 23.3838 45.7422 23.3838 46.0525V51.2511C23.3838 51.5597 23.5504 51.8445 23.8186 52.0038L28.085 54.4469C28.2189 54.5266 28.3856 54.5266 28.519 54.4469C28.6506 54.3706 28.734 54.2265 28.734 54.0722L28.7479 42.9453ZM62.6337 48.7395C62.6337 48.817 62.5925 48.8887 62.5252 48.927L60.0587 50.3488C59.9917 50.3873 59.909 50.3873 59.8422 50.3488L57.3754 48.927C57.3076 48.8885 57.2669 48.8168 57.2669 48.7395V45.8919C57.2669 45.8142 57.3076 45.7427 57.3737 45.7037L59.8388 44.2796C59.9066 44.2406 59.9897 44.2406 60.0575 44.2796L62.5243 45.7037C62.5921 45.7427 62.6328 45.8142 62.6328 45.8919L62.6337 48.7395ZM63.3 27.6483C63.1654 27.5733 63.0016 27.5754 62.8687 27.6529C62.7364 27.7308 62.6547 27.8733 62.6547 28.0275V39.0477C62.6547 39.1562 62.5971 39.2562 62.5031 39.3105C62.4099 39.3647 62.2938 39.3647 62.1997 39.3105L60.4008 38.2744C60.133 38.1195 59.803 38.1195 59.5341 38.2744L52.3507 42.4202C52.0823 42.5745 51.9167 42.861 51.9167 43.1696V51.4635C51.9167 51.7738 52.0823 52.0586 52.3507 52.2146L59.5341 56.3633C59.8024 56.5175 60.1326 56.5175 60.4017 56.3633L67.5851 52.2129C67.853 52.0569 68.0192 51.7721 68.0192 51.4618V30.7914C68.0192 30.4767 67.8479 30.1873 67.5733 30.0335L63.3 27.6483ZM87.221 45.817C87.4879 45.662 87.6522 45.3758 87.6522 45.0673V43.0572C87.6522 42.7479 87.4877 42.4626 87.2203 42.307L80.0827 38.1634C79.8131 38.0074 79.4825 38.0074 79.2129 38.1634L72.0312 42.3087C71.7616 42.4646 71.5971 42.7495 71.5971 43.0597V51.3503C71.5971 51.6622 71.765 51.9504 72.0346 52.1047L79.1705 56.172C79.4333 56.3229 79.7555 56.3246 80.0216 56.1771L84.3382 53.7781C84.4738 53.7018 84.5602 53.5577 84.5602 53.4017C84.5602 53.2457 84.4772 53.0999 84.3415 53.0236L77.1157 48.8767C76.9801 48.8004 76.897 48.6563 76.897 48.502V45.9012C76.897 45.7459 76.9784 45.6028 77.114 45.5255L79.3621 44.2285C79.4961 44.1505 79.6605 44.1505 79.7944 44.2285L82.0443 45.5255C82.1782 45.6018 82.2613 45.7459 82.2613 45.9002V47.9449C82.2613 48.0992 82.3443 48.2433 82.4783 48.3213C82.6122 48.3975 82.7784 48.3975 82.9123 48.3196L87.221 45.817Z" fill="#333333"/>
<path fill-rule="evenodd" clip-rule="evenodd" d="M79.5404 45.429C79.5913 45.399 79.655 45.399 79.7066 45.429L81.0849 46.2241C81.1365 46.254 81.168 46.3089 81.168 46.3683V47.9602C81.168 48.0196 81.1365 48.0745 81.0849 48.1044L79.7066 48.8995C79.655 48.9295 79.5913 48.9295 79.5404 48.8995L78.1629 48.1044C78.1103 48.0745 78.0781 48.0196 78.0781 47.9602V46.3683C78.0781 46.3089 78.1086 46.254 78.1612 46.2241L79.5404 45.429Z" fill="#689F63"/>
<mask id="mask0_3560_3309" style="mask-type:luminance" maskUnits="userSpaceOnUse" x="32" y="38" width="17" height="19">
<path d="M39.8986 38.2046L32.7559 42.3274C32.4883 42.4817 32.3242 42.7665 32.3242 43.0744V51.3256C32.3242 51.6336 32.4883 51.9183 32.7559 52.0726L39.8991 56.1985C40.1662 56.3523 40.4954 56.3523 40.7621 56.1985L47.9042 52.0726C48.1704 51.9183 48.3348 51.6335 48.3348 51.3256V43.0744C48.3348 42.7665 48.1704 42.4817 47.9025 42.3274L40.7614 38.2046C40.6275 38.1278 40.4783 38.0894 40.3291 38.0894C40.1799 38.0894 40.0307 38.1278 39.8968 38.2046" fill="white"/>
</mask>
<g mask="url(#mask0_3560_3309)">
<path d="M55.5564 41.6273L35.4293 31.7617L25.1094 52.8143L45.2359 62.6804L55.5564 41.6273Z" fill="url(#paint0_linear_3560_3309)"/>
</g>
<mask id="mask1_3560_3309" style="mask-type:luminance" maskUnits="userSpaceOnUse" x="32" y="38" width="17" height="19">
<path d="M32.5 51.8496C32.5683 51.9383 32.6538 52.0151 32.7543 52.0727L38.8815 55.6119L39.9022 56.1985C40.0547 56.2866 40.2287 56.3239 40.3996 56.3112C40.4566 56.3067 40.5135 56.296 40.5691 56.2802L48.1025 42.4864C48.0449 42.4236 47.9774 42.3711 47.9018 42.327L43.2248 39.6262L40.7526 38.2037C40.6824 38.1631 40.6063 38.1342 40.5288 38.1139L32.5 51.8496Z" fill="white"/>
</mask>
<g mask="url(#mask1_3560_3309)">
<path d="M23.8008 44.5455L38.0125 63.7804L56.8079 49.894L42.5952 30.6595L23.8008 44.5455Z" fill="url(#paint1_linear_3560_3309)"/>
</g>
<mask id="mask2_3560_3309" style="mask-type:luminance" maskUnits="userSpaceOnUse" x="32" y="38" width="17" height="19">
<path d="M40.2409 38.0943C40.121 38.1062 40.0039 38.1435 39.8959 38.2048L32.7734 42.3157L40.4536 56.3045C40.5605 56.2892 40.6656 56.2536 40.7605 56.1987L47.9033 52.0728C48.1237 51.9449 48.2746 51.7286 48.3203 51.4834L40.4909 38.1084C40.4333 38.097 40.3757 38.0911 40.3163 38.0911C40.2926 38.0911 40.2688 38.0922 40.2451 38.0945" fill="white"/>
</mask>
<g mask="url(#mask2_3560_3309)">
<path d="M32.7734 38.0911V56.3048H48.3175V38.0911H32.7734Z" fill="url(#paint2_linear_3560_3309)"/>
</g>
</g>
<defs>
<linearGradient id="paint0_linear_3560_3309" x1="45.4868" y1="36.679" x2="35.1676" y2="57.7302" gradientUnits="userSpaceOnUse">
<stop offset="0.3" stop-color="#3E863D"/>
<stop offset="0.5" stop-color="#55934F"/>
<stop offset="0.8" stop-color="#5AAD45"/>
</linearGradient>
<linearGradient id="paint1_linear_3560_3309" x1="30.9918" y1="54.2732" x2="49.7879" y2="40.3851" gradientUnits="userSpaceOnUse">
<stop offset="0.57" stop-color="#3E863D"/>
<stop offset="0.72" stop-color="#619857"/>
<stop offset="1" stop-color="#76AC64"/>
</linearGradient>
<linearGradient id="paint2_linear_3560_3309" x1="32.7787" y1="47.1985" x2="48.3204" y2="47.1985" gradientUnits="userSpaceOnUse">
<stop offset="0.16" stop-color="#6BBF47"/>
<stop offset="0.38" stop-color="#79B461"/>
<stop offset="0.47" stop-color="#75AC64"/>
<stop offset="0.7" stop-color="#659E5A"/>
<stop offset="0.9" stop-color="#3E863D"/>
</linearGradient>
<clipPath id="clip0_3560_3309">
<rect width="75" height="45.9336" fill="white" transform="translate(12.6523 27.5934)"/>
</clipPath>
</defs>
</svg>
