<svg width="101" height="100" viewBox="0 0 101 100" fill="none" xmlns="http://www.w3.org/2000/svg">
<ellipse cx="50.3442" cy="50" rx="50.3442" ry="50" fill="white"/>
<path d="M50.7941 80.5882C67.8012 80.5882 81.5882 66.8012 81.5882 49.7941C81.5882 32.787 67.8012 19 50.7941 19C33.787 19 20 32.787 20 49.7941C20 66.8012 33.787 80.5882 50.7941 80.5882Z" fill="white"/>
<path d="M50.7941 19C33.7623 19 20 32.7876 20 49.7941C20 62.8467 28.1104 73.9985 39.5663 78.4845C39.2875 76.0514 39.0594 72.3004 39.6677 69.6392C40.2253 67.2314 43.2666 54.3308 43.2666 54.3308C43.2666 54.3308 42.3542 52.4807 42.3542 49.7687C42.3542 45.4855 44.838 42.292 47.9301 42.292C50.566 42.292 51.8332 44.2689 51.8332 46.626C51.8332 49.2618 50.1605 53.2157 49.2734 56.8907C48.5384 59.9574 50.8194 62.4666 53.8355 62.4666C59.31 62.4666 63.5172 56.6879 63.5172 48.3748C63.5172 40.9994 58.2202 35.8544 50.642 35.8544C41.8727 35.8544 36.7277 42.4187 36.7277 49.2112C36.7277 51.847 37.7415 54.6857 39.0087 56.2317C39.2621 56.5358 39.2875 56.8146 39.2115 57.1188C38.9834 58.0819 38.4511 60.1855 38.3497 60.6164C38.223 61.174 37.8935 61.3007 37.3106 61.0219C33.5088 59.1971 31.1264 53.5705 31.1264 49.0591C31.1264 39.352 38.1723 30.4306 51.4784 30.4306C62.1486 30.4306 70.4618 38.034 70.4618 48.2227C70.4618 58.8422 63.7707 67.3835 54.4944 67.3835C51.377 67.3835 48.437 65.7614 47.4486 63.8352C47.4486 63.8352 45.9025 69.7152 45.5223 71.1599C44.838 73.8464 42.9625 77.192 41.6953 79.2449C44.5846 80.132 47.626 80.6135 50.8194 80.6135C67.8259 80.6135 81.6135 66.8259 81.6135 49.8194C81.5882 32.7876 67.8005 19 50.7941 19Z" fill="#E60019"/>
</svg>
