<svg width="100" height="100" viewBox="0 0 100 100" fill="none" xmlns="http://www.w3.org/2000/svg">
<circle cx="50" cy="50" r="50" fill="white"/>
<g clip-path="url(#clip0_8393_1086)">
<path d="M79.2844 27.384C74.8114 21.5917 68.7211 17.256 61.7838 14.9253C54.8465 12.5945 47.3738 12.3734 40.3108 14.2898C33.2478 16.2063 26.9118 20.1743 22.1041 25.6919C17.2964 31.2096 14.2329 38.029 13.3011 45.2878C12.3694 52.5466 13.6111 59.9187 16.8694 66.4718C20.1277 73.0248 25.2561 78.4644 31.6061 82.1026C37.956 85.7408 45.2423 87.4142 52.5433 86.9111C59.8444 86.4081 66.8323 83.7512 72.6233 79.2765C88.7876 66.7843 91.7719 43.5541 79.2844 27.384Z" fill="#FF6C37"/>
<path d="M62.4793 36.5737L46.878 52.2987L42.4692 47.7662C57.8242 32.4112 59.3644 33.7987 62.4793 36.5737Z" fill="white"/>
<path d="M46.8782 52.7288C46.74 52.7254 46.6081 52.6705 46.5082 52.575L42.0682 48.135C41.9682 48.0315 41.9124 47.8933 41.9124 47.7494C41.9124 47.6055 41.9682 47.4672 42.0682 47.3638C57.207 32.225 59.2732 32.9338 62.8495 36.1713C62.9709 36.2684 63.0391 36.4164 63.0345 36.5725C63.0576 36.7228 62.9998 36.8766 62.8807 36.9737L47.2794 52.5761C47.1696 52.6767 47.0273 52.7299 46.8782 52.7288ZM43.2395 47.765L46.8782 51.4037L61.6782 36.6037C61.1672 35.9633 60.438 35.5338 59.6302 35.3972C58.8224 35.2607 57.9925 35.4268 57.2995 35.8637C54.617 37.0662 50.3007 40.735 43.2395 47.765Z" fill="#FF6C37"/>
<path d="M51.3492 56.6462L47.0942 52.2987L62.6955 36.8812C66.8892 40.9824 60.6605 47.8286 51.3492 56.6462Z" fill="white"/>
<path d="M51.3494 57.2011C51.2129 57.1903 51.0834 57.1365 50.9794 57.0474L46.6319 52.7924C46.5667 52.6343 46.5667 52.4568 46.6319 52.2986C46.5857 52.1691 46.5857 52.0269 46.6319 51.8974L62.2332 36.2961C62.4587 36.0846 62.809 36.0846 63.0345 36.2961C64.0578 37.2373 64.6185 38.5763 64.5758 39.9649C64.5758 44.1274 59.827 49.3687 51.7495 57.0161C51.6416 57.1229 51.5007 57.1884 51.3494 57.2011ZM47.8957 52.2986L51.3795 55.7813C57.5458 49.9538 63.4357 43.9413 63.4658 39.8713C63.4993 39.0085 63.2141 38.1635 62.6645 37.4975L47.8957 52.2986Z" fill="#FF6C37"/>
<path d="M42.5918 47.8586L45.6755 50.9424C45.6952 50.9597 45.711 50.9811 45.7218 51.005C45.7326 51.0289 45.7381 51.0549 45.7381 51.0811C45.7381 51.1074 45.7326 51.1333 45.7218 51.1572C45.711 51.1812 45.6952 51.2025 45.6755 51.2199L39.1693 52.6074C38.8999 52.6652 38.6258 52.5357 38.4963 52.2929C38.3668 52.0501 38.4154 51.7494 38.6143 51.5586L42.4068 47.7974C42.4068 47.7974 42.5305 47.7974 42.5918 47.8586Z" fill="white"/>
<path d="M39.0155 53.2236C38.81 53.2211 38.6085 53.1658 38.4304 53.0632C38.2522 52.9606 38.1034 52.814 37.998 52.6374C37.7552 52.1784 37.8419 51.613 38.2143 51.2499L41.9755 47.4574C42.1112 47.3362 42.2867 47.2692 42.4687 47.2692C42.6506 47.2692 42.8262 47.3362 42.9618 47.4574L46.0455 50.5411C46.2282 50.7146 46.2999 50.9771 46.2305 51.2199C46.1612 51.4627 45.9577 51.6558 45.7068 51.7136L39.2005 53.1011L39.0155 53.2236ZM42.4693 48.5374L38.9855 52.0212L44.7517 50.7874L42.4693 48.5374Z" fill="#FF6C37"/>
<path d="M70.7742 27.9087C68.5427 25.7558 65.0369 25.6656 62.6967 27.6971C60.3564 29.7286 59.9563 33.2159 61.7786 35.725C63.6008 38.234 67.0361 38.937 69.6954 37.3437L65.5017 33.15L70.7742 27.9087Z" fill="white"/>
<path d="M66.6118 38.7612C65.3297 38.7448 64.0807 38.3514 63.0206 37.6302C61.9605 36.9089 61.1361 35.8916 60.6501 34.7051C59.6558 32.2793 60.2061 29.495 62.0376 27.6312C63.2721 26.4194 64.9328 25.7405 66.6626 25.7405C68.3925 25.7405 70.0532 26.4194 71.2876 27.6312C71.4056 27.7306 71.4726 27.8774 71.4726 28.0324C71.4723 28.1086 71.4557 28.1839 71.4238 28.2531C71.3918 28.3223 71.3454 28.3839 71.2876 28.4336L66.2926 33.1511L70.0851 36.8823C70.1466 36.941 70.1927 37.0138 70.2195 37.0945C70.2463 37.1751 70.253 37.261 70.2389 37.3448C70.2298 37.4257 70.203 37.5035 70.1604 37.5728C70.1179 37.6422 70.0606 37.7013 69.9926 37.746C68.9738 38.3829 67.8025 38.7343 66.6014 38.7635L66.6118 38.7612ZM66.6118 26.7975C64.4149 26.8091 62.4493 28.1307 61.6249 30.1506C60.8004 32.1706 61.2491 34.4958 62.7892 36.0475C64.3571 37.6235 66.7204 38.0767 68.7705 37.1887L65.1318 33.55C65.0104 33.4529 64.9421 33.3049 64.9468 33.1488C64.9514 33.0043 65.0184 32.869 65.1318 32.7788L69.9418 27.9376C68.9855 27.2045 67.8166 26.8056 66.6118 26.7975Z" fill="#FF6C37"/>
<path d="M70.8667 28.0012L65.5942 33.2425L69.788 37.4362C70.21 37.1939 70.603 36.9041 70.9592 36.5725C73.244 34.1444 73.2024 30.3658 70.8667 28.0012Z" fill="white"/>
<path d="M69.6945 37.8986C69.6252 37.9024 69.556 37.8905 69.492 37.8639C69.4279 37.8373 69.3707 37.7966 69.3245 37.7449L65.1308 33.5511C65.0094 33.454 64.9412 33.306 64.9458 33.1499C64.9504 33.0054 65.0175 32.8701 65.1308 32.7799L70.3721 27.6311C70.4227 27.5548 70.4914 27.4922 70.5721 27.4489C70.6528 27.4056 70.743 27.3829 70.8346 27.3829C70.9261 27.3829 71.0163 27.4056 71.097 27.4489C71.1777 27.4922 71.2464 27.5548 71.2971 27.6311C71.9124 28.234 72.4012 28.9536 72.7349 29.7478C73.0686 30.5419 73.2405 31.3947 73.2405 32.2561C73.2405 33.1176 73.0686 33.9703 72.7349 34.7645C72.4012 35.5587 71.9124 36.2783 71.2971 36.8811C70.9341 37.2661 70.5188 37.5981 70.0633 37.8674C69.9487 37.9252 69.8172 37.9364 69.6945 37.8986ZM66.3032 33.1511L69.787 36.6349C70.0266 36.4669 70.2535 36.2814 70.4657 36.0799C71.4898 35.0585 72.0667 33.6724 72.0694 32.2261C72.0718 30.9317 71.6 29.6813 70.7432 28.7111L66.3032 33.1511Z" fill="#FF6C37"/>
<path d="M63.127 37.2211C62.2598 36.4071 60.9104 36.4071 60.0432 37.2211L46.0769 51.1562L48.3894 53.4999L63.1582 40.5499C63.6149 40.114 63.8704 39.5093 63.8635 38.878C63.8566 38.2467 63.5906 37.6478 63.127 37.2211Z" fill="white"/>
<path d="M48.2656 54.0561C48.1274 54.0527 47.9954 53.9979 47.8956 53.9023L45.5518 51.5586C45.4519 51.4551 45.396 51.3169 45.396 51.173C45.396 51.0291 45.4519 50.8909 45.5518 50.7874L59.5193 36.8812C60.627 35.7758 62.4215 35.7758 63.5281 36.8812C64.0831 37.4362 64.3837 38.1935 64.3606 38.9774C64.3282 39.7567 63.9836 40.4898 63.4043 41.0124L48.6356 53.9624C48.528 54.0387 48.3962 54.0723 48.2656 54.0561ZM46.6318 51.1562L48.1731 52.7287L62.6643 40.1175C63.0228 39.8053 63.2367 39.359 63.2506 38.8838C63.2644 38.4086 63.0771 37.9437 62.7268 37.62C62.0527 36.9494 60.9646 36.9494 60.2906 37.62L46.6318 51.1562Z" fill="#FF6C37"/>
<path d="M35.2543 67.0362C35.2148 67.0898 35.1936 67.1546 35.1936 67.2212C35.1936 67.2878 35.2148 67.3526 35.2543 67.4062L35.8706 70.0887C35.9237 70.409 35.77 70.7281 35.4867 70.8981C35.3493 70.9784 35.19 71.0131 35.0316 70.9971C34.8733 70.9811 34.7241 70.9152 34.6056 70.809L30.3818 66.739L43.5481 53.4688H48.1118L51.1955 56.5525C46.3851 60.7582 41.0216 64.2856 35.2543 67.0362Z" fill="white"/>
<path d="M34.9769 71.5687C34.6277 71.5618 34.2831 71.4184 34.0519 71.1675L30.0131 67.1287C29.8917 67.0316 29.8235 66.8836 29.8281 66.7275C29.8327 66.5829 29.8998 66.4477 30.0131 66.3575L43.2707 53.0687C43.3449 52.9898 43.4419 52.936 43.5482 52.9149H48.1419C48.2616 52.8726 48.3922 52.8726 48.5119 52.9149L51.5957 55.9986C51.7148 56.1085 51.7726 56.2704 51.7494 56.4299C51.7516 56.5065 51.7361 56.5826 51.704 56.6522C51.6719 56.7218 51.6241 56.783 51.5644 56.8311L51.3182 57.0474C46.4884 61.0738 41.1748 64.4814 35.5007 67.1911L36.0869 69.6886C36.1322 69.8813 36.1339 70.0817 36.092 70.2751C36.05 70.4685 35.9654 70.6501 35.8443 70.8066C35.7232 70.9632 35.5687 71.0907 35.392 71.18C35.2153 71.2692 35.021 71.3179 34.8231 71.3224L34.9769 71.5687ZM31.2156 66.7275L34.8532 70.3963C34.8871 70.4265 34.9309 70.4432 34.9763 70.4432C35.0217 70.4432 35.0656 70.4265 35.0994 70.3963C35.1221 70.3648 35.1343 70.327 35.1343 70.2882C35.1343 70.2494 35.1221 70.2115 35.0994 70.18L34.4832 67.4975C34.3837 67.101 34.5757 66.6882 34.9457 66.5113C40.4673 63.8377 45.6439 60.5037 50.3619 56.5825L47.8332 54.0538H43.7019L31.2156 66.7275Z" fill="#FF6C37"/>
<path d="M27.2068 69.9037L30.2905 66.8199L35.0392 71.5687L27.4855 71.0449C27.2195 71.0252 26.9941 70.8368 26.9305 70.5754C26.8669 70.3141 26.979 70.0436 27.208 69.9048L27.2068 69.9037Z" fill="white"/>
<path d="M35.1306 72.0312L27.6069 71.5075C27.1605 71.4658 26.7767 71.1606 26.6194 70.7524C26.4622 70.3443 26.5581 69.8598 26.8669 69.5337L29.9506 66.45C30.0541 66.3501 30.1923 66.2942 30.3362 66.2942C30.4801 66.2942 30.6183 66.3501 30.7218 66.45L35.4393 71.1675C35.5734 71.3525 35.5734 71.6 35.4393 71.7838C35.3676 71.8994 35.2589 71.9873 35.1306 72.0312ZM27.6069 70.305L33.7731 70.7062L30.3819 67.53L27.6069 70.305Z" fill="#FF6C37"/>
<path d="M48.5432 53.841L42.3145 54.7972L45.922 51.2209L48.5432 53.841Z" fill="white"/>
<path d="M42.3145 55.3811C42.1029 55.3869 41.9098 55.2655 41.8208 55.0724C41.7551 54.9831 41.7197 54.8751 41.7197 54.7643C41.7197 54.6534 41.7551 54.5455 41.8208 54.4561L45.3971 50.8486C45.6225 50.637 45.9729 50.637 46.1983 50.8486L48.8207 53.4687C48.8731 53.5518 48.9009 53.648 48.9009 53.7462C48.9009 53.8444 48.8731 53.9406 48.8207 54.0237C48.795 54.125 48.7406 54.2167 48.6642 54.2878C48.5877 54.359 48.4923 54.4066 48.3894 54.4249L42.2232 55.3811H42.3145ZM45.922 52.0199L43.9182 54.0237L47.3719 53.4999L45.922 52.0199Z" fill="#FF6C37"/>
<path d="M48.5432 53.8387L44.1957 54.3937C44.0793 54.4202 43.9576 54.4084 43.8485 54.3601C43.7393 54.3119 43.6487 54.2298 43.5899 54.126C43.5311 54.0222 43.5073 53.9022 43.5221 53.7838C43.5369 53.6654 43.5894 53.5549 43.6719 53.4687L45.9231 51.2175L48.5432 53.8387Z" fill="white"/>
<path d="M44.072 54.9812C43.6615 54.9777 43.2857 54.7534 43.0857 54.3949C42.968 54.1839 42.9223 53.9402 42.9557 53.7008C42.9891 53.4614 43.0997 53.2395 43.2707 53.0687L45.5219 50.8175C45.7474 50.6059 46.0977 50.6059 46.3232 50.8175L48.9444 53.4387C49.0224 53.5126 49.0772 53.6075 49.1023 53.7119C49.1274 53.8163 49.1217 53.9257 49.0859 54.027C49.05 54.1282 48.9855 54.2168 48.9003 54.2821C48.8151 54.3475 48.7127 54.3866 48.6057 54.3949L44.2894 54.9499L44.072 54.9812ZM44.072 53.8399L47.3407 53.4387L45.8919 51.9899L44.0419 53.8399H44.072ZM70.897 31.5474C70.8389 31.4502 70.7471 31.3776 70.6391 31.3435C70.531 31.3094 70.4142 31.3161 70.3108 31.3624C70.2597 31.3883 70.2144 31.4242 70.1775 31.4678C70.1405 31.5115 70.1127 31.5622 70.0957 31.6168C70.061 31.7267 70.0726 31.8458 70.1258 31.9487C70.342 32.4031 70.2819 32.9407 69.972 33.3362C69.8911 33.4125 69.8564 33.5177 69.8564 33.6287C69.8575 33.7371 69.8987 33.8413 69.972 33.9212C70.0511 33.9525 70.1392 33.9525 70.2183 33.9212C70.2901 33.9393 70.3654 33.9373 70.4362 33.9155C70.5069 33.8937 70.5703 33.8529 70.6195 33.7975C70.8734 33.4867 71.0342 33.1103 71.0833 32.712C71.1324 32.3136 71.0678 31.9107 70.897 31.5474Z" fill="#FF6C37"/>
</g>
<defs>
<clipPath id="clip0_8393_1086">
<rect width="74" height="74" fill="white" transform="translate(13 13)"/>
</clipPath>
</defs>
</svg>
