<svg width="100" height="100" viewBox="0 0 100 100" fill="none" xmlns="http://www.w3.org/2000/svg">
<circle cx="50" cy="50" r="50" fill="white"/>
<path d="M50.2926 15C30.8019 15 15 30.8 15 50.2914C15 69.7821 30.8019 85.5833 50.2926 85.5833C69.7834 85.5833 85.5846 69.7821 85.5846 50.2914C85.5846 30.8 69.7827 15 50.2926 15ZM50.2926 81.0518C44.7471 81.0518 40.2511 77.3473 40.2511 72.7791H60.3341C60.3341 77.3467 55.8381 81.0518 50.2926 81.0518ZM66.878 70.0393H33.7054V64.0243H66.8786L66.878 70.0393ZM66.759 60.9283H33.8001C33.6904 60.8019 33.5783 60.6773 33.4725 60.549C30.0769 56.426 29.2772 54.2736 28.5006 52.0801C28.4875 52.0078 32.618 52.924 35.547 53.5829C35.547 53.5829 37.0542 53.9317 39.2577 54.3334C37.142 51.8534 35.8858 48.7007 35.8858 45.4783C35.8858 38.4038 41.3117 32.2219 39.3542 27.2251C41.2594 27.3802 43.2972 31.2459 43.4349 37.2903C45.4602 34.4914 46.3079 29.38 46.3079 26.246C46.3079 23.0012 48.446 19.232 50.5847 19.1031C48.6783 22.2451 51.0786 24.9388 53.2123 31.6209C54.0126 34.1308 53.9105 38.3546 54.5283 41.0333C54.7332 35.4698 55.6898 27.3521 59.2193 24.5495C57.6623 28.0789 59.4497 32.4953 60.6723 34.6184C62.6447 38.0439 63.8405 40.6391 63.8405 45.5474C63.8405 48.8384 62.6254 51.9368 60.5758 54.3589C62.9063 53.9217 64.5156 53.5275 64.5156 53.5275L72.084 52.0508C72.0846 52.0502 70.9847 56.573 66.759 60.9283Z" fill="#E6522C"/>
</svg>
