<svg width="100" height="100" viewBox="0 0 100 100" fill="none" xmlns="http://www.w3.org/2000/svg">
<circle cx="50" cy="50" r="50" fill="white"/>
<g clip-path="url(#clip0_3589_1064)">
<path d="M64.0992 26L84.4992 43.1L77.1992 58L64.7992 54.6H54.1992L64.0992 26Z" fill="url(#paint0_linear_3589_1064)"/>
<path d="M43.5 37.1L39.5 58L39.1 65.2L29.2 69.5L15 71L19.3 25.7L44.9 15L60.7 25.4L43.5 37.1Z" fill="url(#paint1_linear_3589_1064)"/>
<path d="M43.5 37.1L45.4 77.5L39 85L15 71L34.7 41.6L43.5 37.1Z" fill="url(#paint2_linear_3589_1064)"/>
<path d="M69.8996 34.1H45.5996L67.0996 15L69.8996 34.1Z" fill="url(#paint3_linear_3589_1064)"/>
<path d="M84.9992 77.6L63.5992 84.9L35.1992 76.9L43.4992 37.1L46.7992 34.1L64.0992 32.5L62.4992 49.9L76.2992 44.6L84.9992 77.6Z" fill="url(#paint4_linear_3589_1064)"/>
<path d="M71.6004 28.4H28.4004V71.6H71.6004V28.4Z" fill="black"/>
<path d="M48.7 63.5H32.5V66.2H48.7V63.5Z" fill="white"/>
<path d="M32.3008 34.1H39.6008C43.9008 34.1 46.5008 36.6 46.5008 40.3V40.4C46.5008 44.5 43.3008 46.7 39.3008 46.7H36.3008V52H32.4008V34.1H32.3008ZM39.4008 43.1C41.4008 43.1 42.5008 41.9 42.5008 40.4V40.3C42.5008 38.5 41.3008 37.6 39.3008 37.6H36.3008V43.1H39.4008Z" fill="white"/>
<path d="M48.0996 43.1C48.0996 38.0001 51.8996 33.8 57.3996 33.8C60.7996 33.8 62.7996 34.9 64.4996 36.6L61.9996 39.5C60.5996 38.2 59.1996 37.5 57.3996 37.5C54.3996 37.5 52.1996 40.0001 52.1996 43.1V43C52.1996 46.1 54.2996 48.6 57.3996 48.6C59.3996 48.6 60.6996 47.8 62.0996 46.5L64.5996 49C62.7996 51 60.6996 52.2001 57.2996 52.2001C51.9996 52.3001 48.0996 48.2001 48.0996 43.1Z" fill="white"/>
</g>
<defs>
<linearGradient id="paint0_linear_3589_1064" x1="39.9977" y1="42.0461" x2="81.6557" y2="42.0461" gradientUnits="userSpaceOnUse">
<stop stop-color="#21D789"/>
<stop offset="1" stop-color="#07C3F2"/>
</linearGradient>
<linearGradient id="paint1_linear_3589_1064" x1="-9.5594" y1="74.0806" x2="76.2196" y2="10.7587" gradientUnits="userSpaceOnUse">
<stop offset="0.0107527" stop-color="#FCF84A"/>
<stop offset="0.1116" stop-color="#A7EB62"/>
<stop offset="0.2056" stop-color="#5FE077"/>
<stop offset="0.2727" stop-color="#32DA84"/>
<stop offset="0.3065" stop-color="#21D789"/>
<stop offset="0.5768" stop-color="#21D789"/>
<stop offset="0.5968" stop-color="#21D789"/>
<stop offset="0.686" stop-color="#20D68C"/>
<stop offset="0.7627" stop-color="#1ED497"/>
<stop offset="0.8348" stop-color="#19D1A9"/>
<stop offset="0.904" stop-color="#13CCC2"/>
<stop offset="0.9707" stop-color="#0BC6E1"/>
<stop offset="1" stop-color="#07C3F2"/>
</linearGradient>
<linearGradient id="paint2_linear_3589_1064" x1="24.3301" y1="92.6536" x2="38.6369" y2="47.7598" gradientUnits="userSpaceOnUse">
<stop stop-color="#21D789"/>
<stop offset="0.1638" stop-color="#24D788"/>
<stop offset="0.3047" stop-color="#2FD886"/>
<stop offset="0.4371" stop-color="#41DA82"/>
<stop offset="0.5644" stop-color="#5ADC7D"/>
<stop offset="0.6881" stop-color="#7AE077"/>
<stop offset="0.809" stop-color="#A1E36E"/>
<stop offset="0.9254" stop-color="#CFE865"/>
<stop offset="1" stop-color="#F1EB5E"/>
</linearGradient>
<linearGradient id="paint3_linear_3589_1064" x1="43.2749" y1="53.6231" x2="74.4084" y2="11.7642" gradientUnits="userSpaceOnUse">
<stop stop-color="#21D789"/>
<stop offset="0.0608105" stop-color="#24D788"/>
<stop offset="0.1131" stop-color="#2FD886"/>
<stop offset="0.1622" stop-color="#41DA82"/>
<stop offset="0.2094" stop-color="#5ADD7D"/>
<stop offset="0.2548" stop-color="#79E077"/>
<stop offset="0.2581" stop-color="#7CE076"/>
<stop offset="0.4986" stop-color="#8CE173"/>
<stop offset="0.9247" stop-color="#B2E56B"/>
</linearGradient>
<linearGradient id="paint4_linear_3589_1064" x1="90.8885" y1="58.9496" x2="28.1571" y2="58.3687" gradientUnits="userSpaceOnUse">
<stop offset="0.3871" stop-color="#FCF84A"/>
<stop offset="0.5358" stop-color="#ECF451"/>
<stop offset="0.8259" stop-color="#C2E964"/>
<stop offset="0.9247" stop-color="#B2E56B"/>
</linearGradient>
<clipPath id="clip0_3589_1064">
<rect width="70" height="70" fill="white" transform="translate(15 15)"/>
</clipPath>
</defs>
</svg>
