<svg width="100" height="100" viewBox="0 0 100 100" fill="none" xmlns="http://www.w3.org/2000/svg">
<rect width="100" height="100" rx="50" fill="white"/>
<path d="M49.6099 16.8464C46.9051 16.8592 44.3234 17.0892 42.0505 17.4915C35.356 18.6741 34.1413 21.1495 34.1413 25.7152V31.7441H49.9603V33.7537H28.204C23.6069 33.7537 19.5812 36.5168 18.3217 41.775C16.8688 47.8001 16.8047 51.5606 18.3217 57.8521C19.446 62.5358 22.1315 65.8721 26.7293 65.8721H32.1688V58.6446C32.1688 53.4229 36.6859 48.8174 42.0511 48.8174H57.8521C62.2507 48.8174 65.7613 45.1953 65.7613 40.7788V25.7158C65.7613 21.4281 62.1443 18.2077 57.8521 17.4921C55.1333 17.0398 52.3139 16.8342 49.6099 16.8464V16.8464ZM41.055 21.6953C42.6885 21.6953 44.0236 23.0515 44.0236 24.7197C44.0236 26.3808 42.6892 27.7242 41.055 27.7242C39.415 27.7242 38.0869 26.3808 38.0869 24.7197C38.0863 23.0515 39.415 21.6953 41.055 21.6953V21.6953Z" fill="url(#paint0_linear_105_10)"/>
<path d="M67.7338 33.7537V40.7788C67.7338 46.2242 63.1162 50.8078 57.8515 50.8078H42.0505C37.7224 50.8078 34.1413 54.5126 34.1413 58.847V73.9113C34.1413 78.1978 37.8685 80.7199 42.0505 81.9493C47.0576 83.4208 51.8597 83.6873 57.8515 81.9493C61.8336 80.7955 65.7607 78.4751 65.7607 73.9113V67.8818H49.9603V65.8715H73.6711C78.2682 65.8715 79.9825 62.6652 81.5815 57.8515C83.2331 52.8963 83.1619 48.1307 81.5815 41.7744C80.4451 37.1971 78.2753 33.7531 73.6711 33.7531H67.7338V33.7537ZM58.8464 71.901C60.487 71.901 61.815 73.2444 61.815 74.9069C61.815 76.5738 60.4864 77.93 58.8464 77.93C57.2128 77.93 55.8784 76.5738 55.8784 74.9069C55.8784 73.2444 57.2128 71.901 58.8464 71.901V71.901Z" fill="url(#paint1_linear_105_10)"/>
<path opacity="0.444" d="M71.3386 85.6168C71.3386 87.8866 61.8471 89.7271 50.1397 89.7271C38.4316 89.7271 28.9401 87.8866 28.9401 85.6168C28.9401 83.3465 38.431 81.5059 50.1397 81.5059C61.8471 81.5059 71.3386 83.3458 71.3386 85.6168Z" fill="url(#paint2_radial_105_10)"/>
<defs>
<linearGradient id="paint0_linear_105_10" x1="15.6221" y1="18.7315" x2="52.1081" y2="49.8466" gradientUnits="userSpaceOnUse">
<stop stop-color="#5A9FD4"/>
<stop offset="1" stop-color="#306998"/>
</linearGradient>
<linearGradient id="paint1_linear_105_10" x1="65.8355" y1="69.1882" x2="52.751" y2="50.8394" gradientUnits="userSpaceOnUse">
<stop stop-color="#FFD43B"/>
<stop offset="1" stop-color="#FFE873"/>
</linearGradient>
<radialGradient id="paint2_radial_105_10" cx="0" cy="0" r="1" gradientUnits="userSpaceOnUse" gradientTransform="translate(50.054 85.4991) rotate(-90) scale(4.11174 18.0745)">
<stop stop-color="#B8B8B8" stop-opacity="0.498"/>
<stop offset="1" stop-color="#7F7F7F" stop-opacity="0"/>
</radialGradient>
</defs>
</svg>
