<svg width="100" height="100" viewBox="0 0 100 100" fill="none" xmlns="http://www.w3.org/2000/svg">
<circle cx="50" cy="50" r="50" fill="white"/>
<g clip-path="url(#clip0_8393_1086)">
<path d="M74.9649 19.0008C75.1159 18.9914 75.2592 19.0674 75.3342 19.1966C75.4093 19.3259 75.4031 19.4859 75.3182 19.6091L60.0387 40.0311C59.9267 40.1554 59.7659 40.2266 59.5971 40.2266C59.4282 40.2266 59.2674 40.1554 59.1555 40.0311L53.7679 34.1217C53.6363 33.9873 53.4498 33.9189 53.2609 33.9358C53.072 33.9527 52.9011 34.0531 52.7963 34.2086L49.5285 38.293C49.4251 38.523 49.459 38.7904 49.6168 38.9882L59.3321 48.8951C59.4441 49.0194 59.6048 49.0906 59.7737 49.0906C59.9426 49.0906 60.1033 49.0194 60.2153 48.8951L79.2926 27.7779C79.4053 27.6588 79.5798 27.6183 79.7347 27.6754C79.8895 27.7326 79.994 27.876 79.9992 28.0386V79.3976C80.0065 79.5149 79.9624 79.6297 79.8779 79.7128C79.7934 79.7959 79.6768 79.8393 79.5576 79.8321H21.4424C21.3232 79.8393 21.2066 79.7959 21.1221 79.7128C21.0376 79.6297 20.9935 79.5149 21.0008 79.3976V19.4353C20.9935 19.318 21.0376 19.2032 21.1221 19.1201C21.2066 19.0371 21.3232 18.9936 21.4424 19.0008H74.9649ZM59.9503 53.6747C57.3209 53.6292 54.7868 54.6429 52.9356 56.4808C51.0844 58.3186 50.0769 60.821 50.1467 63.4077C50.1467 69.4039 54.5628 73.2276 60.3036 73.2276C62.9612 73.2927 65.5671 72.499 67.7226 70.9681C67.9224 70.7896 67.9599 70.4944 67.8109 70.2729L66.2211 67.9266C66.0424 67.7249 65.7383 67.6875 65.5146 67.8397C64.1328 68.7682 62.5065 69.2815 60.8336 69.317C57.7423 69.317 55.7993 67.4052 55.446 65.1457C55.4524 65.0525 55.5278 64.9782 55.6226 64.9719H68.9591C69.2434 64.953 69.4698 64.7303 69.489 64.4505V63.9291C69.489 57.846 65.6029 53.6747 59.9503 53.6747ZM46.7905 50.3724C44.1079 48.2149 40.7136 47.1016 37.2518 47.2439C31.246 47.2439 27.5365 50.72 27.5365 54.8913C27.5365 64.3636 42.1978 61.322 42.1978 65.754C42.1978 67.1445 40.7847 68.5349 37.7818 68.5349C34.9298 68.558 32.1782 67.5 30.0978 65.5802C29.9736 65.466 29.8054 65.41 29.6362 65.4266C29.467 65.4433 29.3134 65.5309 29.2146 65.6671L26.9183 68.7956C26.7693 69.017 26.8068 69.3123 27.0066 69.4908C29.3913 71.6634 32.7475 73.1407 37.4285 73.1407C44.3175 73.1407 47.6737 69.6646 47.8504 65.1457C47.8504 55.7603 33.1891 58.4543 33.1891 54.4568C33.1891 52.9794 34.5139 51.9366 36.8102 51.9366C39.3416 51.9025 41.807 52.7315 43.7876 54.283C43.904 54.3768 44.054 54.4205 44.2036 54.4042C44.3532 54.3878 44.4898 54.3128 44.5825 54.1961L46.8788 51.1545C46.9742 51.0399 47.0186 50.8924 47.002 50.7451C46.9854 50.5979 46.9091 50.4636 46.7905 50.3724ZM60.0387 57.4983C62.4409 57.3661 64.5147 59.1371 64.7197 61.4958C64.7133 61.5891 64.6378 61.6633 64.543 61.6696H55.5343C55.4395 61.6633 55.3641 61.5891 55.3577 61.4958C55.653 59.1834 57.6703 57.4606 60.0387 57.4983Z" fill="#2CB134"/>
</g>
<defs>
<clipPath id="clip0_8393_1086">
<rect width="59" height="61" fill="white" transform="translate(21 19)"/>
</clipPath>
</defs>
</svg>
