<svg width="100" height="100" viewBox="0 0 100 100" fill="none" xmlns="http://www.w3.org/2000/svg">
<rect width="100" height="100" rx="50" fill="white"/>
<g clip-path="url(#clip0_506_64)">
<path d="M78.6376 18.099C77.6508 20.4684 76.3735 22.7058 74.8353 24.7598C71.5419 21.3491 67.5985 18.6344 63.2385 16.7762C58.8785 14.918 54.1904 13.9541 49.4517 13.9416C44.7131 13.929 40.02 14.8681 35.6502 16.7032C31.2805 18.5382 27.3228 21.232 24.0114 24.6252C20.7 28.0184 18.1021 32.042 16.3715 36.4579C14.6408 40.8738 13.8126 45.5924 13.9358 50.3344C14.059 55.0764 15.1311 59.7455 17.0887 64.0654C19.0463 68.3853 21.8496 72.2682 25.3327 75.4845L26.6489 76.6557C31.6436 80.8723 37.7067 83.6229 44.1667 84.6028C50.6268 85.5827 57.2317 84.7536 63.2501 82.2073C69.2684 79.6611 74.4654 75.4971 78.2653 70.1765C82.0653 64.8558 84.32 58.5862 84.7797 52.0618C85.8034 43.1319 83.0979 31.7134 78.6376 18.099ZM30.4512 75.7773C30.0752 76.2398 29.5707 76.5803 29.0015 76.7559C28.4323 76.9314 27.8238 76.9341 27.2531 76.7636C26.6823 76.5931 26.1748 76.2571 25.7948 75.798C25.4148 75.3389 25.1792 74.7773 25.1179 74.1842C25.0566 73.5911 25.1724 72.9931 25.4505 72.4659C25.7286 71.9386 26.1566 71.5057 26.6804 71.2218C27.2042 70.938 27.8003 70.816 28.3934 70.8712C28.9865 70.9264 29.5499 71.1563 30.0124 71.5319C30.6188 72.0461 31.0031 72.775 31.0849 73.5663C31.1666 74.3575 30.9396 75.1498 30.4512 75.7773ZM78.4182 65.1639C69.7169 76.802 50.998 72.8495 39.0794 73.435C39.0794 73.435 36.9589 73.5814 34.8384 73.8742C34.8384 73.8742 35.6427 73.5082 36.6664 73.1423C45.0753 70.2144 49.0238 69.6289 54.1422 66.9938C63.721 62.0897 73.2998 51.3299 75.2009 40.2041C71.5449 50.8907 60.4306 60.1134 50.3399 63.8464C43.3935 66.4082 30.8899 68.8969 30.8899 68.8969L30.378 68.6041C21.8961 64.4319 21.6036 45.9866 37.1051 40.0577C43.9053 37.4227 50.3399 38.8866 57.7251 37.1299C65.549 35.3 74.6159 29.4443 78.272 21.7587C82.3667 34.1289 87.3389 53.3062 78.4182 65.1639Z" fill="#6DB33F"/>
</g>
<defs>
<clipPath id="clip0_506_64">
<rect width="71" height="71" fill="white" transform="translate(14 14)"/>
</clipPath>
</defs>
</svg>
