<svg width="100" height="100" viewBox="0 0 100 100" fill="none" xmlns="http://www.w3.org/2000/svg">
<circle cx="50" cy="50" r="50" fill="white"/>
<g clip-path="url(#clip0_8393_1086)">
<path d="M50.1731 93.9989C26.4598 93.8354 5.8411 74.1552 6.00092 49.1518C6.15459 25.0931 26.1473 4.83696 50.8859 5.00099C74.9288 5.16075 95.2131 25.1177 94.9983 49.5675C95.1975 73.7954 74.8131 94.1701 50.1731 93.9989ZM50.1731 93.9989C26.4598 93.8354 5.8411 74.1552 6.00092 49.1518C6.15459 25.0931 26.1473 4.83696 50.8859 5.00099C74.9288 5.16075 95.2131 25.1177 94.9983 49.5675C95.1975 73.7954 74.8131 94.1701 50.1731 93.9989Z" fill="white"/>
<path d="M50.2165 88.0889C29.6519 87.9471 11.7723 70.8804 11.911 49.198C12.0444 28.3342 29.3818 10.7682 50.8348 10.911C71.6843 11.0496 89.2748 28.3564 89.0884 49.5588C89.261 70.5688 71.5845 88.2374 50.2165 88.0889ZM50.2165 88.0889C29.6519 87.9471 11.7723 70.8804 11.911 49.198C12.0444 28.3342 29.3818 10.7682 50.8348 10.911C71.6843 11.0496 89.2748 28.3564 89.0884 49.5588C89.261 70.5688 71.5845 88.2374 50.2165 88.0889Z" fill="#49A32B"/>
<path d="M64.8677 49.4848C64.7688 51.3239 63.162 52.8511 61.5785 52.5846C61.5709 52.5846 61.5629 52.5846 61.5548 52.5846C59.8009 52.587 58.3773 51.1668 58.3754 49.4128C58.4351 47.6541 59.8936 46.268 61.6528 46.2978C63.4068 46.3063 64.9624 47.7886 64.8677 49.4848ZM36.6637 67.307C37.325 67.3264 37.9869 67.3122 38.7495 67.3122V72.105C34.0093 72.9064 30.1047 71.5605 29.1465 67.5537C28.8184 66.0804 28.6168 64.5816 28.5429 63.0738C28.4411 61.4775 28.6172 59.8632 28.4956 58.2697C28.1585 53.8851 27.5904 52.3881 23.3828 52.1808V46.7239C23.6844 46.6533 23.9902 46.6013 24.2979 46.5667C26.6048 46.4531 27.5772 45.7458 28.0932 43.4735C28.328 42.1967 28.4672 40.9043 28.5084 39.6067C28.6911 37.0977 28.6262 34.5479 29.0443 32.0796C29.6483 28.5101 31.8643 26.776 35.5247 26.5819C36.5662 26.5261 37.611 26.5734 38.7912 26.5734V31.4722C38.3055 31.5068 37.8605 31.5773 37.4183 31.564C34.4354 31.4727 34.2811 32.4886 34.0633 34.9579C33.9274 36.5064 34.1149 38.0814 34.0093 39.6351C33.899 41.1812 33.6921 42.7193 33.3901 44.2399C32.9598 46.4436 31.6049 48.0825 29.7274 49.4734C33.3721 51.8452 33.7868 55.5306 34.0235 59.2729C34.1509 61.2839 34.0926 63.3091 34.2967 65.3102C34.4557 66.8634 35.0598 67.2597 36.6637 67.307ZM39.7356 46.2978C39.7546 46.2978 39.773 46.2978 39.792 46.2978C41.5346 46.3267 42.9245 47.7625 42.8956 49.5056C42.8956 49.5629 42.8937 49.6197 42.8904 49.6765C42.7924 51.3798 41.3324 52.6807 39.6291 52.5827C39.5605 52.5841 39.4923 52.5827 39.4236 52.5794C37.6891 52.4932 36.3527 51.0172 36.4388 49.2826C36.525 47.5481 38.0011 46.2116 39.7356 46.2978ZM50.595 46.2978C52.501 46.2831 53.7668 47.5182 53.7768 49.4024C53.7872 51.3372 52.5871 52.5751 50.6935 52.5832C48.7677 52.5917 47.4999 51.3736 47.4895 49.5009C47.4838 49.4052 47.4824 49.3096 47.4852 49.214C47.5387 47.55 48.931 46.2443 50.595 46.2978ZM73.3317 43.9109C73.8387 45.8045 74.8258 46.4701 76.8193 46.561C77.1459 46.5762 77.4711 46.6316 77.919 46.6813V52.1368C77.6766 52.2163 77.4281 52.276 77.1757 52.3148C74.5043 52.4809 73.2867 53.5769 73.0169 56.2554C72.8446 57.9653 72.8588 59.6942 72.7404 61.4103C72.6907 63.2944 72.5193 65.1734 72.2272 67.0353C71.5455 70.4088 69.4394 72.0917 65.9594 72.2972C64.8393 72.3634 63.7112 72.3076 62.5035 72.3076V67.4315C63.1535 67.3913 63.7273 67.3359 64.3025 67.3222C66.3816 67.2724 67.1168 66.6021 67.2186 64.5371C67.3313 62.2686 67.3805 59.9972 67.4818 57.7281C67.6291 54.4484 68.5271 51.5185 71.5825 49.4729C69.8342 48.2265 68.4305 46.7168 68.067 44.6811C67.6272 42.2137 67.4852 39.6919 67.2485 37.19C67.1315 35.9392 67.1372 34.6776 67.0151 33.4278C66.8835 32.0786 65.9565 31.6119 64.7285 31.5816C64.025 31.5645 63.3187 31.5782 62.4193 31.5782V26.8167C68.1588 25.8638 72.1236 27.7735 72.4919 33.265C72.6462 35.5709 72.6235 37.8878 72.7712 40.1937C72.836 41.4482 73.0235 42.6933 73.3317 43.9109Z" fill="white"/>
</g>
<defs>
<clipPath id="clip0_8393_1086">
<rect width="89" height="89" fill="white" transform="translate(6 5)"/>
</clipPath>
</defs>
</svg>
