<svg width="100" height="100" viewBox="0 0 100 100" fill="none" xmlns="http://www.w3.org/2000/svg">
<circle cx="50" cy="50" r="50" fill="white"/>
<path d="M76.6819 37.6799C76.6788 37.1469 76.6729 36.6142 76.6583 36.0805C76.6274 34.9197 76.5592 33.7483 76.3541 32.5999C76.146 31.4336 75.8058 30.3492 75.2696 29.2898C74.7433 28.2493 74.0553 27.2972 73.2345 26.4716C72.414 25.6459 71.4675 24.9539 70.4328 24.4242C69.3805 23.8854 68.3024 23.5433 67.1441 23.3339C66.0018 23.127 64.8374 23.0588 63.6826 23.0274C63.1524 23.0129 62.6227 23.0069 62.0927 23.0036C61.4635 23 60.834 23 60.205 23H46.2584H40.4806C39.8511 23 39.2222 23 38.5933 23.0037C38.063 23.007 37.5327 23.013 37.0033 23.0275C36.7146 23.0353 36.4254 23.0455 36.1359 23.0595C35.2676 23.1016 34.398 23.1788 33.5418 23.334C32.673 23.4911 31.8493 23.7227 31.0479 24.0561C30.7807 24.1671 30.516 24.2895 30.2529 24.4242C29.4769 24.8215 28.7504 25.31 28.0896 25.8778C27.8693 26.0671 27.6563 26.2651 27.4512 26.4715C26.6303 27.2971 25.9422 28.2492 25.4159 29.2897C24.8798 30.3491 24.54 31.4336 24.3317 32.5998C24.1268 33.7482 24.0587 34.9196 24.0276 36.0804C24.0131 36.6141 24.007 37.1468 24.0035 37.6799C23.9995 38.3129 24 38.9461 24 39.5789V48.219V59.4208C24 60.0543 23.9994 60.6868 24.0035 61.3203C24.007 61.8533 24.0131 62.3861 24.0276 62.9188C24.0587 64.0803 24.1267 65.2519 24.3317 66.3998C24.54 67.5657 24.8798 68.6511 25.4159 69.7103C25.9422 70.751 26.6303 71.7028 27.4512 72.5281C28.2715 73.3541 29.2182 74.0461 30.253 74.5762C31.3054 75.115 32.3835 75.4567 33.542 75.666C34.6835 75.8727 35.8488 75.9414 37.0034 75.9725C37.5328 75.9867 38.0631 75.993 38.5933 75.996C39.2223 76.0006 39.8512 76 40.4807 76H60.205C60.834 76 61.4635 76.0006 62.0926 75.996C62.6226 75.993 63.1523 75.9867 63.6825 75.9725C64.8374 75.9414 66.0018 75.8726 67.144 75.666C68.3023 75.4567 69.3805 75.1149 70.4327 74.5762C71.4674 74.0462 72.4139 73.3541 73.2345 72.5281C74.0552 71.7027 74.7433 70.751 75.2695 69.7103C75.8057 68.6511 76.1459 67.5658 76.354 66.3998C76.5591 65.2519 76.6273 64.0803 76.6582 62.9188C76.6728 62.3861 76.6786 61.8534 76.6818 61.3203C76.6859 60.6868 76.6855 60.0543 76.6855 59.4208V39.5789C76.6856 38.9461 76.6859 38.3129 76.6819 37.6799Z" fill="#F05138"/>
<path d="M65.7441 55.7158C65.7429 55.7142 65.7417 55.713 65.7404 55.7115C65.7987 55.512 65.8588 55.3137 65.9098 55.1091C68.0965 46.345 62.7596 35.9835 53.7285 30.5278C57.6862 35.9249 59.436 42.4621 57.8813 48.1789C57.7427 48.6888 57.576 49.1782 57.3917 49.6538C57.1918 49.5217 56.9398 49.3717 56.6015 49.184C56.6015 49.184 47.6179 43.6041 37.8812 33.7347C37.6257 33.4757 43.0732 41.5673 49.2555 48.1379C46.3428 46.4934 38.2255 40.5522 33.0867 35.8208C33.7181 36.88 34.469 37.8999 35.2945 38.8818C39.5858 44.3565 45.1822 51.1115 51.887 56.2985C47.1762 59.1986 40.5196 59.4241 33.892 56.3015C32.2528 55.5287 30.7117 54.5963 29.2852 53.5368C32.0906 58.051 36.4114 61.9457 41.6702 64.2195C47.9415 66.9306 54.1779 66.7468 58.8228 64.2639L58.8192 64.2693C58.8404 64.2558 58.8673 64.2411 58.8893 64.2274C59.0801 64.1243 59.2694 64.0192 59.4545 63.9083C61.6862 62.743 66.0942 61.5608 68.4601 66.1917C69.0396 67.3251 70.2709 61.3189 65.7441 55.7158Z" fill="white"/>
</svg>
