<svg width="101" height="100" viewBox="0 0 101 100" fill="none" xmlns="http://www.w3.org/2000/svg">
<ellipse cx="50.3442" cy="50" rx="50.3442" ry="50" fill="white"/>
<path d="M33.4362 71.5464C45.492 71.5464 55.2651 61.7982 55.2651 49.7732C55.2651 37.7482 45.492 28 33.4362 28C21.3805 28 11.6074 37.7482 11.6074 49.7732C11.6074 61.7982 21.3805 71.5464 33.4362 71.5464Z" fill="#EB5E03"/>
<path d="M67.778 71.5464C79.8338 71.5464 89.6069 61.7982 89.6069 49.7732C89.6069 37.7482 79.8338 28 67.778 28C55.7223 28 45.9492 37.7482 45.9492 49.7732C45.9492 61.7982 55.7223 71.5464 67.778 71.5464Z" fill="#FFCF00"/>
<path fill-rule="evenodd" clip-rule="evenodd" d="M33.144 52.6007C33.144 53.3744 33.065 54.0979 32.907 54.7713C32.749 55.4447 32.4905 56.0356 32.1314 56.5443C31.7723 57.0529 31.3019 57.454 30.7201 57.7478C30.1384 58.0415 29.4238 58.1883 28.5763 58.1883C27.7288 58.1883 27.0214 58.0415 26.4541 57.7478C25.8867 57.454 25.4234 57.0529 25.0643 56.5443C24.7053 56.0356 24.4503 55.4447 24.2995 54.7713C24.1487 54.0979 24.0732 53.3744 24.0732 52.6007V42.6074H26.0124V52.4073C26.0124 52.9231 26.0519 53.4209 26.1309 53.9009C26.2099 54.3809 26.3463 54.8071 26.5402 55.1796C26.7341 55.5521 26.9999 55.8494 27.3374 56.0715C27.675 56.2935 28.1023 56.4046 28.6194 56.4046C29.1365 56.4046 29.5602 56.2935 29.8906 56.0715C30.221 55.8494 30.4831 55.5521 30.677 55.1796C30.8709 54.8071 31.0074 54.3809 31.0864 53.9009C31.1654 53.4209 31.2049 52.9231 31.2049 52.4073V42.6074H33.144V52.6007ZM39.3022 48.281L41.8015 42.6074H43.8053L40.3364 49.8069L44.2146 57.823H42.1031L39.2376 51.4187L36.372 57.823H34.3251L38.1818 49.7854L34.7129 42.6074H36.7598L39.3022 48.281Z" fill="white"/>
<path fill-rule="evenodd" clip-rule="evenodd" d="M69.8247 52.6007C69.8247 53.3744 69.7457 54.0979 69.5877 54.7713C69.4297 55.4447 69.1711 56.0356 68.812 56.5443C68.4529 57.0529 67.9825 57.454 67.4008 57.7478C66.819 58.0415 66.1044 58.1883 65.257 58.1883C64.4095 58.1883 63.7021 58.0415 63.1347 57.7478C62.5673 57.454 62.1041 57.0529 61.745 56.5443C61.3859 56.0356 61.131 55.4447 60.9801 54.7713C60.8293 54.0979 60.7539 53.3744 60.7539 52.6007V42.6074H62.693V52.4073C62.693 52.9231 62.7325 53.4209 62.8115 53.9009C62.8905 54.3809 63.027 54.8071 63.2209 55.1796C63.4148 55.5521 63.6805 55.8494 64.0181 56.0715C64.3556 56.2935 64.783 56.4046 65.3001 56.4046C65.8172 56.4046 66.2409 56.2935 66.5713 56.0715C66.9016 55.8494 67.1638 55.5521 67.3577 55.1796C67.5516 54.8071 67.6881 54.3809 67.7671 53.9009C67.8461 53.4209 67.8856 52.9231 67.8856 52.4073V42.6074H69.8247V52.6007ZM72.5786 57.823V42.6074H74.5177V57.823H72.5786Z" fill="black"/>
</svg>
