<svg width="100" height="100" viewBox="0 0 100 100" fill="none" xmlns="http://www.w3.org/2000/svg">
<circle cx="50" cy="50" r="50" fill="white"/>
<path d="M66.2333 62.4307C65.7417 62.1849 64.7583 61.939 64.0208 61.4474C63.2833 64.3974 62.5458 67.839 61.8083 71.5265L77.2958 69.0682L72.1333 34.4057L71.8875 34.6515C70.9042 35.6349 69.675 38.8307 67.2167 48.1724H67.4625L68.2 52.1057L66.2333 52.3515C65.9875 53.5807 65.7417 54.8099 65.25 56.2849C69.4292 58.4974 67.2167 63.9057 66.9708 63.9057C66.725 63.9057 66.725 63.9057 66.725 63.6599C66.725 63.414 66.9708 62.6765 66.2333 62.4307ZM45.8267 35.389C46.5667 34.8974 47.5475 34.8974 48.0392 35.6349L57.3809 46.4515C59.3451 40.5491 61.0684 35.389 61.0684 33.6682C61.3142 33.1765 61.3142 31.4582 60.5767 29.7349L21 35.8807L27.3917 76.9349L48.5358 73.4932C48.2875 71.7724 53.9441 57.0199 54.9275 54.3182L44.1108 56.039L45.5858 51.6116L53.2042 50.3824L55.1733 52.8407C55.1733 52.8407 55.6625 51.6116 55.6625 51.1224L45.0917 38.0932C44.6 37.3557 44.6 36.3724 45.34 35.8807L45.8267 35.389ZM31.0792 54.0699L37.7167 52.8407L35.9958 57.2682L31.5708 58.0057L31.0792 54.0699ZM45.34 41.5349L46.0775 41.7807C47.0583 42.0265 47.3066 43.0099 47.0583 43.9932L39.6833 63.6599L35.2583 69.5599L35.75 62.1849L43.125 42.5182C43.3708 41.5349 44.3542 41.289 45.34 41.5349Z" fill="#3B97CF"/>
<path d="M31.5708 58.0058L31.0792 54.07L37.7167 52.8408L35.9958 57.2683L31.5708 58.0058ZM35.2583 69.5599L35.75 62.1849L43.125 42.5183C43.3118 41.766 43.9313 41.444 44.6516 41.444C44.8753 41.444 45.1064 41.4735 45.34 41.5325L46.0775 41.7783C47.0583 42.0241 47.3066 43.0075 47.0583 43.9908L39.6833 63.6575L35.2583 69.5599ZM46.4683 31.9253L21 35.8808L27.3917 76.9349L48.5358 73.4933C48.4153 72.6574 49.6887 68.7438 51.1416 64.6334L49.7846 55.1369L44.1083 56.0391L45.5833 51.6116L49.1971 51.029L47.8327 41.4735L45.0917 38.0933C44.6 37.3558 44.6 36.3724 45.34 35.8808L45.8292 35.3891C46.161 35.1678 46.5445 35.0474 46.9084 35.0474C46.9084 35.0474 46.9133 35.0474 46.9182 35.0474L46.4683 31.9253Z" fill="#3383B4"/>
<path d="M79.2597 30.4724C78.768 31.9474 78.0305 33.6707 77.5388 33.6707C76.8013 33.6707 75.0805 33.1766 74.5888 32.4415C74.343 31.9474 73.6055 31.2124 72.3763 31.2124C71.6364 31.2124 71.1472 31.704 70.1638 32.1957C68.6397 33.4003 66.7467 38.8553 64.903 45.5469L61.2647 44.9323C62.8872 39.9124 64.1163 35.7578 64.2614 34.1599C64.2614 33.4224 64.5097 29.9832 62.2947 27.2766C60.8222 25.7991 59.3472 25.3099 57.8722 25.3099C56.643 25.3099 55.168 25.7991 54.1847 25.7991C53.693 25.7991 52.9555 26.0474 52.9555 26.0474C52.9555 26.0474 52.7121 26.0474 52.7121 25.7991C52.7121 25.4083 53.4717 25.0149 53.7913 24.8674C53.4963 24.9166 52.9063 25.0665 52.7097 25.0665C52.4614 25.0665 52.4614 24.8183 52.7097 24.5724C52.953 24.5724 53.6905 24.3266 53.9388 24.0832C54.9197 23.5915 55.6572 23.3433 56.643 23.0999C58.8555 22.3624 61.3138 22.3624 63.5239 22.6082C65.0013 22.6082 66.7197 22.6082 68.1972 23.0999C69.6697 23.5915 71.1472 24.0832 72.3763 25.3124C73.1138 26.0474 74.0972 26.7849 75.0805 26.7849C76.0638 26.7849 76.5555 26.5391 76.8038 26.2957C77.2955 26.2957 79.2621 26.7849 79.5055 27.0283C79.7538 27.2766 79.7538 28.9974 79.2597 30.4724Z" fill="#CFD8DC"/>
<path d="M61.0273 22.4583C59.5523 22.4583 58.0527 22.6303 56.649 23.0974C55.6656 23.3408 54.9257 23.5891 53.9448 24.0808C53.699 24.3266 52.9615 24.57 52.7156 24.57C52.4698 24.8183 52.4698 25.0665 52.7156 25.0665C52.9123 25.0665 53.4998 24.9166 53.7948 24.8699C53.4777 25.0149 52.7156 25.4083 52.7156 25.7991C52.7156 26.0474 52.9615 26.0474 52.9615 26.0474C52.9615 26.0474 53.699 25.7991 54.1906 25.7991C55.174 25.7991 56.649 25.3099 57.8781 25.3099C59.3507 25.3099 60.8281 25.7991 62.3007 27.2766C64.5132 29.9832 64.2673 33.4224 64.2673 34.1599C64.1223 35.7578 62.8931 39.9124 61.2706 44.9299L63.0677 45.2323L69.2479 23.4563C68.9013 23.331 68.5522 23.213 68.2031 23.0974C66.7257 22.6058 65.0073 22.6058 63.5298 22.6058C62.721 22.5173 61.8778 22.4583 61.0273 22.4583Z" fill="#B4BCC0"/>
<path d="M64.9096 45.5421C61.4901 58.1287 58.2942 75.0666 58.1222 76.195C57.6305 77.1808 56.6472 77.9208 53.943 77.1808C51.2388 76.4433 51.2388 75.2141 51.7305 73.0041C52.0747 71.4775 57.6796 56.0391 61.2688 44.9299L64.9096 45.5421Z" fill="#1F2228"/>
<path d="M63.0268 45.2251L53.9531 77.1834C54.7152 77.3899 55.3396 77.4809 55.8559 77.4809C57.1637 77.4809 57.7685 76.9007 58.12 76.1952C58.2921 75.0668 61.4879 58.1289 64.9075 45.5422L63.0268 45.2251Z" fill="#3C3F44"/>
</svg>
