<svg width="100" height="100" viewBox="0 0 100 100" fill="none" xmlns="http://www.w3.org/2000/svg">
<circle cx="50" cy="50" r="50" fill="white"/>
<g clip-path="url(#clip0_3624_1167)">
<path d="M78.7812 66.2498C79.2484 65.4406 79.5387 64.5288 79.5387 63.7101V35.2895C79.5387 34.4708 79.2488 33.5592 78.7814 32.75L49.7695 49.4999L78.7812 66.2498Z" fill="#00599C"/>
<path d="M52.3475 82.3859L76.9606 68.1757C77.6696 67.7663 78.314 67.0594 78.7812 66.25L49.7695 49.5001L20.7578 66.2502C21.225 67.0594 21.8696 67.7665 22.5784 68.1757L47.1914 82.3859C48.6093 83.2046 50.9297 83.2046 52.3475 82.3859Z" fill="#004482"/>
<path d="M78.781 32.7499C78.3136 31.9405 77.669 31.2336 76.9602 30.8242L52.3472 16.6141C50.9293 15.7953 48.6089 15.7953 47.1911 16.6141L22.578 30.8242C21.16 31.6428 20 33.6523 20 35.2896V63.7102C20 64.5289 20.2901 65.4407 20.7575 66.2499L49.7691 49.5L78.781 32.7499Z" fill="#659AD2"/>
<path d="M49.768 69.3461C38.8248 69.3461 29.9219 60.4432 29.9219 49.5C29.9219 38.5568 38.8248 29.6539 49.768 29.6539C56.8293 29.6539 63.4149 33.4539 66.9545 39.5707L58.3656 44.5408C56.594 41.4791 53.2994 39.577 49.768 39.577C44.2963 39.577 39.8449 44.0283 39.8449 49.5C39.8449 54.9715 44.2963 59.4231 49.768 59.4231C53.2998 59.4231 56.5944 57.5209 58.3662 54.4586L66.9551 59.4285C63.4155 65.546 56.8297 69.3461 49.768 69.3461Z" fill="white"/>
<path d="M69.6154 48.3974H67.4101V46.1924H65.2053V48.3974H63V50.6025H65.2053V52.8077H67.4101V50.6025H69.6154V48.3974Z" fill="white"/>
<path d="M77.8849 48.3974H75.6796V46.1924H73.4748V48.3974H71.2695V50.6025H73.4748V52.8077H75.6796V50.6025H77.8849V48.3974Z" fill="white"/>
</g>
<defs>
<clipPath id="clip0_3624_1167">
<rect width="59.5383" height="67" fill="white" transform="translate(20 16)"/>
</clipPath>
</defs>
</svg>
