<svg width="1170" height="314" viewBox="0 0 1170 314" fill="none" xmlns="http://www.w3.org/2000/svg">
<rect width="1169" height="314" rx="28.8187" fill="#337CFC"/>
<mask id="mask0_8347_1084" style="mask-type:alpha" maskUnits="userSpaceOnUse" x="1" y="0" width="1169" height="314">
<rect x="1" width="1169" height="314" rx="28.8187" fill="#337CFC"/>
</mask>
<g mask="url(#mask0_8347_1084)">
<ellipse opacity="0.8" cx="170.855" cy="340" rx="64.9445" ry="65" fill="#A7C4FE" fill-opacity="0.92"/>
<ellipse opacity="0.8" cx="1145.24" cy="76.0312" rx="47.9902" ry="48.0312" fill="white" fill-opacity="0.59"/>
<ellipse opacity="0.8" cx="1113.09" cy="208.115" rx="17.7564" ry="17.7715" fill="#BDD5FF"/>
<ellipse opacity="0.8" cx="128.504" cy="53.614" rx="21.5956" ry="21.614" fill="#9CC0FF"/>
<path opacity="0.8" d="M10.502 186.48C37.0056 186.48 58.4922 207.984 58.4922 234.512C58.4921 261.039 37.0055 282.543 10.502 282.543C-16.0014 282.543 -37.4872 261.039 -37.4873 234.512C-37.4873 207.985 -16.0015 186.481 10.502 186.48Z" stroke="#F4F7FF" stroke-width="0.960624"/>
<g opacity="0.8">
<ellipse cx="9.33501" cy="0.7849" rx="0.784229" ry="0.7849" fill="#EAEAEA"/>
<ellipse cx="9.33501" cy="7.06517" rx="0.784229" ry="0.7849" fill="#EAEAEA"/>
<ellipse cx="9.33501" cy="13.3415" rx="0.784229" ry="0.7849" fill="#EAEAEA"/>
<ellipse cx="9.33501" cy="19.6228" rx="0.784229" ry="0.7849" fill="#EAEAEA"/>
<ellipse cx="9.33501" cy="25.9011" rx="0.784229" ry="0.7849" fill="#EAEAEA"/>
<ellipse cx="9.33501" cy="32.1814" rx="0.784229" ry="0.7849" fill="#EAEAEA"/>
<ellipse cx="9.33501" cy="38.4597" rx="0.784229" ry="0.7849" fill="#EAEAEA"/>
<ellipse cx="9.33501" cy="44.739" rx="0.784229" ry="0.7849" fill="#EAEAEA"/>
<ellipse cx="9.33501" cy="51.0193" rx="0.784229" ry="0.7849" fill="#EAEAEA"/>
<ellipse cx="9.33501" cy="57.2976" rx="0.784229" ry="0.7849" fill="#EAEAEA"/>
<ellipse cx="9.33501" cy="63.5759" rx="0.784229" ry="0.7849" fill="#EAEAEA"/>
<ellipse cx="3.06353" cy="0.7849" rx="0.784229" ry="0.7849" fill="#EAEAEA"/>
<ellipse cx="3.06353" cy="7.06517" rx="0.784229" ry="0.7849" fill="#EAEAEA"/>
<ellipse cx="3.06353" cy="13.3415" rx="0.784229" ry="0.7849" fill="#EAEAEA"/>
<ellipse cx="3.06353" cy="19.6228" rx="0.784229" ry="0.7849" fill="#EAEAEA"/>
<ellipse cx="3.06353" cy="25.9011" rx="0.784229" ry="0.7849" fill="#EAEAEA"/>
<ellipse cx="3.06353" cy="32.1814" rx="0.784229" ry="0.7849" fill="#EAEAEA"/>
<ellipse cx="3.06353" cy="38.4597" rx="0.784229" ry="0.7849" fill="#EAEAEA"/>
<ellipse cx="3.06353" cy="44.739" rx="0.784229" ry="0.7849" fill="#EAEAEA"/>
<ellipse cx="3.06353" cy="51.0193" rx="0.784229" ry="0.7849" fill="#EAEAEA"/>
<ellipse cx="3.06353" cy="57.2976" rx="0.784229" ry="0.7849" fill="#EAEAEA"/>
<ellipse cx="3.06353" cy="63.5759" rx="0.784229" ry="0.7849" fill="#EAEAEA"/>
<ellipse cx="15.6104" cy="0.7849" rx="0.784229" ry="0.7849" fill="#EAEAEA"/>
<ellipse cx="15.6104" cy="7.06517" rx="0.784229" ry="0.7849" fill="#EAEAEA"/>
<ellipse cx="15.6104" cy="13.3415" rx="0.784229" ry="0.7849" fill="#EAEAEA"/>
<ellipse cx="15.6104" cy="19.6228" rx="0.784229" ry="0.7849" fill="#EAEAEA"/>
<ellipse cx="15.6104" cy="25.9011" rx="0.784229" ry="0.7849" fill="#EAEAEA"/>
<ellipse cx="15.6104" cy="32.1814" rx="0.784229" ry="0.7849" fill="#EAEAEA"/>
<ellipse cx="15.6104" cy="38.4597" rx="0.784229" ry="0.7849" fill="#EAEAEA"/>
<ellipse cx="15.6104" cy="44.739" rx="0.784229" ry="0.7849" fill="#EAEAEA"/>
<ellipse cx="15.6104" cy="51.0193" rx="0.784229" ry="0.7849" fill="#EAEAEA"/>
<ellipse cx="15.6104" cy="57.2976" rx="0.784229" ry="0.7849" fill="#EAEAEA"/>
<ellipse cx="15.6104" cy="63.5759" rx="0.784229" ry="0.7849" fill="#EAEAEA"/>
<ellipse cx="28.1573" cy="0.7849" rx="0.784229" ry="0.7849" fill="#EAEAEA"/>
<ellipse cx="28.1573" cy="7.06517" rx="0.784229" ry="0.7849" fill="#EAEAEA"/>
<ellipse cx="28.1573" cy="13.3415" rx="0.784229" ry="0.7849" fill="#EAEAEA"/>
<ellipse cx="28.1573" cy="19.6228" rx="0.784229" ry="0.7849" fill="#EAEAEA"/>
<ellipse cx="28.1573" cy="25.9011" rx="0.784229" ry="0.7849" fill="#EAEAEA"/>
<ellipse cx="28.1573" cy="32.1814" rx="0.784229" ry="0.7849" fill="#EAEAEA"/>
<ellipse cx="28.1573" cy="38.4597" rx="0.784229" ry="0.7849" fill="#EAEAEA"/>
<ellipse cx="28.1573" cy="44.739" rx="0.784229" ry="0.7849" fill="#EAEAEA"/>
<ellipse cx="28.1573" cy="51.0193" rx="0.784229" ry="0.7849" fill="#EAEAEA"/>
<ellipse cx="28.1573" cy="57.2976" rx="0.784229" ry="0.7849" fill="#EAEAEA"/>
<ellipse cx="28.1573" cy="63.5759" rx="0.784229" ry="0.7849" fill="#EAEAEA"/>
<ellipse cx="21.8858" cy="0.7849" rx="0.784229" ry="0.7849" fill="#EAEAEA"/>
<ellipse cx="21.8858" cy="7.06517" rx="0.784229" ry="0.7849" fill="#EAEAEA"/>
<ellipse cx="21.8858" cy="13.3415" rx="0.784229" ry="0.7849" fill="#EAEAEA"/>
<ellipse cx="21.8858" cy="19.6228" rx="0.784229" ry="0.7849" fill="#EAEAEA"/>
<ellipse cx="21.8858" cy="25.9011" rx="0.784229" ry="0.7849" fill="#EAEAEA"/>
<ellipse cx="21.8858" cy="32.1814" rx="0.784229" ry="0.7849" fill="#EAEAEA"/>
<ellipse cx="21.8858" cy="38.4597" rx="0.784229" ry="0.7849" fill="#EAEAEA"/>
<ellipse cx="21.8858" cy="44.739" rx="0.784229" ry="0.7849" fill="#EAEAEA"/>
<ellipse cx="21.8858" cy="51.0193" rx="0.784229" ry="0.7849" fill="#EAEAEA"/>
<ellipse cx="21.8858" cy="57.2976" rx="0.784229" ry="0.7849" fill="#EAEAEA"/>
<ellipse cx="21.8858" cy="63.5759" rx="0.784229" ry="0.7849" fill="#EAEAEA"/>
<ellipse cx="34.4307" cy="0.7849" rx="0.784229" ry="0.7849" fill="#EAEAEA"/>
<ellipse cx="34.4307" cy="7.06517" rx="0.784229" ry="0.7849" fill="#EAEAEA"/>
<ellipse cx="34.4307" cy="13.3415" rx="0.784229" ry="0.7849" fill="#EAEAEA"/>
<ellipse cx="34.4307" cy="19.6228" rx="0.784229" ry="0.7849" fill="#EAEAEA"/>
<ellipse cx="34.4307" cy="25.9011" rx="0.784229" ry="0.7849" fill="#EAEAEA"/>
<ellipse cx="34.4307" cy="32.1814" rx="0.784229" ry="0.7849" fill="#EAEAEA"/>
<ellipse cx="34.4307" cy="38.4597" rx="0.784229" ry="0.7849" fill="#EAEAEA"/>
<ellipse cx="34.4307" cy="44.739" rx="0.784229" ry="0.7849" fill="#EAEAEA"/>
<ellipse cx="34.4307" cy="51.0193" rx="0.784229" ry="0.7849" fill="#EAEAEA"/>
<ellipse cx="34.4307" cy="57.2976" rx="0.784229" ry="0.7849" fill="#EAEAEA"/>
<ellipse cx="34.4307" cy="63.5759" rx="0.784229" ry="0.7849" fill="#EAEAEA"/>
<ellipse cx="46.9795" cy="0.7849" rx="0.784229" ry="0.7849" fill="#EAEAEA"/>
<ellipse cx="46.9795" cy="7.06517" rx="0.784229" ry="0.7849" fill="#EAEAEA"/>
<ellipse cx="46.9795" cy="13.3415" rx="0.784229" ry="0.7849" fill="#EAEAEA"/>
<ellipse cx="46.9795" cy="19.6228" rx="0.784229" ry="0.7849" fill="#EAEAEA"/>
<ellipse cx="46.9795" cy="25.9011" rx="0.784229" ry="0.7849" fill="#EAEAEA"/>
<ellipse cx="46.9795" cy="32.1814" rx="0.784229" ry="0.7849" fill="#EAEAEA"/>
<ellipse cx="46.9795" cy="38.4597" rx="0.784229" ry="0.7849" fill="#EAEAEA"/>
<ellipse cx="46.9795" cy="44.739" rx="0.784229" ry="0.7849" fill="#EAEAEA"/>
<ellipse cx="46.9795" cy="51.0193" rx="0.784229" ry="0.7849" fill="#EAEAEA"/>
<ellipse cx="46.9795" cy="57.2976" rx="0.784229" ry="0.7849" fill="#EAEAEA"/>
<ellipse cx="46.9795" cy="63.5759" rx="0.784229" ry="0.7849" fill="#EAEAEA"/>
<ellipse cx="40.7061" cy="0.7849" rx="0.784229" ry="0.7849" fill="#EAEAEA"/>
<ellipse cx="40.7061" cy="7.06517" rx="0.784229" ry="0.7849" fill="#EAEAEA"/>
<ellipse cx="40.7061" cy="13.3415" rx="0.784229" ry="0.7849" fill="#EAEAEA"/>
<ellipse cx="40.7061" cy="19.6228" rx="0.784229" ry="0.7849" fill="#EAEAEA"/>
<ellipse cx="40.7061" cy="25.9011" rx="0.784229" ry="0.7849" fill="#EAEAEA"/>
<ellipse cx="40.7061" cy="32.1814" rx="0.784229" ry="0.7849" fill="#EAEAEA"/>
<ellipse cx="40.7061" cy="38.4597" rx="0.784229" ry="0.7849" fill="#EAEAEA"/>
<ellipse cx="40.7061" cy="44.739" rx="0.784229" ry="0.7849" fill="#EAEAEA"/>
<ellipse cx="40.7061" cy="51.0193" rx="0.784229" ry="0.7849" fill="#EAEAEA"/>
<ellipse cx="40.7061" cy="57.2976" rx="0.784229" ry="0.7849" fill="#EAEAEA"/>
<ellipse cx="40.7061" cy="63.5759" rx="0.784229" ry="0.7849" fill="#EAEAEA"/>
<ellipse cx="53.2549" cy="0.7849" rx="0.784229" ry="0.7849" fill="#EAEAEA"/>
<ellipse cx="53.2549" cy="7.06517" rx="0.784229" ry="0.7849" fill="#EAEAEA"/>
<ellipse cx="53.2549" cy="13.3415" rx="0.784229" ry="0.7849" fill="#EAEAEA"/>
<ellipse cx="53.2549" cy="19.6228" rx="0.784229" ry="0.7849" fill="#EAEAEA"/>
<ellipse cx="53.2549" cy="25.9011" rx="0.784229" ry="0.7849" fill="#EAEAEA"/>
<ellipse cx="53.2549" cy="32.1814" rx="0.784229" ry="0.7849" fill="#EAEAEA"/>
<ellipse cx="53.2549" cy="38.4597" rx="0.784229" ry="0.7849" fill="#EAEAEA"/>
<ellipse cx="53.2549" cy="44.739" rx="0.784229" ry="0.7849" fill="#EAEAEA"/>
<ellipse cx="53.2549" cy="51.0193" rx="0.784229" ry="0.7849" fill="#EAEAEA"/>
<ellipse cx="53.2549" cy="57.2976" rx="0.784229" ry="0.7849" fill="#EAEAEA"/>
<ellipse cx="53.2549" cy="63.5759" rx="0.784229" ry="0.7849" fill="#EAEAEA"/>
<ellipse cx="59.5245" cy="0.7849" rx="0.784229" ry="0.7849" fill="#EAEAEA"/>
<ellipse cx="59.5245" cy="7.06517" rx="0.784229" ry="0.7849" fill="#EAEAEA"/>
<ellipse cx="59.5245" cy="13.3415" rx="0.784229" ry="0.7849" fill="#EAEAEA"/>
<ellipse cx="59.5245" cy="19.6228" rx="0.784229" ry="0.7849" fill="#EAEAEA"/>
<ellipse cx="59.5245" cy="25.9011" rx="0.784229" ry="0.7849" fill="#EAEAEA"/>
<ellipse cx="59.5245" cy="32.1814" rx="0.784229" ry="0.7849" fill="#EAEAEA"/>
<ellipse cx="59.5245" cy="38.4597" rx="0.784229" ry="0.7849" fill="#EAEAEA"/>
<ellipse cx="59.5245" cy="44.739" rx="0.784229" ry="0.7849" fill="#EAEAEA"/>
<ellipse cx="59.5245" cy="51.0193" rx="0.784229" ry="0.7849" fill="#EAEAEA"/>
<ellipse cx="59.5245" cy="57.2976" rx="0.784229" ry="0.7849" fill="#EAEAEA"/>
<ellipse cx="59.5245" cy="63.5759" rx="0.784229" ry="0.7849" fill="#EAEAEA"/>
</g>
<path opacity="0.8" d="M1132.28 200.432C1158.79 200.432 1180.27 221.936 1180.27 248.463C1180.27 274.99 1158.79 296.494 1132.28 296.494C1105.78 296.494 1084.3 274.99 1084.29 248.463C1084.29 221.936 1105.78 200.432 1132.28 200.432Z" stroke="white" stroke-width="0.960624"/>
</g>
</svg>
