<svg width="125" height="125" viewBox="0 0 125 125" fill="none" xmlns="http://www.w3.org/2000/svg">
<circle cx="1.52439" cy="1.52439" r="1.52439" fill="#4F4F4F"/>
<circle cx="1.52439" cy="13.7197" r="1.52439" fill="#4F4F4F"/>
<circle cx="1.52439" cy="25.914" r="1.52439" fill="#4F4F4F"/>
<circle cx="1.52439" cy="38.1094" r="1.52439" fill="#4F4F4F"/>
<circle cx="1.52439" cy="50.3047" r="1.52439" fill="#4F4F4F"/>
<circle cx="1.52439" cy="62.499" r="1.52439" fill="#4F4F4F"/>
<circle cx="1.52439" cy="74.6943" r="1.52439" fill="#4F4F4F"/>
<circle cx="1.52439" cy="86.8906" r="1.52439" fill="#4F4F4F"/>
<circle cx="1.52439" cy="99.0849" r="1.52439" fill="#4F4F4F"/>
<circle cx="1.52439" cy="111.28" r="1.52439" fill="#4F4F4F"/>
<circle cx="1.52439" cy="123.476" r="1.52439" fill="#4F4F4F"/>
<circle cx="25.915" cy="1.52439" r="1.52439" fill="#4F4F4F"/>
<circle cx="25.915" cy="13.7197" r="1.52439" fill="#4F4F4F"/>
<circle cx="25.915" cy="25.914" r="1.52439" fill="#4F4F4F"/>
<circle cx="25.915" cy="38.1094" r="1.52439" fill="#4F4F4F"/>
<circle cx="25.915" cy="50.3047" r="1.52439" fill="#4F4F4F"/>
<circle cx="25.915" cy="62.499" r="1.52439" fill="#4F4F4F"/>
<circle cx="25.915" cy="74.6943" r="1.52439" fill="#4F4F4F"/>
<circle cx="25.915" cy="86.8906" r="1.52439" fill="#4F4F4F"/>
<circle cx="25.915" cy="99.0849" r="1.52439" fill="#4F4F4F"/>
<circle cx="25.915" cy="111.28" r="1.52439" fill="#4F4F4F"/>
<circle cx="25.915" cy="123.476" r="1.52439" fill="#4F4F4F"/>
<circle cx="13.7197" cy="1.52439" r="1.52439" fill="#4F4F4F"/>
<circle cx="13.7197" cy="13.7197" r="1.52439" fill="#4F4F4F"/>
<circle cx="13.7197" cy="25.914" r="1.52439" fill="#4F4F4F"/>
<circle cx="13.7197" cy="38.1094" r="1.52439" fill="#4F4F4F"/>
<circle cx="13.7197" cy="50.3047" r="1.52439" fill="#4F4F4F"/>
<circle cx="13.7197" cy="62.499" r="1.52439" fill="#4F4F4F"/>
<circle cx="13.7197" cy="74.6943" r="1.52439" fill="#4F4F4F"/>
<circle cx="13.7197" cy="86.8906" r="1.52439" fill="#4F4F4F"/>
<circle cx="13.7197" cy="99.0849" r="1.52439" fill="#4F4F4F"/>
<circle cx="13.7197" cy="111.28" r="1.52439" fill="#4F4F4F"/>
<circle cx="13.7197" cy="123.476" r="1.52439" fill="#4F4F4F"/>
<circle cx="38.1103" cy="1.52439" r="1.52439" fill="#4F4F4F"/>
<circle cx="38.1103" cy="13.7197" r="1.52439" fill="#4F4F4F"/>
<circle cx="38.1103" cy="25.914" r="1.52439" fill="#4F4F4F"/>
<circle cx="38.1103" cy="38.1094" r="1.52439" fill="#4F4F4F"/>
<circle cx="38.1103" cy="50.3047" r="1.52439" fill="#4F4F4F"/>
<circle cx="38.1103" cy="62.499" r="1.52439" fill="#4F4F4F"/>
<circle cx="38.1103" cy="74.6943" r="1.52439" fill="#4F4F4F"/>
<circle cx="38.1103" cy="86.8906" r="1.52439" fill="#4F4F4F"/>
<circle cx="38.1103" cy="99.0849" r="1.52439" fill="#4F4F4F"/>
<circle cx="38.1103" cy="111.28" r="1.52439" fill="#4F4F4F"/>
<circle cx="38.1103" cy="123.476" r="1.52439" fill="#4F4F4F"/>
<circle cx="62.501" cy="1.52439" r="1.52439" fill="#4F4F4F"/>
<circle cx="62.501" cy="13.7197" r="1.52439" fill="#4F4F4F"/>
<circle cx="62.501" cy="25.914" r="1.52439" fill="#4F4F4F"/>
<circle cx="62.501" cy="38.1094" r="1.52439" fill="#4F4F4F"/>
<circle cx="62.501" cy="50.3047" r="1.52439" fill="#4F4F4F"/>
<circle cx="62.501" cy="62.499" r="1.52439" fill="#4F4F4F"/>
<circle cx="62.501" cy="74.6943" r="1.52439" fill="#4F4F4F"/>
<circle cx="62.501" cy="86.8906" r="1.52439" fill="#4F4F4F"/>
<circle cx="62.501" cy="99.0849" r="1.52439" fill="#4F4F4F"/>
<circle cx="62.501" cy="111.28" r="1.52439" fill="#4F4F4F"/>
<circle cx="62.501" cy="123.476" r="1.52439" fill="#4F4F4F"/>
<circle cx="50.3056" cy="1.52439" r="1.52439" fill="#4F4F4F"/>
<circle cx="50.3056" cy="13.7197" r="1.52439" fill="#4F4F4F"/>
<circle cx="50.3056" cy="25.914" r="1.52439" fill="#4F4F4F"/>
<circle cx="50.3056" cy="38.1094" r="1.52439" fill="#4F4F4F"/>
<circle cx="50.3056" cy="50.3047" r="1.52439" fill="#4F4F4F"/>
<circle cx="50.3056" cy="62.499" r="1.52439" fill="#4F4F4F"/>
<circle cx="50.3056" cy="74.6943" r="1.52439" fill="#4F4F4F"/>
<circle cx="50.3056" cy="86.8906" r="1.52439" fill="#4F4F4F"/>
<circle cx="50.3056" cy="99.0849" r="1.52439" fill="#4F4F4F"/>
<circle cx="50.3056" cy="111.28" r="1.52439" fill="#4F4F4F"/>
<circle cx="50.3056" cy="123.476" r="1.52439" fill="#4F4F4F"/>
<circle cx="74.6943" cy="1.52439" r="1.52439" fill="#4F4F4F"/>
<circle cx="74.6943" cy="13.7197" r="1.52439" fill="#4F4F4F"/>
<circle cx="74.6943" cy="25.914" r="1.52439" fill="#4F4F4F"/>
<circle cx="74.6943" cy="38.1094" r="1.52439" fill="#4F4F4F"/>
<circle cx="74.6943" cy="50.3047" r="1.52439" fill="#4F4F4F"/>
<circle cx="74.6943" cy="62.499" r="1.52439" fill="#4F4F4F"/>
<circle cx="74.6943" cy="74.6943" r="1.52439" fill="#4F4F4F"/>
<circle cx="74.6943" cy="86.8906" r="1.52439" fill="#4F4F4F"/>
<circle cx="74.6943" cy="99.0849" r="1.52439" fill="#4F4F4F"/>
<circle cx="74.6943" cy="111.28" r="1.52439" fill="#4F4F4F"/>
<circle cx="74.6943" cy="123.476" r="1.52439" fill="#4F4F4F"/>
<circle cx="99.0849" cy="1.52439" r="1.52439" fill="#4F4F4F"/>
<circle cx="99.0849" cy="13.7197" r="1.52439" fill="#4F4F4F"/>
<circle cx="99.0849" cy="25.914" r="1.52439" fill="#4F4F4F"/>
<circle cx="99.0849" cy="38.1094" r="1.52439" fill="#4F4F4F"/>
<circle cx="99.0849" cy="50.3047" r="1.52439" fill="#4F4F4F"/>
<circle cx="99.0849" cy="62.499" r="1.52439" fill="#4F4F4F"/>
<circle cx="99.0849" cy="74.6943" r="1.52439" fill="#4F4F4F"/>
<circle cx="99.0849" cy="86.8906" r="1.52439" fill="#4F4F4F"/>
<circle cx="99.0849" cy="99.0849" r="1.52439" fill="#4F4F4F"/>
<circle cx="99.0849" cy="111.28" r="1.52439" fill="#4F4F4F"/>
<circle cx="99.0849" cy="123.476" r="1.52439" fill="#4F4F4F"/>
<circle cx="86.8896" cy="1.52439" r="1.52439" fill="#4F4F4F"/>
<circle cx="86.8896" cy="13.7197" r="1.52439" fill="#4F4F4F"/>
<circle cx="86.8896" cy="25.914" r="1.52439" fill="#4F4F4F"/>
<circle cx="86.8896" cy="38.1094" r="1.52439" fill="#4F4F4F"/>
<circle cx="86.8896" cy="50.3047" r="1.52439" fill="#4F4F4F"/>
<circle cx="86.8896" cy="62.499" r="1.52439" fill="#4F4F4F"/>
<circle cx="86.8896" cy="74.6943" r="1.52439" fill="#4F4F4F"/>
<circle cx="86.8896" cy="86.8906" r="1.52439" fill="#4F4F4F"/>
<circle cx="86.8896" cy="99.0849" r="1.52439" fill="#4F4F4F"/>
<circle cx="86.8896" cy="111.28" r="1.52439" fill="#4F4F4F"/>
<circle cx="86.8896" cy="123.476" r="1.52439" fill="#4F4F4F"/>
<circle cx="111.28" cy="1.52439" r="1.52439" fill="#4F4F4F"/>
<circle cx="111.28" cy="13.7197" r="1.52439" fill="#4F4F4F"/>
<circle cx="111.28" cy="25.914" r="1.52439" fill="#4F4F4F"/>
<circle cx="111.28" cy="38.1094" r="1.52439" fill="#4F4F4F"/>
<circle cx="111.28" cy="50.3047" r="1.52439" fill="#4F4F4F"/>
<circle cx="111.28" cy="62.499" r="1.52439" fill="#4F4F4F"/>
<circle cx="111.28" cy="74.6943" r="1.52439" fill="#4F4F4F"/>
<circle cx="111.28" cy="86.8906" r="1.52439" fill="#4F4F4F"/>
<circle cx="111.28" cy="99.0849" r="1.52439" fill="#4F4F4F"/>
<circle cx="111.28" cy="111.28" r="1.52439" fill="#4F4F4F"/>
<circle cx="111.28" cy="123.476" r="1.52439" fill="#4F4F4F"/>
<circle cx="123.476" cy="1.52439" r="1.52439" fill="#4F4F4F"/>
<circle cx="123.476" cy="13.7197" r="1.52439" fill="#4F4F4F"/>
<circle cx="123.476" cy="25.914" r="1.52439" fill="#4F4F4F"/>
<circle cx="123.476" cy="38.1094" r="1.52439" fill="#4F4F4F"/>
<circle cx="123.476" cy="50.3047" r="1.52439" fill="#4F4F4F"/>
<circle cx="123.476" cy="62.499" r="1.52439" fill="#4F4F4F"/>
<circle cx="123.476" cy="74.6943" r="1.52439" fill="#4F4F4F"/>
<circle cx="123.476" cy="86.8906" r="1.52439" fill="#4F4F4F"/>
<circle cx="123.476" cy="99.0849" r="1.52439" fill="#4F4F4F"/>
<circle cx="123.476" cy="111.28" r="1.52439" fill="#4F4F4F"/>
<circle cx="123.476" cy="123.476" r="1.52439" fill="#4F4F4F"/>
</svg>
