<?xml version="1.0" encoding="UTF-8"?> <svg xmlns="http://www.w3.org/2000/svg" width="42" height="42" viewBox="0 0 42 42" fill="none"> <path fill-rule="evenodd" clip-rule="evenodd" d="M31.583 12.4285C31.7151 12.2966 31.8199 12.1399 31.8914 11.9675C31.963 11.795 31.9999 11.6102 32 11.4235C32.0001 11.2368 31.9635 11.0519 31.8921 10.8793C31.8208 10.7068 31.7161 10.55 31.5842 10.4179C31.4523 10.2858 31.2956 10.181 31.1232 10.1094C30.9507 10.0379 30.7659 10.001 30.5792 10.0009C30.3925 10.0008 30.2076 10.0374 30.035 10.1088C29.8625 10.1801 29.7057 10.2847 29.5736 10.4167L20.9998 18.9905L12.4285 10.4167C12.1617 10.1499 11.7999 10 11.4226 10C11.0453 10 10.6835 10.1499 10.4167 10.4167C10.1499 10.6835 10 11.0453 10 11.4226C10 11.7999 10.1499 12.1617 10.4167 12.4285L18.9905 20.9998L10.4167 29.5711C10.2846 29.7032 10.1798 29.8601 10.1083 30.0327C10.0368 30.2052 10 30.3902 10 30.5771C10 30.7639 10.0368 30.9489 10.1083 31.1215C10.1798 31.294 10.2846 31.4509 10.4167 31.583C10.6835 31.8498 11.0453 31.9996 11.4226 31.9996C11.6094 31.9996 11.7944 31.9628 11.967 31.8913C12.1396 31.8199 12.2964 31.7151 12.4285 31.583L20.9998 23.0092L29.5736 31.583C29.8404 31.8494 30.2021 31.999 30.5792 31.9988C30.9562 31.9985 31.3178 31.8485 31.5842 31.5817C31.8507 31.3149 32.0002 30.9532 32 30.5762C31.9998 30.1991 31.8498 29.8376 31.583 29.5711L23.0092 20.9998L31.583 12.4285Z" fill="#337CFC"></path> </svg> 