<svg width="130" height="66" viewBox="0 0 130 66" fill="none" xmlns="http://www.w3.org/2000/svg">
<mask id="mask0_391_2" style="mask-type:luminance" maskUnits="userSpaceOnUse" x="0" y="0" width="130" height="66">
<path d="M129.465 0H0V65.7284H129.465V0Z" fill="white"/>
</mask>
<g mask="url(#mask0_391_2)">
<path d="M19.9117 14.7322H25.3668V16.0135H21.3344V19.0145H25.0296V20.2494H21.3344V21.6502C21.3344 22.2876 21.5503 22.8121 21.8941 23.1707C22.2784 23.5292 22.8381 23.7283 23.5259 23.7283H25.3735V24.9699H23.7821C22.4538 24.9699 21.5098 24.6911 20.8625 24.0935C20.2218 23.5358 19.9184 22.613 19.9184 21.4179V14.7322H19.9117ZM118.258 51.3609C118.258 51.9584 118.042 52.4032 117.617 52.7617C117.193 53.1202 116.633 53.3194 115.986 53.3194C114.786 53.3194 114.01 52.6023 113.794 51.2414L112.378 42.8028L109.418 51.5999C109.033 52.7218 108.258 53.3194 107.098 53.3194C105.938 53.3194 105.169 52.7218 104.779 51.5999L101.818 42.8028H101.731L100.531 50.6372C100.275 52.3966 99.4113 53.3128 98.0829 53.3128C97.5233 53.3128 97.0108 53.1136 96.5792 52.7551C96.1477 52.3966 95.9387 51.9584 95.9387 51.4737C95.9387 51.155 96.0263 50.5973 96.1949 49.7541L98.2987 38.3612C98.4673 37.3189 98.7708 36.6018 99.1146 36.1637C99.6273 35.6458 100.362 35.367 101.346 35.367C102.25 35.367 102.978 35.6458 103.41 36.2897C103.882 36.8873 104.313 37.7305 104.658 38.8459L107.105 45.764H107.145L109.722 38.2085C109.978 37.4118 110.409 36.7279 110.968 36.0906C111.401 35.6125 112.041 35.3735 112.857 35.3735C113.632 35.3735 114.314 35.5727 114.832 36.0109C115.351 36.4491 115.648 37.0533 115.777 37.7703L118.096 49.9268C118.177 50.4778 118.258 50.9558 118.258 51.3609ZM94.6104 46.0428C94.6104 48.32 93.8821 50.1591 92.3784 51.5202C90.8343 52.8812 88.8585 53.5584 86.4108 53.5584C83.9227 53.5584 81.947 52.8812 80.4433 51.5202C78.8992 50.1591 78.171 48.32 78.171 46.0428V37.445C78.171 36.0442 78.8992 35.367 80.3624 35.367C81.7785 35.367 82.5067 36.0442 82.5067 37.445V46.0428C82.5067 47.125 82.8505 48.0013 83.5788 48.6387C84.2666 49.3159 85.2106 49.6413 86.4108 49.6413C87.5706 49.6413 88.5146 49.3226 89.2429 48.6785C89.9711 48.0013 90.315 47.1582 90.315 46.0428V37.445C90.315 36.8474 90.4836 36.323 90.8747 35.9247C91.2186 35.5661 91.7311 35.367 92.3784 35.367C93.1067 35.367 93.6258 35.5263 94.0507 35.9247C94.435 36.323 94.6104 36.8474 94.6104 37.445V46.0428ZM129.465 20.2494C129.465 20.6876 129.377 21.1258 129.161 21.5706L122.722 35.4865C122.209 36.6084 121.474 37.1661 120.53 37.1661C119.411 37.1661 118.73 36.5686 118.514 35.367C118.602 34.8889 118.73 34.4906 118.899 34.1254L120.571 30.4074L116.585 21.4909C116.283 20.8535 116.154 20.3689 116.154 20.1299C116.154 19.6519 116.37 19.207 116.755 18.8485C117.139 18.5298 117.611 18.3705 118.171 18.3705C119.201 18.3705 119.93 18.8485 120.315 19.8112L122.762 25.687L125.21 20.2096C125.769 18.968 126.457 18.3705 127.354 18.3705C127.913 18.3705 128.426 18.5298 128.858 18.8883C129.249 19.2535 129.465 19.7316 129.465 20.2494ZM115.945 27.7716C115.945 29.0929 115.385 30.1684 114.314 30.9717C113.282 31.6888 112.081 32.0938 110.618 32.0938C109.418 32.0938 108.258 31.8946 107.226 31.5361C105.811 31.0581 105.082 30.3343 105.082 29.4181C105.082 28.9003 105.251 28.4555 105.554 28.097C105.858 27.7385 106.242 27.5393 106.755 27.5393C107.226 27.5393 107.914 27.7385 108.73 28.097C109.586 28.4953 110.233 28.6945 110.659 28.6945C111.515 28.6945 111.946 28.4157 111.946 27.9377C111.946 27.6588 111.859 27.4596 111.69 27.3401C111.522 27.1808 111.05 26.9816 110.274 26.7028C108.771 26.1451 107.867 25.7799 107.53 25.6205C106.458 25.0628 105.811 24.379 105.554 23.6221C105.466 23.3034 105.426 22.9449 105.426 22.5001C105.426 21.1789 105.986 20.1033 107.098 19.2601C108.13 18.4634 109.371 18.0585 110.834 18.0585C111.906 18.0585 112.897 18.2975 113.842 18.7357C115.001 19.2535 115.601 19.9373 115.601 20.8535C115.601 21.2917 115.433 21.6901 115.129 22.0154C114.786 22.3341 114.401 22.4934 113.881 22.4934C113.625 22.4934 113.153 22.3341 112.338 22.0154C111.562 21.6967 110.962 21.5374 110.537 21.5374C109.849 21.5374 109.465 21.8162 109.465 22.3341C109.465 22.6926 110.024 23.091 111.185 23.496C112.728 24.0537 113.76 24.4985 114.273 24.8171C115.385 25.5674 115.945 26.5699 115.945 27.7716ZM104.01 29.8498C104.01 30.3278 103.842 30.8124 103.451 31.2107C103.107 31.6091 102.675 31.8481 102.122 31.8481C101.049 31.8481 100.362 31.4099 100.018 30.6066C99.2023 31.5692 98.002 32.0871 96.4984 32.0871C93.9225 32.0871 92.0345 30.8855 90.8747 28.4887C90.2746 27.3268 90.0183 26.2114 90.0183 25.0894C90.0183 22.4138 91.0905 20.3689 93.2347 19.0145C94.2192 18.3772 95.2981 18.0518 96.3702 18.0518C97.8739 18.0518 99.1146 18.5697 100.018 19.5722C100.362 18.7755 101.003 18.3705 101.947 18.3705C102.547 18.3705 103.066 18.5697 103.451 18.9282C103.835 19.3265 104.01 19.8046 104.01 20.4088V29.8498ZM99.8424 25.0894C99.8424 24.1665 99.6273 23.4097 99.1551 22.8121C98.6426 22.1748 97.9076 21.8096 96.9636 21.8096C96.0601 21.8096 95.3318 22.1681 94.8194 22.8918C94.3473 23.5292 94.1315 24.2927 94.1315 25.1691C94.1315 26.0056 94.3878 26.7691 94.8598 27.3268C95.3723 28.004 96.1073 28.3293 96.9636 28.3293C97.9076 28.3293 98.6358 28.0107 99.1551 27.3268C99.6273 26.7691 99.8424 26.0122 99.8424 25.0894ZM89.371 29.7701C89.371 31.0514 88.6428 31.6888 87.1796 31.6888H80.5243C79.8837 31.6888 79.3645 31.4896 78.9329 31.1709C78.5013 30.8124 78.2923 30.2945 78.2923 29.6904V16.0534C78.2923 15.4558 78.5081 14.9712 78.852 14.6127C79.2364 14.2144 79.7555 14.0152 80.3557 14.0152H87.1796C88.508 14.0152 89.1957 14.6526 89.1957 15.894C89.1957 17.0958 88.508 17.6933 87.1796 17.6933H82.5876V20.9332H86.8829C87.483 20.9332 87.955 21.0925 88.3394 21.4511C88.7237 21.7697 88.8991 22.2478 88.8991 22.8121C88.8991 23.3698 88.7304 23.8147 88.3394 24.1334C87.955 24.4919 87.483 24.6512 86.8829 24.6512H82.5876V28.0107H87.1796C88.6428 28.0107 89.371 28.5683 89.371 29.7701ZM23.9912 27.4861V36.9604C23.9912 38.3213 24.2946 39.3172 24.8947 40.0409C25.4949 40.7181 26.3512 41.0833 27.4706 41.0833C28.5899 41.0833 29.4868 40.7248 30.0869 40.0409C30.687 39.3239 30.9904 38.3213 30.9904 36.9604V27.4861C30.9904 26.9284 31.4624 26.4438 32.0625 26.4438C32.6626 26.4438 33.1819 26.9219 33.1819 27.4861V37.0799C33.1819 38.2815 32.9256 39.3172 32.4536 40.2401C31.9816 41.163 31.2938 41.8402 30.4374 42.2784C29.5811 42.7564 28.5899 42.9954 27.4773 42.9954C26.358 42.9954 25.3735 42.7564 24.5172 42.2784C23.6608 41.8402 23.0135 41.1563 22.501 40.2401C22.029 39.3172 21.8132 38.2815 21.8132 37.0799V29.126C20.9569 28.9667 20.1814 28.7277 19.5409 28.409C18.2529 27.7318 17.2684 26.6894 16.3649 25.4081C13.0608 27.0878 8.2059 26.6496 6.06163 23.7682C4.55796 24.2462 3.27005 25.3284 2.75758 26.7292C2.02934 28.6082 2.45415 30.4473 3.82971 32.0473C4.1736 32.4456 4.1736 32.8838 3.82971 33.2888C3.70159 33.4083 3.87017 33.2092 3.66114 33.488C3.49257 33.727 3.31724 33.966 3.14867 34.2051C2.6969 34.9221 2.31254 35.6856 2.09677 36.5222C1.45618 39.0384 2.6969 41.0368 4.71305 42.4776C5.52894 40.519 7.07308 38.8392 9.08923 37.9628C9.94558 37.6441 10.8896 37.445 11.8808 37.445C13.081 37.445 13.081 39.2044 11.8808 39.2044C11.0244 39.2044 10.249 39.4036 9.56124 39.7621C7.88898 40.5588 6.68199 42.2386 6.20998 43.9979C6.20998 44.0377 6.20998 44.0776 6.20998 44.1572C6.25044 43.9979 6.20998 44.1174 6.20998 44.3564C6.16953 44.6751 6.12232 44.9938 6.12232 45.3191C6.12232 46.2819 6.12232 47.2379 6.37855 48.2005C7.06634 50.8762 8.95437 52.1576 11.9618 51.8787C12.6023 51.7991 12.9934 52.4763 12.8653 53.0007C12.0898 56.6789 16.6009 59.64 20.2488 59.4009C22.0088 58.7237 23.3372 57.5618 24.3284 56.1212C22.056 54.8796 20.9771 52.4828 20.8085 49.9666C20.6803 50.0463 20.5523 50.0861 20.377 50.0861C17.2415 50.1658 14.5847 49.0437 13.3777 46.6868C13.0743 46.0892 12.8653 45.3656 12.7776 44.5291C12.6495 43.407 14.578 43.407 14.7061 44.5291C14.7466 45.2461 14.9624 45.8104 15.2658 46.2884C16.2503 47.8088 18.2732 48.3267 20.377 48.2869C20.5455 48.2869 20.7209 48.3267 20.8489 48.4064C20.9366 47.53 21.1052 46.6868 21.4086 45.8901C21.6649 45.1332 22.0088 44.4494 22.4403 43.8519C23.1281 42.8892 24.8003 43.7722 24.1126 44.7283C23.681 45.286 23.3844 45.9697 23.1281 46.7266C22.3998 48.9641 22.528 51.7658 24.0317 53.5252C24.3756 53.9236 24.7599 54.2423 25.1914 54.5278C25.4949 53.9302 25.6635 53.326 25.8321 52.6887C26.0883 51.5666 27.9359 52.0513 27.6796 53.1667C27.4638 53.9634 27.2076 54.7668 26.8233 55.5237C25.9669 57.3627 24.5913 58.9627 22.7909 60.0848C23.9507 63.7629 30.0463 64.7655 33.5258 63.3247C34.645 62.9662 35.5014 63.2451 35.4542 63.9621C35.4542 64.2011 35.3261 64.48 34.9822 64.6393C30.7746 66.8767 23.0067 65.6817 21.1592 61.1205C16.4391 61.9571 10.8964 58.2789 10.8964 53.6846C7.93619 53.6447 5.52894 52.0446 4.67258 49.2098C4.24104 47.6495 4.11291 46.0096 4.28823 44.4096C1.45618 42.6103 -0.519502 39.9745 0.12108 36.6948C0.377312 35.254 1.02464 33.8532 1.92145 32.6581C0.505428 30.6597 -0.054238 28.3027 1.01789 25.979C1.79334 24.2595 3.29027 22.8188 5.18505 22.1814C4.45681 19.3398 4.8007 16.3057 7.03262 14.1081C8.40819 12.7072 10.2963 11.6715 12.3123 11.3064C12.3123 7.66804 16.8167 4.14925 20.6803 4.94596C20.9838 4.3086 21.3682 3.74426 21.8402 3.2264C21.8807 3.14673 21.9279 3.10689 21.9683 3.02722C22.056 2.94755 22.0964 2.90771 22.184 2.86788C23.944 1.18152 26.567 0.37817 29.2305 0.982341C30.4308 1.26119 29.9183 2.98075 28.718 2.7019C26.4861 2.18404 24.2542 3.06042 23.0067 4.70031C22.8381 4.93932 22.6629 5.21817 22.4943 5.53685C22.4066 5.77586 22.2784 6.01487 22.1908 6.25389C22.1908 6.37339 22.1032 6.4929 22.0222 6.57257C21.5907 7.81411 21.3816 9.16851 21.5098 10.3702C21.5975 11.532 22.0222 11.8906 21.1658 12.3288C20.5253 12.6076 20.0061 12.3686 19.7903 11.5719C19.406 10.0516 19.5341 8.29213 20.0466 6.65224C17.1673 6.41323 13.607 9.08884 14.2543 11.8109C14.3825 12.4084 13.951 12.8931 13.3508 12.933C11.5032 13.0525 9.57473 14.055 8.37447 15.3298C6.61456 17.2484 6.44598 19.6054 7.08657 21.9291C7.12702 22.0088 7.17423 22.0486 7.21469 22.1283C8.41493 25.0496 12.9664 25.0894 15.5827 23.7283C15.3669 22.9316 15.2388 22.1283 15.2388 21.2917C15.2793 20.5348 15.4546 19.7714 15.7513 19.0544C16.1828 17.9721 18.0236 18.4568 17.5517 19.4926C17.2482 20.2494 17.1673 20.973 17.1673 21.6901C17.2078 22.4868 17.3831 23.2902 17.7269 24.047C17.7269 24.0869 17.7269 24.0869 17.7269 24.0869C18.199 24.8437 18.7115 25.6471 19.3992 26.2446C19.615 26.4438 19.8712 26.6032 20.087 26.7227C20.8153 27.121 21.3344 27.4397 22.319 27.4795H22.5347H23.9912V27.4861ZM33.1347 24.9699V21.2519H28.4146V24.9699H26.9581V18.5298C26.9581 17.3281 27.302 16.3322 28.0303 15.6086C28.718 14.8916 29.6216 14.5662 30.7746 14.5662C31.5028 14.5662 32.1907 14.7255 32.7503 15.0044C33.3504 15.3231 33.782 15.8011 34.1259 16.4053C34.4293 17.0028 34.5978 17.7265 34.5978 18.5232V24.9632H33.1347V24.9699ZM30.7746 15.8144C30.0463 15.8144 29.4462 16.0534 29.0551 16.5314C28.6236 16.9696 28.4146 17.6933 28.4146 18.5697V19.9706H33.1347V18.5697C33.1347 17.6933 32.9189 16.9696 32.5346 16.5314C32.1029 16.0534 31.5434 15.8144 30.7746 15.8144ZM36.1825 24.9699V23.6088H37.3423C37.7266 23.6088 38.0301 23.5292 38.2863 23.3698C38.5425 23.1707 38.7583 22.9316 38.9741 22.613C39.1899 22.2943 39.3585 21.9358 39.5337 21.4909C39.709 21.0461 39.9653 20.4486 40.2619 19.6121C40.3901 19.1739 40.6059 18.6095 40.8621 17.9323C41.1655 17.2551 41.4217 16.6509 41.678 16.2127C41.9814 15.7745 42.3186 15.416 42.7501 15.1306C43.1345 14.8517 43.6537 14.7322 44.2066 14.7322H45.5349V16.0932H44.7191C44.2875 16.0932 43.9908 16.1729 43.6874 16.2924C43.4311 16.4517 43.1749 16.6907 42.9592 17.0094C42.7434 17.3281 42.5277 17.7264 42.3591 18.2111C42.1433 18.729 41.887 19.4527 41.5431 20.4486C41.2397 21.2851 40.943 22.0088 40.6396 22.6063C40.3833 23.164 40.0799 23.6487 39.7832 23.9674C39.4393 24.3259 39.0955 24.5649 38.7111 24.7242C38.3672 24.8836 37.8952 24.9632 37.4232 24.9632H36.1825V24.9699ZM49.5335 24.9699V21.0527C47.7332 20.6544 46.7892 19.4527 46.7892 17.5339V14.7721H48.2456V17.5339C48.2456 18.2908 48.4614 18.895 48.8053 19.2934C49.1492 19.6917 49.6213 19.8909 50.2618 19.8909C50.9024 19.8909 51.3812 19.6917 51.7183 19.2934C52.1026 18.895 52.278 18.2908 52.278 17.5339V14.7721H53.7411V17.5339C53.7411 19.4527 52.7971 20.6544 50.9968 21.0527V24.9699H49.5335ZM46.0542 42.7232C46.0542 43.2809 45.5821 43.7257 44.982 43.7257C44.4224 43.7257 43.9504 43.2875 43.91 42.7232V42.6833V32.5651C43.91 31.4432 43.6537 30.5668 43.1345 30.0091C42.622 29.4116 41.9342 29.1327 40.9902 29.1327C40.0462 29.1327 39.3179 29.4116 38.7988 30.0091C38.2863 30.5668 38.0705 31.4497 38.0705 32.5651V42.7232C38.0301 43.2809 37.558 43.7257 36.9512 43.7257C36.3511 43.7257 35.879 43.2875 35.879 42.7232V42.6833V32.5253C35.879 31.4432 36.0949 30.527 36.5196 29.6837C36.9512 28.887 37.5513 28.2828 38.32 27.8446C39.0954 27.4064 39.9922 27.2073 40.9835 27.2073C42.6153 27.2073 43.9436 27.8446 44.9754 29.0862C45.2787 28.6879 45.6631 28.3293 46.0946 28.0438C46.5262 27.765 46.9982 27.5658 47.4702 27.4064C47.9422 27.2869 48.4547 27.2073 48.9739 27.2073C50.0056 27.2073 50.8619 27.4064 51.6373 27.8446C52.4533 28.2828 53.0534 28.887 53.485 29.6837C53.9165 30.4804 54.1255 31.4432 54.1255 32.5253C54.1255 36.7214 55.9731 48.7582 49.2302 49.5151C50.1336 52.6356 49.9584 56.1942 49.0616 59.3479C52.7567 59.8259 57.6049 56.7917 56.789 52.9874C56.6609 52.4696 57.0453 51.7857 57.6926 51.8654C60.6527 52.1442 62.6688 50.8629 63.2757 48.1873C63.4915 47.2246 63.5792 46.2685 63.532 45.3059C63.532 44.9872 63.4915 44.6685 63.4443 44.3432C63.4443 44.1042 63.4038 43.9846 63.4443 44.144C63.4038 43.7456 63.4848 43.3871 63.8759 43.1414C66.4517 41.7008 68.3801 39.4235 67.571 36.5023C67.3553 35.6259 66.9709 34.8225 66.4517 34.0656C66.2831 33.8266 66.1483 33.5876 65.9797 33.3884C65.9392 33.3486 65.9392 33.3088 65.892 33.3088C65.892 33.3088 65.892 33.3088 65.892 33.2689C65.5076 32.8706 65.5076 32.4324 65.892 32.0274C67.2203 30.4274 67.8677 28.2297 66.7484 26.3508C66.1078 25.2288 65.1571 24.3525 63.9163 23.8744C62.9723 25.833 61.4282 27.5127 59.493 28.9136C59.4052 28.9535 59.3648 28.9933 59.3244 28.9933C59.3244 29.1128 59.3244 29.2323 59.3244 29.3518C59.2839 30.2282 59.1086 31.0713 58.8119 31.868C58.3804 32.9502 56.5395 32.4655 56.9643 31.39C57.2678 30.6729 57.3958 29.8697 57.4364 29.073C57.4364 28.3161 57.3082 27.5525 57.0047 26.8753C56.6609 26.0786 56.1484 25.3549 55.4134 24.7972C54.4694 24.0802 55.7977 22.7989 56.7418 23.5159C57.5172 24.1135 58.1173 24.8371 58.5422 25.6736C58.7579 26.072 58.9265 26.5102 59.0547 26.9948C60.5584 25.7931 61.6709 24.359 62.3587 22.7192C62.3587 22.6395 62.3587 22.5599 62.3992 22.52C63.2151 20.0037 63.2151 17.1622 61.1113 15.1637C59.8638 14.0018 58.1511 13.0856 56.3912 12.9263C55.5348 12.9661 54.6717 13.0458 53.8153 13.245C52.3993 13.6035 51.9678 11.8442 52.8309 11.645C53.6873 11.406 54.5908 11.2865 55.4944 11.2068C55.5348 8.36516 51.3272 5.80907 48.6233 6.89125C48.1512 7.09043 47.5915 6.69208 47.4635 6.25389C46.6475 3.45213 43.9436 2.09773 40.9362 2.69526C40.4643 2.77493 40.1204 2.53592 39.6888 2.37658C39.001 2.13757 38.2728 1.93839 37.5446 1.81888C36.169 1.54004 36.0409 2.74174 35.2249 2.78158C34.3686 2.82141 33.1617 2.30355 34.1529 1.18152C35.697 -0.697385 38.7044 0.0196517 40.8082 0.90267C44.3685 0.344974 47.6321 1.86536 48.9672 4.93932C52.8309 4.14261 57.3352 7.66141 57.3352 11.2997C59.439 11.6981 61.4552 12.7803 62.7902 14.2608C64.6378 16.3389 65.3661 19.5788 64.5906 22.2146C66.4786 22.9316 68.07 24.4122 68.7578 26.2512C69.6613 28.5285 69.1017 30.7261 67.7261 32.6515C68.6296 33.8532 69.3175 35.2474 69.5265 36.6881C70.0389 40.0078 68.2385 42.6036 65.3593 44.4029C65.5279 45.9632 65.447 47.6827 64.975 49.2031C64.0714 52.0446 61.7586 53.6381 58.7512 53.6779C58.7917 58.239 53.2556 61.9571 48.5356 61.1139C47.3354 64.3139 43.4717 65.4293 40.0327 64.9115C38.8324 64.7123 39.3449 62.9928 40.5452 63.192C42.8176 63.5505 45.2653 62.9131 46.3846 61.1139C47.9288 57.5553 48.4479 53.2397 47.241 49.5616C45.8654 49.4421 44.7056 48.7251 43.8088 47.7623C43.1682 47.0851 42.6894 46.242 42.4333 45.4055C42.0488 44.3232 43.8897 43.8452 44.2808 44.9673C44.4965 45.6445 44.9214 46.3283 45.4811 46.8461C46.1688 47.4436 47.0252 47.8487 48.0568 47.769C48.0568 47.769 48.0568 47.769 48.0974 47.769C53.6805 47.9682 51.9206 35.6125 51.9206 32.5785C51.9206 31.4564 51.6643 30.58 51.1452 30.0223C50.6327 29.4248 49.8977 29.146 48.9537 29.146C48.0501 29.146 47.3219 29.4248 46.8094 30.0223C46.2969 30.58 46.034 31.4631 46.034 32.5785V42.7232H46.0542Z" fill="white"/>
</g>
</svg>
