<svg width="20" height="20" viewBox="0 0 20 20" fill="none" xmlns="http://www.w3.org/2000/svg">
<g clip-path="url(#clip0_1_358)">
<path fill-rule="evenodd" clip-rule="evenodd" d="M2.02832 18.0429L3.15082 13.945C2.45832 12.7458 2.09415 11.385 2.09457 9.99125C2.09665 5.63083 5.64499 2.08333 10.0058 2.08333C12.1221 2.08416 14.1079 2.90791 15.6017 4.40249C17.095 5.8975 17.9175 7.88416 17.9167 9.9975C17.915 14.3579 14.3658 17.9058 10.0058 17.9058H10.0025C8.67874 17.9054 7.37749 17.5733 6.22207 16.9429L2.02832 18.0429Z" fill="white"/>
<path fill-rule="evenodd" clip-rule="evenodd" d="M2.02822 18.2513C1.97322 18.2513 1.91989 18.2296 1.8803 18.1896C1.82822 18.1367 1.8078 18.0596 1.82739 17.9883L2.92697 13.9733C2.2453 12.7625 1.88572 11.3875 1.88655 9.99167C1.88822 5.51583 5.5303 1.875 10.0057 1.875C12.1766 1.87583 14.2161 2.72125 15.7491 4.25542C17.282 5.79 18.1257 7.82917 18.1249 9.9975C18.1232 14.4729 14.4807 18.1142 10.0057 18.1142C8.67697 18.1138 7.36239 17.7858 6.19572 17.1654L2.08114 18.2442C2.06364 18.2492 2.04614 18.2513 2.02822 18.2513Z" fill="white"/>
<path fill-rule="evenodd" clip-rule="evenodd" d="M10.0059 2.08334C12.1222 2.08417 14.108 2.90792 15.6017 4.4025C17.0951 5.8975 17.9176 7.88417 17.9167 9.9975C17.9151 14.3579 14.3659 17.9058 10.0059 17.9058H10.0026C8.67883 17.9054 7.37758 17.5733 6.22216 16.9429L2.02841 18.0429L3.15091 13.945C2.45841 12.7458 2.09424 11.385 2.09466 9.99125C2.09674 5.63084 5.64508 2.08334 10.0059 2.08334ZM10.0059 1.66667C5.41591 1.66667 1.68008 5.40084 1.67799 9.99125C1.67758 11.3942 2.03174 12.7767 2.70341 14.0004L1.62633 17.9333C1.58716 18.0771 1.62716 18.2304 1.73216 18.3363C1.81133 18.4163 1.91841 18.46 2.02841 18.46C2.06383 18.46 2.09924 18.4554 2.13424 18.4463L6.17049 17.3879C7.34883 17.9996 8.66966 18.3225 10.0026 18.3229C14.5959 18.3229 18.3317 14.5883 18.3338 9.99792C18.3347 7.77334 17.4692 5.68167 15.8972 4.10834C14.3242 2.53459 12.2322 1.66751 10.0059 1.66667Z" fill="#CFD8DC"/>
<path fill-rule="evenodd" clip-rule="evenodd" d="M14.6566 5.34667C13.4149 4.10417 11.7645 3.41959 10.0078 3.41917C6.38118 3.41917 3.4316 6.36751 3.42993 9.99167C3.42952 11.2338 3.77702 12.4429 4.43535 13.49L4.59202 13.7388L3.92743 16.1642L6.41618 15.5117L6.6566 15.6542C7.66576 16.2533 8.82327 16.57 10.0033 16.5704H10.0058C13.6299 16.5704 16.5795 13.6217 16.5808 9.99709C16.5812 8.24084 15.8983 6.58917 14.6566 5.34667Z" fill="#40C351"/>
<path fill-rule="evenodd" clip-rule="evenodd" d="M8.02827 6.68542C7.88035 6.35625 7.72452 6.34958 7.58327 6.34375C7.46785 6.33875 7.33619 6.33917 7.20452 6.33917C7.07285 6.33917 6.85868 6.38875 6.67743 6.58667C6.49618 6.78458 5.98535 7.2625 5.98535 8.235C5.98535 9.2075 6.69368 10.1475 6.79243 10.2792C6.89118 10.4108 8.15993 12.4704 10.1691 13.2629C11.8387 13.9212 12.1787 13.7904 12.5412 13.7575C12.9037 13.7246 13.7108 13.2796 13.8754 12.8179C14.0399 12.3562 14.0399 11.9608 13.9908 11.8783C13.9412 11.7958 13.8095 11.7467 13.612 11.6475C13.4145 11.5483 12.4424 11.0704 12.2612 11.0046C12.0799 10.9387 11.9483 10.9058 11.8162 11.1037C11.6845 11.3012 11.3058 11.7467 11.1904 11.8783C11.0749 12.0104 10.9595 12.0271 10.762 11.9279C10.5645 11.8287 9.92785 11.6204 9.17243 10.9471C8.58493 10.4233 8.18827 9.77625 8.07285 9.57833C7.95743 9.38083 8.06035 9.27375 8.15952 9.175C8.24827 9.08625 8.35702 8.94417 8.45618 8.82875C8.55493 8.71333 8.58785 8.63083 8.65368 8.49917C8.71952 8.36708 8.6866 8.25167 8.63702 8.15292C8.58827 8.05375 8.2041 7.07625 8.02827 6.68542Z" fill="white"/>
</g>
<defs>
<clipPath id="clip0_1_358">
<rect width="20" height="20" fill="white"/>
</clipPath>
</defs>
</svg>
