<svg width="242" height="66" viewBox="0 0 242 66" fill="none" xmlns="http://www.w3.org/2000/svg">
<g clip-path="url(#clip0_87_187)">
<g clip-path="url(#clip1_87_187)">
<g clip-path="url(#clip2_87_187)">
<mask id="mask0_87_187" style="mask-type:luminance" maskUnits="userSpaceOnUse" x="0" y="-1" width="130" height="67">
<path d="M129.465 -0.00439453H0V65.724H129.465V-0.00439453Z" fill="white"/>
</mask>
<g mask="url(#mask0_87_187)">
<path d="M19.9117 14.7278H25.3668V16.0091H21.3344V19.0101H25.0296V20.245H21.3344V21.6458C21.3344 22.2832 21.5503 22.8077 21.8941 23.1663C22.2784 23.5248 22.8381 23.724 23.5259 23.724H25.3735V24.9655H23.7821C22.4538 24.9655 21.5098 24.6867 20.8625 24.0891C20.2218 23.5314 19.9184 22.6086 19.9184 21.4135V14.7278H19.9117ZM118.258 51.3565C118.258 51.954 118.042 52.3988 117.617 52.7573C117.193 53.1158 116.633 53.315 115.986 53.315C114.786 53.315 114.01 52.5979 113.794 51.237L112.378 42.7984L109.418 51.5955C109.033 52.7174 108.258 53.315 107.098 53.315C105.938 53.315 105.169 52.7174 104.779 51.5955L101.818 42.7984H101.731L100.531 50.6328C100.275 52.3922 99.4113 53.3084 98.0829 53.3084C97.5233 53.3084 97.0108 53.1092 96.5792 52.7507C96.1477 52.3922 95.9387 51.954 95.9387 51.4693C95.9387 51.1506 96.0263 50.5929 96.1949 49.7497L98.2987 38.3568C98.4673 37.3145 98.7708 36.5975 99.1146 36.1593C99.6273 35.6414 100.362 35.3626 101.346 35.3626C102.25 35.3626 102.978 35.6414 103.41 36.2853C103.882 36.8829 104.313 37.7261 104.658 38.8415L107.105 45.7596H107.145L109.722 38.2041C109.978 37.4074 110.409 36.7235 110.968 36.0862C111.401 35.6081 112.041 35.3691 112.857 35.3691C113.632 35.3691 114.314 35.5683 114.832 36.0065C115.351 36.4447 115.648 37.0489 115.777 37.7659L118.096 49.9224C118.177 50.4734 118.258 50.9514 118.258 51.3565ZM94.6104 46.0384C94.6104 48.3156 93.8821 50.1547 92.3784 51.5158C90.8343 52.8768 88.8585 53.554 86.4108 53.554C83.9227 53.554 81.947 52.8768 80.4433 51.5158C78.8992 50.1547 78.171 48.3156 78.171 46.0384V37.4406C78.171 36.0398 78.8992 35.3626 80.3624 35.3626C81.7785 35.3626 82.5067 36.0398 82.5067 37.4406V46.0384C82.5067 47.1206 82.8505 47.9969 83.5788 48.6343C84.2666 49.3115 85.2106 49.6369 86.4108 49.6369C87.5706 49.6369 88.5146 49.3182 89.2429 48.6742C89.9711 47.9969 90.315 47.1538 90.315 46.0384V37.4406C90.315 36.843 90.4836 36.3186 90.8747 35.9203C91.2186 35.5617 91.7311 35.3626 92.3784 35.3626C93.1067 35.3626 93.6258 35.5219 94.0507 35.9203C94.435 36.3186 94.6104 36.843 94.6104 37.4406V46.0384ZM129.465 20.245C129.465 20.6832 129.377 21.1214 129.161 21.5662L122.722 35.4821C122.209 36.604 121.474 37.1617 120.53 37.1617C119.411 37.1617 118.73 36.5642 118.514 35.3626C118.602 34.8845 118.73 34.4862 118.899 34.121L120.571 30.4031L116.585 21.4865C116.283 20.8491 116.154 20.3645 116.154 20.1255C116.154 19.6475 116.37 19.2026 116.755 18.8441C117.139 18.5254 117.611 18.3661 118.171 18.3661C119.201 18.3661 119.93 18.8441 120.315 19.8068L122.762 25.6826L125.21 20.2052C125.769 18.9636 126.457 18.3661 127.354 18.3661C127.913 18.3661 128.426 18.5254 128.858 18.884C129.249 19.2491 129.465 19.7272 129.465 20.245ZM115.945 27.7672C115.945 29.0885 115.385 30.164 114.314 30.9673C113.282 31.6844 112.081 32.0894 110.618 32.0894C109.418 32.0894 108.258 31.8902 107.226 31.5317C105.811 31.0537 105.082 30.33 105.082 29.4137C105.082 28.8959 105.251 28.4511 105.554 28.0926C105.858 27.7341 106.242 27.5349 106.755 27.5349C107.226 27.5349 107.914 27.7341 108.73 28.0926C109.586 28.491 110.233 28.6901 110.659 28.6901C111.515 28.6901 111.946 28.4113 111.946 27.9333C111.946 27.6544 111.859 27.4552 111.69 27.3357C111.522 27.1764 111.05 26.9772 110.274 26.6984C108.771 26.1407 107.867 25.7755 107.53 25.6161C106.458 25.0584 105.811 24.3746 105.554 23.6177C105.466 23.299 105.426 22.9405 105.426 22.4957C105.426 21.1745 105.986 20.0989 107.098 19.2557C108.13 18.459 109.371 18.0541 110.834 18.0541C111.906 18.0541 112.897 18.2931 113.842 18.7313C115.001 19.2491 115.601 19.9329 115.601 20.8491C115.601 21.2873 115.433 21.6857 115.129 22.011C114.786 22.3297 114.401 22.4891 113.881 22.4891C113.625 22.4891 113.153 22.3297 112.338 22.011C111.562 21.6923 110.962 21.533 110.537 21.533C109.849 21.533 109.465 21.8119 109.465 22.3297C109.465 22.6882 110.024 23.0866 111.185 23.4916C112.728 24.0493 113.76 24.4941 114.273 24.8128C115.385 25.5631 115.945 26.5655 115.945 27.7672ZM104.01 29.8454C104.01 30.3234 103.842 30.808 103.451 31.2063C103.107 31.6047 102.675 31.8437 102.122 31.8437C101.049 31.8437 100.362 31.4055 100.018 30.6022C99.2023 31.5649 98.002 32.0827 96.4984 32.0827C93.9225 32.0827 92.0345 30.8811 90.8747 28.4843C90.2746 27.3224 90.0183 26.207 90.0183 25.085C90.0183 22.4094 91.0905 20.3645 93.2347 19.0101C94.2192 18.3728 95.2981 18.0474 96.3702 18.0474C97.8739 18.0474 99.1146 18.5653 100.018 19.5678C100.362 18.7711 101.003 18.3661 101.947 18.3661C102.547 18.3661 103.066 18.5653 103.451 18.9238C103.835 19.3221 104.01 19.8002 104.01 20.4044V29.8454ZM99.8424 25.085C99.8424 24.1621 99.6273 23.4053 99.1551 22.8077C98.6426 22.1704 97.9076 21.8052 96.9636 21.8052C96.0601 21.8052 95.3318 22.1637 94.8194 22.8874C94.3473 23.5248 94.1315 24.2883 94.1315 25.1647C94.1315 26.0012 94.3878 26.7647 94.8598 27.3224C95.3723 27.9996 96.1073 28.3249 96.9636 28.3249C97.9076 28.3249 98.6358 28.0063 99.1551 27.3224C99.6273 26.7647 99.8424 26.0078 99.8424 25.085ZM89.371 29.7657C89.371 31.047 88.6428 31.6844 87.1796 31.6844H80.5243C79.8837 31.6844 79.3645 31.4852 78.9329 31.1665C78.5013 30.808 78.2923 30.2901 78.2923 29.686V16.049C78.2923 15.4514 78.5081 14.9668 78.852 14.6083C79.2364 14.21 79.7555 14.0108 80.3557 14.0108H87.1796C88.508 14.0108 89.1957 14.6482 89.1957 15.8896C89.1957 17.0914 88.508 17.6889 87.1796 17.6889H82.5876V20.9288H86.8829C87.483 20.9288 87.955 21.0881 88.3394 21.4467C88.7237 21.7653 88.8991 22.2434 88.8991 22.8077C88.8991 23.3654 88.7304 23.8103 88.3394 24.129C87.955 24.4875 87.483 24.6468 86.8829 24.6468H82.5876V28.0063H87.1796C88.6428 28.0063 89.371 28.564 89.371 29.7657ZM23.9912 27.4817V36.956C23.9912 38.3169 24.2946 39.3128 24.8947 40.0365C25.4949 40.7137 26.3512 41.0789 27.4706 41.0789C28.5899 41.0789 29.4868 40.7204 30.0869 40.0365C30.687 39.3195 30.9904 38.3169 30.9904 36.956V27.4817C30.9904 26.924 31.4624 26.4394 32.0625 26.4394C32.6626 26.4394 33.1819 26.9175 33.1819 27.4817V37.0755C33.1819 38.2771 32.9256 39.3128 32.4536 40.2357C31.9816 41.1586 31.2938 41.8358 30.4374 42.274C29.5811 42.752 28.5899 42.991 27.4773 42.991C26.358 42.991 25.3735 42.752 24.5172 42.274C23.6608 41.8358 23.0135 41.1519 22.501 40.2357C22.029 39.3128 21.8132 38.2771 21.8132 37.0755V29.1216C20.9569 28.9623 20.1814 28.7233 19.5409 28.4046C18.2529 27.7274 17.2684 26.685 16.3649 25.4037C13.0608 27.0834 8.2059 26.6452 6.06163 23.7638C4.55796 24.2418 3.27005 25.324 2.75758 26.7249C2.02934 28.6038 2.45415 30.4429 3.82971 32.0429C4.1736 32.4412 4.1736 32.8794 3.82971 33.2844C3.70159 33.404 3.87017 33.2048 3.66114 33.4836C3.49257 33.7226 3.31724 33.9616 3.14867 34.2007C2.6969 34.9177 2.31254 35.6812 2.09677 36.5178C1.45618 39.034 2.6969 41.0324 4.71305 42.4732C5.52894 40.5146 7.07308 38.8348 9.08923 37.9584C9.94558 37.6398 10.8896 37.4406 11.8808 37.4406C13.081 37.4406 13.081 39.2 11.8808 39.2C11.0244 39.2 10.249 39.3992 9.56124 39.7577C7.88898 40.5544 6.68199 42.2342 6.20998 43.9935C6.20998 44.0333 6.20998 44.0732 6.20998 44.1528C6.25044 43.9935 6.20998 44.113 6.20998 44.352C6.16953 44.6707 6.12232 44.9894 6.12232 45.3147C6.12232 46.2775 6.12232 47.2335 6.37855 48.1961C7.06634 50.8718 8.95437 52.1532 11.9618 51.8743C12.6023 51.7947 12.9934 52.4719 12.8653 52.9963C12.0898 56.6745 16.6009 59.6356 20.2488 59.3965C22.0088 58.7193 23.3372 57.5574 24.3284 56.1168C22.056 54.8752 20.9771 52.4784 20.8085 49.9622C20.6803 50.0419 20.5523 50.0817 20.377 50.0817C17.2415 50.1614 14.5847 49.0393 13.3777 46.6824C13.0743 46.0849 12.8653 45.3612 12.7776 44.5247C12.6495 43.4026 14.578 43.4026 14.7061 44.5247C14.7466 45.2417 14.9624 45.806 15.2658 46.284C16.2503 47.8044 18.2732 48.3223 20.377 48.2825C20.5455 48.2825 20.7209 48.3223 20.8489 48.402C20.9366 47.5256 21.1052 46.6824 21.4086 45.8857C21.6649 45.1288 22.0088 44.445 22.4403 43.8475C23.1281 42.8848 24.8003 43.7678 24.1126 44.7239C23.681 45.2816 23.3844 45.9653 23.1281 46.7222C22.3998 48.9597 22.528 51.7614 24.0317 53.5208C24.3756 53.9192 24.7599 54.2379 25.1914 54.5234C25.4949 53.9259 25.6635 53.3216 25.8321 52.6843C26.0883 51.5622 27.9359 52.0469 27.6796 53.1623C27.4638 53.959 27.2076 54.7624 26.8233 55.5193C25.9669 57.3583 24.5913 58.9584 22.7909 60.0804C23.9507 63.7585 30.0463 64.7611 33.5258 63.3203C34.645 62.9618 35.5014 63.2407 35.4542 63.9577C35.4542 64.1967 35.3261 64.4756 34.9822 64.6349C30.7746 66.8724 23.0067 65.6773 21.1592 61.1161C16.4391 61.9527 10.8964 58.2745 10.8964 53.6802C7.93619 53.6403 5.52894 52.0402 4.67258 49.2054C4.24104 47.6451 4.11291 46.0052 4.28823 44.4052C1.45618 42.6059 -0.519502 39.9701 0.12108 36.6904C0.377312 35.2496 1.02464 33.8488 1.92145 32.6538C0.505428 30.6553 -0.054238 28.2983 1.01789 25.9747C1.79334 24.2551 3.29027 22.8144 5.18505 22.177C4.45681 19.3354 4.8007 16.3013 7.03262 14.1037C8.40819 12.7028 10.2963 11.6671 12.3123 11.302C12.3123 7.66365 16.8167 4.14486 20.6803 4.94157C20.9838 4.3042 21.3682 3.73986 21.8402 3.222C21.8807 3.14233 21.9279 3.1025 21.9683 3.02283C22.056 2.94316 22.0964 2.90332 22.184 2.86348C23.944 1.17712 26.567 0.373776 29.2305 0.977946C30.4308 1.25679 29.9183 2.97636 28.718 2.69751C26.4861 2.17965 24.2542 3.05603 23.0067 4.69591C22.8381 4.93492 22.6629 5.21377 22.4943 5.53246C22.4066 5.77147 22.2784 6.01048 22.1908 6.24949C22.1908 6.369 22.1032 6.4885 22.0222 6.56818C21.5907 7.80972 21.3816 9.16412 21.5098 10.3659C21.5975 11.5277 22.0222 11.8862 21.1658 12.3244C20.5253 12.6032 20.0061 12.3642 19.7903 11.5675C19.406 10.0472 19.5341 8.28774 20.0466 6.64785C17.1673 6.40883 13.607 9.08445 14.2543 11.8065C14.3825 12.404 13.951 12.8887 13.3508 12.9286C11.5032 13.0481 9.57473 14.0506 8.37447 15.3254C6.61456 17.244 6.44598 19.601 7.08657 21.9247C7.12702 22.0044 7.17423 22.0442 7.21469 22.1239C8.41493 25.0452 12.9664 25.085 15.5827 23.724C15.3669 22.9272 15.2388 22.1239 15.2388 21.2873C15.2793 20.5304 15.4546 19.767 15.7513 19.05C16.1828 17.9677 18.0236 18.4524 17.5517 19.4882C17.2482 20.245 17.1673 20.9686 17.1673 21.6857C17.2078 22.4824 17.3831 23.2858 17.7269 24.0426C17.7269 24.0825 17.7269 24.0825 17.7269 24.0825C18.199 24.8393 18.7115 25.6427 19.3992 26.2403C19.615 26.4394 19.8712 26.5988 20.087 26.7183C20.8153 27.1166 21.3344 27.4353 22.319 27.4752H22.5347H23.9912V27.4817ZM33.1347 24.9655V21.2475H28.4146V24.9655H26.9581V18.5254C26.9581 17.3237 27.302 16.3278 28.0303 15.6042C28.718 14.8872 29.6216 14.5618 30.7746 14.5618C31.5028 14.5618 32.1907 14.7212 32.7503 15C33.3504 15.3187 33.782 15.7967 34.1259 16.4009C34.4293 16.9984 34.5978 17.7221 34.5978 18.5188V24.9589H33.1347V24.9655ZM30.7746 15.81C30.0463 15.81 29.4462 16.049 29.0551 16.527C28.6236 16.9652 28.4146 17.6889 28.4146 18.5653V19.9662H33.1347V18.5653C33.1347 17.6889 32.9189 16.9652 32.5346 16.527C32.1029 16.049 31.5434 15.81 30.7746 15.81ZM36.1825 24.9655V23.6044H37.3423C37.7266 23.6044 38.0301 23.5248 38.2863 23.3654C38.5425 23.1663 38.7583 22.9272 38.9741 22.6086C39.1899 22.2899 39.3585 21.9314 39.5337 21.4865C39.709 21.0417 39.9653 20.4442 40.2619 19.6077C40.3901 19.1695 40.6059 18.6051 40.8621 17.9279C41.1655 17.2507 41.4217 16.6465 41.678 16.2083C41.9814 15.7701 42.3186 15.4116 42.7501 15.1262C43.1345 14.8473 43.6537 14.7278 44.2066 14.7278H45.5349V16.0888H44.7191C44.2875 16.0888 43.9908 16.1685 43.6874 16.288C43.4311 16.4473 43.1749 16.6863 42.9592 17.005C42.7434 17.3237 42.5277 17.7221 42.3591 18.2068C42.1433 18.7246 41.887 19.4483 41.5431 20.4442C41.2397 21.2807 40.943 22.0044 40.6396 22.6019C40.3833 23.1596 40.0799 23.6443 39.7832 23.963C39.4393 24.3215 39.0955 24.5605 38.7111 24.7198C38.3672 24.8792 37.8952 24.9589 37.4232 24.9589H36.1825V24.9655ZM49.5335 24.9655V21.0483C47.7332 20.65 46.7892 19.4483 46.7892 17.5295V14.7677H48.2456V17.5295C48.2456 18.2864 48.4614 18.8906 48.8053 19.289C49.1492 19.6873 49.6213 19.8865 50.2618 19.8865C50.9024 19.8865 51.3812 19.6873 51.7183 19.289C52.1026 18.8906 52.278 18.2864 52.278 17.5295V14.7677H53.7411V17.5295C53.7411 19.4483 52.7971 20.65 50.9968 21.0483V24.9655H49.5335ZM46.0542 42.7188C46.0542 43.2765 45.5821 43.7213 44.982 43.7213C44.4224 43.7213 43.9504 43.2831 43.91 42.7188V42.6789V32.5607C43.91 31.4388 43.6537 30.5624 43.1345 30.0047C42.622 29.4072 41.9342 29.1283 40.9902 29.1283C40.0462 29.1283 39.3179 29.4072 38.7988 30.0047C38.2863 30.5624 38.0705 31.4453 38.0705 32.5607V42.7188C38.0301 43.2765 37.558 43.7213 36.9512 43.7213C36.3511 43.7213 35.879 43.2831 35.879 42.7188V42.6789V32.5209C35.879 31.4388 36.0949 30.5226 36.5196 29.6793C36.9512 28.8826 37.5513 28.2784 38.32 27.8402C39.0954 27.4021 39.9922 27.2029 40.9835 27.2029C42.6153 27.2029 43.9436 27.8402 44.9754 29.0818C45.2787 28.6835 45.6631 28.3249 46.0946 28.0394C46.5262 27.7606 46.9982 27.5614 47.4702 27.4021C47.9422 27.2825 48.4547 27.2029 48.9739 27.2029C50.0056 27.2029 50.8619 27.4021 51.6373 27.8402C52.4533 28.2784 53.0534 28.8826 53.485 29.6793C53.9165 30.4761 54.1255 31.4388 54.1255 32.5209C54.1255 36.717 55.9731 48.7538 49.2302 49.5107C50.1336 52.6312 49.9584 56.1898 49.0616 59.3435C52.7567 59.8215 57.6049 56.7873 56.789 52.983C56.6609 52.4652 57.0453 51.7813 57.6926 51.861C60.6527 52.1398 62.6688 50.8585 63.2757 48.1829C63.4915 47.2202 63.5792 46.2641 63.532 45.3015C63.532 44.9828 63.4915 44.6641 63.4443 44.3388C63.4443 44.0998 63.4038 43.9802 63.4443 44.1396C63.4038 43.7412 63.4848 43.3827 63.8759 43.137C66.4517 41.6964 68.3801 39.4191 67.571 36.4979C67.3553 35.6215 66.9709 34.8181 66.4517 34.0612C66.2831 33.8222 66.1483 33.5832 65.9797 33.384C65.9392 33.3442 65.9392 33.3044 65.892 33.3044C65.892 33.3044 65.892 33.3044 65.892 33.2645C65.5076 32.8662 65.5076 32.428 65.892 32.023C67.2203 30.423 67.8677 28.2254 66.7484 26.3464C66.1078 25.2245 65.1571 24.3481 63.9163 23.8701C62.9723 25.8286 61.4282 27.5083 59.493 28.9092C59.4052 28.9491 59.3648 28.9889 59.3244 28.9889C59.3244 29.1084 59.3244 29.2279 59.3244 29.3474C59.2839 30.2238 59.1086 31.0669 58.8119 31.8636C58.3804 32.9458 56.5395 32.4611 56.9643 31.3856C57.2678 30.6686 57.3958 29.8653 57.4364 29.0686C57.4364 28.3117 57.3082 27.5482 57.0047 26.8709C56.6609 26.0742 56.1484 25.3505 55.4134 24.7928C54.4694 24.0758 55.7977 22.7945 56.7418 23.5115C57.5172 24.1091 58.1173 24.8327 58.5422 25.6692C58.7579 26.0676 58.9265 26.5058 59.0547 26.9905C60.5584 25.7887 61.6709 24.3546 62.3587 22.7148C62.3587 22.6352 62.3587 22.5555 62.3992 22.5156C63.2151 19.9993 63.2151 17.1578 61.1113 15.1593C59.8638 13.9974 58.1511 13.0812 56.3912 12.9219C55.5348 12.9617 54.6717 13.0414 53.8153 13.2406C52.3993 13.5991 51.9678 11.8398 52.8309 11.6406C53.6873 11.4016 54.5908 11.2821 55.4944 11.2024C55.5348 8.36077 51.3272 5.80467 48.6233 6.88686C48.1512 7.08604 47.5915 6.68768 47.4635 6.24949C46.6475 3.44774 43.9436 2.09334 40.9362 2.69087C40.4643 2.77054 40.1204 2.53153 39.6888 2.37218C39.001 2.13317 38.2728 1.934 37.5446 1.81449C36.169 1.53564 36.0409 2.73735 35.2249 2.77718C34.3686 2.81702 33.1617 2.29916 34.1529 1.17712C35.697 -0.70178 38.7044 0.0152572 40.8082 0.898275C44.3685 0.34058 47.6321 1.86097 48.9672 4.93492C52.8309 4.13822 57.3352 7.65702 57.3352 11.2953C59.439 11.6937 61.4552 12.7759 62.7902 14.2564C64.6378 16.3345 65.3661 19.5744 64.5906 22.2102C66.4786 22.9272 68.07 24.4078 68.7578 26.2468C69.6613 28.5241 69.1017 30.7217 67.7261 32.6471C68.6296 33.8488 69.3175 35.2431 69.5265 36.6837C70.0389 40.0034 68.2385 42.5993 65.3593 44.3985C65.5279 45.9588 65.447 47.6783 64.975 49.1987C64.0714 52.0402 61.7586 53.6337 58.7512 53.6735C58.7917 58.2346 53.2556 61.9527 48.5356 61.1095C47.3354 64.3095 43.4717 65.4249 40.0327 64.9071C38.8324 64.7079 39.3449 62.9884 40.5452 63.1876C42.8176 63.5461 45.2653 62.9087 46.3846 61.1095C47.9288 57.5509 48.4479 53.2353 47.241 49.5572C45.8654 49.4377 44.7056 48.7207 43.8088 47.7579C43.1682 47.0807 42.6894 46.2376 42.4333 45.4011C42.0488 44.3189 43.8897 43.8408 44.2808 44.9629C44.4965 45.6401 44.9214 46.3239 45.4811 46.8417C46.1688 47.4393 47.0252 47.8443 48.0568 47.7646C48.0568 47.7646 48.0568 47.7646 48.0974 47.7646C53.6805 47.9638 51.9206 35.6081 51.9206 32.5741C51.9206 31.452 51.6643 30.5756 51.1452 30.0179C50.6327 29.4204 49.8977 29.1416 48.9537 29.1416C48.0501 29.1416 47.3219 29.4204 46.8094 30.0179C46.2969 30.5756 46.034 31.4587 46.034 32.5741V42.7188H46.0542Z" fill="#2575FC"/>
</g>
<path d="M136.437 6.34424V60.1309" stroke="#2575FC" stroke-width="1.99177" stroke-linecap="round"/>
<path d="M150.807 31.2314H147.311L146.594 33.2332H144.055L147.864 22.7764H150.553L154.362 33.2332H151.524L150.807 31.2314ZM148.073 29.1699H150.045L149.059 26.0628L148.073 29.1699ZM155.257 25.3159H157.558V28.3185H158.155L160.366 25.3159H162.876L159.963 29.0355L163.025 33.2332H160.307L158.155 30.0812H157.558V33.2332H155.257V25.3159ZM166.242 33.4274C165.814 33.4274 165.43 33.3626 165.092 33.2332C164.763 33.1037 164.484 32.9294 164.255 32.7103C164.026 32.4813 163.852 32.2174 163.732 31.9186C163.613 31.6099 163.553 31.2762 163.553 30.9177C163.553 30.131 163.792 29.5285 164.27 29.1102C164.758 28.6919 165.49 28.4828 166.466 28.4828H168.722V28.1541C168.722 27.6761 168.607 27.3475 168.378 27.1682C168.149 26.979 167.835 26.8844 167.437 26.8844C167.059 26.8844 166.78 26.9441 166.601 27.0637C166.421 27.1832 166.322 27.3724 166.302 27.6313H164.001C164.021 27.2728 164.111 26.9441 164.27 26.6454C164.43 26.3367 164.654 26.0727 164.942 25.8537C165.241 25.6246 165.605 25.4453 166.033 25.3159C166.461 25.1864 166.954 25.1217 167.512 25.1217C168.03 25.1217 168.503 25.1814 168.931 25.3009C169.369 25.4105 169.743 25.5947 170.051 25.8537C170.36 26.1026 170.599 26.4313 170.768 26.8396C170.938 27.2379 171.022 27.7259 171.022 28.3035V31.2165C171.022 31.6348 171.032 32.0032 171.052 32.3219C171.072 32.6306 171.102 32.9344 171.142 33.2332H168.961C168.941 33.0639 168.921 32.9145 168.901 32.785C168.891 32.6555 168.886 32.4962 168.886 32.307C168.647 32.6257 168.313 32.8946 167.885 33.1137C167.467 33.3228 166.919 33.4274 166.242 33.4274ZM166.989 31.814C167.477 31.814 167.885 31.6746 168.214 31.3958C168.552 31.1169 168.722 30.7335 168.722 30.2455V29.9169H166.914C166.576 29.9169 166.322 30.0065 166.152 30.1858C165.993 30.365 165.913 30.5741 165.913 30.8132C165.913 31.102 165.993 31.341 166.152 31.5302C166.322 31.7194 166.601 31.814 166.989 31.814ZM171.92 31.3509H172.756C172.965 31.0422 173.115 30.619 173.204 30.0812C173.294 29.5334 173.339 28.7915 173.339 27.8554V25.3159H179.837V31.3509H180.733V35.1004H178.791V33.2332H173.862V35.1004H171.92V31.3509ZM177.536 31.3509V27.1981H175.46V28.1541C175.46 28.9011 175.42 29.5334 175.34 30.0513C175.271 30.5692 175.161 31.0024 175.012 31.3509H177.536ZM185.515 33.4274C184.938 33.4274 184.395 33.3477 183.887 33.1883C183.389 33.019 182.956 32.7651 182.587 32.4265C182.219 32.0879 181.93 31.6646 181.721 31.1567C181.512 30.6389 181.407 30.0364 181.407 29.3492V29.0504C181.407 28.3932 181.507 27.8205 181.706 27.3325C181.915 26.8446 182.194 26.4362 182.543 26.1076C182.901 25.779 183.319 25.535 183.797 25.3756C184.285 25.2063 184.808 25.1217 185.366 25.1217C186.671 25.1217 187.657 25.4603 188.324 26.1375C188.991 26.8047 189.325 27.7757 189.325 29.0504V29.872H183.768C183.778 30.1808 183.832 30.4447 183.932 30.6638C184.031 30.8729 184.161 31.0472 184.32 31.1866C184.48 31.326 184.659 31.4306 184.858 31.5003C185.067 31.5601 185.286 31.5899 185.515 31.5899C185.954 31.5899 186.297 31.5252 186.546 31.3958C186.805 31.2563 186.974 31.0721 187.054 30.843H189.175C189.016 31.7095 188.623 32.3568 187.995 32.785C187.368 33.2132 186.541 33.4274 185.515 33.4274ZM185.441 26.9441C185.232 26.9441 185.027 26.969 184.828 27.0188C184.639 27.0686 184.465 27.1533 184.305 27.2728C184.156 27.3823 184.031 27.5267 183.932 27.706C183.842 27.8853 183.792 28.1044 183.783 28.3633H187.069C187.069 28.0844 187.024 27.8554 186.935 27.6761C186.845 27.4969 186.725 27.3525 186.576 27.2429C186.437 27.1334 186.267 27.0587 186.068 27.0188C185.869 26.969 185.66 26.9441 185.441 26.9441ZM190.518 25.3159H193.311L195.193 29.2446L197.076 25.3159H199.779V33.2332H197.598V28.3782L195.895 31.7393H194.402L192.699 28.3782V33.2332H190.518V25.3159ZM201.269 25.3159H203.51V30.0961L206.871 25.3159H208.888V33.2332H206.647V28.4529L203.286 33.2332H201.269V25.3159ZM212.03 30.3053C211.432 30.1061 210.994 29.8123 210.715 29.4239C210.446 29.0255 210.312 28.5674 210.312 28.0496C210.312 27.6612 210.377 27.3027 210.506 26.974C210.646 26.6354 210.855 26.3466 211.134 26.1076C211.412 25.8586 211.766 25.6644 212.194 25.525C212.632 25.3856 213.15 25.3159 213.748 25.3159H217.632V33.2332H215.331V30.5592H214.196L212.523 33.2332H210.013L212.03 30.3053ZM212.612 28.0496C212.612 28.3284 212.712 28.5326 212.911 28.662C213.12 28.7915 213.374 28.8562 213.673 28.8562H215.331V27.1981H213.673C213.374 27.1981 213.12 27.2678 212.911 27.4072C212.712 27.5467 212.612 27.7608 212.612 28.0496ZM144.802 40.2541H147.102V48.1714H144.802V40.2541ZM145.952 39.5072C145.524 39.5072 145.19 39.3977 144.951 39.1786C144.722 38.9495 144.607 38.6607 144.607 38.3122C144.607 37.9636 144.722 37.6798 144.951 37.4607C145.19 37.2316 145.524 37.1171 145.952 37.1171C146.38 37.1171 146.709 37.2316 146.938 37.4607C147.177 37.6798 147.296 37.9636 147.296 38.3122C147.296 38.6607 147.177 38.9495 146.938 39.1786C146.709 39.3977 146.38 39.5072 145.952 39.5072ZM152.112 48.2611C151.614 48.2611 151.186 48.2162 150.828 48.1266C150.469 48.027 150.175 47.8677 149.946 47.6486C149.717 47.4295 149.548 47.1457 149.438 46.7971C149.329 46.4386 149.274 46.0004 149.274 45.4825V42.1364H148.303V40.2541H149.274V38.4616H151.575V40.2541H153.382V42.1364H151.575V45.1091C151.575 45.5572 151.644 45.8759 151.784 46.0651C151.933 46.2543 152.217 46.349 152.635 46.349C152.934 46.349 153.233 46.334 153.532 46.3041V48.1864C153.342 48.2063 153.143 48.2212 152.934 48.2312C152.725 48.2511 152.451 48.2611 152.112 48.2611ZM158.467 40.2541H165.936V48.1714H163.636V42.1364H160.768V48.1714H158.467V40.2541ZM167.424 40.2541H169.545V41.3297C169.645 41.1704 169.769 41.016 169.919 40.8666C170.078 40.7073 170.262 40.5678 170.472 40.4483C170.681 40.3288 170.915 40.2342 171.174 40.1645C171.433 40.0948 171.711 40.0599 172.01 40.0599C173.126 40.0599 173.972 40.3886 174.55 41.0459C175.127 41.7032 175.416 42.6841 175.416 43.9887V44.2875C175.416 44.9647 175.336 45.5572 175.177 46.0651C175.018 46.573 174.789 46.9963 174.49 47.3349C174.191 47.6735 173.833 47.9324 173.414 48.1117C172.996 48.281 172.528 48.3656 172.01 48.3656C171.562 48.3656 171.134 48.266 170.725 48.0669C170.327 47.8577 169.994 47.559 169.725 47.1706V51.1591H167.424V40.2541ZM171.457 46.4685C171.916 46.4685 172.294 46.2842 172.593 45.9157C172.901 45.5473 173.056 45.0045 173.056 44.2875V43.9887C173.056 43.3016 172.906 42.7937 172.608 42.465C172.319 42.1264 171.935 41.9571 171.457 41.9571C170.969 41.9571 170.556 42.1115 170.218 42.4202C169.889 42.719 169.725 43.1671 169.725 43.7646V44.5116C169.725 45.139 169.889 45.622 170.218 45.9606C170.556 46.2992 170.969 46.4685 171.457 46.4685ZM180.35 48.3656C179.792 48.3656 179.269 48.286 178.781 48.1266C178.293 47.9573 177.865 47.7034 177.496 47.3648C177.128 47.0262 176.839 46.6029 176.63 46.095C176.421 45.5771 176.316 44.9746 176.316 44.2875V43.9887C176.316 43.3414 176.421 42.7737 176.63 42.2857C176.839 41.7978 177.128 41.3895 177.496 41.0608C177.865 40.7322 178.293 40.4832 178.781 40.3139C179.269 40.1446 179.792 40.0599 180.35 40.0599C180.907 40.0599 181.43 40.1446 181.918 40.3139C182.406 40.4832 182.834 40.7322 183.203 41.0608C183.571 41.3895 183.86 41.7978 184.069 42.2857C184.278 42.7737 184.383 43.3414 184.383 43.9887V44.2875C184.383 44.9647 184.278 45.5622 184.069 46.0801C183.86 46.588 183.571 47.0112 183.203 47.3498C182.834 47.6884 182.406 47.9424 181.918 48.1117C181.43 48.281 180.907 48.3656 180.35 48.3656ZM180.35 46.4535C180.887 46.4535 181.301 46.2593 181.59 45.8709C181.878 45.4825 182.023 44.9547 182.023 44.2875V43.9887C182.023 43.3912 181.878 42.9082 181.59 42.5397C181.301 42.1613 180.887 41.972 180.35 41.972C179.812 41.972 179.399 42.1613 179.11 42.5397C178.821 42.9082 178.677 43.3912 178.677 43.9887V44.2875C178.677 44.9746 178.821 45.5074 179.11 45.8859C179.399 46.2643 179.812 46.4535 180.35 46.4535ZM189.426 48.3656C188.082 48.3656 187.051 48.022 186.334 47.3349C185.627 46.6378 185.273 45.622 185.273 44.2875V43.9887C185.273 42.714 185.627 41.743 186.334 41.0757C187.051 40.3985 188.082 40.0599 189.426 40.0599V37.7146H191.727V40.0599C193.061 40.0599 194.087 40.3985 194.804 41.0757C195.521 41.743 195.88 42.714 195.88 43.9887V44.2875C195.88 45.622 195.521 46.6378 194.804 47.3349C194.087 48.022 193.061 48.3656 191.727 48.3656V51.1591H189.426V48.3656ZM193.549 43.9887C193.549 43.3215 193.395 42.8185 193.086 42.4799C192.777 42.1413 192.294 41.972 191.637 41.972V46.4535C192.294 46.4535 192.777 46.2693 193.086 45.9008C193.395 45.5224 193.549 44.9846 193.549 44.2875V43.9887ZM187.604 44.2875C187.604 44.9946 187.758 45.5323 188.067 45.9008C188.376 46.2693 188.859 46.4535 189.516 46.4535V41.972C188.839 41.972 188.351 42.1463 188.052 42.4949C187.753 42.8434 187.604 43.3414 187.604 43.9887V44.2875ZM200.877 48.3656C200.299 48.3656 199.757 48.286 199.249 48.1266C198.751 47.9573 198.317 47.7034 197.949 47.3648C197.581 47.0262 197.292 46.6029 197.083 46.095C196.873 45.5771 196.769 44.9746 196.769 44.2875V43.9887C196.769 43.3314 196.868 42.7588 197.068 42.2708C197.277 41.7828 197.556 41.3745 197.904 41.0459C198.263 40.7172 198.681 40.4732 199.159 40.3139C199.647 40.1446 200.17 40.0599 200.728 40.0599C202.032 40.0599 203.018 40.3985 203.685 41.0757C204.353 41.743 204.686 42.714 204.686 43.9887V44.8103H199.129C199.139 45.119 199.194 45.3829 199.293 45.602C199.393 45.8112 199.522 45.9855 199.682 46.1249C199.841 46.2643 200.02 46.3689 200.22 46.4386C200.429 46.4983 200.648 46.5282 200.877 46.5282C201.315 46.5282 201.659 46.4635 201.908 46.334C202.167 46.1946 202.336 46.0104 202.416 45.7813H204.537C204.377 46.6477 203.984 47.295 203.357 47.7233C202.729 48.1515 201.903 48.3656 200.877 48.3656ZM200.802 41.8824C200.593 41.8824 200.389 41.9073 200.19 41.9571C200.001 42.0069 199.826 42.0916 199.667 42.2111C199.518 42.3206 199.393 42.465 199.293 42.6443C199.204 42.8235 199.154 43.0426 199.144 43.3016H202.43C202.43 43.0227 202.386 42.7936 202.296 42.6144C202.206 42.4351 202.087 42.2907 201.938 42.1812C201.798 42.0716 201.629 41.9969 201.43 41.9571C201.23 41.9073 201.021 41.8824 200.802 41.8824ZM209.613 48.3656C209.025 48.3656 208.482 48.281 207.985 48.1117C207.497 47.9424 207.073 47.6884 206.715 47.3498C206.356 47.0112 206.077 46.588 205.878 46.0801C205.679 45.5722 205.579 44.9746 205.579 44.2875V43.9887C205.579 43.3613 205.684 42.8036 205.893 42.3156C206.112 41.8276 206.401 41.4193 206.76 41.0907C207.128 40.7521 207.556 40.4981 208.044 40.3288C208.532 40.1496 209.055 40.0599 209.613 40.0599C210.21 40.0599 210.733 40.1396 211.181 40.299C211.639 40.4583 212.023 40.6774 212.332 40.9562C212.64 41.2251 212.879 41.5438 213.049 41.9123C213.218 42.2808 213.317 42.6741 213.347 43.0924H210.987C210.907 42.7339 210.758 42.46 210.539 42.2708C210.33 42.0716 210.021 41.972 209.613 41.972C209.125 41.972 208.721 42.1413 208.403 42.4799C208.094 42.8086 207.94 43.3115 207.94 43.9887V44.2875C207.94 45.0244 208.089 45.5672 208.388 45.9157C208.697 46.2643 209.105 46.4386 209.613 46.4386C209.961 46.4386 210.255 46.349 210.494 46.1697C210.743 45.9805 210.907 45.7016 210.987 45.3332H213.347C213.317 45.8012 213.208 46.2245 213.019 46.6029C212.829 46.9714 212.571 47.2851 212.242 47.544C211.923 47.8029 211.54 48.0071 211.092 48.1565C210.653 48.2959 210.161 48.3656 209.613 48.3656ZM218.205 48.3656C217.618 48.3656 217.075 48.281 216.577 48.1117C216.089 47.9424 215.666 47.6884 215.307 47.3498C214.949 47.0112 214.67 46.588 214.471 46.0801C214.272 45.5722 214.172 44.9746 214.172 44.2875V43.9887C214.172 43.3613 214.277 42.8036 214.486 42.3156C214.705 41.8276 214.994 41.4193 215.352 41.0907C215.721 40.7521 216.149 40.4981 216.637 40.3288C217.125 40.1496 217.648 40.0599 218.205 40.0599C218.803 40.0599 219.326 40.1396 219.774 40.299C220.232 40.4583 220.615 40.6774 220.924 40.9562C221.233 41.2251 221.472 41.5438 221.641 41.9123C221.81 42.2808 221.91 42.6741 221.94 43.0924H219.58C219.5 42.7339 219.351 42.46 219.131 42.2708C218.922 42.0716 218.614 41.972 218.205 41.972C217.717 41.972 217.314 42.1413 216.995 42.4799C216.687 42.8086 216.532 43.3115 216.532 43.9887V44.2875C216.532 45.0244 216.682 45.5672 216.98 45.9157C217.289 46.2643 217.697 46.4386 218.205 46.4386C218.554 46.4386 218.848 46.349 219.087 46.1697C219.336 45.9805 219.5 45.7016 219.58 45.3332H221.94C221.91 45.8012 221.8 46.2245 221.611 46.6029C221.422 46.9714 221.163 47.2851 220.834 47.544C220.516 47.8029 220.132 48.0071 219.684 48.1565C219.246 48.2959 218.753 48.3656 218.205 48.3656ZM223.063 40.2541H225.304V45.0344L228.665 40.2541H230.682V48.1714H228.441V43.3912L225.08 48.1714H223.063V40.2541ZM232.182 40.2541H234.422V45.0344L237.783 40.2541H239.8V48.1714H237.559V43.3912L234.198 48.1714H232.182V40.2541ZM235.991 39.4325C235.015 39.4325 234.323 39.2483 233.914 38.8798C233.506 38.5014 233.302 37.9387 233.302 37.1918H235.334C235.334 37.5304 235.388 37.7644 235.498 37.8939C235.607 38.0234 235.772 38.0881 235.991 38.0881C236.21 38.0881 236.374 38.0234 236.484 37.8939C236.593 37.7644 236.648 37.5304 236.648 37.1918H238.68C238.68 37.9387 238.476 38.5014 238.067 38.8798C237.659 39.2483 236.967 39.4325 235.991 39.4325Z" fill="#337CFC"/>
</g>
</g>
</g>
<defs>
<clipPath id="clip0_87_187">
<rect width="242" height="65.72" fill="white"/>
</clipPath>
<clipPath id="clip1_87_187">
<rect width="242" height="65.72" fill="white"/>
</clipPath>
<clipPath id="clip2_87_187">
<rect width="242" height="65.7284" fill="white" transform="translate(0 -0.00439453)"/>
</clipPath>
</defs>
</svg>
