<svg width="24" height="24" viewBox="0 0 24 24" fill="none" xmlns="http://www.w3.org/2000/svg">
<path d="M12.2051 3.01199C7.14108 3.27751 3.79826 7.26272 4.00946 12.2881C4.10171 14.4877 4.98293 16.3805 5.19171 18.4681C5.24511 19.0089 5.08975 19.6763 5.71121 19.9126C6.47591 20.2025 7.64845 19.7153 8.28933 19.2695C8.50782 19.1209 8.71659 18.948 8.87682 18.7336C9.53955 19.1745 10.1683 19.6008 10.9573 19.7908C14.4312 20.6263 18.2377 18.7141 19.9297 15.6424C23.1099 9.87162 18.8106 2.66609 12.2051 3.01199ZM10.2387 15.0553C9.96438 15.2697 9.69977 15.562 9.39632 15.7301C8.95693 15.9664 8.82098 15.7203 8.6559 15.3306C8.13639 14.0907 8.07328 11.9787 8.37673 10.6804C8.78457 8.9143 10.1465 7.36016 12.0181 7.19452C13.9117 7.02644 15.6693 7.99107 16.4631 9.73277C18.2207 13.6084 13.7223 17.4352 10.2387 15.0578V15.0553Z" fill="white"/>
</svg>
