<svg width="24" height="24" viewBox="0 0 24 24" fill="none" xmlns="http://www.w3.org/2000/svg">
<path fill-rule="evenodd" clip-rule="evenodd" d="M5.16866 11.0269C9.73205 9.05119 12.775 7.74867 14.2976 7.11936C18.6448 5.32254 19.5481 5.01042 20.1369 5.00011C20.2664 4.99784 20.5559 5.02973 20.7435 5.18096C20.9018 5.30866 20.9454 5.48116 20.9663 5.60223C20.9871 5.7233 21.0131 5.9991 20.9924 6.2146C20.7569 8.6743 19.7375 14.6433 19.2189 17.3983C18.9995 18.564 18.5674 18.9548 18.1492 18.9931C17.2401 19.0762 16.5498 18.3961 15.6694 17.8225C14.2916 16.9251 13.5133 16.3664 12.176 15.4907C10.6305 14.4786 11.6323 13.9223 12.5131 13.0132C12.7436 12.7753 16.7489 9.15509 16.8264 8.82668C16.8361 8.7856 16.8451 8.6325 16.7536 8.55166C16.6621 8.47081 16.527 8.49846 16.4295 8.52045C16.2913 8.55161 14.0904 9.99723 9.82663 12.8573C9.2019 13.2836 8.63604 13.4913 8.12904 13.4804C7.57012 13.4684 6.49498 13.1664 5.69573 12.9082C4.71541 12.5915 3.93627 12.4241 4.00412 11.8863C4.03946 11.6062 4.42764 11.3197 5.16866 11.0269Z" fill="white"/>
</svg>
