<svg width="24" height="24" viewBox="0 0 24 24" fill="none" xmlns="http://www.w3.org/2000/svg">
<path fill-rule="evenodd" clip-rule="evenodd" d="M5.195 4.195C4 5.39001 4 7.31334 4 11.16V11.84C4 15.6867 4 17.61 5.195 18.805C6.39001 20 8.31334 20 12.16 20H12.84C16.6867 20 18.61 20 19.805 18.805C21 17.61 21 15.6867 21 11.84V11.16C21 7.31334 21 5.39001 19.805 4.195C18.61 3 16.6867 3 12.84 3H12.16C8.31334 3 6.39001 3 5.195 4.195ZM6.86878 8.17087C6.96087 12.5909 9.17086 15.2471 13.0454 15.2471H13.2651V12.7184C14.6888 12.86 15.7654 13.9013 16.1975 15.2471H18.2092C17.6567 13.2354 16.2046 12.1234 15.2979 11.6984C16.2046 11.1742 17.4796 9.89921 17.7841 8.17087H15.9566C15.5599 9.57337 14.3842 10.8484 13.2651 10.9688V8.17087H11.4375V13.0725C10.3042 12.7892 8.87337 11.415 8.80962 8.17087H6.86878Z" fill="white"/>
</svg>
