<svg width="20" height="13" viewBox="0 0 20 13" fill="none" xmlns="http://www.w3.org/2000/svg">
<g clip-path="url(#clip0_1_299)">
<g clip-path="url(#clip1_1_299)">
<path fill-rule="evenodd" clip-rule="evenodd" d="M1.35941 0.757091C1.26315 0.768174 1.12472 0.809686 1.061 0.846562C0.80053 0.997291 0.771931 1.27646 0.948356 1.94634C1.26518 3.14934 2.04233 4.77742 3.03874 6.32555C3.43896 6.94737 4.1394 7.92142 4.47739 8.32619C5.09875 9.07027 5.82822 9.7244 6.58192 10.2134C7.6245 10.8898 8.68504 11.2839 9.84589 11.4262C10.1128 11.459 10.8764 11.4601 11.125 11.4282C11.583 11.3694 11.8105 11.2449 11.9003 11.0036C11.9275 10.9304 11.9313 10.8229 11.9406 9.86249C11.9509 8.78023 11.9566 8.68607 12.0215 8.50479C12.0577 8.40374 12.1528 8.32635 12.2678 8.30431C12.389 8.28108 12.5981 8.28539 12.7208 8.31364C13.0544 8.39041 13.5208 8.67159 14.0782 9.1317C14.3936 9.39219 15.0133 9.98735 15.4933 10.4911C16.2109 11.2439 16.3781 11.3802 16.7021 11.4767C16.7966 11.5049 16.8885 11.5076 18.0568 11.5177C19.4025 11.5293 19.4024 11.5293 19.5838 11.4481C19.6978 11.3972 19.7874 11.3148 19.8364 11.2158C19.8957 11.0958 19.8938 10.8642 19.832 10.6914C19.5976 10.0364 18.7306 8.99979 17.0347 7.34723C16.6724 6.9941 16.5867 6.89545 16.5177 6.75205C16.4456 6.60196 16.453 6.48155 16.5449 6.31167C16.5843 6.23889 16.7192 6.04391 16.8448 5.87835C17.8398 4.56661 18.7913 3.15932 19.1923 2.40641C19.6215 1.60021 19.6825 1.19685 19.4022 1.01679C19.228 0.904908 19.2692 0.90815 17.8669 0.896075C16.6904 0.885944 16.5981 0.887127 16.5024 0.91365C16.3433 0.957758 16.2127 1.02878 16.1121 1.12602C15.9933 1.24075 15.9615 1.29302 15.7778 1.67539C15.1795 2.9206 14.3044 4.27912 13.561 5.11657C13.2099 5.51212 12.8437 5.82242 12.5873 5.9416C12.4804 5.9913 12.3221 6.01434 12.2484 5.99091C12.1727 5.96685 12.0707 5.85845 12.0266 5.75525C11.9939 5.6788 11.9934 5.6304 12.0031 3.50856C12.0125 1.47822 12.0112 1.3326 11.983 1.22395C11.9281 1.01241 11.7983 0.886252 11.5981 0.849894C11.5353 0.838478 10.9038 0.82891 9.74798 0.821812L7.99312 0.811055L7.90754 0.846978C7.80549 0.889823 7.70413 0.975939 7.65299 1.06326C7.6238 1.11306 7.61557 1.15418 7.61474 1.25428C7.61341 1.41205 7.64252 1.47072 7.84125 1.71097C8.17023 2.10865 8.29784 2.37103 8.3817 2.82226C8.41717 3.01319 8.4174 3.03316 8.403 4.68944C8.3898 6.209 8.38568 6.37439 8.35844 6.47999C8.3037 6.6922 8.22746 6.77397 8.06637 6.7932C7.547 6.85522 6.5268 5.62886 5.57973 3.80405C5.17641 3.02698 4.93174 2.47178 4.59217 1.56312C4.39644 1.03937 4.20802 0.839567 3.85765 0.784247C3.75318 0.767737 1.48119 0.743039 1.35941 0.757091Z" fill="white"/>
</g>
</g>
<defs>
<clipPath id="clip0_1_299">
<rect width="20" height="12.38" fill="white"/>
</clipPath>
<clipPath id="clip1_1_299">
<rect width="20" height="12.38" fill="white"/>
</clipPath>
</defs>
</svg>
