<svg width="18" height="19" viewBox="0 0 18 19" fill="none" xmlns="http://www.w3.org/2000/svg">
<g clip-path="url(#clip0_127_585)">
<g clip-path="url(#clip1_127_585)">
<path d="M0.383945 8.96171C0.383523 10.4859 0.781773 11.9741 1.53904 13.2859L0.311523 17.7677L4.89815 16.5651C6.16675 17.2557 7.58812 17.6176 9.03252 17.6177H9.03632C13.8046 17.6177 17.686 13.7376 17.6881 8.96853C17.689 6.65757 16.7898 4.48449 15.1562 2.84958C13.5228 1.21482 11.3505 0.314043 9.03597 0.312988C4.26717 0.312988 0.385913 4.19283 0.383945 8.96171Z" fill="url(#paint0_linear_127_585)"/>
<path d="M6.79738 5.21343C6.62962 4.84056 6.45306 4.83304 6.29352 4.8265C6.16288 4.82087 6.01354 4.8213 5.86434 4.8213C5.71499 4.8213 5.47234 4.87748 5.26724 5.10142C5.06193 5.32558 4.4834 5.86727 4.4834 6.96899C4.4834 8.07079 5.28588 9.13553 5.39774 9.28509C5.50975 9.43436 6.94694 11.7676 9.22309 12.6652C11.1148 13.4112 11.4997 13.2628 11.9103 13.2254C12.3209 13.1881 13.2353 12.6839 13.4218 12.1609C13.6085 11.6381 13.6085 11.1899 13.5525 11.0963C13.4965 11.003 13.3472 10.9469 13.1233 10.835C12.8992 10.723 11.7983 10.1812 11.593 10.1065C11.3877 10.0318 11.2385 9.99454 11.0891 10.2188C10.9398 10.4426 10.5109 10.9469 10.3802 11.0963C10.2497 11.246 10.1189 11.2646 9.89507 11.1526C9.67098 11.0402 8.94979 10.804 8.09416 10.0412C7.42844 9.44765 6.979 8.71464 6.84836 8.49041C6.71772 8.26654 6.83437 8.14518 6.94666 8.03359C7.04727 7.93326 7.17067 7.7721 7.28275 7.64139C7.39441 7.51061 7.43167 7.4173 7.50634 7.26796C7.58109 7.11848 7.54368 6.9877 7.48778 6.87569C7.43167 6.76368 6.99651 5.65619 6.79738 5.21343Z" fill="white"/>
</g>
</g>
<defs>
<linearGradient id="paint0_linear_127_585" x1="869.139" y1="1745.79" x2="869.139" y2="0.312988" gradientUnits="userSpaceOnUse">
<stop stop-color="#1FAF38"/>
<stop offset="1" stop-color="#60D669"/>
</linearGradient>
<clipPath id="clip0_127_585">
<rect width="18" height="19" fill="white"/>
</clipPath>
<clipPath id="clip1_127_585">
<rect width="18" height="19" fill="white"/>
</clipPath>
</defs>
</svg>
