<svg width="24" height="24" viewBox="0 0 24 24" fill="none" xmlns="http://www.w3.org/2000/svg">
<path d="M4 20L5.20066 15.6345C4.45977 14.3567 4.07046 12.9082 4.07117 11.4228C4.07331 6.77896 7.8703 3 12.5356 3C14.7995 3.00071 16.9247 3.87833 18.5232 5.47067C20.121 7.063 21.0007 9.1795 21 11.4306C20.9979 16.0751 17.2009 19.8541 12.5356 19.8541C11.1193 19.8534 9.7236 19.4999 8.48736 18.8284L4 20ZM8.69518 17.3034C9.88801 18.0082 11.0268 18.4303 12.5327 18.431C16.4102 18.431 19.5687 15.2903 19.5709 11.4292C19.5723 7.56025 16.4287 4.42375 12.5384 4.42233C8.65817 4.42233 5.50172 7.56308 5.50029 11.4235C5.49958 12.9995 5.96362 14.1796 6.74295 15.4142L6.03194 17.9982L8.69518 17.3034ZM16.7995 13.433C16.7468 13.3452 16.6059 13.2928 16.3938 13.1872C16.1824 13.0817 15.1426 12.5724 14.9483 12.5023C14.7547 12.4322 14.6138 12.3967 14.4722 12.6078C14.3312 12.8182 13.9256 13.2928 13.8024 13.433C13.6793 13.5733 13.5555 13.591 13.3441 13.4855C13.1327 13.3799 12.4509 13.1582 11.6431 12.4407C11.0147 11.8825 10.5898 11.1933 10.4666 10.9822C10.3435 10.7718 10.4538 10.6578 10.5592 10.553C10.6545 10.4587 10.7705 10.3072 10.8766 10.1839C10.984 10.0621 11.0189 9.97425 11.0901 9.83329C11.1606 9.69304 11.1257 9.56979 11.0723 9.46425C11.0189 9.35942 10.5962 8.32312 10.4204 7.90167C10.2481 7.49154 10.0738 7.54679 9.94423 7.54042L9.53856 7.53333C9.39764 7.53333 9.16847 7.58575 8.97488 7.79683C8.78129 8.00792 8.2347 8.5165 8.2347 9.55279C8.2347 10.5891 8.99267 11.59 9.09801 11.7302C9.20405 11.8705 10.589 13.9969 12.7107 14.9085C13.2153 15.1252 13.6096 15.2549 13.9163 15.3519C14.423 15.512 14.8842 15.4893 15.2486 15.4355C15.655 15.3753 16.4998 14.9262 16.6763 14.4346C16.8528 13.9423 16.8528 13.5209 16.7995 13.433Z" fill="white"/>
</svg>
