<svg width="16" height="16" viewBox="0 0 16 16" fill="none" xmlns="http://www.w3.org/2000/svg">
<g clip-path="url(#clip0_55_383)">
<g clip-path="url(#clip1_55_383)">
<path d="M8.4801 7.19973C8.1601 7.11973 7.8401 6.95973 7.6001 6.71973C7.3601 6.63973 7.2801 6.39973 7.2801 6.23973C7.2801 6.07973 7.3601 5.83973 7.5201 5.75973C7.7601 5.59973 8.0001 5.43973 8.2401 5.51973C8.7201 5.51973 9.1201 5.75973 9.3601 6.07973L10.0801 5.11973C9.8401 4.87973 9.6001 4.71973 9.3601 4.55973C9.1201 4.39973 8.8001 4.31973 8.4801 4.31973V3.19973H7.5201V4.31973C7.1201 4.39973 6.7201 4.63973 6.4001 4.95973C6.0801 5.35973 5.8401 5.83973 5.9201 6.31973C5.9201 6.79973 6.0801 7.27973 6.4001 7.59973C6.8001 7.99973 7.3601 8.23973 7.8401 8.47973C8.0801 8.55973 8.4001 8.71973 8.6401 8.87973C8.8001 9.03973 8.8801 9.27973 8.8801 9.51973C8.8801 9.75973 8.8001 9.99973 8.6401 10.2397C8.4001 10.4797 8.0801 10.5597 7.8401 10.5597C7.5201 10.5597 7.1201 10.4797 6.8801 10.2397C6.6401 10.0797 6.4001 9.83973 6.2401 9.59973L5.4401 10.4797C5.6801 10.7997 5.9201 11.0397 6.2401 11.2797C6.6401 11.5197 7.1201 11.7597 7.6001 11.7597V12.7997H8.4801V11.5997C8.9601 11.5197 9.3601 11.2797 9.6801 10.9597C10.0801 10.5597 10.3201 9.91973 10.3201 9.35973C10.3201 8.87973 10.1601 8.31973 9.7601 7.99973C9.3601 7.59973 8.9601 7.35973 8.4801 7.19973ZM8.0001 1.59973C4.4801 1.59973 1.6001 4.47973 1.6001 7.99973C1.6001 11.5197 4.4801 14.3997 8.0001 14.3997C11.5201 14.3997 14.4001 11.5197 14.4001 7.99973C14.4001 4.47973 11.5201 1.59973 8.0001 1.59973ZM8.0001 13.5197C4.9601 13.5197 2.4801 11.0397 2.4801 7.99973C2.4801 4.95973 4.9601 2.47973 8.0001 2.47973C11.0401 2.47973 13.5201 4.95973 13.5201 7.99973C13.5201 11.0397 11.0401 13.5197 8.0001 13.5197Z" fill="white"/>
</g>
</g>
<defs>
<clipPath id="clip0_55_383">
<rect width="16" height="16" fill="white"/>
</clipPath>
<clipPath id="clip1_55_383">
<rect width="16" height="16" fill="white"/>
</clipPath>
</defs>
</svg>
