<svg width="16" height="16" viewBox="0 0 16 16" fill="none" xmlns="http://www.w3.org/2000/svg">
<g clip-path="url(#clip0_55_388)">
<g clip-path="url(#clip1_55_388)">
<path fill-rule="evenodd" clip-rule="evenodd" d="M5.17201 3.84499C5.54237 3.47186 5.98287 3.17565 6.46816 2.97342C6.95345 2.7712 7.47395 2.66695 7.99968 2.66666C9.05968 2.66666 10.077 3.09 10.8274 3.84499C11.5788 4.60205 12.0002 5.62565 11.9996 6.69233C11.9996 8.53433 10.9783 10.2017 9.91435 11.4327C9.46597 11.9489 8.97985 12.4311 8.46001 12.8753C8.30972 13.0042 8.15622 13.1294 7.99968 13.2506C7.8432 13.1294 7.68972 13.0041 7.53935 12.8753C7.0195 12.4311 6.53339 11.9489 6.08501 11.4327C5.02101 10.2017 3.99968 8.53433 3.99968 6.69233C3.99968 5.624 4.42168 4.6 5.17201 3.84499ZM7.80768 13.939L7.99968 13.6666L8.19168 13.939C8.13545 13.9785 8.0684 13.9997 7.99968 13.9997C7.93096 13.9997 7.86391 13.9785 7.80768 13.939ZM7.80768 13.939L7.99968 13.6666L8.19168 13.939L8.19301 13.9383L8.19635 13.936L8.20635 13.9283L8.24568 13.9C8.27901 13.8753 8.32768 13.8393 8.38901 13.792C8.51168 13.6979 8.68568 13.5597 8.89335 13.3819C9.43848 12.916 9.94822 12.4102 10.4183 11.8687C11.521 10.5933 12.6664 8.77299 12.6664 6.692C12.6664 5.44866 12.1751 4.25534 11.3003 3.37534C10.868 2.93979 10.3538 2.59406 9.78737 2.35802C9.22091 2.12199 8.61335 2.00031 7.99968 2C7.38603 2.00027 6.77849 2.1219 6.21203 2.35787C5.64557 2.59385 5.13136 2.93952 4.69901 3.37499C3.82349 4.25702 3.33243 5.44955 3.33301 6.69233C3.33301 8.77299 4.47835 10.5933 5.58101 11.8687C6.05113 12.4102 6.56087 12.916 7.10601 13.3819C7.31401 13.5597 7.48768 13.6979 7.61035 13.792C7.67052 13.8384 7.73129 13.8839 7.79268 13.9287L7.80335 13.936L7.80635 13.9383L7.80768 13.939ZM6.66635 6.66666C6.66635 6.31304 6.80683 5.97391 7.05687 5.72386C7.30692 5.47381 7.64606 5.33334 7.99968 5.33334C8.35331 5.33334 8.69244 5.47381 8.94249 5.72386C9.19254 5.97391 9.33301 6.31304 9.33301 6.66666C9.33301 7.02029 9.19254 7.35943 8.94249 7.60947C8.69244 7.85952 8.35331 8 7.99968 8C7.64606 8 7.30692 7.85952 7.05687 7.60947C6.80683 7.35943 6.66635 7.02029 6.66635 6.66666ZM7.99968 4.66666C7.46925 4.66666 6.96054 4.87738 6.58547 5.25246C6.21039 5.62753 5.99968 6.13623 5.99968 6.66666C5.99968 7.1971 6.21039 7.70581 6.58547 8.08088C6.96054 8.45595 7.46925 8.66666 7.99968 8.66666C8.53012 8.66666 9.03883 8.45595 9.41389 8.08088C9.78896 7.70581 9.99968 7.1971 9.99968 6.66666C9.99968 6.13623 9.78896 5.62753 9.41389 5.25246C9.03883 4.87738 8.53012 4.66666 7.99968 4.66666Z" fill="white"/>
</g>
</g>
<defs>
<clipPath id="clip0_55_388">
<rect width="16" height="16" fill="white"/>
</clipPath>
<clipPath id="clip1_55_388">
<rect width="16" height="16" fill="white"/>
</clipPath>
</defs>
</svg>
