<svg width="16" height="16" viewBox="0 0 16 16" fill="none" xmlns="http://www.w3.org/2000/svg">
<g clip-path="url(#clip0_55_393)">
<g clip-path="url(#clip1_55_393)">
<path d="M1.46495 7.59145C1.45796 8.81006 1.81248 10.0034 2.4837 11.0205C3.15491 12.0377 4.11266 12.8329 5.23583 13.3057C6.359 13.7785 7.59717 13.9076 8.79373 13.6768C9.99029 13.4459 11.0915 12.8654 11.9581 12.0086C12.8248 11.1519 13.4179 10.0574 13.6625 8.86351C13.9071 7.66968 13.7922 6.43012 13.3323 5.30159C12.8724 4.17307 12.0882 3.20625 11.0789 2.52341C10.0695 1.84057 8.88033 1.47238 7.66172 1.46538C6.02855 1.45915 4.45947 2.10032 3.29803 3.2485C2.13659 4.39669 1.47745 5.95832 1.46495 7.59145ZM12.8399 7.65672C12.8339 8.68785 12.5224 9.69408 11.9446 10.5482C11.3668 11.4023 10.5488 12.0658 9.59385 12.4549C8.63895 12.8441 7.59009 12.9413 6.57992 12.7343C5.56976 12.5274 4.64365 12.0255 3.91871 11.2922C3.19377 10.5589 2.70256 9.62704 2.5072 8.61457C2.31184 7.60209 2.4211 6.55442 2.82116 5.60404C3.22123 4.65366 3.89412 3.84326 4.75477 3.27531C5.61542 2.70736 6.62515 2.40738 7.65628 2.4133C9.0385 2.42279 10.3605 2.98018 11.3323 3.96317C12.3041 4.94616 12.8462 6.27448 12.8399 7.65672ZM7.64813 3.83516C7.77383 3.83588 7.89409 3.88651 7.98247 3.9759C8.07084 4.0653 8.12007 4.18613 8.11935 4.31184L8.10689 6.4861L9.65015 4.95455C9.74052 4.86607 9.86217 4.81684 9.98864 4.81756C10.1151 4.81829 10.2362 4.86891 10.3255 4.95843C10.4126 5.04952 10.4609 5.17089 10.4602 5.29691C10.4594 5.42292 10.4098 5.54373 10.3217 5.63382L7.96212 7.96643C7.87032 8.05236 7.74939 8.10035 7.62365 8.10076C7.49795 8.10004 7.37768 8.04941 7.28931 7.96002C7.20094 7.87062 7.15169 7.74978 7.15241 7.62408L7.17144 4.3064C7.17216 4.1807 7.2228 4.06043 7.31219 3.97206C7.40159 3.88368 7.52243 3.83444 7.64813 3.83516Z" fill="white"/>
</g>
</g>
<defs>
<clipPath id="clip0_55_393">
<rect width="16" height="16" fill="white"/>
</clipPath>
<clipPath id="clip1_55_393">
<rect width="16" height="16" fill="white"/>
</clipPath>
</defs>
</svg>
