<svg width="1170" height="180" viewBox="0 0 1170 180" fill="none" xmlns="http://www.w3.org/2000/svg">
<rect width="1170" height="180" fill="#E2ECFF"/>
<mask id="mask0_8333_1673" style="mask-type:alpha" maskUnits="userSpaceOnUse" x="0" y="0" width="1170" height="180">
<rect width="1170" height="180" fill="#F2F6FF"/>
</mask>
<g mask="url(#mask0_8333_1673)">
<ellipse opacity="0.8" cx="19.1482" cy="160.031" rx="48.1482" ry="48.0312" fill="#337CFC"/>
<ellipse opacity="0.8" cx="1144" cy="8.64543" rx="48.1482" ry="48.0312" fill="#337CFC"/>
<ellipse opacity="0.8" cx="1111.74" cy="140.731" rx="17.8148" ry="17.7715" fill="#BDD5FF"/>
<ellipse opacity="0.8" cx="89.8307" cy="12.614" rx="21.6667" ry="21.614" fill="#9CC0FF"/>
<path opacity="0.8" d="M59.6572 80.4805C86.2503 80.4806 107.807 101.986 107.807 128.512C107.807 155.037 86.2503 176.543 59.6572 176.543C33.0641 176.543 11.5079 155.037 11.5078 128.512C11.5078 101.986 33.064 80.4805 59.6572 80.4805Z" stroke="#F4F7FF" stroke-width="0.960624"/>
<path opacity="0.8" d="M1131 133.047C1157.59 133.047 1179.15 154.552 1179.15 181.078C1179.15 207.604 1157.59 229.109 1131 229.109C1104.41 229.109 1082.85 207.604 1082.85 181.078C1082.85 154.552 1104.41 133.047 1131 133.047Z" stroke="#337CFC" stroke-width="0.960624"/>
<g opacity="0.8">
<ellipse cx="6.63447" cy="2.77611" rx="0.786811" ry="0.7849" fill="#4F4F4F"/>
<ellipse cx="6.63447" cy="9.05638" rx="0.786811" ry="0.7849" fill="#4F4F4F"/>
<ellipse cx="6.63447" cy="15.3347" rx="0.786811" ry="0.7849" fill="#4F4F4F"/>
<ellipse cx="6.63447" cy="21.615" rx="0.786811" ry="0.7849" fill="#4F4F4F"/>
<ellipse cx="6.63447" cy="27.8933" rx="0.786811" ry="0.7849" fill="#4F4F4F"/>
<ellipse cx="6.63447" cy="34.1726" rx="0.786811" ry="0.7849" fill="#4F4F4F"/>
<ellipse cx="6.63447" cy="40.4529" rx="0.786811" ry="0.7849" fill="#4F4F4F"/>
<ellipse cx="6.63447" cy="46.7312" rx="0.786811" ry="0.7849" fill="#4F4F4F"/>
<ellipse cx="6.63447" cy="53.0095" rx="0.786811" ry="0.7849" fill="#4F4F4F"/>
<ellipse cx="0.341499" cy="2.77611" rx="0.786811" ry="0.7849" fill="#4F4F4F"/>
<ellipse cx="0.341499" cy="9.05638" rx="0.786811" ry="0.7849" fill="#4F4F4F"/>
<ellipse cx="0.341499" cy="15.3347" rx="0.786811" ry="0.7849" fill="#4F4F4F"/>
<ellipse cx="0.341499" cy="21.615" rx="0.786811" ry="0.7849" fill="#4F4F4F"/>
<ellipse cx="0.341499" cy="27.8933" rx="0.786811" ry="0.7849" fill="#4F4F4F"/>
<ellipse cx="0.341499" cy="34.1726" rx="0.786811" ry="0.7849" fill="#4F4F4F"/>
<ellipse cx="0.341499" cy="40.4529" rx="0.786811" ry="0.7849" fill="#4F4F4F"/>
<ellipse cx="0.341499" cy="46.7312" rx="0.786811" ry="0.7849" fill="#4F4F4F"/>
<ellipse cx="0.341499" cy="53.0095" rx="0.786811" ry="0.7849" fill="#4F4F4F"/>
<ellipse cx="12.9274" cy="2.77611" rx="0.786811" ry="0.7849" fill="#4F4F4F"/>
<ellipse cx="12.9274" cy="9.05638" rx="0.786811" ry="0.7849" fill="#4F4F4F"/>
<ellipse cx="12.9274" cy="15.3347" rx="0.786811" ry="0.7849" fill="#4F4F4F"/>
<ellipse cx="12.9274" cy="21.615" rx="0.786811" ry="0.7849" fill="#4F4F4F"/>
<ellipse cx="12.9274" cy="27.8933" rx="0.786811" ry="0.7849" fill="#4F4F4F"/>
<ellipse cx="12.9274" cy="34.1726" rx="0.786811" ry="0.7849" fill="#4F4F4F"/>
<ellipse cx="12.9274" cy="40.4529" rx="0.786811" ry="0.7849" fill="#4F4F4F"/>
<ellipse cx="12.9274" cy="46.7312" rx="0.786811" ry="0.7849" fill="#4F4F4F"/>
<ellipse cx="12.9274" cy="53.0095" rx="0.786811" ry="0.7849" fill="#4F4F4F"/>
<ellipse cx="25.5173" cy="2.77611" rx="0.786811" ry="0.7849" fill="#4F4F4F"/>
<ellipse cx="25.5173" cy="9.05638" rx="0.786811" ry="0.7849" fill="#4F4F4F"/>
<ellipse cx="25.5173" cy="15.3347" rx="0.786811" ry="0.7849" fill="#4F4F4F"/>
<ellipse cx="25.5173" cy="21.615" rx="0.786811" ry="0.7849" fill="#4F4F4F"/>
<ellipse cx="25.5173" cy="27.8933" rx="0.786811" ry="0.7849" fill="#4F4F4F"/>
<ellipse cx="25.5173" cy="34.1726" rx="0.786811" ry="0.7849" fill="#4F4F4F"/>
<ellipse cx="25.5173" cy="40.4529" rx="0.786811" ry="0.7849" fill="#4F4F4F"/>
<ellipse cx="25.5173" cy="46.7312" rx="0.786811" ry="0.7849" fill="#4F4F4F"/>
<ellipse cx="25.5173" cy="53.0095" rx="0.786811" ry="0.7849" fill="#4F4F4F"/>
<ellipse cx="19.2204" cy="2.77611" rx="0.786811" ry="0.7849" fill="#4F4F4F"/>
<ellipse cx="19.2204" cy="9.05638" rx="0.786811" ry="0.7849" fill="#4F4F4F"/>
<ellipse cx="19.2204" cy="15.3347" rx="0.786811" ry="0.7849" fill="#4F4F4F"/>
<ellipse cx="19.2204" cy="21.615" rx="0.786811" ry="0.7849" fill="#4F4F4F"/>
<ellipse cx="19.2204" cy="27.8933" rx="0.786811" ry="0.7849" fill="#4F4F4F"/>
<ellipse cx="19.2204" cy="34.1726" rx="0.786811" ry="0.7849" fill="#4F4F4F"/>
<ellipse cx="19.2204" cy="40.4529" rx="0.786811" ry="0.7849" fill="#4F4F4F"/>
<ellipse cx="19.2204" cy="46.7312" rx="0.786811" ry="0.7849" fill="#4F4F4F"/>
<ellipse cx="19.2204" cy="53.0095" rx="0.786811" ry="0.7849" fill="#4F4F4F"/>
<ellipse cx="31.8102" cy="2.77611" rx="0.786811" ry="0.7849" fill="#4F4F4F"/>
<ellipse cx="31.8102" cy="9.05638" rx="0.786811" ry="0.7849" fill="#4F4F4F"/>
<ellipse cx="31.8102" cy="15.3347" rx="0.786811" ry="0.7849" fill="#4F4F4F"/>
<ellipse cx="31.8102" cy="21.615" rx="0.786811" ry="0.7849" fill="#4F4F4F"/>
<ellipse cx="31.8102" cy="27.8933" rx="0.786811" ry="0.7849" fill="#4F4F4F"/>
<ellipse cx="31.8102" cy="34.1726" rx="0.786811" ry="0.7849" fill="#4F4F4F"/>
<ellipse cx="31.8102" cy="40.4529" rx="0.786811" ry="0.7849" fill="#4F4F4F"/>
<ellipse cx="31.8102" cy="46.7312" rx="0.786811" ry="0.7849" fill="#4F4F4F"/>
<ellipse cx="31.8102" cy="53.0095" rx="0.786811" ry="0.7849" fill="#4F4F4F"/>
<ellipse cx="44.4001" cy="2.77611" rx="0.786811" ry="0.7849" fill="#4F4F4F"/>
<ellipse cx="44.4001" cy="9.05638" rx="0.786811" ry="0.7849" fill="#4F4F4F"/>
<ellipse cx="44.4001" cy="15.3347" rx="0.786811" ry="0.7849" fill="#4F4F4F"/>
<ellipse cx="44.4001" cy="21.615" rx="0.786811" ry="0.7849" fill="#4F4F4F"/>
<ellipse cx="44.4001" cy="27.8933" rx="0.786811" ry="0.7849" fill="#4F4F4F"/>
<ellipse cx="44.4001" cy="34.1726" rx="0.786811" ry="0.7849" fill="#4F4F4F"/>
<ellipse cx="44.4001" cy="40.4529" rx="0.786811" ry="0.7849" fill="#4F4F4F"/>
<ellipse cx="44.4001" cy="46.7312" rx="0.786811" ry="0.7849" fill="#4F4F4F"/>
<ellipse cx="44.4001" cy="53.0095" rx="0.786811" ry="0.7849" fill="#4F4F4F"/>
<ellipse cx="38.1032" cy="2.77611" rx="0.786811" ry="0.7849" fill="#4F4F4F"/>
<ellipse cx="38.1032" cy="9.05638" rx="0.786811" ry="0.7849" fill="#4F4F4F"/>
<ellipse cx="38.1032" cy="15.3347" rx="0.786811" ry="0.7849" fill="#4F4F4F"/>
<ellipse cx="38.1032" cy="21.615" rx="0.786811" ry="0.7849" fill="#4F4F4F"/>
<ellipse cx="38.1032" cy="27.8933" rx="0.786811" ry="0.7849" fill="#4F4F4F"/>
<ellipse cx="38.1032" cy="34.1726" rx="0.786811" ry="0.7849" fill="#4F4F4F"/>
<ellipse cx="38.1032" cy="40.4529" rx="0.786811" ry="0.7849" fill="#4F4F4F"/>
<ellipse cx="38.1032" cy="46.7312" rx="0.786811" ry="0.7849" fill="#4F4F4F"/>
<ellipse cx="38.1032" cy="53.0095" rx="0.786811" ry="0.7849" fill="#4F4F4F"/>
<ellipse cx="50.697" cy="2.77611" rx="0.786811" ry="0.7849" fill="#4F4F4F"/>
<ellipse cx="50.697" cy="9.05638" rx="0.786811" ry="0.7849" fill="#4F4F4F"/>
<ellipse cx="50.697" cy="15.3347" rx="0.786811" ry="0.7849" fill="#4F4F4F"/>
<ellipse cx="50.697" cy="21.615" rx="0.786811" ry="0.7849" fill="#4F4F4F"/>
<ellipse cx="50.697" cy="27.8933" rx="0.786811" ry="0.7849" fill="#4F4F4F"/>
<ellipse cx="50.697" cy="34.1726" rx="0.786811" ry="0.7849" fill="#4F4F4F"/>
<ellipse cx="50.697" cy="40.4529" rx="0.786811" ry="0.7849" fill="#4F4F4F"/>
<ellipse cx="50.697" cy="46.7312" rx="0.786811" ry="0.7849" fill="#4F4F4F"/>
<ellipse cx="50.697" cy="53.0095" rx="0.786811" ry="0.7849" fill="#4F4F4F"/>
<ellipse cx="56.9899" cy="2.77611" rx="0.786811" ry="0.7849" fill="#4F4F4F"/>
<ellipse cx="56.9899" cy="9.05638" rx="0.786811" ry="0.7849" fill="#4F4F4F"/>
<ellipse cx="56.9899" cy="15.3347" rx="0.786811" ry="0.7849" fill="#4F4F4F"/>
<ellipse cx="56.9899" cy="21.615" rx="0.786811" ry="0.7849" fill="#4F4F4F"/>
<ellipse cx="56.9899" cy="27.8933" rx="0.786811" ry="0.7849" fill="#4F4F4F"/>
<ellipse cx="56.9899" cy="34.1726" rx="0.786811" ry="0.7849" fill="#4F4F4F"/>
<ellipse cx="56.9899" cy="40.4529" rx="0.786811" ry="0.7849" fill="#4F4F4F"/>
<ellipse cx="56.9899" cy="46.7312" rx="0.786811" ry="0.7849" fill="#4F4F4F"/>
<ellipse cx="56.9899" cy="53.0095" rx="0.786811" ry="0.7849" fill="#4F4F4F"/>
</g>
</g>
</svg>
