<svg width="1170" height="96" viewBox="0 0 1170 96" fill="none" xmlns="http://www.w3.org/2000/svg">
<g clip-path="url(#clip0_8418_1107)">
<path d="M2.01031 19C3.12057 19 4.02062 18.1046 4.02062 17C4.02062 15.8954 3.12057 15 2.01031 15C0.900046 15 0 15.8954 0 17C0 18.1046 0.900046 19 2.01031 19Z" fill="#D9D9D9"/>
<path d="M10.0513 29C11.1616 29 12.0616 28.1046 12.0616 27C12.0616 25.8954 11.1616 25 10.0513 25C8.94106 25 8.04102 25.8954 8.04102 27C8.04102 28.1046 8.94106 29 10.0513 29Z" fill="#D9D9D9"/>
<path d="M19.0977 38C20.208 38 21.108 37.1046 21.108 36C21.108 34.8954 20.208 34 19.0977 34C17.9874 34 17.0874 34.8954 17.0874 36C17.0874 37.1046 17.9874 38 19.0977 38Z" fill="#D9D9D9"/>
<path d="M27.1392 46C28.2495 46 29.1495 45.1046 29.1495 44C29.1495 42.8954 28.2495 42 27.1392 42C26.029 42 25.1289 42.8954 25.1289 44C25.1289 45.1046 26.029 46 27.1392 46Z" fill="#D9D9D9"/>
<path d="M35.1802 55C36.2905 55 37.1905 54.1046 37.1905 53C37.1905 51.8954 36.2905 51 35.1802 51C34.07 51 33.1699 51.8954 33.1699 53C33.1699 54.1046 34.07 55 35.1802 55Z" fill="#D9D9D9"/>
<path d="M46.2369 63C47.3471 63 48.2472 62.1046 48.2472 61C48.2472 59.8954 47.3471 59 46.2369 59C45.1266 59 44.2266 59.8954 44.2266 61C44.2266 62.1046 45.1266 63 46.2369 63Z" fill="#D9D9D9"/>
<path d="M58.2989 72C59.4091 72 60.3092 71.1046 60.3092 70C60.3092 68.8954 59.4091 68 58.2989 68C57.1886 68 56.2886 68.8954 56.2886 70C56.2886 71.1046 57.1886 72 58.2989 72Z" fill="#D9D9D9"/>
<path d="M71.3658 76C72.476 76 73.3761 75.1046 73.3761 74C73.3761 72.8954 72.476 72 71.3658 72C70.2555 72 69.3555 72.8954 69.3555 74C69.3555 75.1046 70.2555 76 71.3658 76Z" fill="#D9D9D9"/>
<path d="M333.711 69C334.822 69 335.722 69.8954 335.722 71C335.722 72.1046 334.822 73 333.711 73C332.601 73 331.701 72.1046 331.701 71C331.701 69.8954 332.601 69 333.711 69Z" fill="#D9D9D9"/>
<path d="M341.752 59C342.863 59 343.763 59.8954 343.763 61C343.763 62.1046 342.863 63 341.752 63C340.642 63 339.742 62.1046 339.742 61C339.742 59.8954 340.642 59 341.752 59Z" fill="#D9D9D9"/>
<path d="M350.799 50C351.909 50 352.809 50.8954 352.809 52C352.809 53.1046 351.909 54 350.799 54C349.689 54 348.789 53.1046 348.789 52C348.789 50.8954 349.689 50 350.799 50Z" fill="#D9D9D9"/>
<path d="M358.84 42C359.951 42 360.851 42.8954 360.851 44C360.851 45.1046 359.951 46 358.84 46C357.73 46 356.83 45.1046 356.83 44C356.83 42.8954 357.73 42 358.84 42Z" fill="#D9D9D9"/>
<path d="M366.881 33C367.992 33 368.892 33.8954 368.892 35C368.892 36.1046 367.992 37 366.881 37C365.771 37 364.871 36.1046 364.871 35C364.871 33.8954 365.771 33 366.881 33Z" fill="#D9D9D9"/>
<path d="M377.938 25C379.048 25 379.948 25.8954 379.948 27C379.948 28.1046 379.048 29 377.938 29C376.828 29 375.928 28.1046 375.928 27C375.928 25.8954 376.828 25 377.938 25Z" fill="#D9D9D9"/>
<path d="M390 16C391.11 16 392.01 16.8954 392.01 18C392.01 19.1046 391.11 20 390 20C388.89 20 387.99 19.1046 387.99 18C387.99 16.8954 388.89 16 390 16Z" fill="#D9D9D9"/>
<path d="M403.067 12C404.177 12 405.077 12.8954 405.077 14C405.077 15.1046 404.177 16 403.067 16C401.957 16 401.057 15.1046 401.057 14C401.057 12.8954 401.957 12 403.067 12Z" fill="#D9D9D9"/>
<path d="M536.752 72C535.642 72 534.742 72.8954 534.742 74C534.742 75.1046 535.642 76 536.752 76C537.863 76 538.763 75.1046 538.763 74C538.763 72.8954 537.863 72 536.752 72Z" fill="#D9D9D9"/>
<path d="M528.711 62C527.601 62 526.701 62.8954 526.701 64C526.701 65.1046 527.601 66 528.711 66C529.822 66 530.722 65.1046 530.722 64C530.722 62.8954 529.822 62 528.711 62Z" fill="#D9D9D9"/>
<path d="M519.665 53C518.555 53 517.655 53.8954 517.655 55C517.655 56.1046 518.555 57 519.665 57C520.775 57 521.675 56.1046 521.675 55C521.675 53.8954 520.775 53 519.665 53Z" fill="#D9D9D9"/>
<path d="M511.623 45C510.513 45 509.613 45.8954 509.613 47C509.613 48.1046 510.513 49 511.623 49C512.734 49 513.634 48.1046 513.634 47C513.634 45.8954 512.734 45 511.623 45Z" fill="#D9D9D9"/>
<path d="M503.582 36C502.472 36 501.572 36.8954 501.572 38C501.572 39.1046 502.472 40 503.582 40C504.693 40 505.593 39.1046 505.593 38C505.593 36.8954 504.693 36 503.582 36Z" fill="#D9D9D9"/>
<path d="M492.526 28C491.416 28 490.516 28.8954 490.516 30C490.516 31.1046 491.416 32 492.526 32C493.636 32 494.536 31.1046 494.536 30C494.536 28.8954 493.636 28 492.526 28Z" fill="#D9D9D9"/>
<path d="M482.474 21C481.364 21 480.464 21.8954 480.464 23C480.464 24.1046 481.364 25 482.474 25C483.584 25 484.484 24.1046 484.484 23C484.484 21.8954 483.584 21 482.474 21Z" fill="#D9D9D9"/>
<path d="M469.407 15C468.297 15 467.397 15.8954 467.397 17C467.397 18.1046 468.297 19 469.407 19C470.517 19 471.417 18.1046 471.417 17C471.417 15.8954 470.517 15 469.407 15Z" fill="#D9D9D9"/>
<path d="M416.134 9C415.024 9 414.124 9.89543 414.124 11C414.124 12.1046 415.024 13 416.134 13C417.244 13 418.145 12.1046 418.145 11C418.145 9.89543 417.244 9 416.134 9Z" fill="#D9D9D9"/>
<path d="M430.206 8C429.096 8 428.196 8.89543 428.196 10C428.196 11.1046 429.096 12 430.206 12C431.316 12 432.216 11.1046 432.216 10C432.216 8.89543 431.316 8 430.206 8Z" fill="#D9D9D9"/>
<path d="M444.278 9C443.168 9 442.268 9.89543 442.268 11C442.268 12.1046 443.168 13 444.278 13C445.389 13 446.289 12.1046 446.289 11C446.289 9.89543 445.389 9 444.278 9Z" fill="#D9D9D9"/>
<path d="M457.345 12C456.235 12 455.335 12.8954 455.335 14C455.335 15.1046 456.235 16 457.345 16C458.455 16 459.355 15.1046 459.355 14C459.355 12.8954 458.455 12 457.345 12Z" fill="#D9D9D9"/>
<path d="M107.551 61C108.662 61 109.562 61.8954 109.562 63C109.562 64.1046 108.662 65 107.551 65C106.441 65 105.541 64.1046 105.541 63C105.541 61.8954 106.441 61 107.551 61Z" fill="#D9D9D9"/>
<path d="M115.593 51C116.703 51 117.603 51.8954 117.603 53C117.603 54.1046 116.703 55 115.593 55C114.483 55 113.583 54.1046 113.583 53C113.583 51.8954 114.483 51 115.593 51Z" fill="#D9D9D9"/>
<path d="M124.639 42C125.749 42 126.65 42.8954 126.65 44C126.65 45.1046 125.749 46 124.639 46C123.529 46 122.629 45.1046 122.629 44C122.629 42.8954 123.529 42 124.639 42Z" fill="#D9D9D9"/>
<path d="M132.68 34C133.79 34 134.691 34.8954 134.691 36C134.691 37.1046 133.79 38 132.68 38C131.57 38 130.67 37.1046 130.67 36C130.67 34.8954 131.57 34 132.68 34Z" fill="#D9D9D9"/>
<path d="M140.722 25C141.832 25 142.732 25.8954 142.732 27C142.732 28.1046 141.832 29 140.722 29C139.611 29 138.711 28.1046 138.711 27C138.711 25.8954 139.611 25 140.722 25Z" fill="#D9D9D9"/>
<path d="M151.778 17C152.889 17 153.789 17.8954 153.789 19C153.789 20.1046 152.889 21 151.778 21C150.668 21 149.768 20.1046 149.768 19C149.768 17.8954 150.668 17 151.778 17Z" fill="#D9D9D9"/>
<path d="M163.84 8C164.951 8 165.851 8.89543 165.851 10C165.851 11.1046 164.951 12 163.84 12C162.73 12 161.83 11.1046 161.83 10C161.83 8.89543 162.73 8 163.84 8Z" fill="#D9D9D9"/>
<path d="M176.907 4C178.018 4 178.918 4.89543 178.918 6C178.918 7.10457 178.018 8 176.907 8C175.797 8 174.897 7.10457 174.897 6C174.897 4.89543 175.797 4 176.907 4Z" fill="#D9D9D9"/>
<path d="M302.552 54C301.441 54 300.541 54.8954 300.541 56C300.541 57.1046 301.441 58 302.552 58C303.662 58 304.562 57.1046 304.562 56C304.562 54.8954 303.662 54 302.552 54Z" fill="#D9D9D9"/>
<path d="M293.505 45C292.395 45 291.495 45.8954 291.495 47C291.495 48.1046 292.395 49 293.505 49C294.616 49 295.516 48.1046 295.516 47C295.516 45.8954 294.616 45 293.505 45Z" fill="#D9D9D9"/>
<path d="M285.464 37C284.354 37 283.454 37.8954 283.454 39C283.454 40.1046 284.354 41 285.464 41C286.574 41 287.474 40.1046 287.474 39C287.474 37.8954 286.574 37 285.464 37Z" fill="#D9D9D9"/>
<path d="M277.423 28C276.313 28 275.412 28.8954 275.412 30C275.412 31.1046 276.313 32 277.423 32C278.533 32 279.433 31.1046 279.433 30C279.433 28.8954 278.533 28 277.423 28Z" fill="#D9D9D9"/>
<path d="M266.366 20C265.256 20 264.356 20.8954 264.356 22C264.356 23.1046 265.256 24 266.366 24C267.476 24 268.376 23.1046 268.376 22C268.376 20.8954 267.476 20 266.366 20Z" fill="#D9D9D9"/>
<path d="M256.314 13C255.204 13 254.304 13.8954 254.304 15C254.304 16.1046 255.204 17 256.314 17C257.425 17 258.325 16.1046 258.325 15C258.325 13.8954 257.425 13 256.314 13Z" fill="#D9D9D9"/>
<path d="M243.248 7C242.137 7 241.237 7.89543 241.237 9C241.237 10.1046 242.137 11 243.248 11C244.358 11 245.258 10.1046 245.258 9C245.258 7.89543 244.358 7 243.248 7Z" fill="#D9D9D9"/>
<path d="M189.974 1C188.864 1 187.964 1.89543 187.964 3C187.964 4.10457 188.864 5 189.974 5C191.084 5 191.984 4.10457 191.984 3C191.984 1.89543 191.084 1 189.974 1Z" fill="#D9D9D9"/>
<path d="M204.046 0C202.936 0 202.036 0.895431 202.036 2C202.036 3.10457 202.936 4 204.046 4C205.157 4 206.057 3.10457 206.057 2C206.057 0.895431 205.157 0 204.046 0Z" fill="#D9D9D9"/>
<path d="M218.119 1C217.008 1 216.108 1.89543 216.108 3C216.108 4.10457 217.008 5 218.119 5C219.229 5 220.129 4.10457 220.129 3C220.129 1.89543 219.229 1 218.119 1Z" fill="#D9D9D9"/>
<path d="M231.185 4C230.075 4 229.175 4.89543 229.175 6C229.175 7.10457 230.075 8 231.185 8C232.296 8 233.196 7.10457 233.196 6C233.196 4.89543 232.296 4 231.185 4Z" fill="#D9D9D9"/>
<path d="M588.015 69C589.125 69 590.026 69.8954 590.026 71C590.026 72.1046 589.125 73 588.015 73C586.905 73 586.005 72.1046 586.005 71C586.005 69.8954 586.905 69 588.015 69Z" fill="#D9D9D9"/>
<path d="M576.959 76C578.069 76 578.969 76.8954 578.969 78C578.969 79.1046 578.069 80 576.959 80C575.848 80 574.948 79.1046 574.948 78C574.948 76.8954 575.848 76 576.959 76Z" fill="#D9D9D9"/>
<path d="M596.057 59C597.167 59 598.067 59.8954 598.067 61C598.067 62.1046 597.167 63 596.057 63C594.946 63 594.046 62.1046 594.046 61C594.046 59.8954 594.946 59 596.057 59Z" fill="#D9D9D9"/>
<path d="M605.103 50C606.213 50 607.113 50.8954 607.113 52C607.113 53.1046 606.213 54 605.103 54C603.993 54 603.093 53.1046 603.093 52C603.093 50.8954 603.993 50 605.103 50Z" fill="#D9D9D9"/>
<path d="M613.144 42C614.254 42 615.154 42.8954 615.154 44C615.154 45.1046 614.254 46 613.144 46C612.034 46 611.134 45.1046 611.134 44C611.134 42.8954 612.034 42 613.144 42Z" fill="#D9D9D9"/>
<path d="M621.186 33C622.296 33 623.196 33.8954 623.196 35C623.196 36.1046 622.296 37 621.186 37C620.075 37 619.175 36.1046 619.175 35C619.175 33.8954 620.075 33 621.186 33Z" fill="#D9D9D9"/>
<path d="M632.242 25C633.353 25 634.253 25.8954 634.253 27C634.253 28.1046 633.353 29 632.242 29C631.132 29 630.232 28.1046 630.232 27C630.232 25.8954 631.132 25 632.242 25Z" fill="#D9D9D9"/>
<path d="M644.304 16C645.415 16 646.315 16.8954 646.315 18C646.315 19.1046 645.415 20 644.304 20C643.194 20 642.294 19.1046 642.294 18C642.294 16.8954 643.194 16 644.304 16Z" fill="#D9D9D9"/>
<path d="M657.371 12C658.481 12 659.381 12.8954 659.381 14C659.381 15.1046 658.481 16 657.371 16C656.261 16 655.361 15.1046 655.361 14C655.361 12.8954 656.261 12 657.371 12Z" fill="#D9D9D9"/>
<path d="M791.057 72C789.946 72 789.046 72.8954 789.046 74C789.046 75.1046 789.946 76 791.057 76C792.167 76 793.067 75.1046 793.067 74C793.067 72.8954 792.167 72 791.057 72Z" fill="#D9D9D9"/>
<path d="M798.093 79C796.982 79 796.082 79.8954 796.082 81C796.082 82.1046 796.982 83 798.093 83C799.203 83 800.103 82.1046 800.103 81C800.103 79.8954 799.203 79 798.093 79Z" fill="#D9D9D9"/>
<path d="M783.016 62C781.905 62 781.005 62.8954 781.005 64C781.005 65.1046 781.905 66 783.016 66C784.126 66 785.026 65.1046 785.026 64C785.026 62.8954 784.126 62 783.016 62Z" fill="#D9D9D9"/>
<path d="M773.969 53C772.859 53 771.959 53.8954 771.959 55C771.959 56.1046 772.859 57 773.969 57C775.079 57 775.979 56.1046 775.979 55C775.979 53.8954 775.079 53 773.969 53Z" fill="#D9D9D9"/>
<path d="M765.928 45C764.817 45 763.917 45.8954 763.917 47C763.917 48.1046 764.817 49 765.928 49C767.038 49 767.938 48.1046 767.938 47C767.938 45.8954 767.038 45 765.928 45Z" fill="#D9D9D9"/>
<path d="M757.887 36C756.776 36 755.876 36.8954 755.876 38C755.876 39.1046 756.776 40 757.887 40C758.997 40 759.897 39.1046 759.897 38C759.897 36.8954 758.997 36 757.887 36Z" fill="#D9D9D9"/>
<path d="M746.83 28C745.72 28 744.82 28.8954 744.82 30C744.82 31.1046 745.72 32 746.83 32C747.94 32 748.84 31.1046 748.84 30C748.84 28.8954 747.94 28 746.83 28Z" fill="#D9D9D9"/>
<path d="M736.778 21C735.668 21 734.768 21.8954 734.768 23C734.768 24.1046 735.668 25 736.778 25C737.889 25 738.789 24.1046 738.789 23C738.789 21.8954 737.889 21 736.778 21Z" fill="#D9D9D9"/>
<path d="M723.711 15C722.601 15 721.701 15.8954 721.701 17C721.701 18.1046 722.601 19 723.711 19C724.822 19 725.722 18.1046 725.722 17C725.722 15.8954 724.822 15 723.711 15Z" fill="#D9D9D9"/>
<path d="M670.438 9C669.328 9 668.428 9.89543 668.428 11C668.428 12.1046 669.328 13 670.438 13C671.548 13 672.448 12.1046 672.448 11C672.448 9.89543 671.548 9 670.438 9Z" fill="#D9D9D9"/>
<path d="M684.51 8C683.4 8 682.5 8.89543 682.5 10C682.5 11.1046 683.4 12 684.51 12C685.62 12 686.521 11.1046 686.521 10C686.521 8.89543 685.62 8 684.51 8Z" fill="#D9D9D9"/>
<path d="M698.582 9C697.472 9 696.572 9.89543 696.572 11C696.572 12.1046 697.472 13 698.582 13C699.693 13 700.593 12.1046 700.593 11C700.593 9.89543 699.693 9 698.582 9Z" fill="#D9D9D9"/>
<path d="M711.649 12C710.539 12 709.639 12.8954 709.639 14C709.639 15.1046 710.539 16 711.649 16C712.76 16 713.66 15.1046 713.66 14C713.66 12.8954 712.76 12 711.649 12Z" fill="#D9D9D9"/>
<path d="M842.319 67C843.43 67 844.33 67.8954 844.33 69C844.33 70.1046 843.43 71 842.319 71C841.209 71 840.309 70.1046 840.309 69C840.309 67.8954 841.209 67 842.319 67Z" fill="#D9D9D9"/>
<path d="M831.263 74C832.373 74 833.273 74.8954 833.273 76C833.273 77.1046 832.373 78 831.263 78C830.152 78 829.252 77.1046 829.252 76C829.252 74.8954 830.152 74 831.263 74Z" fill="#D9D9D9"/>
<path d="M850.361 57C851.471 57 852.371 57.8954 852.371 59C852.371 60.1046 851.471 61 850.361 61C849.251 61 848.351 60.1046 848.351 59C848.351 57.8954 849.251 57 850.361 57Z" fill="#D9D9D9"/>
<path d="M859.407 48C860.518 48 861.418 48.8954 861.418 50C861.418 51.1046 860.518 52 859.407 52C858.297 52 857.397 51.1046 857.397 50C857.397 48.8954 858.297 48 859.407 48Z" fill="#D9D9D9"/>
<path d="M867.448 40C868.559 40 869.459 40.8954 869.459 42C869.459 43.1046 868.559 44 867.448 44C866.338 44 865.438 43.1046 865.438 42C865.438 40.8954 866.338 40 867.448 40Z" fill="#D9D9D9"/>
<path d="M875.49 31C876.6 31 877.5 31.8954 877.5 33C877.5 34.1046 876.6 35 875.49 35C874.38 35 873.479 34.1046 873.479 33C873.479 31.8954 874.38 31 875.49 31Z" fill="#D9D9D9"/>
<path d="M886.546 23C887.657 23 888.557 23.8954 888.557 25C888.557 26.1046 887.657 27 886.546 27C885.436 27 884.536 26.1046 884.536 25C884.536 23.8954 885.436 23 886.546 23Z" fill="#D9D9D9"/>
<path d="M898.608 14C899.719 14 900.619 14.8954 900.619 16C900.619 17.1046 899.719 18 898.608 18C897.498 18 896.598 17.1046 896.598 16C896.598 14.8954 897.498 14 898.608 14Z" fill="#D9D9D9"/>
<path d="M911.675 10C912.786 10 913.686 10.8954 913.686 12C913.686 13.1046 912.786 14 911.675 14C910.565 14 909.665 13.1046 909.665 12C909.665 10.8954 910.565 10 911.675 10Z" fill="#D9D9D9"/>
<path d="M1045.36 70C1044.25 70 1043.35 70.8954 1043.35 72C1043.35 73.1046 1044.25 74 1045.36 74C1046.47 74 1047.37 73.1046 1047.37 72C1047.37 70.8954 1046.47 70 1045.36 70Z" fill="#D9D9D9"/>
<path d="M1052.4 77C1051.29 77 1050.39 77.8954 1050.39 79C1050.39 80.1046 1051.29 81 1052.4 81C1053.51 81 1054.41 80.1046 1054.41 79C1054.41 77.8954 1053.51 77 1052.4 77Z" fill="#D9D9D9"/>
<path d="M1037.32 60C1036.21 60 1035.31 60.8954 1035.31 62C1035.31 63.1046 1036.21 64 1037.32 64C1038.43 64 1039.33 63.1046 1039.33 62C1039.33 60.8954 1038.43 60 1037.32 60Z" fill="#D9D9D9"/>
<path d="M1028.27 51C1027.16 51 1026.26 51.8954 1026.26 53C1026.26 54.1046 1027.16 55 1028.27 55C1029.38 55 1030.28 54.1046 1030.28 53C1030.28 51.8954 1029.38 51 1028.27 51Z" fill="#D9D9D9"/>
<path d="M1020.23 43C1019.12 43 1018.22 43.8954 1018.22 45C1018.22 46.1046 1019.12 47 1020.23 47C1021.34 47 1022.24 46.1046 1022.24 45C1022.24 43.8954 1021.34 43 1020.23 43Z" fill="#D9D9D9"/>
<path d="M1012.19 34C1011.08 34 1010.18 34.8954 1010.18 36C1010.18 37.1046 1011.08 38 1012.19 38C1013.3 38 1014.2 37.1046 1014.2 36C1014.2 34.8954 1013.3 34 1012.19 34Z" fill="#D9D9D9"/>
<path d="M1001.13 26C1000.02 26 999.124 26.8954 999.124 28C999.124 29.1046 1000.02 30 1001.13 30C1002.24 30 1003.14 29.1046 1003.14 28C1003.14 26.8954 1002.24 26 1001.13 26Z" fill="#D9D9D9"/>
<path d="M991.082 19C989.972 19 989.072 19.8954 989.072 21C989.072 22.1046 989.972 23 991.082 23C992.193 23 993.093 22.1046 993.093 21C993.093 19.8954 992.193 19 991.082 19Z" fill="#D9D9D9"/>
<path d="M978.016 13C976.905 13 976.005 13.8954 976.005 15C976.005 16.1046 976.905 17 978.016 17C979.126 17 980.026 16.1046 980.026 15C980.026 13.8954 979.126 13 978.016 13Z" fill="#D9D9D9"/>
<path d="M924.742 7C923.632 7 922.732 7.89543 922.732 9C922.732 10.1046 923.632 11 924.742 11C925.852 11 926.752 10.1046 926.752 9C926.752 7.89543 925.852 7 924.742 7Z" fill="#D9D9D9"/>
<path d="M938.814 6C937.704 6 936.804 6.89543 936.804 8C936.804 9.10457 937.704 10 938.814 10C939.925 10 940.825 9.10457 940.825 8C940.825 6.89543 939.925 6 938.814 6Z" fill="#D9D9D9"/>
<path d="M952.887 7C951.776 7 950.876 7.89543 950.876 9C950.876 10.1046 951.776 11 952.887 11C953.997 11 954.897 10.1046 954.897 9C954.897 7.89543 953.997 7 952.887 7Z" fill="#D9D9D9"/>
<path d="M965.954 10C964.843 10 963.943 10.8954 963.943 12C963.943 13.1046 964.843 14 965.954 14C967.064 14 967.964 13.1046 967.964 12C967.964 10.8954 967.064 10 965.954 10Z" fill="#D9D9D9"/>
<path d="M1158.94 17C1157.83 17 1156.93 16.1046 1156.93 15C1156.93 13.8954 1157.83 13 1158.94 13C1160.05 13 1160.95 13.8954 1160.95 15C1160.95 16.1046 1160.05 17 1158.94 17Z" fill="#D9D9D9"/>
<path d="M1167.99 7C1166.88 7 1165.98 6.10457 1165.98 5C1165.98 3.89543 1166.88 3 1167.99 3C1169.1 3 1170 3.89543 1170 5C1170 6.10457 1169.1 7 1167.99 7Z" fill="#D9D9D9"/>
<path d="M1150.9 27C1149.79 27 1148.89 26.1046 1148.89 25C1148.89 23.8954 1149.79 23 1150.9 23C1152.01 23 1152.91 23.8954 1152.91 25C1152.91 26.1046 1152.01 27 1150.9 27Z" fill="#D9D9D9"/>
<path d="M1141.86 36C1140.75 36 1139.85 35.1046 1139.85 34C1139.85 32.8954 1140.75 32 1141.86 32C1142.97 32 1143.87 32.8954 1143.87 34C1143.87 35.1046 1142.97 36 1141.86 36Z" fill="#D9D9D9"/>
<path d="M1133.81 44C1132.7 44 1131.8 43.1046 1131.8 42C1131.8 40.8954 1132.7 40 1133.81 40C1134.92 40 1135.82 40.8954 1135.82 42C1135.82 43.1046 1134.92 44 1133.81 44Z" fill="#D9D9D9"/>
<path d="M1125.77 53C1124.66 53 1123.76 52.1046 1123.76 51C1123.76 49.8954 1124.66 49 1125.77 49C1126.88 49 1127.78 49.8954 1127.78 51C1127.78 52.1046 1126.88 53 1125.77 53Z" fill="#D9D9D9"/>
<path d="M1114.72 61C1113.61 61 1112.71 60.1046 1112.71 59C1112.71 57.8954 1113.61 57 1114.72 57C1115.83 57 1116.73 57.8954 1116.73 59C1116.73 60.1046 1115.83 61 1114.72 61Z" fill="#D9D9D9"/>
<path d="M1102.65 70C1101.54 70 1100.64 69.1046 1100.64 68C1100.64 66.8954 1101.54 66 1102.65 66C1103.76 66 1104.67 66.8954 1104.67 68C1104.67 69.1046 1103.76 70 1102.65 70Z" fill="#D9D9D9"/>
<path d="M1089.59 74C1088.48 74 1087.58 73.1046 1087.58 72C1087.58 70.8954 1088.48 70 1089.59 70C1090.7 70 1091.6 70.8954 1091.6 72C1091.6 73.1046 1090.7 74 1089.59 74Z" fill="#D9D9D9"/>
<path d="M89.4586 96C100.561 96 109.562 87.0457 109.562 76C109.562 64.9543 100.561 56 89.4586 56C78.3559 56 69.3555 64.9543 69.3555 76C69.3555 87.0457 78.3559 96 89.4586 96Z" fill="#337CFC"/>
<path d="M92.3121 85.0001H88.8642V72.0729C87.6044 73.2447 86.1198 74.1114 84.4102 74.673V71.5602C85.31 71.2672 86.2875 70.7138 87.3427 69.9C88.3979 69.0781 89.1218 68.1217 89.5145 67.0312H92.3121V85.0001Z" fill="white"/>
<path d="M322.655 96C333.757 96 342.758 87.0457 342.758 76C342.758 64.9543 333.757 56 322.655 56C311.552 56 302.552 64.9543 302.552 76C302.552 87.0457 311.552 96 322.655 96Z" fill="#337CFC"/>
<path d="M327.869 80.8141V84.0001H315.784C315.915 82.7957 316.307 81.6563 316.961 80.5821C317.616 79.4998 318.908 78.0675 320.839 76.2853C322.393 74.8448 323.346 73.8683 323.698 73.3556C324.172 72.6476 324.409 71.9477 324.409 71.256C324.409 70.491 324.201 69.905 323.784 69.4981C323.375 69.0831 322.806 68.8756 322.078 68.8756C321.359 68.8756 320.786 69.0912 320.361 69.5226C319.935 69.9539 319.689 70.67 319.624 71.671L316.188 71.3292C316.393 69.4412 317.036 68.0862 318.115 67.2643C319.195 66.4423 320.545 66.0312 322.164 66.0312C323.939 66.0312 325.334 66.5074 326.348 67.4596C327.363 68.4117 327.869 69.5958 327.869 71.0118C327.869 71.8175 327.722 72.5865 327.428 73.3189C327.141 74.0432 326.683 74.8041 326.054 75.6017C325.637 76.1306 324.884 76.8915 323.796 77.8844C322.708 78.8772 322.017 79.5364 321.723 79.8619C321.436 80.1874 321.203 80.5048 321.023 80.8141H327.869Z" fill="white"/>
<path d="M564.897 96C576 96 585 87.0457 585 76C585 64.9543 576 56 564.897 56C553.794 56 544.794 64.9543 544.794 76C544.794 87.0457 553.794 96 564.897 96Z" fill="#337CFC"/>
<path d="M558.848 79.2516L562.185 78.8487C562.291 79.6951 562.577 80.342 563.043 80.7896C563.51 81.2371 564.074 81.461 564.737 81.461C565.449 81.461 566.046 81.1924 566.528 80.6553C567.019 80.1182 567.265 79.394 567.265 78.4825C567.265 77.6199 567.032 76.9363 566.565 76.4317C566.099 75.9272 565.53 75.6749 564.86 75.6749C564.418 75.6749 563.891 75.7604 563.276 75.9313L563.657 73.1357C564.589 73.1602 565.301 72.9609 565.792 72.5377C566.283 72.1064 566.528 71.5367 566.528 70.8287C566.528 70.2265 566.348 69.7464 565.988 69.3883C565.628 69.0302 565.15 68.8512 564.553 68.8512C563.964 68.8512 563.46 69.0546 563.043 69.4615C562.626 69.8684 562.373 70.4625 562.283 71.2438L559.105 70.7066C559.326 69.6243 559.657 68.7617 560.099 68.1188C560.548 67.4677 561.171 66.959 561.964 66.5928C562.766 66.2184 563.661 66.0312 564.65 66.0312C566.344 66.0312 567.702 66.5685 568.724 67.6427C569.567 68.5216 569.989 69.5144 569.989 70.6212C569.989 72.1918 569.125 73.4451 567.4 74.381C568.43 74.6007 569.252 75.093 569.865 75.858C570.487 76.623 570.798 77.5466 570.798 78.629C570.798 80.1996 570.221 81.5383 569.068 82.6451C567.915 83.7519 566.479 84.3053 564.761 84.3053C563.134 84.3053 561.784 83.8414 560.712 82.9137C559.641 81.9778 559.019 80.7571 558.848 79.2516Z" fill="white"/>
<path d="M818.196 96C829.298 96 838.299 87.0457 838.299 76C838.299 64.9543 829.298 56 818.196 56C807.093 56 798.093 64.9543 798.093 76C798.093 87.0457 807.093 96 818.196 96Z" fill="#337CFC"/>
<path d="M818.427 84.0001V80.399H811.065V77.3961L818.869 66.0312H821.764V77.3839H823.998V80.399H821.764V84.0001H818.427ZM818.427 77.3839V71.2682L814.292 77.3839H818.427Z" fill="white"/>
<path d="M1075.52 96C1086.62 96 1095.62 87.0457 1095.62 76C1095.62 64.9543 1086.62 56 1075.52 56C1064.41 56 1055.41 64.9543 1055.41 76C1055.41 87.0457 1064.41 96 1075.52 96Z" fill="#337CFC"/>
<path d="M1069.64 79.3979L1073.07 79.0439C1073.17 79.8171 1073.46 80.4315 1073.95 80.8872C1074.43 81.3348 1074.98 81.5586 1075.62 81.5586C1076.33 81.5586 1076.94 81.2697 1077.45 80.6919C1077.94 80.106 1078.19 79.2271 1078.19 78.0552C1078.19 76.9565 1077.94 76.1346 1077.45 75.5894C1076.95 75.036 1076.31 74.7593 1075.52 74.7593C1074.52 74.7593 1073.64 75.1947 1072.85 76.0654L1070.06 75.6626L1071.83 66.3486H1080.94V69.5591H1074.44L1073.9 72.5986C1074.66 72.2161 1075.45 72.0249 1076.25 72.0249C1077.78 72.0249 1079.07 72.5783 1080.14 73.6851C1081.2 74.7918 1081.74 76.2282 1081.74 77.9941C1081.74 79.4671 1081.31 80.7814 1080.45 81.937C1079.27 83.5158 1077.66 84.3052 1075.58 84.3052C1073.92 84.3052 1072.56 83.8617 1071.51 82.9746C1070.47 82.0876 1069.85 80.8953 1069.64 79.3979Z" fill="white"/>
</g>
<defs>
<clipPath id="clip0_8418_1107">
<rect width="1170" height="96" fill="white"/>
</clipPath>
</defs>
</svg>
