<svg width="20" height="20" viewBox="0 0 20 20" fill="none" xmlns="http://www.w3.org/2000/svg">
<g clip-path="url(#clip0_14_65)">
<path d="M10 2C5.58169 2 2 5.58169 2 10C2 14.4183 5.58169 18 10 18C14.4183 18 18 14.4183 18 10C18 5.58169 14.4183 2 10 2Z" fill="#40B3E0"/>
<path d="M13.8926 6.60193L12.4637 13.8061C12.4637 13.8061 12.2639 14.3057 11.7143 14.0659L8.41696 11.5379L7.21796 10.9584L5.19959 10.2789C5.19959 10.2789 4.88984 10.1691 4.85984 9.92924C4.8299 9.68943 5.20959 9.55955 5.20959 9.55955L13.2331 6.41205C13.2331 6.41205 13.8926 6.1223 13.8926 6.60193Z" fill="white"/>
<path d="M8.16358 13.7252C8.16358 13.7252 8.06733 13.7162 7.94739 13.3365C7.82752 12.9568 7.21802 10.9584 7.21802 10.9584L12.0641 7.8809C12.0641 7.8809 12.3439 7.71103 12.3339 7.8809C12.3339 7.8809 12.3838 7.91084 12.234 8.05072C12.0841 8.19065 8.42702 11.478 8.42702 11.478" fill="#D2E5F1"/>
<path d="M9.68132 12.5072L8.37707 13.6963C8.37707 13.6963 8.27514 13.7737 8.16357 13.7252L8.41332 11.5164" fill="#B5CFE4"/>
</g>
<defs>
<clipPath id="clip0_14_65">
<rect width="16" height="16" fill="white" transform="translate(2 2)"/>
</clipPath>
</defs>
</svg>
