<svg width="36" height="36" viewBox="0 0 36 36" fill="none" xmlns="http://www.w3.org/2000/svg">
<path d="M19.35 15.75C18.45 15.525 17.55 15.075 16.875 14.4C16.2001 14.175 15.975 13.5 15.975 13.05C15.975 12.6 16.2001 11.925 16.65 11.7C17.325 11.25 18.0001 10.8 18.675 11.025C20.025 11.025 21.15 11.7 21.825 12.6L23.85 9.89999C23.1751 9.22496 22.5 8.77502 21.825 8.32496C21.15 7.87502 20.25 7.65005 19.35 7.65005V4.50001H16.65V7.65005C15.525 7.87502 14.3999 8.55005 13.5 9.45004C12.6 10.575 11.925 11.925 12.15 13.275C12.15 14.6251 12.6 15.975 13.5 16.875C14.625 18 16.2001 18.675 17.55 19.35C18.225 19.575 19.125 20.025 19.8 20.475C20.25 20.925 20.475 21.5999 20.475 22.275C20.475 22.95 20.25 23.625 19.8 24.3C19.125 24.975 18.225 25.2 17.55 25.2C16.65 25.2 15.525 24.975 14.85 24.3C14.175 23.85 13.5 23.175 13.05 22.4999L10.8 24.975C11.475 25.875 12.15 26.55 13.05 27.225C14.175 27.9 15.525 28.5749 16.875 28.5749V31.5H19.35V28.125C20.7 27.9 21.825 27.225 22.725 26.325C23.85 25.2 24.525 23.4 24.525 21.825C24.525 20.475 24.0751 18.9 22.95 18C21.825 16.875 20.7 16.2 19.35 15.75ZM18.0001 0C8.09997 0 0 8.09999 0 18C0 27.9 8.09997 36 18.0001 36C27.9 36 36 27.9 36 18C36 8.09999 27.9 0 18.0001 0ZM18.0001 33.525C9.45002 33.525 2.475 26.55 2.475 18C2.475 9.45004 9.45002 2.475 18.0001 2.475C26.55 2.475 33.525 9.45004 33.525 18C33.525 26.55 26.55 33.525 18.0001 33.525Z" fill="#4F4F4F"/>
</svg>
