<svg width="36" height="36" viewBox="0 0 36 36" fill="none" xmlns="http://www.w3.org/2000/svg">
<path d="M35.2479 21.8573L33.0429 19.6523C33.2937 19.1376 33.4255 18.5729 33.4286 18.0002C33.4286 17.2374 33.2023 16.4916 32.7785 15.8574C32.3547 15.223 31.7523 14.7287 31.0475 14.4367C30.3427 14.1447 29.5671 14.0684 28.8189 14.2172C28.0707 14.366 27.3835 14.7334 26.844 15.2728C26.3045 15.8123 25.9372 16.4995 25.7884 17.2477C25.6396 17.9959 25.7159 18.7715 26.0079 19.4763C26.2998 20.181 26.7941 20.7835 27.4285 21.2074C28.0628 21.6312 28.8086 21.8573 29.5715 21.8573C30.1445 21.8545 30.7097 21.7227 31.2248 21.4717L33.4286 23.6754V33.4288H25.7143V29.5716C25.7115 27.1856 24.7625 24.8979 23.0752 23.2107C21.3879 21.5234 19.1003 20.5744 16.7143 20.5717H9C6.61389 20.5744 4.32628 21.5234 2.63904 23.2107C0.951799 24.8979 0.00271478 27.1856 0 29.5716V36.0003H36V23.6754C36.0009 23.3377 35.9349 23.0031 35.8058 22.6911C35.6768 22.3791 35.4871 22.0956 35.2479 21.8573ZM2.57142 29.5716C2.57346 27.8673 3.25142 26.2334 4.45657 25.0282C5.66171 23.8231 7.29565 23.1451 9 23.1431H16.7143C18.4186 23.1451 20.0525 23.8231 21.2577 25.0282C22.4629 26.2334 23.1408 27.8673 23.1428 29.5716V33.4288H2.57142V29.5716Z" fill="#4F4F4F"/>
<path d="M12.8575 2.57143C14.1289 2.57143 15.3717 2.94846 16.4289 3.65484C17.4861 4.36122 18.31 5.36522 18.7967 6.53989C19.2832 7.71454 19.4105 9.00718 19.1625 10.2542C18.9145 11.5012 18.3021 12.6467 17.4031 13.5457C16.504 14.4448 15.3586 15.057 14.1115 15.305C12.8645 15.5531 11.572 15.4258 10.3974 14.9392C9.22261 14.4527 8.21867 13.6287 7.5123 12.5716C6.80588 11.5144 6.42885 10.2715 6.42885 8.99999C6.42885 7.29507 7.10615 5.65991 8.31174 4.45432C9.51733 3.24872 11.1524 2.57143 12.8575 2.57143ZM12.8575 0C11.0774 0 9.33733 0.527839 7.8573 1.51678C6.37725 2.50571 5.2237 3.91132 4.54251 5.55585C3.86132 7.20043 3.68309 9.01003 4.03036 10.7558C4.37762 12.5016 5.23479 14.1053 6.49347 15.364C7.75209 16.6226 9.35582 17.4798 11.1016 17.827C12.8474 18.1744 14.657 17.9962 16.3015 17.3149C17.9461 16.6337 19.3517 15.4802 20.3406 14.0002C21.3296 12.5201 21.8574 10.78 21.8574 8.99999C21.8574 6.61305 20.9093 4.32387 19.2213 2.63604C17.5335 0.948218 15.2443 0 12.8575 0Z" fill="#4F4F4F"/>
</svg>
