<svg width="36" height="36" viewBox="0 0 36 36" fill="none" xmlns="http://www.w3.org/2000/svg">
<path d="M31.4167 3.53845H27.5417V2.26922C27.5417 1.93261 27.4056 1.60977 27.1634 1.37174C26.9211 1.13371 26.5926 1 26.25 1C25.9074 1 25.5789 1.13371 25.3366 1.37174C25.0944 1.60977 24.9583 1.93261 24.9583 2.26922V3.53845H12.0417V2.26922C12.0417 1.93261 11.9056 1.60977 11.6634 1.37174C11.4211 1.13371 11.0926 1 10.75 1C10.4074 1 10.0789 1.13371 9.83664 1.37174C9.5944 1.60977 9.45831 1.93261 9.45831 2.26922V3.53845H5.58334C4.89819 3.53845 4.24111 3.8059 3.75664 4.28195C3.27216 4.75801 3 5.40367 3 6.07691V31.4615C3 32.1348 3.27216 32.7804 3.75664 33.2565C4.24111 33.7325 4.89819 34 5.58334 34H31.4167C32.1018 34 32.7589 33.7325 33.2433 33.2565C33.7278 32.7804 34 32.1348 34 31.4615V6.07691C34 5.40367 33.7278 4.75801 33.2433 4.28195C32.7589 3.8059 32.1018 3.53845 31.4167 3.53845ZM9.45831 6.07691V7.34615C9.45831 7.68276 9.5944 8.0056 9.83664 8.24363C10.0789 8.48165 10.4074 8.61537 10.75 8.61537C11.0926 8.61537 11.4211 8.48165 11.6634 8.24363C11.9056 8.0056 12.0417 7.68276 12.0417 7.34615V6.07691H24.9583V7.34615C24.9583 7.68276 25.0944 8.0056 25.3366 8.24363C25.5789 8.48165 25.9074 8.61537 26.25 8.61537C26.5926 8.61537 26.9211 8.48165 27.1634 8.24363C27.4056 8.0056 27.5417 7.68276 27.5417 7.34615V6.07691H31.4167V11.1539H5.58334V6.07691H9.45831ZM31.4167 31.4615H5.58334V13.6923H31.4167V31.4615Z" fill="#4F4F4F"/>
</svg>
