<svg width="350" height="430" viewBox="0 0 350 430" fill="none" xmlns="http://www.w3.org/2000/svg">
<g clip-path="url(#clip0_8337_2023)">
<path d="M254.183 4.48926H14.7048C6.58357 4.48926 0 11.0654 0 19.1774C0 27.2895 6.58357 33.8656 14.7048 33.8656H254.183C262.305 33.8656 268.888 27.2895 268.888 19.1774C268.888 11.0654 262.305 4.48926 254.183 4.48926Z" fill="white"/>
<path d="M254.183 4.48926H130.943C122.822 4.48926 116.238 11.0654 116.238 19.1774C116.238 27.2895 122.822 33.8656 130.943 33.8656H254.183C262.304 33.8656 268.888 27.2895 268.888 19.1774C268.888 11.0654 262.304 4.48926 254.183 4.48926Z" fill="url(#paint0_linear_8337_2023)"/>
<path d="M124.637 32.2537C132.372 32.2537 138.642 25.9908 138.642 18.2651C138.642 10.5393 132.372 4.27637 124.637 4.27637C116.903 4.27637 110.633 10.5393 110.633 18.2651C110.633 25.9908 116.903 32.2537 124.637 32.2537Z" fill="url(#paint1_linear_8337_2023)" stroke="white" stroke-width="5.24172"/>
<path d="M24.4317 25.2637C22.9962 25.2637 21.901 24.8619 21.146 24.0583C20.3911 23.2425 20.0013 22.0805 19.9766 20.5724H23.1323C23.1572 21.2029 23.2623 21.6788 23.448 22.0002C23.6335 22.3217 23.9615 22.4823 24.4317 22.4823C24.8525 22.4823 25.1743 22.3278 25.397 22.0188C25.6198 21.6973 25.7313 21.1534 25.7313 20.387V12.043H29.0726V20.387C29.0726 21.277 28.9613 22.0312 28.7385 22.6493C28.5158 23.2673 28.2001 23.7741 27.7917 24.1696C27.3833 24.5529 26.8945 24.8309 26.3252 25.004C25.756 25.1771 25.1248 25.2637 24.4317 25.2637ZM38.2972 22.538H33.9533L33.0623 25.0226H29.9065L34.6402 12.043H37.9815L42.7152 25.0226H39.1882L38.2972 22.538ZM34.9001 19.9791H37.3505L36.1252 16.1223L34.9001 19.9791ZM41.6899 12.043H45.4026L48.3356 20.7579L51.1572 12.043H54.4986L49.8577 25.0226H46.5163L41.6899 12.043ZM61.8639 22.538H57.5201L56.629 25.0226H53.4733L58.207 12.043H61.5484L66.282 25.0226H62.755L61.8639 22.538ZM58.4668 19.9791H60.9172L59.6921 16.1223L58.4668 19.9791Z" fill="url(#paint2_linear_8337_2023)"/>
<path d="M231.774 47.1338H16.1032C7.982 47.1338 1.39844 53.7099 1.39844 61.8219C1.39844 69.934 7.982 76.5101 16.1032 76.5101H231.774C239.895 76.5101 246.479 69.934 246.479 61.8219C246.479 53.7099 239.895 47.1338 231.774 47.1338Z" fill="white"/>
<path d="M231.778 47.1338H132.345C124.224 47.1338 117.641 53.7099 117.641 61.8219C117.641 69.934 124.224 76.5101 132.345 76.5101H231.778C239.899 76.5101 246.483 69.934 246.483 61.8219C246.483 53.7099 239.899 47.1338 231.778 47.1338Z" fill="url(#paint3_linear_8337_2023)"/>
<path d="M126.036 74.9012C133.77 74.9012 140.04 68.6383 140.04 60.9125C140.04 53.1868 133.77 46.9238 126.036 46.9238C118.301 46.9238 112.031 53.1868 112.031 60.9125C112.031 68.6383 118.301 74.9012 126.036 74.9012Z" fill="url(#paint4_linear_8337_2023)" stroke="white" stroke-width="5.24172"/>
<path d="M27.8768 69.7655C26.9858 69.7655 26.1691 69.648 25.4264 69.4132C24.684 69.1659 24.0466 68.7766 23.5144 68.2449C22.9946 67.7135 22.5862 67.0273 22.2893 66.1867C21.9923 65.3462 21.8438 64.3202 21.8438 63.1087V62.7564C21.8438 61.6192 21.9984 60.6425 22.3078 59.8267C22.6172 59.0109 23.0442 58.3433 23.5887 57.8241C24.1332 57.305 24.7705 56.9218 25.5007 56.6745C26.2432 56.4273 27.0352 56.3037 27.8768 56.3037C28.6317 56.3037 29.3371 56.3902 29.993 56.5632C30.6613 56.7363 31.243 57.0083 31.7381 57.3791C32.2454 57.75 32.6538 58.2321 32.9632 58.8254C33.285 59.4188 33.4767 60.1419 33.5387 60.9949H30.0858C30.024 60.6488 29.925 60.3583 29.7889 60.1235C29.6528 59.8762 29.4856 59.6783 29.2877 59.5301C29.0897 59.3693 28.8669 59.2581 28.6193 59.1963C28.3842 59.1222 28.1367 59.0851 27.8768 59.0851C27.5056 59.0851 27.1591 59.153 26.8373 59.289C26.5279 59.4126 26.2556 59.6228 26.0205 59.9194C25.7977 60.2038 25.6183 60.5808 25.4821 61.0506C25.3584 61.5203 25.2965 62.0888 25.2965 62.7564V63.1458C25.2965 63.8628 25.3646 64.4684 25.5007 64.9629C25.6493 65.445 25.8411 65.8407 26.0762 66.1497C26.3113 66.4464 26.5836 66.6627 26.893 66.7986C27.2024 66.9223 27.5303 66.9841 27.8768 66.9841C28.5079 66.9841 29.0091 66.8357 29.3805 66.5391C29.764 66.2301 29.9993 65.7417 30.0858 65.0742H33.5387C33.4891 65.9396 33.3097 66.6688 33.0003 67.2622C32.7032 67.8556 32.3011 68.3377 31.7936 68.7085C31.2987 69.0793 30.7171 69.3513 30.0487 69.5243C29.3805 69.6851 28.6565 69.7655 27.8768 69.7655Z" fill="url(#paint5_linear_8337_2023)"/>
<path d="M209.369 91.6377H14.7048C6.58357 91.6377 0 98.2138 0 106.326C0 114.438 6.58357 121.014 14.7048 121.014H209.369C217.49 121.014 224.073 114.438 224.073 106.326C224.073 98.2138 217.49 91.6377 209.369 91.6377Z" fill="white"/>
<path d="M209.369 91.6377H130.943C122.822 91.6377 116.238 98.2138 116.238 106.326C116.238 114.438 122.822 121.014 130.943 121.014H209.369C217.49 121.014 224.074 114.438 224.074 106.326C224.074 98.2138 217.49 91.6377 209.369 91.6377Z" fill="url(#paint6_linear_8337_2023)"/>
<path d="M124.637 121.082C132.372 121.082 138.642 114.819 138.642 107.093C138.642 99.3674 132.372 93.1045 124.637 93.1045C116.903 93.1045 110.633 99.3674 110.633 107.093C110.633 114.819 116.903 121.082 124.637 121.082Z" fill="url(#paint7_linear_8337_2023)" stroke="white" stroke-width="5.24172"/>
<path d="M20.9062 101.047H26.1969C28.0036 101.047 29.334 101.442 30.1879 102.233C31.0542 103.012 31.4873 104.094 31.4873 105.478C31.4873 106.863 31.0542 107.951 30.1879 108.742C29.334 109.521 28.0036 109.91 26.1969 109.91H24.2477V114.026H20.9062V101.047ZM25.8255 107.166C26.6795 107.166 27.2797 107.024 27.6262 106.739C27.9726 106.455 28.1459 106.035 28.1459 105.478C28.1459 104.922 27.9726 104.502 27.6262 104.217C27.2797 103.933 26.6795 103.791 25.8255 103.791H24.2477V107.166H25.8255ZM36.8736 109.168L32.0472 101.047H35.9083L38.6187 105.868L41.1803 101.047H44.6703L40.215 109.168V114.026H36.8736V109.168ZM49.5845 103.791H45.5934V101.047H56.917V103.791H52.9259V114.026H49.5845V103.791ZM58.595 101.047H61.9364V105.979H66.7628V101.047H70.1042V114.026H66.7628V108.723H61.9364V114.026H58.595V101.047ZM78.5462 114.267C77.6923 114.267 76.8817 114.144 76.1145 113.896C75.3471 113.649 74.6727 113.26 74.091 112.728C73.5218 112.184 73.07 111.498 72.7359 110.67C72.4018 109.83 72.2347 108.816 72.2347 107.629V107.258C72.2347 106.121 72.4018 105.144 72.7359 104.329C73.07 103.513 73.5218 102.845 74.091 102.326C74.6727 101.807 75.3471 101.424 76.1145 101.176C76.8817 100.929 77.6923 100.806 78.5462 100.806C79.4002 100.806 80.2108 100.929 80.978 101.176C81.7453 101.424 82.4135 101.807 82.9829 102.326C83.5645 102.845 84.0225 103.513 84.3566 104.329C84.6907 105.144 84.8578 106.121 84.8578 107.258V107.629C84.8578 108.816 84.6907 109.83 84.3566 110.67C84.0225 111.498 83.5645 112.184 82.9829 112.728C82.4135 113.26 81.7453 113.649 80.978 113.896C80.2108 114.144 79.4002 114.267 78.5462 114.267ZM78.5462 111.486C78.9175 111.486 79.2764 111.43 79.6229 111.319C79.9694 111.196 80.2727 110.992 80.5325 110.707C80.7925 110.411 81.0027 110.015 81.1637 109.521C81.3245 109.026 81.405 108.396 81.405 107.629V107.258C81.405 106.541 81.3245 105.948 81.1637 105.478C81.0027 104.996 80.7925 104.619 80.5325 104.347C80.2727 104.063 79.9694 103.865 79.6229 103.754C79.2764 103.643 78.9175 103.587 78.5462 103.587C78.1749 103.587 77.8161 103.643 77.4696 103.754C77.1231 103.865 76.8198 104.063 76.56 104.347C76.3 104.619 76.0896 104.996 75.9288 105.478C75.768 105.948 75.6875 106.541 75.6875 107.258V107.629C75.6875 108.396 75.768 109.026 75.9288 109.521C76.0896 110.015 76.3 110.411 76.56 110.707C76.8198 110.992 77.1231 111.196 77.4696 111.319C77.8161 111.43 78.1749 111.486 78.5462 111.486ZM86.9838 101.047H89.9355L94.9661 108.278V101.047H98.4931V114.026H95.3374L90.3253 106.795V114.026H86.9838V101.047Z" fill="url(#paint8_linear_8337_2023)"/>
<path d="M196.065 134.284H14.7048C6.58357 134.284 0 140.86 0 148.972C0 157.084 6.58357 163.66 14.7048 163.66H196.065C204.186 163.66 210.769 157.084 210.769 148.972C210.769 140.86 204.186 134.284 196.065 134.284Z" fill="white"/>
<path d="M196.064 134.284H130.943C122.822 134.284 116.238 140.86 116.238 148.972C116.238 157.084 122.822 163.66 130.943 163.66H196.064C204.186 163.66 210.769 157.084 210.769 148.972C210.769 140.86 204.186 134.284 196.064 134.284Z" fill="url(#paint9_linear_8337_2023)"/>
<path d="M124.637 163.905C132.372 163.905 138.642 157.642 138.642 149.916C138.642 142.191 132.372 135.928 124.637 135.928C116.903 135.928 110.633 142.191 110.633 149.916C110.633 157.642 116.903 163.905 124.637 163.905Z" fill="url(#paint10_linear_8337_2023)" stroke="white" stroke-width="5.24172"/>
<path d="M26.4745 156.914C25.5835 156.914 24.7667 156.797 24.0241 156.562C23.2816 156.315 22.6443 155.925 22.1121 155.394C21.5924 154.862 21.1839 154.176 20.8869 153.335C20.59 152.495 20.4414 151.469 20.4414 150.258V149.906C20.4414 148.768 20.5961 147.791 20.9055 146.976C21.2149 146.161 21.6418 145.492 22.1863 144.973C22.7308 144.454 23.3682 144.071 24.0984 143.824C24.841 143.576 25.633 143.453 26.4745 143.453C27.2294 143.453 27.9349 143.54 28.5907 143.712C29.259 143.885 29.8406 144.158 30.3357 144.529C30.8431 144.9 31.2515 145.381 31.5609 145.975C31.8827 146.568 32.0745 147.291 32.1363 148.143H28.6835C28.6217 147.798 28.5227 147.507 28.3865 147.272C28.2504 147.025 28.0833 146.828 27.8853 146.68C27.6873 146.518 27.4645 146.407 27.217 146.345C26.9819 146.271 26.7343 146.234 26.4745 146.234C26.1033 146.234 25.7567 146.302 25.4349 146.438C25.1255 146.562 24.8533 146.772 24.6182 147.068C24.3955 147.352 24.2159 147.73 24.0798 148.199C23.9561 148.669 23.8942 149.238 23.8942 149.906V150.294C23.8942 151.012 23.9622 151.618 24.0984 152.112C24.2469 152.594 24.4388 152.99 24.6739 153.298C24.909 153.596 25.1812 153.812 25.4906 153.948C25.8 154.071 26.128 154.133 26.4745 154.133C27.1057 154.133 27.6069 153.985 27.9782 153.688C28.3618 153.379 28.5969 152.891 28.6835 152.224H32.1363C32.0868 153.089 31.9074 153.818 31.598 154.411C31.301 155.005 30.8988 155.486 30.3914 155.857C29.8963 156.228 29.3147 156.501 28.6464 156.674C27.9782 156.834 27.2541 156.914 26.4745 156.914ZM36.7394 151.37H33.4351V148.626H36.7394V145.271H39.598V148.626H42.9023V151.37H39.598V154.726H36.7394V151.37ZM47.5075 151.37H44.2032V148.626H47.5075V145.271H50.3663V148.626H53.6706V151.37H50.3663V154.726H47.5075V151.37Z" fill="url(#paint11_linear_8337_2023)"/>
<path d="M189.76 176.933H16.1032C7.98201 176.933 1.39844 183.509 1.39844 191.621C1.39844 199.733 7.98201 206.309 16.1032 206.309H189.76C197.882 206.309 204.465 199.733 204.465 191.621C204.465 183.509 197.882 176.933 189.76 176.933Z" fill="white"/>
<path d="M189.764 176.933H132.345C124.224 176.933 117.641 183.509 117.641 191.621C117.641 199.733 124.224 206.309 132.345 206.309H189.764C197.886 206.309 204.469 199.733 204.469 191.621C204.469 183.509 197.886 176.933 189.764 176.933Z" fill="url(#paint12_linear_8337_2023)"/>
<path d="M126.036 206.553C133.77 206.553 140.04 200.29 140.04 192.564C140.04 184.838 133.77 178.575 126.036 178.575C118.301 178.575 112.031 184.838 112.031 192.564C112.031 200.29 118.301 206.553 126.036 206.553Z" fill="url(#paint13_linear_8337_2023)" stroke="white" stroke-width="5.24172"/>
<path d="M27.8768 199.563C26.9858 199.563 26.1691 199.445 25.4264 199.21C24.684 198.964 24.0466 198.574 23.5144 198.043C22.9946 197.51 22.5862 196.825 22.2893 195.984C21.9923 195.143 21.8438 194.117 21.8438 192.905V192.553C21.8438 191.416 21.9984 190.44 22.3078 189.624C22.6172 188.808 23.0442 188.14 23.5887 187.621C24.1332 187.102 24.7705 186.719 25.5007 186.473C26.2432 186.224 27.0352 186.102 27.8768 186.102C28.6317 186.102 29.3371 186.187 29.993 186.36C30.6613 186.534 31.243 186.806 31.7381 187.177C32.2454 187.548 32.6538 188.03 32.9632 188.622C33.285 189.216 33.4767 189.939 33.5387 190.792H30.0858C30.024 190.446 29.925 190.155 29.7889 189.921C29.6528 189.674 29.4856 189.476 29.2877 189.328C29.0897 189.167 28.8669 189.056 28.6193 188.993C28.3842 188.92 28.1367 188.882 27.8768 188.882C27.5056 188.882 27.1591 188.95 26.8373 189.087C26.5279 189.211 26.2556 189.42 26.0205 189.716C25.7977 190.001 25.6183 190.378 25.4821 190.848C25.3584 191.318 25.2965 191.886 25.2965 192.553V192.943C25.2965 193.661 25.3646 194.267 25.5007 194.76C25.6493 195.242 25.8411 195.638 26.0762 195.946C26.3113 196.244 26.5836 196.46 26.893 196.596C27.2024 196.719 27.5303 196.782 27.8768 196.782C28.5079 196.782 29.0091 196.634 29.3805 196.336C29.764 196.028 29.9993 195.54 30.0858 194.871H33.5387C33.4891 195.737 33.3097 196.467 33.0003 197.059C32.7032 197.653 32.3011 198.135 31.7936 198.506C31.2987 198.877 30.7171 199.149 30.0487 199.321C29.3805 199.483 28.6565 199.563 27.8768 199.563ZM36.3967 195.946H34.8373V193.981H36.7493L37.1763 191.682H35.5613V189.716H37.5477L38.1787 186.342H40.6663L40.0351 189.716H42.1142L42.7453 186.342H45.2328L44.6016 189.716H46.161V191.682H44.2304L43.8034 193.981H45.4371V195.946H43.4508L42.8196 199.321H40.3322L40.9632 195.946H38.8842L38.253 199.321H35.7655L36.3967 195.946ZM41.316 193.981L41.743 191.682H39.6638L39.2369 193.981H41.316Z" fill="url(#paint14_linear_8337_2023)"/>
<path d="M281.715 22.8406H284.505V14.2462L281.715 16.232V14.5299L284.539 12.5272H286.109V22.8406H288.398V24.2089H281.715V22.8406ZM294.168 24.3757C293.521 24.3757 292.938 24.2701 292.414 24.0587C291.89 23.8473 291.439 23.5247 291.061 23.0907C290.693 22.6457 290.409 22.0896 290.208 21.422C290.008 20.7545 289.908 19.959 289.908 19.0356V18.7019C289.908 17.5559 290.024 16.5825 290.258 15.7814C290.492 14.9693 290.81 14.3129 291.21 13.8122C291.611 13.3005 292.08 12.9333 292.614 12.7108C293.149 12.4772 293.722 12.3604 294.335 12.3604C295.237 12.3604 295.994 12.5773 296.607 13.0112C297.231 13.4339 297.643 14.0792 297.843 14.947H296.273C295.961 14.1572 295.315 13.7622 294.335 13.7622C293.911 13.7622 293.521 13.8345 293.165 13.9792C292.809 14.1237 292.497 14.3629 292.23 14.6967C291.973 15.0305 291.767 15.4755 291.611 16.0317C291.456 16.588 291.367 17.2833 291.344 18.1177C291.5 17.8507 291.69 17.6226 291.912 17.4336C292.135 17.2333 292.374 17.0776 292.63 16.9663C292.897 16.8439 293.171 16.7549 293.449 16.6993C293.727 16.6436 293.996 16.6159 294.251 16.6159C295.421 16.6159 296.351 16.944 297.041 17.6004C297.743 18.2457 298.094 19.1746 298.094 20.3873V20.5542C298.094 21.1105 297.989 21.6223 297.776 22.0896C297.576 22.5567 297.298 22.9629 296.941 23.3077C296.585 23.6416 296.166 23.903 295.688 24.0921C295.209 24.2813 294.702 24.3757 294.168 24.3757ZM294.034 22.974C294.847 22.974 295.465 22.7682 295.889 22.3566C296.312 21.9449 296.523 21.3497 296.523 20.5709V20.404C296.523 19.6363 296.312 19.0467 295.889 18.635C295.465 18.2234 294.847 18.0176 294.034 18.0176C293.221 18.0176 292.602 18.2234 292.18 18.635C291.757 19.0467 291.544 19.6363 291.544 20.404V20.5709C291.544 21.3386 291.757 21.9337 292.18 22.3566C292.602 22.7682 293.221 22.974 294.034 22.974ZM301.527 24.3757C301.204 24.3757 300.925 24.2646 300.691 24.042C300.468 23.8084 300.357 23.5303 300.357 23.2076C300.357 22.8739 300.468 22.5957 300.691 22.3733C300.925 22.1507 301.204 22.0394 301.527 22.0394C301.849 22.0394 302.123 22.1507 302.345 22.3733C302.579 22.5957 302.696 22.8739 302.696 23.2076C302.696 23.5303 302.579 23.8084 302.345 24.042C302.123 24.2646 301.849 24.3757 301.527 24.3757ZM309.124 24.3757C308.435 24.3757 307.827 24.2923 307.304 24.1254C306.78 23.9586 306.34 23.7306 305.984 23.4413C305.639 23.152 305.377 22.8127 305.198 22.4233C305.031 22.0227 304.948 21.5889 304.948 21.1216C304.948 20.454 305.16 19.8589 305.583 19.336C306.006 18.802 306.63 18.4237 307.455 18.2012C307.154 18.101 306.869 17.9676 306.602 17.8007C306.346 17.6226 306.117 17.4169 305.917 17.1832C305.717 16.9496 305.56 16.6882 305.449 16.3989C305.339 16.0985 305.282 15.7814 305.282 15.4476C305.282 15.0137 305.367 14.6076 305.534 14.2294C305.701 13.8512 305.945 13.5285 306.268 13.2615C306.592 12.9834 306.992 12.7664 307.471 12.6107C307.95 12.4438 308.502 12.3604 309.124 12.3604C309.748 12.3604 310.3 12.4438 310.78 12.6107C311.258 12.7664 311.659 12.9834 311.982 13.2615C312.305 13.5285 312.55 13.8512 312.717 14.2294C312.884 14.6076 312.968 15.0137 312.968 15.4476C312.968 16.1152 312.757 16.6826 312.333 17.1499C311.92 17.617 311.409 17.9676 310.796 18.2012C311.63 18.4793 312.254 18.8465 312.667 19.3026C313.091 19.7587 313.302 20.365 313.302 21.1216C313.302 21.5889 313.212 22.0227 313.035 22.4233C312.868 22.8127 312.606 23.152 312.249 23.4413C311.904 23.7306 311.47 23.9586 310.947 24.1254C310.423 24.2923 309.815 24.3757 309.124 24.3757ZM309.124 22.974C309.604 22.974 310.01 22.9239 310.344 22.8237C310.679 22.7126 310.947 22.5735 311.147 22.4066C311.358 22.2286 311.509 22.0227 311.597 21.7891C311.687 21.5443 311.731 21.2885 311.731 21.0215C311.731 20.71 311.664 20.4263 311.53 20.1704C311.409 19.9146 311.23 19.692 310.996 19.5029C310.762 19.3026 310.484 19.1469 310.161 19.0356C309.848 18.9132 309.504 18.8297 309.124 18.7853C308.746 18.8297 308.395 18.9132 308.073 19.0356C307.76 19.1469 307.488 19.297 307.254 19.4862C307.02 19.6753 306.836 19.9033 306.702 20.1704C306.58 20.4263 306.518 20.71 306.518 21.0215C306.518 21.2885 306.564 21.5443 306.653 21.7891C306.741 22.0227 306.887 22.2286 307.087 22.4066C307.298 22.5735 307.571 22.7126 307.906 22.8237C308.24 22.9239 308.646 22.974 309.124 22.974ZM309.124 17.617C309.794 17.528 310.339 17.3167 310.762 16.983C311.186 16.638 311.397 16.1542 311.397 15.531C311.397 14.9637 311.208 14.5299 310.829 14.2294C310.462 13.9179 309.894 13.7622 309.124 13.7622C308.346 13.7622 307.771 13.9179 307.404 14.2294C307.036 14.5299 306.853 14.9637 306.853 15.531C306.853 16.1542 307.064 16.638 307.488 16.983C307.911 17.3167 308.456 17.528 309.124 17.617ZM318.989 24.3757C318.041 24.3757 317.256 24.1644 316.632 23.7416C316.008 23.3077 315.597 22.6569 315.396 21.7891H316.966C317.279 22.579 317.952 22.974 318.989 22.974C319.389 22.974 319.762 22.9017 320.108 22.757C320.453 22.6124 320.753 22.3733 321.01 22.0394C321.266 21.7057 321.472 21.2607 321.628 20.7044C321.783 20.1482 321.873 19.4529 321.895 18.6184C321.739 18.8854 321.549 19.119 321.328 19.3193C321.105 19.5084 320.859 19.6642 320.592 19.7866C320.336 19.8979 320.068 19.9813 319.79 20.0369C319.512 20.0926 319.244 20.1203 318.989 20.1203C317.818 20.1203 316.883 19.7977 316.182 19.1524C315.491 18.496 315.145 17.5615 315.145 16.3489V16.1819C315.145 15.6256 315.245 15.1139 315.446 14.6466C315.658 14.1793 315.941 13.7789 316.298 13.445C316.655 13.1002 317.073 12.8332 317.551 12.6441C318.031 12.4549 318.537 12.3604 319.071 12.3604C320.386 12.3604 321.421 12.7887 322.179 13.6453C322.948 14.502 323.331 15.8537 323.331 17.7006V18.0343C323.331 19.1803 323.215 20.1593 322.981 20.9714C322.748 21.7724 322.43 22.4289 322.029 22.9406C321.639 23.4413 321.182 23.8084 320.658 24.042C320.135 24.2646 319.579 24.3757 318.989 24.3757ZM319.205 18.7186C320.018 18.7186 320.637 18.5127 321.059 18.101C321.483 17.6894 321.695 17.0997 321.695 16.3322V16.1653C321.695 15.4087 321.477 14.819 321.043 14.3963C320.62 13.9736 320.008 13.7622 319.205 13.7622C318.393 13.7622 317.774 13.968 317.351 14.3796C316.927 14.7802 316.716 15.3753 316.716 16.1653V16.3322C316.716 17.0997 316.927 17.6894 317.351 18.101C317.774 18.5127 318.393 18.7186 319.205 18.7186ZM329.605 24.3757C328.96 24.3757 328.374 24.2701 327.851 24.0587C327.327 23.8473 326.876 23.5247 326.497 23.0907C326.13 22.6457 325.846 22.0896 325.645 21.422C325.445 20.7545 325.345 19.959 325.345 19.0356V18.7019C325.345 17.5559 325.462 16.5825 325.696 15.7814C325.93 14.9693 326.246 14.3129 326.647 13.8122C327.049 13.3005 327.517 12.9333 328.051 12.7108C328.585 12.4772 329.16 12.3604 329.772 12.3604C330.673 12.3604 331.431 12.5773 332.044 13.0112C332.668 13.4339 333.079 14.0792 333.28 14.947H331.71C331.397 14.1572 330.752 13.7622 329.772 13.7622C329.348 13.7622 328.96 13.8345 328.603 13.9792C328.246 14.1237 327.934 14.3629 327.666 14.6967C327.411 15.0305 327.204 15.4755 327.049 16.0317C326.893 16.588 326.803 17.2833 326.782 18.1177C326.937 17.8507 327.127 17.6226 327.35 17.4336C327.572 17.2333 327.812 17.0776 328.068 16.9663C328.336 16.8439 328.608 16.7549 328.886 16.6993C329.165 16.6436 329.432 16.6159 329.689 16.6159C330.858 16.6159 331.788 16.944 332.478 17.6004C333.18 18.2457 333.531 19.1746 333.531 20.3873V20.5542C333.531 21.1105 333.425 21.6223 333.213 22.0896C333.013 22.5567 332.735 22.9629 332.378 23.3077C332.021 23.6416 331.605 23.903 331.125 24.0921C330.647 24.2813 330.139 24.3757 329.605 24.3757ZM329.471 22.974C330.285 22.974 330.902 22.7682 331.325 22.3566C331.749 21.9449 331.96 21.3497 331.96 20.5709V20.404C331.96 19.6363 331.749 19.0467 331.325 18.635C330.902 18.2234 330.285 18.0176 329.471 18.0176C328.658 18.0176 328.04 18.2234 327.617 18.635C327.193 19.0467 326.982 19.6363 326.982 20.404V20.5709C326.982 21.3386 327.193 21.9337 327.617 22.3566C328.04 22.7682 328.658 22.974 329.471 22.974ZM344.649 12.5272H346.319L338.3 24.2089H336.63L344.649 12.5272ZM337.632 18.0343C337.242 18.0343 336.88 17.9676 336.546 17.834C336.223 17.7006 335.945 17.517 335.711 17.2833C335.477 17.0386 335.293 16.7493 335.159 16.4156C335.026 16.0706 334.959 15.6924 334.959 15.2808V15.1139C334.959 14.7023 335.026 14.3296 335.159 13.9958C335.293 13.662 335.477 13.3728 335.711 13.128C335.945 12.8832 336.223 12.6941 336.546 12.5606C336.88 12.4271 337.242 12.3604 337.632 12.3604C338.022 12.3604 338.379 12.4271 338.701 12.5606C339.036 12.6941 339.319 12.8832 339.553 13.128C339.787 13.3728 339.971 13.662 340.105 13.9958C340.238 14.3296 340.305 14.7023 340.305 15.1139V15.2808C340.305 15.6924 340.238 16.0706 340.105 16.4156C339.971 16.7493 339.787 17.0386 339.553 17.2833C339.319 17.517 339.036 17.7006 338.701 17.834C338.379 17.9676 338.022 18.0343 337.632 18.0343ZM337.632 16.766C338.011 16.766 338.312 16.6436 338.534 16.3989C338.757 16.1542 338.869 15.7814 338.869 15.2808V15.1139C338.869 14.6133 338.757 14.2406 338.534 13.9958C338.312 13.751 338.011 13.6286 337.632 13.6286C337.254 13.6286 336.952 13.751 336.73 13.9958C336.507 14.2406 336.396 14.6133 336.396 15.1139V15.2808C336.396 15.7814 336.507 16.1542 336.73 16.3989C336.952 16.6436 337.254 16.766 337.632 16.766ZM345.317 24.3591C344.927 24.3591 344.565 24.2923 344.231 24.1589C343.908 24.0253 343.63 23.8417 343.396 23.6081C343.163 23.3634 342.978 23.0741 342.845 22.7403C342.711 22.3954 342.644 22.0172 342.644 21.6056V21.4387C342.644 21.027 342.711 20.6543 342.845 20.3206C342.978 19.9869 343.163 19.6976 343.396 19.4529C343.63 19.208 343.908 19.0189 344.231 18.8854C344.565 18.7519 344.927 18.6852 345.317 18.6852C345.707 18.6852 346.064 18.7519 346.386 18.8854C346.721 19.0189 347.005 19.208 347.238 19.4529C347.472 19.6976 347.656 19.9869 347.79 20.3206C347.924 20.6543 347.99 21.027 347.99 21.4387V21.6056C347.99 22.0172 347.924 22.3954 347.79 22.7403C347.656 23.0741 347.472 23.3634 347.238 23.6081C347.005 23.8417 346.721 24.0253 346.386 24.1589C346.064 24.2923 345.707 24.3591 345.317 24.3591ZM345.317 23.0907C345.695 23.0907 345.997 22.9684 346.219 22.7237C346.442 22.4789 346.553 22.1063 346.553 21.6056V21.4387C346.553 20.938 346.442 20.5653 346.219 20.3206C345.997 20.0759 345.695 19.9534 345.317 19.9534C344.938 19.9534 344.637 20.0759 344.416 20.3206C344.193 20.5653 344.082 20.938 344.082 21.4387V21.6056C344.082 22.1063 344.193 22.4789 344.416 22.7237C344.637 22.9684 344.938 23.0907 345.317 23.0907Z" fill="#252525"/>
<path d="M256.5 65.4869H259.291V56.8926L256.5 58.8785V57.1762L259.324 55.1736H260.894V65.4869H263.183V66.8553H256.5V65.4869ZM268.535 67.0223C267.9 67.0223 267.349 66.9389 266.881 66.7719C266.414 66.5939 266.018 66.3659 265.695 66.0877C265.384 65.7985 265.143 65.4759 264.976 65.1199C264.809 64.7638 264.714 64.3966 264.693 64.0183H266.263C266.319 64.4412 266.542 64.8139 266.932 65.1365C267.333 65.4592 267.867 65.6205 268.535 65.6205C269.292 65.6205 269.888 65.3869 270.322 64.9196C270.758 64.4412 270.974 63.7792 270.974 62.9336C270.974 62.4553 270.902 62.0436 270.758 61.6987C270.623 61.3539 270.44 61.0757 270.206 60.8643C269.983 60.6529 269.727 60.4972 269.438 60.397C269.148 60.2969 268.848 60.2469 268.535 60.2469C267.934 60.2469 267.461 60.3582 267.115 60.5806C266.781 60.8032 266.524 61.059 266.347 61.3483H264.943V55.1736H271.876V56.5422H266.514V59.7963C267.092 59.1622 267.85 58.8451 268.786 58.8451C269.944 58.8451 270.858 59.1955 271.526 59.8965C272.205 60.5973 272.545 61.6097 272.545 62.9336C272.545 63.5567 272.445 64.124 272.245 64.6359C272.055 65.1365 271.782 65.5649 271.426 65.9209C271.08 66.2769 270.656 66.5494 270.155 66.7386C269.665 66.9277 269.125 67.0223 268.535 67.0223ZM275.888 67.0223C275.564 67.0223 275.286 66.911 275.053 66.6885C274.83 66.4549 274.719 66.1767 274.719 65.854C274.719 65.5203 274.83 65.2422 275.053 65.0196C275.286 64.7972 275.564 64.6859 275.888 64.6859C276.211 64.6859 276.483 64.7972 276.706 65.0196C276.94 65.2422 277.056 65.5203 277.056 65.854C277.056 66.1767 276.94 66.4549 276.706 66.6885C276.483 66.911 276.211 67.0223 275.888 67.0223ZM284.94 56.5422H278.725V55.1736H286.577V56.4586L282.4 66.8553H280.729L284.94 56.5422ZM293.799 56.5422H287.583V55.1736H295.436V56.4586L291.26 66.8553H289.588L293.799 56.5422ZM300.87 67.0223C300.235 67.0223 299.668 66.9389 299.167 66.7719C298.676 66.5939 298.258 66.3547 297.914 66.0543C297.568 65.754 297.306 65.4035 297.128 65.003C296.95 64.5913 296.861 64.1519 296.861 63.6846H298.432C298.432 64.252 298.626 64.7193 299.016 65.0864C299.406 65.4425 300.024 65.6205 300.87 65.6205C301.717 65.6205 302.335 65.4369 302.725 65.0697C303.114 64.6915 303.309 64.2019 303.309 63.6012C303.309 62.9782 303.109 62.4775 302.708 62.0993C302.318 61.7099 301.706 61.5152 300.87 61.5152H299.617V60.1802H300.87C301.673 60.1802 302.251 60.0132 302.608 59.6795C302.965 59.3346 303.142 58.8618 303.142 58.261C303.142 57.6825 302.97 57.2319 302.625 56.9092C302.279 56.5755 301.694 56.4086 300.87 56.4086C300.079 56.4086 299.501 56.5811 299.133 56.9259C298.777 57.2596 298.599 57.6769 298.599 58.1776H297.028C297.028 57.7436 297.111 57.332 297.279 56.9426C297.457 56.5532 297.708 56.2195 298.03 55.9413C298.364 55.6521 298.766 55.424 299.233 55.2572C299.712 55.0902 300.258 55.0068 300.87 55.0068C301.483 55.0068 302.029 55.0902 302.508 55.2572C302.987 55.424 303.388 55.6465 303.711 55.9246C304.045 56.2028 304.295 56.5309 304.462 56.9092C304.629 57.2875 304.713 57.6825 304.713 58.0942C304.713 58.7616 304.536 59.329 304.179 59.7963C303.833 60.2525 303.343 60.5751 302.708 60.7642C303.376 60.9756 303.905 61.3205 304.295 61.7989C304.685 62.2773 304.88 62.9336 304.88 63.768C304.88 64.213 304.791 64.6359 304.613 65.0363C304.434 65.4257 304.173 65.7706 303.827 66.071C303.494 66.3603 303.075 66.5939 302.574 66.7719C302.073 66.9389 301.506 67.0223 300.87 67.0223ZM316.073 55.1736H317.743L309.724 66.8553H308.054L316.073 55.1736ZM309.056 60.6808C308.666 60.6808 308.304 60.614 307.97 60.4805C307.647 60.347 307.369 60.1635 307.135 59.9298C306.901 59.685 306.717 59.3958 306.583 59.062C306.45 58.7172 306.383 58.3389 306.383 57.9272V57.7603C306.383 57.3486 306.45 56.976 306.583 56.6422C306.717 56.3085 306.901 56.0192 307.135 55.7745C307.369 55.5296 307.647 55.3406 307.97 55.2071C308.304 55.0736 308.666 55.0068 309.056 55.0068C309.446 55.0068 309.803 55.0736 310.126 55.2071C310.46 55.3406 310.743 55.5296 310.977 55.7745C311.211 56.0192 311.395 56.3085 311.529 56.6422C311.662 56.976 311.729 57.3486 311.729 57.7603V57.9272C311.729 58.3389 311.662 58.7172 311.529 59.062C311.395 59.3958 311.211 59.685 310.977 59.9298C310.743 60.1635 310.46 60.347 310.126 60.4805C309.803 60.614 309.446 60.6808 309.056 60.6808ZM309.056 59.4125C309.436 59.4125 309.736 59.2901 309.958 59.0453C310.181 58.8006 310.293 58.4279 310.293 57.9272V57.7603C310.293 57.2596 310.181 56.887 309.958 56.6422C309.736 56.3975 309.436 56.2752 309.056 56.2752C308.678 56.2752 308.376 56.3975 308.154 56.6422C307.931 56.887 307.82 57.2596 307.82 57.7603V57.9272C307.82 58.4279 307.931 58.8006 308.154 59.0453C308.376 59.2901 308.678 59.4125 309.056 59.4125ZM316.741 67.0056C316.351 67.0056 315.989 66.9389 315.655 66.8053C315.332 66.6719 315.054 66.4883 314.82 66.2546C314.587 66.0099 314.402 65.7206 314.269 65.3869C314.135 65.0419 314.068 64.6636 314.068 64.252V64.0852C314.068 63.6735 314.135 63.3009 314.269 62.967C314.402 62.6333 314.587 62.344 314.82 62.0993C315.054 61.8545 315.332 61.6653 315.655 61.5319C315.989 61.3983 316.351 61.3316 316.741 61.3316C317.131 61.3316 317.488 61.3983 317.81 61.5319C318.145 61.6653 318.429 61.8545 318.662 62.0993C318.896 62.344 319.081 62.6333 319.214 62.967C319.348 63.3009 319.415 63.6735 319.415 64.0852V64.252C319.415 64.6636 319.348 65.0419 319.214 65.3869C319.081 65.7206 318.896 66.0099 318.662 66.2546C318.429 66.4883 318.145 66.6719 317.81 66.8053C317.488 66.9389 317.131 67.0056 316.741 67.0056ZM316.741 65.7373C317.121 65.7373 317.421 65.6149 317.643 65.3702C317.866 65.1253 317.978 64.7526 317.978 64.252V64.0852C317.978 63.5845 317.866 63.2118 317.643 62.967C317.421 62.7223 317.121 62.5999 316.741 62.5999C316.363 62.5999 316.061 62.7223 315.84 62.967C315.617 63.2118 315.506 63.5845 315.506 64.0852V64.252C315.506 64.7526 315.617 65.1253 315.84 65.3702C316.061 65.6149 316.363 65.7373 316.741 65.7373Z" fill="#252525"/>
<path d="M240.035 113.38C239.088 113.38 238.302 113.168 237.678 112.746C237.054 112.312 236.643 111.661 236.443 110.793H238.012C238.325 111.583 238.998 111.978 240.035 111.978C240.436 111.978 240.808 111.906 241.153 111.761C241.499 111.616 241.799 111.377 242.056 111.043C242.312 110.71 242.518 110.265 242.674 109.708C242.829 109.152 242.919 108.457 242.942 107.622C242.785 107.889 242.596 108.123 242.373 108.323C242.151 108.512 241.905 108.668 241.638 108.791C241.381 108.902 241.114 108.985 240.836 109.041C240.557 109.096 240.29 109.124 240.035 109.124C238.865 109.124 237.929 108.802 237.227 108.156C236.537 107.5 236.191 106.565 236.191 105.353V105.186C236.191 104.63 236.292 104.118 236.492 103.651C236.704 103.183 236.988 102.783 237.344 102.449C237.701 102.104 238.118 101.837 238.597 101.648C239.076 101.459 239.583 101.364 240.118 101.364C241.432 101.364 242.467 101.793 243.225 102.649C243.994 103.506 244.378 104.858 244.378 106.705V107.038C244.378 108.184 244.261 109.163 244.028 109.975C243.793 110.776 243.476 111.433 243.075 111.945C242.685 112.445 242.228 112.812 241.705 113.046C241.181 113.268 240.624 113.38 240.035 113.38ZM240.251 107.722C241.065 107.722 241.682 107.517 242.105 107.105C242.529 106.693 242.741 106.104 242.741 105.336V105.169C242.741 104.413 242.523 103.823 242.089 103.4C241.666 102.977 241.053 102.766 240.251 102.766C239.438 102.766 238.82 102.972 238.397 103.384C237.973 103.784 237.762 104.379 237.762 105.169V105.336C237.762 106.104 237.973 106.693 238.397 107.105C238.82 107.517 239.438 107.722 240.251 107.722ZM247.894 113.38C247.572 113.38 247.293 113.268 247.059 113.046C246.836 112.812 246.725 112.534 246.725 112.212C246.725 111.878 246.836 111.6 247.059 111.377C247.293 111.155 247.572 111.043 247.894 111.043C248.217 111.043 248.489 111.155 248.713 111.377C248.946 111.6 249.064 111.878 249.064 112.212C249.064 112.534 248.946 112.812 248.713 113.046C248.489 113.268 248.217 113.38 247.894 113.38ZM256.946 102.9H250.731V101.531H258.583V102.816L254.406 113.213H252.736L256.946 102.9ZM269.448 101.531H271.118L263.099 113.213H261.429L269.448 101.531ZM262.431 107.038C262.041 107.038 261.679 106.972 261.345 106.838C261.021 106.705 260.744 106.521 260.51 106.287C260.276 106.043 260.092 105.753 259.958 105.42C259.824 105.075 259.758 104.696 259.758 104.285V104.118C259.758 103.706 259.824 103.334 259.958 103C260.092 102.666 260.276 102.377 260.51 102.132C260.744 101.887 261.021 101.698 261.345 101.565C261.679 101.431 262.041 101.364 262.431 101.364C262.821 101.364 263.177 101.431 263.499 101.565C263.833 101.698 264.118 101.887 264.352 102.132C264.585 102.377 264.77 102.666 264.903 103C265.037 103.334 265.104 103.706 265.104 104.118V104.285C265.104 104.696 265.037 105.075 264.903 105.42C264.77 105.753 264.585 106.043 264.352 106.287C264.118 106.521 263.833 106.705 263.499 106.838C263.177 106.972 262.821 107.038 262.431 107.038ZM262.431 105.77C262.809 105.77 263.111 105.648 263.332 105.403C263.556 105.158 263.666 104.785 263.666 104.285V104.118C263.666 103.617 263.556 103.245 263.332 103C263.111 102.755 262.809 102.633 262.431 102.633C262.051 102.633 261.751 102.755 261.529 103C261.306 103.245 261.194 103.617 261.194 104.118V104.285C261.194 104.785 261.306 105.158 261.529 105.403C261.751 105.648 262.051 105.77 262.431 105.77ZM270.116 113.363C269.726 113.363 269.364 113.296 269.03 113.163C268.707 113.029 268.429 112.846 268.195 112.612C267.961 112.367 267.777 112.078 267.643 111.744C267.51 111.399 267.443 111.021 267.443 110.61V110.443C267.443 110.031 267.51 109.658 267.643 109.325C267.777 108.991 267.961 108.702 268.195 108.457C268.429 108.212 268.707 108.023 269.03 107.889C269.364 107.756 269.726 107.689 270.116 107.689C270.506 107.689 270.863 107.756 271.185 107.889C271.519 108.023 271.803 108.212 272.037 108.457C272.271 108.702 272.455 108.991 272.589 109.325C272.722 109.658 272.789 110.031 272.789 110.443V110.61C272.789 111.021 272.722 111.399 272.589 111.744C272.455 112.078 272.271 112.367 272.037 112.612C271.803 112.846 271.519 113.029 271.185 113.163C270.863 113.296 270.506 113.363 270.116 113.363ZM270.116 112.095C270.494 112.095 270.795 111.972 271.018 111.728C271.241 111.483 271.352 111.11 271.352 110.61V110.443C271.352 109.942 271.241 109.569 271.018 109.325C270.795 109.08 270.494 108.957 270.116 108.957C269.737 108.957 269.436 109.08 269.214 109.325C268.991 109.569 268.879 109.942 268.879 110.443V110.61C268.879 111.11 268.991 111.483 269.214 111.728C269.436 111.972 269.737 112.095 270.116 112.095Z" fill="#252525"/>
<path d="M228.924 156.028C228.289 156.028 227.738 155.944 227.27 155.777C226.803 155.599 226.407 155.371 226.084 155.092C225.773 154.804 225.532 154.481 225.365 154.125C225.198 153.769 225.103 153.402 225.082 153.024H226.652C226.708 153.446 226.931 153.819 227.321 154.142C227.722 154.464 228.256 154.625 228.924 154.625C229.681 154.625 230.277 154.392 230.711 153.925C231.146 153.446 231.363 152.784 231.363 151.939C231.363 151.46 231.291 151.049 231.146 150.704C231.012 150.359 230.829 150.08 230.595 149.87C230.372 149.657 230.116 149.503 229.826 149.403C229.537 149.302 229.237 149.252 228.924 149.252C228.323 149.252 227.85 149.364 227.504 149.585C227.17 149.808 226.914 150.064 226.736 150.354H225.332V144.179H232.265V145.548H226.903V148.801C227.481 148.167 228.239 147.851 229.175 147.851C230.333 147.851 231.247 148.2 231.915 148.902C232.594 149.603 232.934 150.615 232.934 151.939C232.934 152.562 232.834 153.129 232.634 153.64C232.444 154.142 232.172 154.571 231.815 154.925C231.469 155.282 231.045 155.554 230.544 155.743C230.054 155.933 229.514 156.028 228.924 156.028ZM236.277 156.028C235.953 156.028 235.676 155.916 235.442 155.694C235.219 155.461 235.106 155.182 235.106 154.859C235.106 154.525 235.219 154.248 235.442 154.025C235.676 153.802 235.953 153.691 236.277 153.691C236.6 153.691 236.872 153.802 237.096 154.025C237.329 154.248 237.446 154.525 237.446 154.859C237.446 155.182 237.329 155.461 237.096 155.694C236.872 155.916 236.6 156.028 236.277 156.028ZM243.624 156.028C242.989 156.028 242.438 155.944 241.97 155.777C241.503 155.599 241.107 155.371 240.784 155.092C240.473 154.804 240.234 154.481 240.065 154.125C239.898 153.769 239.805 153.402 239.782 153.024H241.352C241.408 153.446 241.631 153.819 242.021 154.142C242.422 154.464 242.956 154.625 243.624 154.625C244.381 154.625 244.977 154.392 245.411 153.925C245.847 153.446 246.063 152.784 246.063 151.939C246.063 151.46 245.991 151.049 245.847 150.704C245.713 150.359 245.529 150.08 245.295 149.87C245.072 149.657 244.816 149.503 244.527 149.403C244.237 149.302 243.937 149.252 243.624 149.252C243.023 149.252 242.55 149.364 242.204 149.585C241.87 149.808 241.614 150.064 241.436 150.354H240.032V144.179H246.966V145.548H241.603V148.801C242.183 148.167 242.94 147.851 243.875 147.851C245.033 147.851 245.947 148.2 246.615 148.902C247.295 149.603 247.634 150.615 247.634 151.939C247.634 152.562 247.534 153.129 247.334 153.64C247.144 154.142 246.872 154.571 246.515 154.925C246.169 155.282 245.747 155.554 245.244 155.743C244.756 155.933 244.214 156.028 243.624 156.028ZM258.662 144.179H260.333L252.314 155.861H250.643L258.662 144.179ZM251.645 149.685C251.256 149.685 250.894 149.619 250.559 149.485C250.237 149.352 249.957 149.169 249.724 148.936C249.49 148.69 249.306 148.4 249.172 148.067C249.038 147.723 248.972 147.344 248.972 146.933V146.766C248.972 146.354 249.038 145.981 249.172 145.648C249.306 145.314 249.49 145.024 249.724 144.779C249.957 144.535 250.237 144.345 250.559 144.212C250.894 144.078 251.256 144.012 251.645 144.012C252.035 144.012 252.391 144.078 252.715 144.212C253.049 144.345 253.333 144.535 253.567 144.779C253.801 145.024 253.984 145.314 254.117 145.648C254.251 145.981 254.318 146.354 254.318 146.766V146.933C254.318 147.344 254.251 147.723 254.117 148.067C253.984 148.4 253.801 148.69 253.567 148.936C253.333 149.169 253.049 149.352 252.715 149.485C252.391 149.619 252.035 149.685 251.645 149.685ZM251.645 148.418C252.024 148.418 252.325 148.295 252.548 148.051C252.769 147.805 252.882 147.433 252.882 146.933V146.766C252.882 146.265 252.769 145.892 252.548 145.648C252.325 145.402 252.024 145.281 251.645 145.281C251.267 145.281 250.966 145.402 250.743 145.648C250.52 145.892 250.409 146.265 250.409 146.766V146.933C250.409 147.433 250.52 147.805 250.743 148.051C250.966 148.295 251.267 148.418 251.645 148.418ZM259.33 156.01C258.94 156.01 258.579 155.944 258.244 155.81C257.922 155.677 257.643 155.494 257.409 155.259C257.175 155.015 256.991 154.725 256.857 154.392C256.724 154.047 256.657 153.669 256.657 153.258V153.091C256.657 152.678 256.724 152.306 256.857 151.973C256.991 151.639 257.175 151.349 257.409 151.104C257.643 150.86 257.922 150.67 258.244 150.537C258.579 150.403 258.94 150.337 259.33 150.337C259.72 150.337 260.077 150.403 260.4 150.537C260.734 150.67 261.017 150.86 261.252 151.104C261.486 151.349 261.669 151.639 261.803 151.973C261.936 152.306 262.003 152.678 262.003 153.091V153.258C262.003 153.669 261.936 154.047 261.803 154.392C261.669 154.725 261.486 155.015 261.252 155.259C261.017 155.494 260.734 155.677 260.4 155.81C260.077 155.944 259.72 156.01 259.33 156.01ZM259.33 154.743C259.709 154.743 260.01 154.62 260.233 154.376C260.455 154.13 260.567 153.758 260.567 153.258V153.091C260.567 152.589 260.455 152.217 260.233 151.973C260.01 151.727 259.709 151.606 259.33 151.606C258.952 151.606 258.651 151.727 258.428 151.973C258.205 152.217 258.094 152.589 258.094 153.091V153.258C258.094 153.758 258.205 154.13 258.428 154.376C258.651 154.62 258.952 154.743 259.33 154.743Z" fill="#252525"/>
<path d="M221.214 198.673C220.579 198.673 220.028 198.589 219.559 198.422C219.092 198.245 218.696 198.017 218.374 197.738C218.062 197.45 217.823 197.127 217.656 196.77C217.489 196.414 217.394 196.047 217.371 195.67H218.942C218.997 196.091 219.22 196.465 219.61 196.786C220.011 197.109 220.545 197.271 221.214 197.271C221.972 197.271 222.568 197.037 223.002 196.57C223.436 196.091 223.654 195.429 223.654 194.585C223.654 194.106 223.58 193.695 223.436 193.349C223.302 193.005 223.118 192.726 222.884 192.515C222.661 192.303 222.406 192.148 222.116 192.048C221.826 191.948 221.526 191.897 221.214 191.897C220.612 191.897 220.139 192.008 219.794 192.231C219.459 192.454 219.204 192.71 219.025 192.999H217.622V186.824H224.555V188.193H219.192V191.446C219.772 190.812 220.529 190.496 221.464 190.496C222.622 190.496 223.536 190.846 224.204 191.546C224.884 192.248 225.223 193.26 225.223 194.585C225.223 195.208 225.123 195.775 224.923 196.286C224.733 196.786 224.461 197.215 224.104 197.571C223.759 197.927 223.336 198.199 222.835 198.389C222.345 198.578 221.805 198.673 221.214 198.673ZM228.566 198.673C228.244 198.673 227.965 198.561 227.731 198.34C227.508 198.105 227.397 197.827 227.397 197.504C227.397 197.171 227.508 196.893 227.731 196.67C227.965 196.447 228.244 196.337 228.566 196.337C228.889 196.337 229.162 196.447 229.385 196.67C229.618 196.893 229.736 197.171 229.736 197.504C229.736 197.827 229.618 198.105 229.385 198.34C229.162 198.561 228.889 198.673 228.566 198.673ZM235.83 198.673C235.196 198.673 234.628 198.589 234.127 198.422C233.637 198.245 233.219 198.005 232.874 197.704C232.528 197.404 232.266 197.055 232.088 196.653C231.909 196.242 231.821 195.803 231.821 195.335H233.391C233.391 195.903 233.586 196.37 233.976 196.737C234.366 197.093 234.985 197.271 235.83 197.271C236.677 197.271 237.296 197.088 237.684 196.72C238.075 196.342 238.27 195.852 238.27 195.252C238.27 194.629 238.069 194.128 237.668 193.749C237.278 193.361 236.667 193.166 235.83 193.166H234.577V191.831H235.83C236.633 191.831 237.212 191.664 237.568 191.33C237.925 190.985 238.103 190.512 238.103 189.912C238.103 189.333 237.93 188.883 237.584 188.56C237.24 188.226 236.655 188.06 235.83 188.06C235.039 188.06 234.461 188.232 234.094 188.576C233.737 188.91 233.558 189.327 233.558 189.828H231.988C231.988 189.394 232.071 188.983 232.238 188.593C232.417 188.204 232.667 187.87 232.99 187.591C233.324 187.303 233.725 187.075 234.194 186.908C234.672 186.741 235.218 186.657 235.83 186.657C236.443 186.657 236.988 186.741 237.468 186.908C237.946 187.075 238.348 187.298 238.67 187.575C239.004 187.853 239.255 188.181 239.422 188.56C239.589 188.938 239.674 189.333 239.674 189.745C239.674 190.412 239.495 190.979 239.139 191.446C238.793 191.903 238.303 192.226 237.668 192.415C238.336 192.626 238.865 192.971 239.255 193.449C239.646 193.928 239.841 194.585 239.841 195.419C239.841 195.863 239.751 196.286 239.573 196.686C239.394 197.076 239.133 197.422 238.788 197.722C238.454 198.011 238.036 198.245 237.535 198.422C237.034 198.589 236.465 198.673 235.83 198.673ZM251.034 186.824H252.704L244.684 198.506H243.015L251.034 186.824ZM244.017 192.331C243.626 192.331 243.264 192.264 242.93 192.131C242.607 191.997 242.329 191.815 242.096 191.58C241.862 191.336 241.677 191.046 241.544 190.712C241.41 190.368 241.343 189.989 241.343 189.578V189.411C241.343 188.999 241.41 188.627 241.544 188.293C241.677 187.96 241.862 187.67 242.096 187.425C242.329 187.18 242.607 186.991 242.93 186.857C243.264 186.724 243.626 186.657 244.017 186.657C244.407 186.657 244.763 186.724 245.085 186.857C245.419 186.991 245.704 187.18 245.938 187.425C246.171 187.67 246.356 187.96 246.489 188.293C246.623 188.627 246.69 188.999 246.69 189.411V189.578C246.69 189.989 246.623 190.368 246.489 190.712C246.356 191.046 246.171 191.336 245.938 191.58C245.704 191.815 245.419 191.997 245.085 192.131C244.763 192.264 244.407 192.331 244.017 192.331ZM244.017 191.063C244.395 191.063 244.695 190.941 244.918 190.696C245.141 190.451 245.252 190.079 245.252 189.578V189.411C245.252 188.91 245.141 188.537 244.918 188.293C244.695 188.048 244.395 187.926 244.017 187.926C243.637 187.926 243.337 188.048 243.115 188.293C242.892 188.537 242.779 188.91 242.779 189.411V189.578C242.779 190.079 242.892 190.451 243.115 190.696C243.337 190.941 243.637 191.063 244.017 191.063ZM251.702 198.656C251.312 198.656 250.95 198.589 250.616 198.456C250.292 198.322 250.015 198.139 249.781 197.905C249.547 197.66 249.363 197.371 249.229 197.037C249.096 196.693 249.029 196.314 249.029 195.903V195.736C249.029 195.324 249.096 194.952 249.229 194.618C249.363 194.284 249.547 193.995 249.781 193.749C250.015 193.505 250.292 193.316 250.616 193.182C250.95 193.049 251.312 192.982 251.702 192.982C252.092 192.982 252.447 193.049 252.771 193.182C253.105 193.316 253.389 193.505 253.623 193.749C253.857 193.995 254.041 194.284 254.175 194.618C254.308 194.952 254.375 195.324 254.375 195.736V195.903C254.375 196.314 254.308 196.693 254.175 197.037C254.041 197.371 253.857 197.66 253.623 197.905C253.389 198.139 253.105 198.322 252.771 198.456C252.447 198.589 252.092 198.656 251.702 198.656ZM251.702 197.388C252.08 197.388 252.38 197.265 252.604 197.021C252.827 196.776 252.938 196.403 252.938 195.903V195.736C252.938 195.235 252.827 194.862 252.604 194.618C252.38 194.373 252.08 194.251 251.702 194.251C251.322 194.251 251.022 194.373 250.799 194.618C250.577 194.862 250.465 195.235 250.465 195.736V195.903C250.465 196.403 250.577 196.776 250.799 197.021C251.022 197.265 251.322 197.388 251.702 197.388Z" fill="#252525"/>
<path d="M188.362 225.377H14.7048C6.58357 225.377 0 231.953 0 240.065C0 248.177 6.58357 254.753 14.7048 254.753H188.362C196.483 254.753 203.067 248.177 203.067 240.065C203.067 231.953 196.483 225.377 188.362 225.377Z" fill="white"/>
<path d="M188.362 225.377H130.943C122.822 225.377 116.238 231.953 116.238 240.065C116.238 248.177 122.822 254.753 130.943 254.753H188.362C196.483 254.753 203.067 248.177 203.067 240.065C203.067 231.953 196.483 225.377 188.362 225.377Z" fill="url(#paint15_linear_8337_2023)"/>
<path d="M124.637 253.141C132.372 253.141 138.642 246.878 138.642 239.153C138.642 231.427 132.372 225.164 124.637 225.164C116.903 225.164 110.633 231.427 110.633 239.153C110.633 246.878 116.903 253.141 124.637 253.141Z" fill="url(#paint16_linear_8337_2023)" stroke="white" stroke-width="5.24172"/>
<path d="M22.576 246.152C22.081 246.152 21.6602 245.985 21.3137 245.65C20.9796 245.304 20.8125 244.884 20.8125 244.39C20.8125 243.895 20.9796 243.481 21.3137 243.148C21.6602 242.801 22.081 242.627 22.576 242.627C23.0711 242.627 23.4856 242.801 23.8198 243.148C24.1664 243.481 24.3396 243.895 24.3396 244.39C24.3396 244.884 24.1664 245.304 23.8198 245.65C23.4856 245.985 23.0711 246.152 22.576 246.152ZM26.8515 232.931H29.803L34.8336 240.162V232.931H38.3607V245.91H35.205L30.1928 238.679V245.91H26.8515V232.931ZM45.3176 246.152C44.5998 246.152 43.9253 246.053 43.2943 245.854C42.6755 245.644 42.1371 245.33 41.6792 244.909C41.2212 244.489 40.8624 243.963 40.6025 243.332C40.3426 242.69 40.2127 241.942 40.2127 241.089V240.718C40.2127 239.903 40.3365 239.191 40.584 238.586C40.8439 237.98 41.1904 237.473 41.6235 237.066C42.069 236.658 42.5888 236.355 43.1828 236.157C43.7892 235.946 44.439 235.842 45.132 235.842C46.7532 235.842 47.9784 236.261 48.8076 237.102C49.6367 237.931 50.0513 239.135 50.0513 240.718V241.737H43.1457C43.1581 242.122 43.2261 242.449 43.35 242.721C43.4737 242.98 43.6345 243.197 43.8326 243.369C44.0306 243.543 44.2533 243.672 44.5008 243.759C44.7608 243.834 45.033 243.87 45.3176 243.87C45.8622 243.87 46.2892 243.79 46.5985 243.63C46.9202 243.456 47.1306 243.228 47.2296 242.944H49.8657C49.6676 244.019 49.1788 244.823 48.3992 245.354C47.6194 245.886 46.5923 246.152 45.3176 246.152ZM45.2249 238.104C44.9649 238.104 44.7112 238.135 44.4637 238.196C44.2286 238.259 44.012 238.363 43.814 238.512C43.6284 238.647 43.4737 238.827 43.35 239.05C43.2386 239.272 43.1767 239.544 43.1643 239.865H47.2482C47.2482 239.52 47.1925 239.234 47.0812 239.013C46.9698 238.79 46.8212 238.611 46.6357 238.475C46.4624 238.339 46.252 238.245 46.0045 238.196C45.7569 238.135 45.4971 238.104 45.2249 238.104ZM55.6196 246.021C55.0008 246.021 54.4686 245.966 54.0231 245.854C53.5776 245.731 53.2125 245.532 52.9279 245.262C52.6433 244.989 52.4329 244.637 52.2967 244.205C52.1606 243.759 52.0925 243.215 52.0925 242.573V238.419H50.8859V236.082H52.0925V233.858H54.9513V236.082H57.1974V238.419H54.9513V242.108C54.9513 242.665 55.038 243.061 55.2112 243.296C55.3968 243.531 55.7494 243.648 56.2692 243.648C56.6406 243.648 57.0119 243.63 57.3831 243.592V245.929C57.148 245.953 56.9004 245.971 56.6406 245.985C56.3806 246.009 56.0404 246.021 55.6196 246.021Z" fill="url(#paint17_linear_8337_2023)"/>
<path d="M163.154 268.023H14.7048C6.58357 268.023 0 274.6 0 282.712C0 290.824 6.58357 297.4 14.7048 297.4H163.154C171.275 297.4 177.859 290.824 177.859 282.712C177.859 274.6 171.275 268.023 163.154 268.023Z" fill="white"/>
<path d="M163.154 268.023H130.943C122.822 268.023 116.238 274.6 116.238 282.712C116.238 290.824 122.822 297.4 130.943 297.4H163.154C171.275 297.4 177.858 290.824 177.858 282.712C177.858 274.6 171.275 268.023 163.154 268.023Z" fill="url(#paint18_linear_8337_2023)"/>
<path d="M124.637 295.791C132.372 295.791 138.642 289.528 138.642 281.802C138.642 274.076 132.372 267.813 124.637 267.813C116.903 267.813 110.633 274.076 110.633 281.802C110.633 289.528 116.903 295.791 124.637 295.791Z" fill="url(#paint19_linear_8337_2023)" stroke="white" stroke-width="5.24172"/>
<path d="M24.4317 290.654C22.9962 290.654 21.901 290.253 21.146 289.449C20.3911 288.633 20.0013 287.47 19.9766 285.963H23.1323C23.1572 286.594 23.2623 287.069 23.448 287.39C23.6335 287.712 23.9615 287.872 24.4317 287.872C24.8525 287.872 25.1743 287.719 25.397 287.409C25.6198 287.087 25.7313 286.543 25.7313 285.777V277.433H29.0726V285.777C29.0726 286.667 28.9613 287.421 28.7385 288.039C28.5158 288.658 28.2001 289.164 27.7917 289.56C27.3833 289.943 26.8945 290.222 26.3252 290.394C25.756 290.567 25.1248 290.654 24.4317 290.654ZM34.1834 290.654C33.6511 290.654 33.1748 290.574 32.754 290.413C32.3456 290.253 31.9991 290.036 31.7144 289.764C31.4297 289.48 31.2132 289.152 31.0647 288.781C30.9162 288.398 30.8419 287.984 30.8419 287.538C30.8419 286.562 31.1389 285.814 31.733 285.295C32.3394 284.776 33.249 284.516 34.4618 284.516H37.2648V284.108C37.2648 283.515 37.1226 283.107 36.8379 282.884C36.5532 282.649 36.1634 282.532 35.6685 282.532C35.1981 282.532 34.8516 282.607 34.6289 282.755C34.406 282.903 34.2823 283.138 34.2576 283.459H31.3989C31.4236 283.015 31.535 282.607 31.733 282.236C31.9309 281.853 32.2095 281.524 32.5683 281.252C32.9397 280.968 33.3913 280.747 33.9234 280.585C34.4556 280.425 35.0682 280.345 35.7612 280.345C36.4048 280.345 36.9926 280.418 37.5248 280.566C38.0693 280.702 38.5334 280.932 38.917 281.252C39.3007 281.562 39.5977 281.97 39.8081 282.477C40.0185 282.971 40.1236 283.577 40.1236 284.293V287.909C40.1236 288.428 40.136 288.886 40.1607 289.281C40.1855 289.665 40.2226 290.042 40.2722 290.413H37.5619C37.5371 290.203 37.5124 290.018 37.4877 289.856C37.4752 289.696 37.4691 289.499 37.4691 289.264C37.172 289.659 36.7575 289.992 36.2254 290.265C35.7056 290.523 35.0248 290.654 34.1834 290.654ZM35.1115 288.651C35.7179 288.651 36.2252 288.478 36.6338 288.132C37.0544 287.787 37.2648 287.31 37.2648 286.704V286.296H35.0187C34.5979 286.296 34.2823 286.408 34.0719 286.63C33.874 286.853 33.775 287.113 33.775 287.409C33.775 287.768 33.874 288.064 34.0719 288.299C34.2823 288.534 34.6289 288.651 35.1115 288.651ZM40.8741 280.585H44.0298L46.5174 287.131L48.7821 280.585H51.6409L47.8725 290.413H45.0137L40.8741 280.585ZM55.1577 290.654C54.6256 290.654 54.1491 290.574 53.7284 290.413C53.3199 290.253 52.9735 290.036 52.6889 289.764C52.4042 289.48 52.1876 289.152 52.0391 288.781C51.8907 288.398 51.8164 287.984 51.8164 287.538C51.8164 286.562 52.1134 285.814 52.7074 285.295C53.3138 284.776 54.2234 284.516 55.4362 284.516H58.2393V284.108C58.2393 283.515 58.0969 283.107 57.8124 282.884C57.5277 282.649 57.1379 282.532 56.6428 282.532C56.1726 282.532 55.826 282.607 55.6034 282.755C55.3805 282.903 55.2568 283.138 55.232 283.459H52.3732C52.398 283.015 52.5095 282.607 52.7074 282.236C52.9054 281.853 53.1838 281.524 53.5428 281.252C53.914 280.968 54.3658 280.747 54.8979 280.585C55.4301 280.425 56.0426 280.345 56.7356 280.345C57.3791 280.345 57.9671 280.418 58.4991 280.566C59.0436 280.702 59.5077 280.932 59.8914 281.252C60.2751 281.562 60.5722 281.97 60.7824 282.477C60.9928 282.971 61.0981 283.577 61.0981 284.293V287.909C61.0981 288.428 61.1104 288.886 61.1352 289.281C61.1599 289.665 61.1971 290.042 61.2465 290.413H58.5363C58.5116 290.203 58.4868 290.018 58.462 289.856C58.4497 289.696 58.4434 289.499 58.4434 289.264C58.1465 289.659 57.7319 289.992 57.1997 290.265C56.6799 290.523 55.9993 290.654 55.1577 290.654ZM56.0859 288.651C56.6924 288.651 57.1997 288.478 57.6081 288.132C58.0289 287.787 58.2393 287.31 58.2393 286.704V286.296H55.9932C55.5724 286.296 55.2568 286.408 55.0464 286.63C54.8483 286.853 54.7493 287.113 54.7493 287.409C54.7493 287.768 54.8483 288.064 55.0464 288.299C55.2568 288.534 55.6034 288.651 56.0859 288.651ZM67.1326 290.654C66.3282 290.654 65.6351 290.574 65.0535 290.413C64.4843 290.239 64.0139 290.011 63.6427 289.727C63.2714 289.431 62.9929 289.09 62.8073 288.707C62.6217 288.311 62.5165 287.891 62.4918 287.446H65.3505C65.4247 287.731 65.5857 287.971 65.8331 288.17C66.0806 288.367 66.5139 288.466 67.1326 288.466C67.7637 288.466 68.2155 288.379 68.4878 288.206C68.7723 288.034 68.9147 287.804 68.9147 287.52C68.9147 287.409 68.8837 287.31 68.8219 287.224C68.76 287.125 68.6425 287.038 68.4692 286.963C68.3082 286.878 68.0855 286.797 67.8009 286.723C67.5162 286.648 67.1512 286.575 66.7057 286.5C66.1611 286.414 65.6476 286.303 65.1649 286.167C64.6822 286.031 64.2614 285.852 63.9026 285.629C63.5561 285.394 63.2776 285.098 63.0672 284.739C62.8692 284.38 62.7702 283.929 62.7702 283.386C62.7702 282.952 62.8692 282.551 63.0672 282.18C63.2653 281.809 63.5498 281.488 63.9211 281.216C64.3047 280.944 64.7627 280.733 65.2949 280.585C65.8394 280.425 66.4519 280.345 67.1326 280.345C67.8998 280.345 68.5435 280.437 69.0631 280.622C69.5953 280.808 70.0284 281.055 70.3627 281.364C70.6968 281.661 70.9443 282.001 71.1052 282.384C71.266 282.767 71.365 283.156 71.4021 283.553H68.5435C68.4692 283.231 68.3082 282.983 68.0608 282.811C67.8133 282.625 67.5039 282.532 67.1326 282.532C66.5633 282.532 66.1673 282.619 65.9445 282.792C65.7341 282.966 65.629 283.168 65.629 283.403C65.629 283.663 65.8022 283.868 66.1488 284.016C66.4953 284.152 67.046 284.269 67.8009 284.368C68.3331 284.443 68.8404 284.547 69.3231 284.683C69.8057 284.819 70.2265 285.011 70.5854 285.258C70.9566 285.493 71.2474 285.796 71.4578 286.167C71.6682 286.526 71.7735 286.963 71.7735 287.484C71.7735 288.423 71.3774 289.189 70.5854 289.783C69.8057 290.363 68.6547 290.654 67.1326 290.654ZM77.8914 290.654C77.1612 290.654 76.4867 290.549 75.868 290.339C75.2616 290.128 74.7355 289.814 74.29 289.393C73.8445 288.973 73.498 288.447 73.2506 287.817C73.003 287.186 72.8792 286.444 72.8792 285.592V285.221C72.8792 284.443 73.0092 283.75 73.2691 283.144C73.5414 282.539 73.9002 282.032 74.3457 281.623C74.8037 281.203 75.3359 280.888 75.9422 280.678C76.5486 280.456 77.1984 280.345 77.8914 280.345C78.6339 280.345 79.2837 280.444 79.8406 280.641C80.4098 280.839 80.8863 281.111 81.2698 281.456C81.6535 281.79 81.9506 282.186 82.161 282.644C82.3713 283.1 82.4951 283.589 82.5323 284.108H79.5992C79.5002 283.663 79.3145 283.323 79.0423 283.088C78.7824 282.841 78.3988 282.717 77.8914 282.717C77.2849 282.717 76.7837 282.928 76.3877 283.349C76.0041 283.756 75.8123 284.38 75.8123 285.221V285.592C75.8123 286.507 75.9979 287.181 76.3692 287.613C76.7528 288.046 77.2602 288.262 77.8914 288.262C78.3245 288.262 78.6896 288.151 78.9866 287.928C79.296 287.693 79.5002 287.348 79.5992 286.89H82.5323C82.4951 287.47 82.359 287.996 82.1239 288.466C81.8886 288.924 81.5669 289.313 81.1586 289.633C80.7625 289.955 80.2861 290.209 79.7292 290.394C79.1847 290.567 78.572 290.654 77.8914 290.654ZM83.9281 280.585H86.5641V281.921C86.6383 281.759 86.7498 281.587 86.8982 281.402C87.0591 281.216 87.2447 281.043 87.4551 280.883C87.6655 280.721 87.9006 280.592 88.1606 280.493C88.4328 280.394 88.7236 280.345 89.033 280.345C89.2434 280.345 89.4104 280.357 89.5343 280.381C89.658 280.406 89.7694 280.43 89.8684 280.456V282.922C89.8065 282.884 89.6642 282.841 89.4414 282.792C89.2186 282.743 88.9588 282.717 88.6618 282.717C88.0059 282.717 87.5294 282.91 87.2324 283.292C86.9353 283.675 86.7869 284.14 86.7869 284.683V290.413H83.9281V280.585ZM91.3469 280.585H94.2057V290.413H91.3469V280.585ZM92.7763 279.658C92.2441 279.658 91.8296 279.523 91.5326 279.251C91.2479 278.966 91.1056 278.608 91.1056 278.175C91.1056 277.743 91.2479 277.389 91.5326 277.118C91.8296 276.834 92.2441 276.691 92.7763 276.691C93.3084 276.691 93.7169 276.834 94.0014 277.118C94.2985 277.389 94.4469 277.743 94.4469 278.175C94.4469 278.608 94.2985 278.966 94.0014 279.251C93.7169 279.523 93.3084 279.658 92.7763 279.658ZM96.2553 280.585H98.8913V281.921C99.0151 281.723 99.1698 281.531 99.3554 281.346C99.5535 281.148 99.7823 280.975 100.042 280.827C100.302 280.678 100.593 280.561 100.915 280.474C101.237 280.388 101.583 280.345 101.954 280.345C103.34 280.345 104.392 280.752 105.11 281.569C105.828 282.384 106.187 283.602 106.187 285.221V285.592C106.187 286.432 106.088 287.168 105.89 287.799C105.692 288.428 105.407 288.954 105.036 289.375C104.665 289.795 104.219 290.116 103.699 290.339C103.179 290.549 102.598 290.654 101.954 290.654C101.397 290.654 100.865 290.53 100.358 290.283C99.8629 290.023 99.4482 289.652 99.1141 289.17V294.121H96.2553V280.585ZM101.267 288.299C101.837 288.299 102.307 288.071 102.678 287.613C103.062 287.155 103.254 286.482 103.254 285.592V285.221C103.254 284.368 103.068 283.738 102.697 283.33C102.338 282.91 101.861 282.699 101.267 282.699C100.661 282.699 100.147 282.891 99.7267 283.274C99.3182 283.645 99.1141 284.201 99.1141 284.943V285.871C99.1141 286.648 99.3182 287.249 99.7267 287.669C100.147 288.088 100.661 288.299 101.267 288.299ZM111.762 290.523C111.144 290.523 110.611 290.469 110.166 290.357C109.72 290.234 109.355 290.036 109.071 289.764C108.786 289.492 108.576 289.14 108.439 288.707C108.303 288.262 108.235 287.719 108.235 287.075V282.922H107.029V280.585H108.235V278.361H111.094V280.585H113.34V282.922H111.094V286.611C111.094 287.168 111.181 287.564 111.354 287.799C111.54 288.034 111.892 288.151 112.412 288.151C112.783 288.151 113.155 288.132 113.526 288.095V290.431C113.291 290.457 113.043 290.474 112.783 290.487C112.523 290.511 112.183 290.523 111.762 290.523Z" fill="url(#paint20_linear_8337_2023)"/>
<path d="M163.154 312.524H14.7048C6.58357 312.524 0 319.101 0 327.213C0 335.325 6.58357 341.901 14.7048 341.901H163.154C171.275 341.901 177.859 335.325 177.859 327.213C177.859 319.101 171.275 312.524 163.154 312.524Z" fill="white"/>
<path d="M163.154 312.524H130.943C122.822 312.524 116.238 319.101 116.238 327.213C116.238 335.325 122.822 341.901 130.943 341.901H163.154C171.275 341.901 177.858 335.325 177.858 327.213C177.858 319.101 171.275 312.524 163.154 312.524Z" fill="url(#paint21_linear_8337_2023)"/>
<path d="M124.637 342.145C132.372 342.145 138.642 335.882 138.642 328.157C138.642 320.431 132.372 314.168 124.637 314.168C116.903 314.168 110.633 320.431 110.633 328.157C110.633 335.882 116.903 342.145 124.637 342.145Z" fill="url(#paint22_linear_8337_2023)" stroke="white" stroke-width="5.24172"/>
<path d="M20.9062 321.935H26.1969C28.0036 321.935 29.334 322.331 30.1879 323.122C31.0542 323.9 31.4873 324.982 31.4873 326.367C31.4873 327.751 31.0542 328.839 30.1879 329.63C29.334 330.409 28.0036 330.799 26.1969 330.799H24.2477V334.915H20.9062V321.935ZM25.8255 328.054C26.6795 328.054 27.2797 327.913 27.6262 327.628C27.9726 327.343 28.1459 326.924 28.1459 326.367C28.1459 325.811 27.9726 325.391 27.6262 325.106C27.2797 324.822 26.6795 324.679 25.8255 324.679H24.2477V328.054H25.8255ZM33.3422 321.935H36.6836V326.868H41.5102V321.935H44.8516V334.915H41.5102V329.611H36.6836V334.915H33.3422V321.935ZM47.446 321.935H52.7366C54.5435 321.935 55.8738 322.331 56.7278 323.122C57.594 323.9 58.0272 324.982 58.0272 326.367C58.0272 327.751 57.594 328.839 56.7278 329.63C55.8738 330.409 54.5435 330.799 52.7366 330.799H50.7874V334.915H47.446V321.935ZM52.3654 328.054C53.2193 328.054 53.8195 327.913 54.166 327.628C54.5125 327.343 54.6858 326.924 54.6858 326.367C54.6858 325.811 54.5125 325.391 54.166 325.106C53.8195 324.822 53.2193 324.679 52.3654 324.679H50.7874V328.054H52.3654Z" fill="url(#paint23_linear_8337_2023)"/>
<path d="M151.25 355.172H14.7048C6.58357 355.172 0 361.748 0 369.86C0 377.972 6.58357 384.548 14.7048 384.548H151.25C159.371 384.548 165.955 377.972 165.955 369.86C165.955 361.748 159.371 355.172 151.25 355.172Z" fill="white"/>
<path d="M151.25 355.172H130.943C122.822 355.172 116.238 361.748 116.238 369.86C116.238 377.972 122.822 384.548 130.943 384.548H151.25C159.371 384.548 165.955 377.972 165.955 369.86C165.955 361.748 159.371 355.172 151.25 355.172Z" fill="url(#paint24_linear_8337_2023)"/>
<path d="M124.637 384.793C132.372 384.793 138.642 378.53 138.642 370.804C138.642 363.078 132.372 356.815 124.637 356.815C116.903 356.815 110.633 363.078 110.633 370.804C110.633 378.53 116.903 384.793 124.637 384.793Z" fill="url(#paint25_linear_8337_2023)" stroke="white" stroke-width="5.24172"/>
<path d="M25.8238 377.803C24.0046 377.803 22.6434 377.451 21.7399 376.746C20.8489 376.042 20.3848 375.078 20.3477 373.854H23.6891C23.7881 374.323 24.0046 374.67 24.3389 374.893C24.673 375.102 25.168 375.208 25.8238 375.208C27.2471 375.208 27.9587 374.812 27.9587 374.02C27.9587 373.761 27.8906 373.551 27.7544 373.39C27.6183 373.217 27.4203 373.069 27.1605 372.946C26.9005 372.81 26.5787 372.693 26.1952 372.594C25.8115 372.494 25.366 372.39 24.8586 372.278C24.215 372.13 23.6334 371.956 23.1136 371.759C22.6062 371.549 22.1731 371.284 21.8142 370.962C21.4677 370.64 21.1954 370.257 20.9974 369.812C20.8117 369.354 20.7189 368.811 20.7189 368.18C20.7189 367.574 20.8365 367.036 21.0717 366.567C21.3068 366.085 21.6471 365.683 22.0926 365.362C22.5382 365.028 23.0765 364.775 23.7077 364.601C24.3389 364.429 25.0442 364.342 25.8238 364.342C27.5317 364.342 28.8002 364.669 29.6293 365.324C30.4709 365.979 30.935 366.907 31.0216 368.106H27.6802C27.606 367.71 27.4265 367.421 27.1419 367.235C26.8573 367.036 26.4179 366.937 25.8238 366.937C25.168 366.937 24.7101 367.043 24.4501 367.252C24.1903 367.463 24.0603 367.735 24.0603 368.069C24.0603 368.527 24.2954 368.86 24.7658 369.07C25.2485 369.281 25.9415 369.471 26.8448 369.645C27.5132 369.781 28.1195 369.948 28.664 370.145C29.221 370.331 29.6912 370.584 30.0749 370.906C30.4709 371.215 30.7741 371.598 30.9845 372.056C31.1949 372.5 31.3001 373.05 31.3001 373.705C31.3001 374.992 30.8175 375.999 29.8522 376.728C28.8869 377.446 27.544 377.803 25.8238 377.803ZM32.0455 367.735H35.127L36.5007 373.78L38.227 367.735H40.9003L42.7566 373.724L44.2973 367.735H47.0818L44.3344 377.563H41.4756L39.5452 371.183L37.6517 377.563H34.7929L32.0455 367.735ZM48.3827 367.735H51.2414V377.563H48.3827V367.735ZM49.812 366.808C49.28 366.808 48.8653 366.672 48.5683 366.4C48.2837 366.116 48.1414 365.758 48.1414 365.324C48.1414 364.892 48.2837 364.54 48.5683 364.267C48.8653 363.983 49.28 363.842 49.812 363.842C50.3443 363.842 50.7526 363.983 51.0373 364.267C51.3343 364.54 51.4828 364.892 51.4828 365.324C51.4828 365.758 51.3343 366.116 51.0373 366.4C50.7526 366.672 50.3443 366.808 49.812 366.808ZM53.848 370.072H52.7343V367.735H53.848V367.271C53.848 366.827 53.9099 366.43 54.0337 366.085C54.1574 365.739 54.3678 365.448 54.6649 365.214C54.9619 364.967 55.3517 364.781 55.8343 364.657C56.3294 364.533 56.9357 364.472 57.6535 364.472C57.8392 364.472 58.0682 364.478 58.3404 364.49C58.625 364.49 58.8602 364.502 59.0458 364.528V366.9C58.8602 366.876 58.656 366.864 58.4331 366.864C58.2229 366.851 58.0248 366.845 57.8392 366.845C57.406 366.845 57.109 366.913 56.9482 367.05C56.7872 367.172 56.7068 367.339 56.7068 367.55V367.735H58.8602V370.072H56.7068V377.563H53.848V370.072ZM64.6105 377.674C63.9917 377.674 63.4595 377.618 63.014 377.507C62.5685 377.383 62.2034 377.185 61.9187 376.913C61.6342 376.641 61.4238 376.289 61.2876 375.856C61.1515 375.412 61.0834 374.868 61.0834 374.224V370.072H59.8768V367.735H61.0834V365.51H63.9422V367.735H66.1883V370.072H63.9422V373.761C63.9422 374.318 64.0287 374.713 64.202 374.948C64.3877 375.183 64.7403 375.3 65.2601 375.3C65.6314 375.3 66.0028 375.281 66.374 375.245V377.582C66.1389 377.606 65.8913 377.624 65.6314 377.636C65.3716 377.662 65.0312 377.674 64.6105 377.674Z" fill="url(#paint26_linear_8337_2023)"/>
<path d="M144.247 397.819H14.7048C6.58357 397.819 0 404.395 0 412.507C0 420.62 6.58357 427.196 14.7048 427.196H144.247C152.369 427.196 158.952 420.62 158.952 412.507C158.952 404.395 152.369 397.819 144.247 397.819Z" fill="white"/>
<path d="M144.247 397.819H130.943C122.822 397.819 116.238 404.395 116.238 412.507C116.238 420.62 122.822 427.196 130.943 427.196H144.247C152.369 427.196 158.952 420.62 158.952 412.507C158.952 404.395 152.369 397.819 144.247 397.819Z" fill="url(#paint27_linear_8337_2023)"/>
<path d="M124.637 427.439C132.372 427.439 138.642 421.176 138.642 413.451C138.642 405.725 132.372 399.462 124.637 399.462C116.903 399.462 110.633 405.725 110.633 413.451C110.633 421.176 116.903 427.439 124.637 427.439Z" fill="url(#paint28_linear_8337_2023)" stroke="white" stroke-width="5.24172"/>
<path d="M25.8238 420.45C24.0046 420.45 22.6434 420.098 21.7399 419.394C20.8489 418.689 20.3848 417.726 20.3477 416.501H23.6891C23.7881 416.97 24.0046 417.317 24.3389 417.54C24.673 417.75 25.168 417.855 25.8238 417.855C27.2471 417.855 27.9587 417.459 27.9587 416.667C27.9587 416.409 27.8906 416.198 27.7544 416.038C27.6183 415.864 27.4203 415.716 27.1605 415.592C26.9005 415.457 26.5787 415.34 26.1952 415.24C25.8115 415.141 25.366 415.037 24.8586 414.925C24.215 414.777 23.6334 414.603 23.1136 414.406C22.6062 414.196 22.1731 413.929 21.8142 413.609C21.4677 413.287 21.1954 412.904 20.9974 412.459C20.8117 412.001 20.7189 411.458 20.7189 410.827C20.7189 410.221 20.8365 409.683 21.0717 409.214C21.3068 408.732 21.6471 408.33 22.0926 408.009C22.5382 407.675 23.0765 407.422 23.7077 407.248C24.3389 407.076 25.0442 406.989 25.8238 406.989C27.5317 406.989 28.8002 407.316 29.6293 407.971C30.4709 408.627 30.935 409.554 31.0216 410.753H27.6802C27.606 410.357 27.4265 410.066 27.1419 409.881C26.8573 409.683 26.4179 409.585 25.8238 409.585C25.168 409.585 24.7101 409.69 24.4501 409.9C24.1903 410.11 24.0603 410.383 24.0603 410.716C24.0603 411.174 24.2954 411.507 24.7658 411.717C25.2485 411.928 25.9415 412.119 26.8448 412.292C27.5132 412.428 28.1195 412.595 28.664 412.792C29.221 412.978 29.6912 413.231 30.0749 413.553C30.4709 413.863 30.7741 414.246 30.9845 414.702C31.1949 415.148 31.3001 415.697 31.3001 416.352C31.3001 417.639 30.8175 418.646 29.8522 419.375C28.8869 420.093 27.544 420.45 25.8238 420.45ZM39.1881 420.45C38.3342 420.45 37.5236 420.328 36.7562 420.079C35.9889 419.833 35.3144 419.443 34.7328 418.912C34.1636 418.367 33.7119 417.682 33.3777 416.853C33.0436 416.012 32.8765 414.999 32.8765 413.812V413.442C32.8765 412.304 33.0436 411.327 33.3777 410.512C33.7119 409.697 34.1636 409.028 34.7328 408.509C35.3144 407.99 35.9889 407.607 36.7562 407.36C37.5236 407.112 38.3342 406.989 39.1881 406.989C40.042 406.989 40.8526 407.112 41.6199 407.36C42.3871 407.607 43.0554 407.99 43.6247 408.509C44.2063 409.028 44.6642 409.697 44.9983 410.512C45.3326 411.327 45.4996 412.304 45.4996 413.442V413.812C45.4996 414.753 45.3882 415.58 45.1655 416.298C44.9551 417.014 44.6581 417.639 44.2744 418.17L45.314 419.189L43.7361 420.765L42.6036 419.654C42.1087 419.938 41.5703 420.142 40.9887 420.265C40.4195 420.389 39.8191 420.45 39.1881 420.45ZM39.1881 417.67C39.3985 417.67 39.6026 417.657 39.8007 417.632C40.011 417.595 40.2091 417.533 40.3946 417.447L38.6311 415.667L40.2091 414.091L41.8055 415.685C41.8797 415.438 41.9354 415.16 41.9726 414.851C42.022 414.542 42.0469 414.196 42.0469 413.812V413.442C42.0469 412.724 41.9664 412.132 41.8055 411.662C41.6446 411.179 41.4342 410.803 41.1744 410.531C40.9144 410.246 40.6112 410.049 40.2648 409.937C39.9183 409.826 39.5593 409.77 39.1881 409.77C38.8168 409.77 38.4579 409.826 38.1114 409.937C37.7648 410.049 37.4617 410.246 37.2018 410.531C36.9419 410.803 36.7315 411.179 36.5706 411.662C36.4097 412.132 36.3293 412.724 36.3293 413.442V413.812C36.3293 414.579 36.4097 415.209 36.5706 415.704C36.7315 416.198 36.9419 416.594 37.2018 416.89C37.4617 417.174 37.7648 417.379 38.1114 417.503C38.4579 417.613 38.8168 417.67 39.1881 417.67ZM47.6257 407.229H50.967V417.465H56.5361V420.21H47.6257V407.229Z" fill="url(#paint29_linear_8337_2023)"/>
<path d="M219.824 245.263C219.188 245.263 218.638 245.18 218.17 245.013C217.701 244.834 217.306 244.606 216.984 244.329C216.671 244.039 216.432 243.716 216.265 243.361C216.098 243.005 216.003 242.638 215.98 242.259H217.551C217.606 242.682 217.829 243.054 218.219 243.377C218.62 243.7 219.155 243.862 219.824 243.862C220.581 243.862 221.177 243.628 221.611 243.16C222.045 242.682 222.263 242.02 222.263 241.174C222.263 240.696 222.19 240.284 222.045 239.94C221.912 239.594 221.727 239.317 221.494 239.105C221.272 238.894 221.015 238.738 220.726 238.638C220.436 238.537 220.135 238.488 219.824 238.488C219.221 238.488 218.748 238.599 218.404 238.822C218.068 239.045 217.813 239.299 217.634 239.589H216.232V233.415H223.165V234.783H217.801V238.037C218.381 237.403 219.138 237.086 220.074 237.086C221.232 237.086 222.146 237.437 222.813 238.137C223.493 238.838 223.833 239.85 223.833 241.174C223.833 241.797 223.733 242.364 223.532 242.877C223.342 243.377 223.07 243.806 222.713 244.162C222.369 244.518 221.945 244.79 221.444 244.98C220.954 245.168 220.414 245.263 219.824 245.263ZM227.175 245.263C226.853 245.263 226.574 245.152 226.34 244.929C226.117 244.696 226.006 244.418 226.006 244.095C226.006 243.762 226.117 243.483 226.34 243.26C226.574 243.038 226.853 242.926 227.175 242.926C227.498 242.926 227.771 243.038 227.994 243.26C228.228 243.483 228.345 243.762 228.345 244.095C228.345 244.418 228.228 244.696 227.994 244.929C227.771 245.152 227.498 245.263 227.175 245.263ZM230.346 243.811L235.025 239.756C235.381 239.456 235.671 239.183 235.893 238.938C236.127 238.694 236.311 238.465 236.445 238.255C236.578 238.032 236.668 237.814 236.712 237.603C236.768 237.391 236.796 237.163 236.796 236.919C236.796 236.262 236.601 235.723 236.211 235.3C235.821 234.867 235.287 234.649 234.607 234.649C233.794 234.649 233.171 234.872 232.736 235.316C232.301 235.751 232.084 236.368 232.084 237.17H230.513C230.513 236.601 230.608 236.08 230.798 235.601C230.998 235.111 231.276 234.695 231.633 234.349C232 234.005 232.436 233.736 232.937 233.548C233.438 233.348 233.995 233.248 234.607 233.248C235.197 233.248 235.726 233.341 236.194 233.531C236.663 233.71 237.058 233.965 237.38 234.3C237.703 234.621 237.949 235.005 238.116 235.45C238.283 235.895 238.366 236.385 238.366 236.919C238.366 237.319 238.304 237.693 238.183 238.037C238.06 238.381 237.888 238.71 237.664 239.022C237.453 239.333 237.192 239.64 236.879 239.94C236.578 240.228 236.244 240.53 235.877 240.841L232.385 243.728H238.533V245.096H230.346V243.811ZM249.562 233.415H251.232L243.212 245.096H241.541L249.562 233.415ZM242.544 238.922C242.154 238.922 241.792 238.855 241.458 238.722C241.135 238.588 240.857 238.404 240.623 238.171C240.39 237.926 240.205 237.637 240.072 237.303C239.938 236.958 239.871 236.58 239.871 236.168V236.001C239.871 235.59 239.938 235.216 240.072 234.883C240.205 234.549 240.39 234.26 240.623 234.015C240.857 233.77 241.135 233.582 241.458 233.448C241.792 233.315 242.154 233.248 242.544 233.248C242.934 233.248 243.29 233.315 243.613 233.448C243.947 233.582 244.232 233.77 244.465 234.015C244.699 234.26 244.884 234.549 245.017 234.883C245.151 235.216 245.217 235.59 245.217 236.001V236.168C245.217 236.58 245.151 236.958 245.017 237.303C244.884 237.637 244.699 237.926 244.465 238.171C244.232 238.404 243.947 238.588 243.613 238.722C243.29 238.855 242.934 238.922 242.544 238.922ZM242.544 237.653C242.922 237.653 243.223 237.531 243.446 237.286C243.669 237.042 243.78 236.668 243.78 236.168V236.001C243.78 235.5 243.669 235.128 243.446 234.883C243.223 234.638 242.922 234.516 242.544 234.516C242.165 234.516 241.864 234.638 241.643 234.883C241.42 235.128 241.307 235.5 241.307 236.001V236.168C241.307 236.668 241.42 237.042 241.643 237.286C241.864 237.531 242.165 237.653 242.544 237.653ZM250.23 245.247C249.84 245.247 249.478 245.18 249.144 245.047C248.82 244.913 248.543 244.729 248.309 244.495C248.074 244.251 247.891 243.962 247.757 243.628C247.623 243.282 247.557 242.905 247.557 242.493V242.326C247.557 241.915 247.623 241.541 247.757 241.208C247.891 240.874 248.074 240.584 248.309 240.34C248.543 240.095 248.82 239.907 249.144 239.773C249.478 239.64 249.84 239.573 250.23 239.573C250.62 239.573 250.975 239.64 251.298 239.773C251.632 239.907 251.917 240.095 252.151 240.34C252.384 240.584 252.569 240.874 252.702 241.208C252.836 241.541 252.903 241.915 252.903 242.326V242.493C252.903 242.905 252.836 243.282 252.702 243.628C252.569 243.962 252.384 244.251 252.151 244.495C251.917 244.729 251.632 244.913 251.298 245.047C250.975 245.18 250.62 245.247 250.23 245.247ZM250.23 243.978C250.608 243.978 250.908 243.856 251.131 243.611C251.355 243.367 251.465 242.993 251.465 242.493V242.326C251.465 241.825 251.355 241.453 251.131 241.208C250.908 240.963 250.608 240.841 250.23 240.841C249.85 240.841 249.55 240.963 249.327 241.208C249.105 241.453 248.993 241.825 248.993 242.326V242.493C248.993 242.993 249.105 243.367 249.327 243.611C249.55 243.856 249.85 243.978 250.23 243.978Z" fill="#252525"/>
<path d="M189.727 286.459L194.403 282.404C194.76 282.104 195.05 281.832 195.273 281.586C195.507 281.342 195.69 281.114 195.825 280.902C195.958 280.68 196.047 280.463 196.092 280.252C196.147 280.04 196.175 279.812 196.175 279.567C196.175 278.911 195.98 278.372 195.59 277.949C195.201 277.515 194.665 277.298 193.987 277.298C193.173 277.298 192.549 277.52 192.115 277.965C191.681 278.4 191.463 279.016 191.463 279.818H189.894C189.894 279.25 189.988 278.727 190.177 278.249C190.377 277.759 190.656 277.342 191.013 276.997C191.38 276.653 191.815 276.385 192.315 276.197C192.816 275.997 193.374 275.896 193.987 275.896C194.577 275.896 195.106 275.99 195.574 276.179C196.041 276.358 196.437 276.613 196.76 276.947C197.083 277.27 197.328 277.654 197.495 278.098C197.662 278.544 197.746 279.034 197.746 279.567C197.746 279.968 197.684 280.34 197.561 280.686C197.439 281.03 197.266 281.358 197.043 281.67C196.832 281.981 196.57 282.288 196.259 282.588C195.958 282.877 195.623 283.178 195.256 283.489L191.764 286.377H197.913V287.744H189.727V286.459ZM201.255 287.911C200.932 287.911 200.654 287.8 200.42 287.578C200.197 287.344 200.086 287.066 200.086 286.744C200.086 286.41 200.197 286.131 200.42 285.908C200.654 285.687 200.932 285.575 201.255 285.575C201.578 285.575 201.851 285.687 202.074 285.908C202.308 286.131 202.425 286.41 202.425 286.744C202.425 287.066 202.308 287.344 202.074 287.578C201.851 287.8 201.578 287.911 201.255 287.911ZM210.04 284.925H204.093V283.723L209.873 276.063H211.611V283.556H213.114V284.925H211.611V287.744H210.04V284.925ZM210.04 283.556V277.898L205.762 283.556H210.04ZM224.147 276.063H225.817L217.797 287.744H216.128L224.147 276.063ZM217.129 281.57C216.739 281.57 216.377 281.503 216.043 281.37C215.72 281.237 215.442 281.052 215.208 280.819C214.975 280.575 214.79 280.285 214.657 279.952C214.523 279.606 214.456 279.228 214.456 278.816V278.649C214.456 278.238 214.523 277.865 214.657 277.531C214.79 277.197 214.975 276.908 215.208 276.664C215.442 276.418 215.72 276.23 216.043 276.097C216.377 275.963 216.739 275.896 217.129 275.896C217.52 275.896 217.876 275.963 218.199 276.097C218.533 276.23 218.817 276.418 219.05 276.664C219.284 276.908 219.469 277.197 219.602 277.531C219.736 277.865 219.803 278.238 219.803 278.649V278.816C219.803 279.228 219.736 279.606 219.602 279.952C219.469 280.285 219.284 280.575 219.05 280.819C218.817 281.052 218.533 281.237 218.199 281.37C217.876 281.503 217.52 281.57 217.129 281.57ZM217.129 280.301C217.509 280.301 217.809 280.18 218.031 279.934C218.254 279.69 218.366 279.316 218.366 278.816V278.649C218.366 278.149 218.254 277.777 218.031 277.531C217.809 277.287 217.509 277.164 217.129 277.164C216.751 277.164 216.451 277.287 216.228 277.531C216.005 277.777 215.894 278.149 215.894 278.649V278.816C215.894 279.316 216.005 279.69 216.228 279.934C216.451 280.18 216.751 280.301 217.129 280.301ZM224.815 287.895C224.425 287.895 224.063 287.828 223.729 287.695C223.405 287.562 223.128 287.377 222.894 287.144C222.66 286.898 222.476 286.61 222.342 286.277C222.208 285.931 222.142 285.553 222.142 285.141V284.974C222.142 284.563 222.208 284.19 222.342 283.856C222.476 283.522 222.66 283.233 222.894 282.989C223.128 282.743 223.405 282.555 223.729 282.422C224.063 282.288 224.425 282.22 224.815 282.22C225.205 282.22 225.561 282.288 225.883 282.422C226.219 282.555 226.502 282.743 226.736 282.989C226.969 283.233 227.154 283.522 227.287 283.856C227.421 284.19 227.488 284.563 227.488 284.974V285.141C227.488 285.553 227.421 285.931 227.287 286.277C227.154 286.61 226.969 286.898 226.736 287.144C226.502 287.377 226.219 287.562 225.883 287.695C225.561 287.828 225.205 287.895 224.815 287.895ZM224.815 286.626C225.194 286.626 225.495 286.503 225.716 286.259C225.94 286.015 226.052 285.641 226.052 285.141V284.974C226.052 284.474 225.94 284.102 225.716 283.856C225.495 283.612 225.194 283.489 224.815 283.489C224.437 283.489 224.135 283.612 223.913 283.856C223.69 284.102 223.579 284.474 223.579 284.974V285.141C223.579 285.641 223.69 286.015 223.913 286.259C224.135 286.503 224.437 286.626 224.815 286.626Z" fill="#252525"/>
<path d="M189.727 332.815L194.403 328.76C194.76 328.459 195.05 328.187 195.273 327.942C195.507 327.698 195.69 327.469 195.825 327.258C195.958 327.036 196.047 326.818 196.092 326.607C196.147 326.397 196.175 326.168 196.175 325.923C196.175 325.266 195.98 324.727 195.59 324.304C195.201 323.871 194.665 323.653 193.987 323.653C193.173 323.653 192.549 323.876 192.115 324.322C191.681 324.755 191.463 325.372 191.463 326.174H189.894C189.894 325.607 189.988 325.083 190.177 324.604C190.377 324.115 190.656 323.698 191.013 323.353C191.38 323.009 191.815 322.742 192.315 322.552C192.816 322.352 193.374 322.252 193.987 322.252C194.577 322.252 195.106 322.347 195.574 322.535C196.041 322.714 196.437 322.97 196.76 323.303C197.083 323.625 197.328 324.009 197.495 324.455C197.662 324.899 197.746 325.389 197.746 325.923C197.746 326.323 197.684 326.697 197.561 327.041C197.439 327.387 197.266 327.715 197.043 328.026C196.832 328.337 196.57 328.644 196.259 328.944C195.958 329.233 195.623 329.534 195.256 329.844L191.764 332.732H197.913V334.1H189.727V332.815ZM201.255 334.267C200.932 334.267 200.654 334.156 200.42 333.933C200.197 333.699 200.086 333.422 200.086 333.099C200.086 332.765 200.197 332.487 200.42 332.265C200.654 332.042 200.932 331.931 201.255 331.931C201.578 331.931 201.851 332.042 202.074 332.265C202.308 332.487 202.425 332.765 202.425 333.099C202.425 333.422 202.308 333.699 202.074 333.933C201.851 334.156 201.578 334.267 201.255 334.267ZM210.04 331.28H204.093V330.078L209.873 322.419H211.611V329.911H213.114V331.28H211.611V334.1H210.04V331.28ZM210.04 329.911V324.255L205.762 329.911H210.04ZM224.147 322.419H225.817L217.797 334.1H216.128L224.147 322.419ZM217.129 327.926C216.739 327.926 216.377 327.859 216.043 327.726C215.72 327.592 215.442 327.408 215.208 327.174C214.975 326.93 214.79 326.641 214.657 326.307C214.523 325.961 214.456 325.584 214.456 325.172V325.005C214.456 324.594 214.523 324.221 214.657 323.887C214.79 323.553 214.975 323.265 215.208 323.019C215.442 322.775 215.72 322.586 216.043 322.452C216.377 322.319 216.739 322.252 217.129 322.252C217.52 322.252 217.876 322.319 218.199 322.452C218.533 322.586 218.817 322.775 219.05 323.019C219.284 323.265 219.469 323.553 219.602 323.887C219.736 324.221 219.803 324.594 219.803 325.005V325.172C219.803 325.584 219.736 325.961 219.602 326.307C219.469 326.641 219.284 326.93 219.05 327.174C218.817 327.408 218.533 327.592 218.199 327.726C217.876 327.859 217.52 327.926 217.129 327.926ZM217.129 326.657C217.509 326.657 217.809 326.535 218.031 326.29C218.254 326.046 218.366 325.673 218.366 325.172V325.005C218.366 324.504 218.254 324.132 218.031 323.887C217.809 323.642 217.509 323.52 217.129 323.52C216.751 323.52 216.451 323.642 216.228 323.887C216.005 324.132 215.894 324.504 215.894 325.005V325.172C215.894 325.673 216.005 326.046 216.228 326.29C216.451 326.535 216.751 326.657 217.129 326.657ZM224.815 334.251C224.425 334.251 224.063 334.184 223.729 334.05C223.405 333.917 223.128 333.733 222.894 333.499C222.66 333.255 222.476 332.966 222.342 332.632C222.208 332.286 222.142 331.909 222.142 331.496V331.33C222.142 330.919 222.208 330.545 222.342 330.211C222.476 329.878 222.66 329.588 222.894 329.344C223.128 329.1 223.405 328.91 223.729 328.777C224.063 328.644 224.425 328.577 224.815 328.577C225.205 328.577 225.561 328.644 225.883 328.777C226.219 328.91 226.502 329.1 226.736 329.344C226.969 329.588 227.154 329.878 227.287 330.211C227.421 330.545 227.488 330.919 227.488 331.33V331.496C227.488 331.909 227.421 332.286 227.287 332.632C227.154 332.966 226.969 333.255 226.736 333.499C226.502 333.733 226.219 333.917 225.883 334.05C225.561 334.184 225.205 334.251 224.815 334.251ZM224.815 332.982C225.194 332.982 225.495 332.86 225.716 332.615C225.94 332.37 226.052 331.998 226.052 331.496V331.33C226.052 330.829 225.94 330.457 225.716 330.211C225.495 329.967 225.194 329.844 224.815 329.844C224.437 329.844 224.135 329.967 223.913 330.211C223.69 330.457 223.579 330.829 223.579 331.33V331.496C223.579 331.998 223.69 332.37 223.913 332.615C224.135 332.86 224.437 332.982 224.815 332.982Z" fill="#252525"/>
<path d="M178.078 375.379H180.869V366.784L178.078 368.771V367.068L180.902 365.065H182.472V375.379H184.762V376.748H178.078V375.379ZM187.774 376.914C187.451 376.914 187.173 376.802 186.939 376.581C186.716 376.347 186.605 376.068 186.605 375.745C186.605 375.412 186.716 375.134 186.939 374.912C187.173 374.689 187.451 374.578 187.774 374.578C188.097 374.578 188.37 374.689 188.593 374.912C188.827 375.134 188.944 375.412 188.944 375.745C188.944 376.068 188.827 376.347 188.593 376.581C188.37 376.802 188.097 376.914 187.774 376.914ZM196.826 366.434H190.611V365.065H198.464V366.35L194.286 376.748H192.616L196.826 366.434ZM209.327 365.065H210.998L202.979 376.748H201.308L209.327 365.065ZM202.311 370.572C201.921 370.572 201.559 370.505 201.225 370.372C200.902 370.239 200.624 370.056 200.389 369.822C200.155 369.577 199.972 369.287 199.838 368.954C199.705 368.609 199.638 368.23 199.638 367.819V367.653C199.638 367.24 199.705 366.868 199.838 366.534C199.972 366.201 200.155 365.911 200.389 365.667C200.624 365.421 200.902 365.232 201.225 365.099C201.559 364.965 201.921 364.898 202.311 364.898C202.701 364.898 203.056 364.965 203.38 365.099C203.714 365.232 203.998 365.421 204.232 365.667C204.466 365.911 204.65 366.201 204.784 366.534C204.917 366.868 204.984 367.24 204.984 367.653V367.819C204.984 368.23 204.917 368.609 204.784 368.954C204.65 369.287 204.466 369.577 204.232 369.822C203.998 370.056 203.714 370.239 203.38 370.372C203.056 370.505 202.701 370.572 202.311 370.572ZM202.311 369.305C202.689 369.305 202.99 369.182 203.213 368.938C203.436 368.692 203.547 368.32 203.547 367.819V367.653C203.547 367.152 203.436 366.779 203.213 366.534C202.99 366.289 202.689 366.167 202.311 366.167C201.932 366.167 201.631 366.289 201.408 366.534C201.186 366.779 201.074 367.152 201.074 367.653V367.819C201.074 368.32 201.186 368.692 201.408 368.938C201.631 369.182 201.932 369.305 202.311 369.305ZM209.996 376.897C209.606 376.897 209.244 376.83 208.91 376.697C208.587 376.563 208.309 376.381 208.074 376.147C207.84 375.902 207.657 375.612 207.524 375.278C207.39 374.934 207.323 374.555 207.323 374.144V373.977C207.323 373.565 207.39 373.193 207.524 372.859C207.657 372.526 207.84 372.236 208.074 371.991C208.309 371.746 208.587 371.557 208.91 371.423C209.244 371.29 209.606 371.223 209.996 371.223C210.385 371.223 210.742 371.29 211.065 371.423C211.399 371.557 211.683 371.746 211.917 371.991C212.151 372.236 212.335 372.526 212.469 372.859C212.603 373.193 212.669 373.565 212.669 373.977V374.144C212.669 374.555 212.603 374.934 212.469 375.278C212.335 375.612 212.151 375.902 211.917 376.147C211.683 376.381 211.399 376.563 211.065 376.697C210.742 376.83 210.385 376.897 209.996 376.897ZM209.996 375.629C210.374 375.629 210.675 375.507 210.898 375.262C211.121 375.017 211.232 374.645 211.232 374.144V373.977C211.232 373.477 211.121 373.103 210.898 372.859C210.675 372.614 210.374 372.492 209.996 372.492C209.617 372.492 209.316 372.614 209.093 372.859C208.871 373.103 208.759 373.477 208.759 373.977V374.144C208.759 374.645 208.871 375.017 209.093 375.262C209.316 375.507 209.617 375.629 209.996 375.629Z" fill="#252525"/>
<path d="M178.078 418.026H180.869V409.431L178.078 411.418V409.716L180.902 407.713H182.472V418.026H184.762V419.395H178.078V418.026ZM187.774 419.562C187.451 419.562 187.173 419.45 186.939 419.228C186.716 418.995 186.605 418.716 186.605 418.393C186.605 418.059 186.716 417.782 186.939 417.559C187.173 417.336 187.451 417.225 187.774 417.225C188.097 417.225 188.37 417.336 188.593 417.559C188.827 417.782 188.944 418.059 188.944 418.393C188.944 418.716 188.827 418.995 188.593 419.228C188.37 419.45 188.097 419.562 187.774 419.562ZM195.123 419.562C194.487 419.562 193.936 419.478 193.467 419.311C193 419.134 192.604 418.905 192.281 418.626C191.97 418.338 191.731 418.015 191.564 417.659C191.397 417.303 191.302 416.936 191.279 416.558H192.85C192.905 416.98 193.128 417.353 193.518 417.676C193.919 417.998 194.453 418.159 195.123 418.159C195.879 418.159 196.476 417.926 196.91 417.459C197.344 416.98 197.561 416.318 197.561 415.473C197.561 414.994 197.488 414.583 197.344 414.238C197.211 413.893 197.026 413.615 196.792 413.404C196.569 413.193 196.314 413.037 196.024 412.937C195.734 412.837 195.434 412.786 195.123 412.786C194.52 412.786 194.047 412.898 193.701 413.12C193.367 413.342 193.112 413.599 192.933 413.888H191.53V407.713H198.464V409.082H193.1V412.336C193.68 411.701 194.437 411.385 195.372 411.385C196.531 411.385 197.444 411.734 198.112 412.436C198.792 413.137 199.132 414.15 199.132 415.473C199.132 416.097 199.031 416.664 198.831 417.175C198.641 417.676 198.369 418.105 198.012 418.46C197.667 418.816 197.244 419.088 196.743 419.278C196.253 419.467 195.712 419.562 195.123 419.562ZM210.159 407.713H211.83L203.811 419.395H202.14L210.159 407.713ZM203.143 413.22C202.753 413.22 202.391 413.153 202.057 413.019C201.734 412.886 201.455 412.703 201.221 412.47C200.987 412.224 200.804 411.935 200.67 411.601C200.537 411.257 200.47 410.878 200.47 410.467V410.3C200.47 409.888 200.537 409.515 200.67 409.182C200.804 408.848 200.987 408.559 201.221 408.313C201.455 408.069 201.734 407.879 202.057 407.746C202.391 407.613 202.753 407.546 203.143 407.546C203.532 407.546 203.889 407.613 204.212 407.746C204.546 407.879 204.83 408.069 205.064 408.313C205.298 408.559 205.481 408.848 205.616 409.182C205.75 409.515 205.816 409.888 205.816 410.3V410.467C205.816 410.878 205.75 411.257 205.616 411.601C205.481 411.935 205.298 412.224 205.064 412.47C204.83 412.703 204.546 412.886 204.212 413.019C203.889 413.153 203.532 413.22 203.143 413.22ZM203.143 411.952C203.521 411.952 203.822 411.829 204.045 411.585C204.268 411.34 204.379 410.967 204.379 410.467V410.3C204.379 409.8 204.268 409.426 204.045 409.182C203.822 408.936 203.521 408.815 203.143 408.815C202.764 408.815 202.463 408.936 202.24 409.182C202.017 409.426 201.906 409.8 201.906 410.3V410.467C201.906 410.967 202.017 411.34 202.24 411.585C202.463 411.829 202.764 411.952 203.143 411.952ZM210.829 419.545C210.438 419.545 210.076 419.478 209.742 419.344C209.419 419.211 209.14 419.028 208.906 418.795C208.672 418.549 208.489 418.26 208.356 417.926C208.222 417.582 208.154 417.203 208.154 416.792V416.625C208.154 416.213 208.222 415.84 208.356 415.507C208.489 415.173 208.672 414.884 208.906 414.638C209.14 414.394 209.419 414.204 209.742 414.071C210.076 413.937 210.438 413.871 210.829 413.871C211.217 413.871 211.574 413.937 211.897 414.071C212.231 414.204 212.516 414.394 212.75 414.638C212.983 414.884 213.166 415.173 213.3 415.507C213.435 415.84 213.502 416.213 213.502 416.625V416.792C213.502 417.203 213.435 417.582 213.3 417.926C213.166 418.26 212.983 418.549 212.75 418.795C212.516 419.028 212.231 419.211 211.897 419.344C211.574 419.478 211.217 419.545 210.829 419.545ZM210.829 418.277C211.207 418.277 211.507 418.154 211.73 417.91C211.953 417.664 212.064 417.292 212.064 416.792V416.625C212.064 416.123 211.953 415.751 211.73 415.507C211.507 415.261 211.207 415.14 210.829 415.14C210.449 415.14 210.149 415.261 209.925 415.507C209.702 415.751 209.592 416.123 209.592 416.625V416.792C209.592 417.292 209.702 417.664 209.925 417.91C210.149 418.154 210.449 418.277 210.829 418.277Z" fill="#252525"/>
</g>
<defs>
<linearGradient id="paint0_linear_8337_2023" x1="97.7129" y1="4.48924" x2="294.982" y2="37.3652" gradientUnits="userSpaceOnUse">
<stop stop-color="#EE1365"/>
<stop offset="1" stop-color="#BB4E9A"/>
</linearGradient>
<linearGradient id="paint1_linear_8337_2023" x1="142.143" y1="7.42375" x2="107.15" y2="26.3416" gradientUnits="userSpaceOnUse">
<stop stop-color="#C93F8D"/>
<stop offset="1" stop-color="#ED1262"/>
</linearGradient>
<linearGradient id="paint2_linear_8337_2023" x1="14.8905" y1="6.34149" x2="77.6408" y2="32.2304" gradientUnits="userSpaceOnUse">
<stop stop-color="#E12272"/>
<stop offset="1" stop-color="#C34491"/>
</linearGradient>
<linearGradient id="paint3_linear_8337_2023" x1="102.004" y1="47.1338" x2="269.81" y2="70.738" gradientUnits="userSpaceOnUse">
<stop stop-color="#2740B6"/>
<stop offset="1" stop-color="#1584CB"/>
</linearGradient>
<linearGradient id="paint4_linear_8337_2023" x1="143.542" y1="50.0713" x2="108.548" y2="68.9892" gradientUnits="userSpaceOnUse">
<stop stop-color="#283EB6"/>
<stop offset="1" stop-color="#1884CE"/>
</linearGradient>
<linearGradient id="paint5_linear_8337_2023" x1="19.6987" y1="50.8432" x2="39.8318" y2="53.1506" gradientUnits="userSpaceOnUse">
<stop stop-color="#2253BC"/>
<stop offset="1" stop-color="#1878C7"/>
</linearGradient>
<linearGradient id="paint6_linear_8337_2023" x1="103.151" y1="91.6377" x2="244.418" y2="108.269" gradientUnits="userSpaceOnUse">
<stop stop-color="#5396E4"/>
<stop offset="1" stop-color="#37CFDC"/>
</linearGradient>
<linearGradient id="paint7_linear_8337_2023" x1="142.143" y1="96.2519" x2="107.15" y2="115.17" gradientUnits="userSpaceOnUse">
<stop stop-color="#5396E4"/>
<stop offset="1" stop-color="#37CEDC"/>
</linearGradient>
<linearGradient id="paint8_linear_8337_2023" x1="11.6177" y1="95.3452" x2="95.1971" y2="153.773" gradientUnits="userSpaceOnUse">
<stop stop-color="#2253BC"/>
<stop offset="1" stop-color="#1878C7"/>
</linearGradient>
<linearGradient id="paint9_linear_8337_2023" x1="104.766" y1="134.284" x2="228.997" y2="147.105" gradientUnits="userSpaceOnUse">
<stop stop-color="#4415C7"/>
<stop offset="1" stop-color="#C100D5"/>
</linearGradient>
<linearGradient id="paint10_linear_8337_2023" x1="142.143" y1="139.076" x2="107.15" y2="157.993" gradientUnits="userSpaceOnUse">
<stop stop-color="#4415C7"/>
<stop offset="1" stop-color="#AA04D2"/>
</linearGradient>
<linearGradient id="paint11_linear_8337_2023" x1="16.2009" y1="137.993" x2="64.9101" y2="152.506" gradientUnits="userSpaceOnUse">
<stop stop-color="#4415C7"/>
<stop offset="1" stop-color="#BE01D5"/>
</linearGradient>
<linearGradient id="paint12_linear_8337_2023" x1="107.103" y1="176.933" x2="221.401" y2="187.767" gradientUnits="userSpaceOnUse">
<stop stop-color="#C431D9"/>
<stop offset="1" stop-color="#14F5EE"/>
</linearGradient>
<linearGradient id="paint13_linear_8337_2023" x1="143.542" y1="181.722" x2="108.548" y2="200.641" gradientUnits="userSpaceOnUse">
<stop stop-color="#C431D9"/>
<stop offset="1" stop-color="#0FCAC4"/>
</linearGradient>
<linearGradient id="paint14_linear_8337_2023" x1="18.389" y1="180.64" x2="57.148" y2="189.525" gradientUnits="userSpaceOnUse">
<stop stop-color="#C431D9"/>
<stop offset="1" stop-color="#19F0EE"/>
</linearGradient>
<linearGradient id="paint15_linear_8337_2023" x1="105.701" y1="225.377" x2="219.998" y2="236.211" gradientUnits="userSpaceOnUse">
<stop stop-color="#D7510D"/>
<stop offset="1" stop-color="#FBC93E"/>
</linearGradient>
<linearGradient id="paint16_linear_8337_2023" x1="142.143" y1="228.312" x2="107.15" y2="247.229" gradientUnits="userSpaceOnUse">
<stop stop-color="#D3520C"/>
<stop offset="1" stop-color="#FDA810"/>
</linearGradient>
<linearGradient id="paint17_linear_8337_2023" x1="15.8078" y1="227.229" x2="69.077" y2="244.933" gradientUnits="userSpaceOnUse">
<stop stop-color="#CF4A0B"/>
<stop offset="1" stop-color="#FFCB43"/>
</linearGradient>
<linearGradient id="paint18_linear_8337_2023" x1="108.76" y1="268.023" x2="190.235" y2="273.505" gradientUnits="userSpaceOnUse">
<stop stop-color="#9382EA"/>
<stop offset="1" stop-color="#27DDD1"/>
</linearGradient>
<linearGradient id="paint19_linear_8337_2023" x1="142.143" y1="270.96" x2="107.15" y2="289.879" gradientUnits="userSpaceOnUse">
<stop stop-color="#9084EA"/>
<stop offset="1" stop-color="#22DED0"/>
</linearGradient>
<linearGradient id="paint20_linear_8337_2023" x1="10.3065" y1="271.732" x2="97.4403" y2="342.631" gradientUnits="userSpaceOnUse">
<stop stop-color="#8D85EA"/>
<stop offset="1" stop-color="#1BD9CD"/>
</linearGradient>
<linearGradient id="paint21_linear_8337_2023" x1="108.76" y1="312.524" x2="190.235" y2="318.005" gradientUnits="userSpaceOnUse">
<stop stop-color="#4717CD"/>
<stop offset="1" stop-color="#BB00D6"/>
</linearGradient>
<linearGradient id="paint22_linear_8337_2023" x1="142.143" y1="317.315" x2="107.15" y2="336.233" gradientUnits="userSpaceOnUse">
<stop stop-color="#4212C5"/>
<stop offset="1" stop-color="#BF01D3"/>
</linearGradient>
<linearGradient id="paint23_linear_8337_2023" x1="15.6778" y1="316.234" x2="70.4019" y2="335.048" gradientUnits="userSpaceOnUse">
<stop stop-color="#4313C9"/>
<stop offset="1" stop-color="#BC01D6"/>
</linearGradient>
<linearGradient id="paint24_linear_8337_2023" x1="110.205" y1="355.172" x2="176.043" y2="358.745" gradientUnits="userSpaceOnUse">
<stop stop-color="#FD28CE"/>
<stop offset="1" stop-color="#FC982C"/>
</linearGradient>
<linearGradient id="paint25_linear_8337_2023" x1="142.143" y1="359.962" x2="107.15" y2="378.881" gradientUnits="userSpaceOnUse">
<stop stop-color="#FF20E2"/>
<stop offset="1" stop-color="#FD8B3B"/>
</linearGradient>
<linearGradient id="paint26_linear_8337_2023" x1="14.8903" y1="358.882" x2="77.6407" y2="384.771" gradientUnits="userSpaceOnUse">
<stop stop-color="#FC28D5"/>
<stop offset="1" stop-color="#FF9B27"/>
</linearGradient>
<linearGradient id="paint27_linear_8337_2023" x1="111.055" y1="397.819" x2="167.663" y2="400.459" gradientUnits="userSpaceOnUse">
<stop stop-color="#2F3BB1"/>
<stop offset="1" stop-color="#A0CDFF"/>
</linearGradient>
<linearGradient id="paint28_linear_8337_2023" x1="142.143" y1="402.61" x2="107.15" y2="421.527" gradientUnits="userSpaceOnUse">
<stop stop-color="#313AB1"/>
<stop offset="1" stop-color="#93C5FA"/>
</linearGradient>
<linearGradient id="paint29_linear_8337_2023" x1="15.9381" y1="401.529" x2="67.7193" y2="418.144" gradientUnits="userSpaceOnUse">
<stop stop-color="#313AB1"/>
<stop offset="1" stop-color="#95C3FF"/>
</linearGradient>
<clipPath id="clip0_8337_2023">
<rect width="350" height="430" fill="white"/>
</clipPath>
</defs>
</svg>
