<svg width="20" height="20" viewBox="0 0 20 20" fill="none" xmlns="http://www.w3.org/2000/svg">
<g clip-path="url(#clip0_241_252)">
<mask id="mask0_241_252" style="mask-type:luminance" maskUnits="userSpaceOnUse" x="0" y="0" width="20" height="20">
<path d="M20 0H0V20H20V0Z" fill="white"/>
</mask>
<g mask="url(#mask0_241_252)">
<path d="M10.0009 13.6083C8.00924 13.6083 6.39258 11.9916 6.39258 9.99992C6.39258 8.00827 8.00924 6.3916 10.0009 6.3916C11.9926 6.3916 13.6092 8.00827 13.6092 9.99992C13.6092 11.9916 11.9926 13.6083 10.0009 13.6083ZM10.0009 7.6416C8.70089 7.6416 7.64258 8.69992 7.64258 9.99992C7.64258 11.2999 8.70089 12.3583 10.0009 12.3583C11.3009 12.3583 12.3592 11.2999 12.3592 9.99992C12.3592 8.69992 11.3009 7.6416 10.0009 7.6416Z" fill="#C3C3C3"/>
<path d="M10.0004 17.5171C6.86706 17.5171 3.90872 15.6838 1.87539 12.5004C0.992057 11.1254 0.992057 8.88375 1.87539 7.50039C3.91706 4.31706 6.87539 2.48373 10.0004 2.48373C13.1254 2.48373 16.0837 4.31706 18.1171 7.50039C19.0004 8.87542 19.0004 11.1171 18.1171 12.5004C16.0837 15.6838 13.1254 17.5171 10.0004 17.5171ZM10.0004 3.73373C7.30872 3.73373 4.73372 5.35039 2.93372 8.17539C2.30872 9.15042 2.30872 10.8504 2.93372 11.8254C4.73372 14.6504 7.30872 16.2671 10.0004 16.2671C12.6921 16.2671 15.2671 14.6504 17.0671 11.8254C17.6921 10.8504 17.6921 9.15042 17.0671 8.17539C15.2671 5.35039 12.6921 3.73373 10.0004 3.73373Z" fill="#C3C3C3"/>
</g>
</g>
<defs>
<clipPath id="clip0_241_252">
<rect width="20" height="20" fill="white"/>
</clipPath>
</defs>
</svg>
