<svg width="50" height="50" viewBox="0 0 50 50" fill="none" xmlns="http://www.w3.org/2000/svg">
<g clip-path="url(#clip0_104_80)">
<g clip-path="url(#clip1_104_80)">
<path d="M50.001 25.001C50.001 38.8081 38.8081 50.001 25.001 50.001C11.1939 50.001 0.000976562 38.8081 0.000976562 25.001C0.000976562 11.1939 11.1939 0.000976562 25.001 0.000976562C38.8081 0.000976562 50.001 11.1939 50.001 25.001Z" fill="#E3EBFF"/>
<path d="M31.251 24.7393C31.251 24.53 31.2128 24.3275 31.1365 24.1319C31.0601 23.9351 30.9584 23.7714 30.8311 23.6406L23.8082 16.4209C23.5283 16.1331 23.1721 15.9893 22.7395 15.9893C22.3069 15.9893 21.9507 16.1331 21.6708 16.4209C21.3909 16.7086 21.251 17.0748 21.251 17.5195C21.251 17.9642 21.3909 18.3304 21.6708 18.6182L27.625 24.7393L21.6708 30.8603C21.3909 31.1481 21.251 31.5143 21.251 31.959C21.251 32.4037 21.3909 32.7699 21.6708 33.0576C21.9507 33.3454 22.3069 33.4893 22.7395 33.4893C23.1721 33.4893 23.5283 33.3454 23.8082 33.0576L30.8311 25.8379C30.9838 25.6809 31.0917 25.5109 31.1548 25.3278C31.2189 25.1447 31.251 24.9485 31.251 24.7393Z" fill="#77787D"/>
</g>
</g>
<defs>
<clipPath id="clip0_104_80">
<rect width="50" height="50" fill="white"/>
</clipPath>
<clipPath id="clip1_104_80">
<rect width="50" height="50" fill="white"/>
</clipPath>
</defs>
</svg>
