<svg width="50" height="50" viewBox="0 0 50 50" fill="none" xmlns="http://www.w3.org/2000/svg">
<g clip-path="url(#clip0_104_74)">
<g clip-path="url(#clip1_104_74)">
<path d="M-0.000976562 25.001C-0.000976562 38.8081 11.1919 50.001 24.999 50.001C38.8061 50.001 49.999 38.8081 49.999 25.001C49.999 11.1939 38.8061 0.000976562 24.999 0.000976562C11.1919 0.000976562 -0.000976562 11.1939 -0.000976562 25.001Z" fill="#E3EBFF"/>
<path d="M18.749 24.7393C18.749 24.53 18.7872 24.3275 18.8635 24.1319C18.9399 23.9351 19.0416 23.7714 19.1689 23.6406L26.1918 16.4209C26.4717 16.1331 26.8279 15.9893 27.2605 15.9893C27.6931 15.9893 28.0493 16.1331 28.3292 16.4209C28.6091 16.7086 28.749 17.0748 28.749 17.5195C28.749 17.9642 28.6091 18.3304 28.3292 18.6182L22.375 24.7393L28.3292 30.8603C28.6091 31.1481 28.749 31.5143 28.749 31.959C28.749 32.4037 28.6091 32.7699 28.3292 33.0576C28.0493 33.3454 27.6931 33.4893 27.2605 33.4893C26.8279 33.4893 26.4717 33.3454 26.1918 33.0576L19.1689 25.8379C19.0162 25.6809 18.9083 25.5109 18.8452 25.3278C18.7811 25.1447 18.749 24.9485 18.749 24.7393Z" fill="#77787D"/>
</g>
</g>
<defs>
<clipPath id="clip0_104_74">
<rect width="50" height="50" fill="white" transform="matrix(-1 0 0 1 50 0)"/>
</clipPath>
<clipPath id="clip1_104_74">
<rect width="50" height="50" fill="white" transform="matrix(-1 0 0 1 50 0)"/>
</clipPath>
</defs>
</svg>
